<svg viewBox="0 0 303.12 486.5" xmlns="http://www.w3.org/2000/svg"><path d="m275.44 157.13q-8.74 61.87-17.5 123.64c-5.12 36.23-10.85 72.47-14.94 108.86-2.05 18.44-2.53 36.81-3.72 55.31-.82 12.9-8.38 20.59-20.12 25.14-14.28 5.54-30.33 7.72-45.49 9a225.64 225.64 0 0 1 -51.67-1.51 436.46 436.46 0 0 1 -49.3-10.17 27 27 0 0 1 -11.79-6.64l-1.78-.5a1.83 1.83 0 0 1 -.74-3 8.88 8.88 0 0 1 -.88-3.61c0-.05 0-.1 0-.15q-10-149-28.52-297.36c-.25-2.05 2.45-3 3.34-1.61a1.61 1.61 0 0 1 1.31 0c75.79 31.64 163.06 32.08 239.09.91 1.13-.44 2.93.15 2.71 1.69z" fill="#fcf0c9"/><path d="m173.66 438.47c-.15 4.31-5.12 7.63-11.11 7.42s-10.71-3.89-10.55-8.19 5.13-7.63 11.11-7.42 10.7 3.88 10.55 8.19z" fill="#543f2e"/><path d="m75.32 425a7.38 7.38 0 1 1 -8.06 7 7.6 7.6 0 0 1 8.06-7z" fill="#543f2e"/><ellipse cx="192.96" cy="456.15" fill="#d8c799" rx="11.61" ry="10.95" transform="matrix(.97591676 -.21814324 .21814324 .97591676 -94.83 53.06)"/><path d="m145 376c6.26-1.4 12.4 2.25 13.72 8.15s-2.72 11.85-8.99 13.19-12.4-2.25-13.72-8.15 2.68-11.81 8.99-13.19z" fill="#d8c799"/><path d="m154.68 450.47c6.26-1.4 12.4 2.25 13.72 8.15s-2.69 11.82-9 13.22-12.39-2.25-13.71-8.15 2.73-11.82 8.99-13.22z" fill="#92835c"/><path d="m97.22 450.3c6.26-1.4 12.4 2.25 13.72 8.15s-2.69 11.82-9 13.21-12.39-2.25-13.71-8.15 2.77-11.82 8.99-13.21z" fill="#92835c"/><path d="m224.26 378.3a7.38 7.38 0 1 1 -8.07 7.08 7.59 7.59 0 0 1 8.07-7.08z" fill="#d8c799"/><path d="m71.19 408.12a7.38 7.38 0 1 1 -8.06 7.08 7.6 7.6 0 0 1 8.06-7.08z" fill="#d8c799"/><path d="m266.09 182.74c-6.87 11.12-1.33 26.45-2.69 38.76-.75 6.63-2.95 12.41-5.31 18.61-2.71 7.12-1.87 13.09-2 20.55-.27 14-7.87 26-10 39.63-1.07 6.89.08 13.94.14 20.86a45.74 45.74 0 0 1 -4.4 20.41c-4 8.48-17.77 3.39-17.09-5.28.49-6.3-2.95-12-5.09-17.72a34.55 34.55 0 0 1 -1.37-21.24c1.7-7 2.34-11 .27-18-2-6.65-4.47-13-4.9-20a28.81 28.81 0 0 1 4.94-17.89c2.5-3.76 7.71-7.62 9-12.06a11.07 11.07 0 0 0 .17-1.5 19.42 19.42 0 0 1 -4.52 1.76 21.26 21.26 0 0 1 -15.49-.71c-5.22-2.31-9-6.3-13.52-9.66-5.13-3.8-9.46-2.51-15.49-1.77-14.46 1.78-28.05-5.76-42.3-3.64-7.14 1.07-13.81 3.86-20.1 7.28-5.61 3.05-10.78 6.8-17.39 7.1-10.62.48-17-7.31-24.43-13.54-4.19-3.52-5.73-3-11-2-6.16 1.13-12 .83-17.24-2.92-10-7.17-8.76-18.61-10.93-29.1-4.21-.86-8.21-4.93-7.6-9.42.25-1.87.5-3.75.76-5.62 1-7.12 7.66-11.06 14.21-7.51 8.21 4.46 16.43 8.9 25.45 11.49 8.54 2.47 16.9 1.84 25.65 1.32a81.46 81.46 0 0 1 27 2.92 72.72 72.72 0 0 0 26.82 2.65c9.28-.85 18.34-2 27.64-.83 8.94 1.12 17.66 3.28 26.7 3.51 18.53.47 36.61-5.18 54.16-10.44 7.95-2.36 14 7.47 9.95 14z" fill="#e8b778" opacity=".65"/><path d="m253.57 278.17c-.26.78-.55 1.55-.85 2.32-3.27 7.58-10.48 13.16-17.19 18.73 1.87-12.77-3.39-22.48-14.56-28.68a163.79 163.79 0 0 0 -22.83-10.85 27.43 27.43 0 0 0 1.46-3.54c1.89-3.38 3.79-6.78 5.69-10.16 2.77-4.92 5.58-10.07 9.67-14 4.53-4.39 10.5-4.88 15.41-8.37 3.78-2.67 5.27-6.61 6.1-11 1-5.06 1.78-9 4.25-12.64.41-.53.8-1.06 1.2-1.59a24.11 24.11 0 0 1 2.23-2.36c7.54-7 17-12.71 17.28-24.08.06-2.2-1.84-3.35-3.8-3.11a9.18 9.18 0 0 0 -7.3 4.72 2.85 2.85 0 0 0 -.39 2.4 3.22 3.22 0 0 0 -3 1.93 103.14 103.14 0 0 1 -8.45 15.08 25.86 25.86 0 0 0 -3.4 3.83 18.4 18.4 0 0 0 -1.83 3.2c-2.1 2.56-4.3 5-6.64 7.36-7.53 7.55-17.49 12.66-24.34 20.81-6.32 7.5-5.44 16.79-8.3 25.38l-2.29 4.1c-12.51-3.48-25.26-3.52-34.12 5.84-2.74 2.9-3.66 7.36-6.09 10.31.22-3.78.55-7.55.6-11.33.07-6.11-.94-12.09-1.79-18.12a111.66 111.66 0 0 1 -.72-20.76c.57-12.82 1.64-25.62-2.3-38.05a3.29 3.29 0 0 0 -4.91-1.7c-2.46-1.31-6.1 1.18-4.27 4 8.63 13.37 5.11 28.16 1.39 43-8.05-6.5-19.76-4.1-29.44-1.61-13 3.36-23.56-8.79-36.77-8.74a27.68 27.68 0 0 0 -3.75.42c-1.1-10.4-1.2-20.54-5.81-30.33a54.55 54.55 0 0 0 -20.17-22.66 3 3 0 0 0 -1.76-.5c-.91-2-1.09-4.51-.12-7.76 1.13-3.82-4.76-5.67-5.9-1.85a18.87 18.87 0 0 0 .74 13.53c1.71 3.67 5.48 6 8.29 8.87a8.81 8.81 0 0 0 -2-.32c-5.42-.19-8.9 4-9.58 8.93-3.86 28.42 4.57 57.68 9.91 85.41q2.05 10.62 4.08 21.21c1.31 6.77 2.1 13.89 4.64 20.32 4.43 11.27 15.65 17 27.39 17.28 12.77.3 24.61-5.69 37.39-5.46 9.57.15 19 2 28.57 2.64-.11.59-.2 1.18-.31 1.77a3.16 3.16 0 0 0 .11 1.69 3.05 3.05 0 0 0 -.21 3.18c.77 1.41 1.52 2.83 2.27 4.24a3.08 3.08 0 0 0 5.54-2.7 3 3 0 0 0 3-2 35.58 35.58 0 0 0 1.67-6.13 54.36 54.36 0 0 0 14.16-2.78c6.26-2.21 11.76-5.83 17.86-8.36 5.26-2.2 7.92-1.9 12.68 1.12 3.7 2.36 7.58 4.49 11.8 5.08-.62 1.08-1.23 2.17-1.81 3.27a2.41 2.41 0 0 0 -1.69 2.69v.58c-.92 1.84-1.81 3.72-2.65 5.63a2.51 2.51 0 0 0 1.32 3.47c-2.71 7.58-9 13.67-15.28 19-7.94 6.66-15.92 13-20.82 22.31-2.28 4.32-4 8.91-6 13.35-2.49 5.41-5.9 10.1-9 15.13-4.92 8-7.84 16.79-3.72 25.71 1.12 2.41 5 1.94 5.67-.54a248.06 248.06 0 0 1 8.57-25.28c3.36-8.31 6.66-16.25 14.14-21.68 5.63-4.07 12.2-6.93 17.21-11.88 5.19-5.15 8-11.86 10.32-18.64 2.86-8.22 5.57-16.49 8.35-24.72a62.41 62.41 0 0 1 3.64-9.37c4-1.63 6.8-4.8 8.77-8.61 1.24-.8 2.49-1.57 3.72-2.41a65.86 65.86 0 0 0 24-30.78c.32-.78.61-1.58.88-2.41 1.26-3.94-4.51-5.73-5.81-1.98zm-196.08-57.6c-2-1.73-1.53-5.72-.77-9.14a38.14 38.14 0 0 1 3.08 10.12 4.71 4.71 0 0 1 -2.31-.98z" fill="#5e1500" opacity=".54"/><path d="m122.49 465.37c-.72 4.87-2.93 9-7.95 10.2a3.12 3.12 0 0 1 -3.73-2.28q-3.06-21-6.12-42c-.92-6.35-1.41-13.15-5.55-18.36-3.27-4.12-7.51-7.41-10.91-11.44a124.73 124.73 0 0 1 -12.36-18 21.57 21.57 0 0 1 -4-6.95l-2.38-4.3c-6.49-11.73-12.73-23.73-18.86-35.75-1.82-3.53 3.62-6.45 5.43-2.92l1.56 3a2.69 2.69 0 0 1 2.35.46c11.54 8.24 12.76 22.26 16.79 34.79.24.71.47 1.4.72 2.06 1 1.72 1.92 3.42 2.91 5.12a10 10 0 0 0 6.72 3.13c3.23.35 6.5.21 9.69.89 6.5 1.39 11.87 5.57 15.73 10.87 9.45 13 8.32 31.16 9.14 46.41.43 8.14 2 17.02.82 25.07z" fill="#f9d38a"/><path d="m246.66 360.21a16.64 16.64 0 0 0 -2.39 4.33 2.61 2.61 0 0 1 -.59 2.07l-.13.18c-1.39 5.26-1.07 11.07-2.33 16.44-1.93 8.28-7.34 15-10.6 22.75-.14.75-.27 1.48-.44 2.23a31.14 31.14 0 0 1 -2.08 6.2c-2.58 13.59.4 28.12-7.11 40.7-1.34 2.22-5.13 1.66-5.62-.94-1.47-7.66-2.94-15.65-1.39-23.41 1.38-7 6-12.37 8.59-18.77a42.73 42.73 0 0 1 2.1-7.65c1.23-6.7 1.5-13.59 3.25-20.21a58 58 0 0 1 10-20.11 20.69 20.69 0 0 1 3.5-7.11c2.43-3.13 7.66.15 5.24 3.3z" fill="#f9d38a"/><path d="m268.39 205.34a3.21 3.21 0 0 0 -4.55-3.05 52.33 52.33 0 0 1 -14 4.62c-3.78.64-7.94.35-11.58 1.72s-5.58 5-9.87 5.13c-3.81.13-7.57-1.69-11.45-1.65-7.73.09-14.55 5-22.26 4.91-7.53 0-14-3.5-21.07.77a55.39 55.39 0 0 0 -4.69 3.7c-1.85-.1-3.61-.47-5.52.22a9.68 9.68 0 0 0 -2.52 1.42c-2.58-.77-5-2.35-7.57-3-6.57-1.8-10.46 2-15.77 4.89a9.78 9.78 0 0 0 -4.57 1.5l-1.69.9c-8.41 2-17.54.31-25.78 3.14a7.09 7.09 0 0 0 -1.16-.07c-3.37.1-5.49 2-5.81 5.33-.29 2.95 3.24 3.79 5.19 2.36a15.88 15.88 0 0 1 1.44-.92 22.59 22.59 0 0 0 5.43 4.7c2.18 1.28 4.38-.21 4.74-2.5.25-1.68 1.48-2.6 3.08-3.12a2.74 2.74 0 0 0 1.34 1.43c3.75 2 8.78 3 8.08 8-.31 2.2-1.55 3.94-1 6.27.47 2.11 2.08 3.29 3.4 4.78-.06.53-.13 1.06-.22 1.63-.49 3-.92 5.91-.21 8.89a15 15 0 0 0 .49 1.65c-.08.27-.16.54-.23.81a17.59 17.59 0 0 0 -.64 7.82 14.27 14.27 0 0 0 2.72 5.17 54 54 0 0 0 -1.16 5.82 20 20 0 0 0 1.25 9.51c.25.69.57 1.43.9 2.2l-1.26 12c-.3 2.91 3.26 3.86 5.19 2.37 3.8-2.94 4.54-7.74 3.42-12.23a28.84 28.84 0 0 0 -1-3.22c.11-1 .21-2 .32-3.06.37-3.5 1.18-7.28.45-10.8a13.5 13.5 0 0 0 -1.64-4c.13-.71.25-1.43.33-2.14a17.63 17.63 0 0 0 -.84-8c-.43-1.19-.8-2.26-1.1-3.28a23.76 23.76 0 0 0 1.46-6.05 12.2 12.2 0 0 0 -1.61-7.46 21.64 21.64 0 0 0 -.19-6.11 18.47 18.47 0 0 0 -.46-1.85c1.43-3.73 3.25-7.53 6.34-10.18a13.1 13.1 0 0 1 1.37-1l4.83 8.62a4.14 4.14 0 0 0 -.13.63c-.21 3 1.31 6.22 4.68 6.41 2.89.16 5.4-2.27 6-5a8.24 8.24 0 0 0 -.59-4.67c-.1-.25-.37-.75-.67-1.35a12.66 12.66 0 0 1 2.51-5.18 11.35 11.35 0 0 1 .87-.82 85.74 85.74 0 0 0 9.2-2.4c.43 1.75-.1 5.43-.11 5.9a12.62 12.62 0 0 0 .57 4.77 13.1 13.1 0 0 0 1.85 3.13c.6 1.61 1.34 3.1 1.74 4.63.06 2.51-.92 5.15-1.66 7.44-1.09 3.39 3.61 5.43 5.56 2.58 2.92-4.27 4.32-8.38 2.05-13.25-1.41-3-2.43-4.83-2.27-8.46.12-2.6.47-5.22.8-7.82a2.65 2.65 0 0 0 2.44.34 84.87 84.87 0 0 1 11.66-2.68c2.87 2 1.36 7.26.66 10a3.12 3.12 0 0 0 3.66 3.93 7.06 7.06 0 0 0 5.27-5.78 10.82 10.82 0 0 0 -.09-4.28c-.16-.82-2-6.1-.16-5.95a2.7 2.7 0 0 0 2.29-.81 13.07 13.07 0 0 0 2.49-.8c1.57-.69 2.9-1.33 4.21-1.89a3 3 0 0 0 1.43 3.45 29.14 29.14 0 0 0 .91 6.05c-.82 3.4-2 6.83-2.07 8.7-.22 6.38.91 12.83.91 19.24 0 14.07-.8 28.17-1.25 42.24q-.31 9.64-.6 19.29c0 1-.09 2-.1 3-.61 19.49-1.28 39-2.46 58.45-.17 2.89 4.34 4.6 5.7 1.76 5.81-12.12 5.58-24.93 4.38-38.06-.63-6.9-1.44-13.81-1.45-20.75l.09-2.95c.42-6.74 2.17-13.14 2.89-19.87.87-8-2-15.15.32-23.1 1.82-6.34 2.4-11.19 1.46-17.72a21.07 21.07 0 0 1 1.63-12.85c.94-2.19 1.75-4.24 1.44-6.68s-1.83-4.39-3-6.52a22.14 22.14 0 0 1 -1.77-4.34 28.1 28.1 0 0 0 .61-6 32 32 0 0 0 4.09-.77 36.8 36.8 0 0 0 4.48-1.5c1-.41 3.76-2.27 5-2.57-.33.27 4.55 1.26 4.56 1.27a3.32 3.32 0 0 0 .4.14c-.09.1-.13.4.2 1.18.88 2.09.7 5.36 1 7.61.37 3.07 5.21 3 5.95.21 1.09-4.14 1.64-9.19 4.26-12.59a10 10 0 0 1 2.14-2c-.64 5.27-3 10.16-3.79 15.49a18.35 18.35 0 0 0 .52 8.07c1 3.19 3.16 6.05 2.81 9.35-.19.7-.38 1.39-.55 2.07-1 3.93 4.31 5.44 5.89 1.85a10.37 10.37 0 0 0 .82-3.09c1.57-5.82 3.35-11.86 3.78-17.79.35-4.74-3.56-10.81-3.32-15.7 0-.25.06-.51.08-.76a6.56 6.56 0 0 1 .71-2.15c.9-.18 1.8-.34 2.7-.49a2.56 2.56 0 0 0 2.3-2.56c.91-.47 1.82-.93 2.71-1.44a3 3 0 0 0 1.01-4.38zm-139.08 30.47-.87-.52c.4-.08.79-.16 1.18-.27a7.61 7.61 0 0 0 -.31.79zm7.92-3a3.28 3.28 0 0 0 -.39-.77 6.39 6.39 0 0 1 1.39-.2c-.34.34-.68.67-1 1zm118 5.13a12.85 12.85 0 0 1 -.36-3.58 24.64 24.64 0 0 1 .73-4.78 29.09 29.09 0 0 1 -.35 8.42z" fill="#d2872b"/><path d="m99.62 215.3c-1.38-6.8-7.89-14.93-15.1-15.51a31.92 31.92 0 0 0 -6.25.53c-3.82.43-6.34-.62-9.92-1.4a12.68 12.68 0 0 0 -9.65 1.46c-1.41.81-2.63 1.91-4 2.84-2.52 1.76-5.23 2.53-8 3.5a7.36 7.36 0 0 0 -4 .3c-2.48 1-4.25 3-5.75 5.19a3.31 3.31 0 0 0 -.73 1.08l-.06.17a3.79 3.79 0 0 0 -.18.42c-1.51 3.67-2.81 7.58-1.74 11.57a27.37 27.37 0 0 0 1.76 3.93 43.37 43.37 0 0 0 .26 5 29.92 29.92 0 0 0 1.74 7.19c-.07 5-.08 12.28 4.26 14.06 5.17 2.13 6.16-4.79 5.18-8.24a59.16 59.16 0 0 0 -3.27-7.73 45.93 45.93 0 0 0 -.25-5.38 22.8 22.8 0 0 0 -1.73-6.36c.11-3.33.55-6.66 1-9.93a2.78 2.78 0 0 0 -.22-1.54 9.28 9.28 0 0 1 3.03-2.79c1.34 0 2.76.52 4.45.51a16.85 16.85 0 0 0 -.23 3.5c.27 5.69 1.16 10.69.58 16.45-.49 4.81-.39 9.1 2 13.42 1.91 3.48 7.36.57 5.44-2.93-3.28-6-.28-13.08-.74-19.51-.28-3.79-1-7.87-.33-11.16.8 2 4 3.09 5.56.7a18.89 18.89 0 0 1 3.47-4l.89 3.11a3.41 3.41 0 0 0 .91 3.25l1.08 3.77c.49 1.71 2.74 3.23 4.46 2a14.49 14.49 0 0 0 5.46-7.35 3.14 3.14 0 0 0 1.78-.24c2 1.39 3.62 3.11 3.63 5.71a3.12 3.12 0 0 0 5.19 2.37 1 1 0 0 1 .82-.16 3.05 3.05 0 0 0 4.28.73 6.78 6.78 0 0 0 2.36-1.12 7.21 7.21 0 0 0 2.56-7.41z" fill="#92450f"/><circle cx="170.77" cy="399.64" fill="#422f1f" r="10.84" transform="matrix(.42040247 -.90733773 .90733773 .42040247 -263.63 386.56)"/><path d="m133.72 426.35a10.84 10.84 0 1 1 -10.45-11.22 10.84 10.84 0 0 1 10.45 11.22z" fill="#422f1f"/><path d="m225.53 412.28a10.85 10.85 0 1 1 -10.46-11.22 10.85 10.85 0 0 1 10.46 11.22z" fill="#422f1f"/><path d="m170.52 364.2c84.68 18.07-5.13 7.64-11.12 7.43s-10.71-3.88-10.56-8.19 5.16-7.63 11.16-7.44 6.3 7.3 10.52 8.2z" fill="#543f2e"/><path d="m128.77 403.1c-.15 4.31-5.12 7.63-11.11 7.42s-10.71-3.87-10.56-8.18 5.13-7.64 11.11-7.42 10.72 3.87 10.56 8.18z" fill="#543f2e"/><path d="m164.31 346.41a18.5 18.5 0 0 0 -9.29-7.8c-5.81-2.1-11.4.5-17.27-.45-5.46-.9-10.26-3.94-15.42-5.74s-10.28-1.83-15.75-1.57c-7.2.35-11.62-.61-16.83-6a19.91 19.91 0 0 0 -11.6-6.05c-2.75-.48-5.72-.58-8.22-1.92-3.09-1.66-4.52-4.68-6.86-7.15-3.11-3.29-6.8-4.89-11.29-4a3 3 0 0 0 -1.37.64l-.21-.18a3.21 3.21 0 0 0 -.76-2.57l-.5-.57a3.05 3.05 0 0 0 -3-.9l-.63.15a3.19 3.19 0 0 0 -2.26 3.7 6.72 6.72 0 0 0 2.44 4.23 2.44 2.44 0 0 0 -.37 2.55 17.17 17.17 0 0 0 7.44 9.41 16.51 16.51 0 0 0 3.74 1.59 19.82 19.82 0 0 1 .32 5.77 18.14 18.14 0 0 0 -.51 2.93c-.3 4.26 1.89 7.68 3 11.67a37.55 37.55 0 0 1 .58 16.44 3.09 3.09 0 0 0 2.16 3.06c4.47 1.3 5.75-3 6.16-6.56.85-7.44-.25-13-3.27-19.71-1.29-2.89-1.47-6.06-1.65-9.21a22.24 22.24 0 0 0 .41-4.24 2.67 2.67 0 0 1 1 .13c2.75 1.23 2.48 7.53 5.44 9.49s5.68-.29 8.77-.5a3.06 3.06 0 0 0 1 1.24c1.09.78 1.59 2.41 2.32 3.5a8.9 8.9 0 0 0 1.53 1.75c1 4.27.48 8.42-.32 13.45a16.63 16.63 0 0 0 1.32 9.24 12.92 12.92 0 0 0 2.15 7.6l.6 1c.57 5.48-2.17 10.93-1.47 16.53.35 2.89 1.75 5.51 2.24 8.36.77 4.55-.68 9-2.09 13.31-1 3 2.8 5.22 5 3.18 4.41-4 5.54-9.41 5.22-15.19-.24-4.5-.86-8.81-.51-13.33.24-3.11.65-6.2.09-9.31a15.72 15.72 0 0 0 -2.56-5.86 31.29 31.29 0 0 0 -2.26-6c-.13-3 1.11-5.85 1.74-9.31a24.11 24.11 0 0 0 -1.41-13.45l.91-.64c1.7 3 4.58 6.1 8.08 6.1a4.63 4.63 0 0 0 4.36-3.1c.18-.48.77-2.52.15-2.16.26-.15.35-.07.37 0a3.37 3.37 0 0 0 .47.66l1.44 16.9c.18 2.09 2.36 4.25 4.55 2.83a8.86 8.86 0 0 0 4.29-8.14 3.11 3.11 0 0 0 0-1.49 4.12 4.12 0 0 1 2.48-4.72 2.77 2.77 0 0 0 3.47.6c.13.34.48.88.56 1.08a11.4 11.4 0 0 0 1.56 2.87 6 6 0 0 0 5.3 2.31 5 5 0 0 0 3.82-2.76 7.89 7.89 0 0 0 .74-2.26 3 3 0 0 0 2 .21c1-.2 2.17 1.08 2.87 1.6a10.89 10.89 0 0 0 2.71 1.5c-1 8.79 1.91 18.85 3 27.21.41 3.05 5.21 3 6 .21 1.27-4.82 2.57-9.77 2.58-14.79a26.25 26.25 0 0 0 -.61-6.13c-.51-2.16-1.82-4.34-2.24-6.59a10.37 10.37 0 0 1 4.13 1 3.18 3.18 0 0 0 4.26-1 3 3 0 0 0 .41-1.17c.32.18.63.36.93.56 2.52 1.65 6.11-1.39 4.42-4.04z" fill="#d2872b"/><circle cx="179.32" cy="418.17" fill="#372614" r="15.44" transform="matrix(.52264737 -.85254896 .85254896 .52264737 -270.91 352.52)"/><circle cx="145.23" cy="411.3" fill="#372614" r="15.44" transform="matrix(.15884737 -.98730315 .98730315 .15884737 -283.92 489.36)"/><circle cx="90.52" cy="444.15" fill="#372614" r="15.44" transform="matrix(.73159172 -.68174303 .68174303 .73159172 -278.49 180.91)"/><path d="m133.17 447.77a15.44 15.44 0 1 1 -14.89-16 15.45 15.45 0 0 1 14.89 16z" fill="#372614"/><circle cx="139.64" cy="454.3" fill="#372614" r="15.44" transform="matrix(.33 -.94 .94 .33 -335.34 437.66)"/><path d="m194 459.64a15.44 15.44 0 1 1 -14.88-16 15.44 15.44 0 0 1 14.88 16z" fill="#372614"/><circle cx="96.83" cy="411.54" fill="#372614" r="15.44" transform="matrix(.73159172 -.68174303 .68174303 .73159172 -254.56 176.46)"/><path d="m214 442.65a15.44 15.44 0 1 1 -14.89-16 15.45 15.45 0 0 1 14.89 16z" fill="#372614"/><path d="m238.21 444a15.44 15.44 0 1 1 -14.89-16 15.43 15.43 0 0 1 14.89 16z" fill="#372614"/><path d="m271.84 202.87c-.73 2.57-4.21 2.72-5.53.77-1.79 3.89-1.71 8.57-2 12.91-.35 5-1.09 9.64-3.34 14.14-.93 1.87-3.58 1.72-4.86.45-8.47-8.33-7.37-20.59-11.8-30.78a26 26 0 0 0 -6.22 6.64c-1.38 2.1-4 1.68-5.33-.19-1.77-2.52-2.82-12.22-8.13-6.6-1.73 1.84-1 7.33-2.35 9.75-2.63 4.76-8.66 4.42-11.83.36-2.16-2.74-1.94-5.93-2.39-9.17-.79-5.62-4-3.92-6-.4-1 1.84-1.31 4.34-1.76 6.37-1.37 6.42-2.36 12.62-7.52 17.14a3.12 3.12 0 0 1 -5.11-1.54c-1.92-6.67-3.54-14.4-6.74-20.6-2.27-4.35-4-3.83-8.3-2.75-2.78.71-5.57 1.56-8.39 2.12-2.67.52-5.3 0-7.92.59s-4.73 2.14-7.39 2.57c-2 .33-4.45-.54-6.35-.05-2.78.73-3.38 3-4.86 5.11-2.19 3-5.84 3.15-8.8 1.22-1.83-1.2-2.34-3.21-3.79-4.57-6.13-5.75-6.59 5-6.94 9q-2 21.52-3.91 43a3.11 3.11 0 0 1 -5.79 1.36c-9.54-15.17-8.34-33.25-6.82-50.36.19-2.29.4-4.58.6-6.86.3-3.61-.49-4.9-3.69-6.45-4.46-2.14-8.57-4.18-13.46-5.24-3.3-.71-28.62-7.49-29.2-3.28-.27 1.93-2 3.54-4 2.85-1.66-.57-6.29-5.64-6.64-5.54-1.67.42-3.62 7.51-4.3 9.34-1 2.7-1.84 5.45-2.63 8.21s-5.49 2.85-6-.21q-2.54-16.92-3.66-34a3.06 3.06 0 0 1 -1.63-2.64c-.16-3.6-.3-7.21-.46-10.81-.1-2.2 2.21-3.19 4-2.85 10 2 19.52-13.95 28.89-10.08 9.69 4 19.41-3.44 29.71-1.42 21.4 4.18 45.09-2.81 66.82-2.58 21.91.21 47.91 11.38 69.72 9 18.81-2 29.49-8.72 48.63-.76 13 5.41 11.09 10 11.09 12.75.1 15.5-9.46 29.21-13.62 44.08z" fill="#eae8e9"/><path d="m177 221.6a100 100 0 0 1 -16.64 3.12 3.18 3.18 0 0 0 -2.23 1.17 3.4 3.4 0 0 0 -5.13 2.31c-.18 1.28-6.87-.23-8.3-.14-.32 0-.63.05-.94.09a13.85 13.85 0 0 0 -6.75.95 9.87 9.87 0 0 0 -8.41 4.09 2.55 2.55 0 0 0 .85 4 14.85 14.85 0 0 0 -.72 6.37 2.27 2.27 0 0 0 .81 1.49 3.21 3.21 0 0 0 -.23 1.63c1.52 13.55 5.32 28.8 2.68 42.35-.76 3.86 5.13 5.74 5.89 1.85 2.88-14.76-.9-30.88-2.56-45.64a2.64 2.64 0 0 0 -.7-1.58 4.13 4.13 0 0 0 .11-1.53 7.19 7.19 0 0 1 3.75-7 17.18 17.18 0 0 0 3.83-.17 11.86 11.86 0 0 1 5.82-.4 17.77 17.77 0 0 0 3.87.44 7.27 7.27 0 0 0 6.58-4.38 2.68 2.68 0 0 0 1.61.31 109.18 109.18 0 0 0 18.3-3.28c3.81-1.08 2.4-7.1-1.49-6.05z" fill="#93400e"/><path d="m221.07 251.51c-.27-2.77-1-5.43-1.37-8.17-.59-3.9.34-7.58.22-11.47-.14-4.74-1.9-8.8-5.95-11.36-3.37-2.12-6.67 3.1-3.3 5.22 5.43 3.43 2.18 11.87 2.72 17 .63 6 1.82 11.82 2 18a270.38 270.38 0 0 1 -1.52 37.53c-.42 3.95 5.75 4.15 6.17.22 1.68-15.48 2.51-31.43 1.03-46.97z" fill="#93400e"/><path d="m93.19 211.65c-2.79-2.64-4.08-6.28-8.29-7-3.47-.55-6.4 1.09-8.89 3.27a8.29 8.29 0 0 0 -4.6-1.86c-4-.37-4.78 2.16-7.74 3.54-2.62 1.22-5.33-2.05-8.66-1.85-2.1.13-12.07 4.22-10.5 6.89-1.1-1.86-4.18-2.34-5.33-.19-5.64 10.57-3.69 22-1.08 33.21.9 3.87 6.92 2.45 6-1.43-2-8.54-4.07-17.77-.78-26.13 3-.32 6.39-3.6 9-4.86a7.38 7.38 0 0 1 1-.4 2.84 2.84 0 0 0 -.08.42q-.57 5.85-1.12 11.7c-.37 4 5.8 4.16 6.17.22q.54-5.56 1.06-11.13a7.4 7.4 0 0 0 3.63.83c2.63-.14 8.14-6.42 10.14-3 .95 1.61 3.41 2.31 4.83.8 2.75-2.92 4-4.91 8.34-1.64.9.68 1.54 2 2.39 2.8 2.87 2.74 7.41-1.45 4.51-4.19z" fill="#d2872b"/><path d="m69.05 318.33c-4.71-5.54-11.82-7-18.66-8.14-3.91-.65-4.09 5.53-.22 6.17 5.22.88 10.78 2 14.36 6.18 2.58 3.04 7.09-1.18 4.52-4.21z" fill="#491000"/><path d="m300.4 118.71a1.27 1.27 0 0 0 -1.9-.71 1 1 0 0 0 -.32-.19 1.11 1.11 0 0 0 -.76-1.54c-4.22-1.12-8.45-2.15-12.7-3.13a253.86 253.86 0 0 0 -6.4-41.4 1.15 1.15 0 0 0 -.58-.77 1 1 0 0 0 -.54-1.25c-17-8.52-35.76-10.67-54.39-12.8-21.85-2.5-43.71-5.4-65.64-7.14-20.52-1.63-41-1.55-61.37 1.61-20.71 3.21-40.93 8.98-60.8 15.66-7.56 2.54-14.26 4.13-16.24 12.74-2.54 11.1-3.52 22.79-5.21 34.05a1.07 1.07 0 0 0 0 .51c-3.16 1-6.3 2.05-9.42 3.17a1.33 1.33 0 0 0 -.83 1.6 1.25 1.25 0 0 0 -.54.89l-2.76 23.28a1.24 1.24 0 0 0 1.5 1.24 1.21 1.21 0 0 0 .73.7 58.88 58.88 0 0 0 10.86 2.77h.13l.25.11a7.61 7.61 0 0 0 .35.7 1.19 1.19 0 0 0 2 .16h.09a76 76 0 0 0 1.81 11.1c.59 2.42 1.81 4.95 4.24 4.71.33 7.9.87 15.79 1.68 23.65.44 4.23-.12 11 4.8 12.74a1.05 1.05 0 0 0 .86 0l22.61 231.76c.15 1.56 2.62 1.66 2.47.08q-11.38-116.62-22.76-233.25a1190.71 1190.71 0 0 1 241.93 4q-14.62 108-29.27 216a1 1 0 0 0 .52 1.06c-.7.85-.29 1-.67 2.22-1 3.43-3.4 3.85-6.67 5.36a182.5 182.5 0 0 1 -22.6 8.62 187 187 0 0 1 -45.69 7.92c-1.58.08-1.68 2.55-.09 2.47a189.76 189.76 0 0 0 48.48-8.65 185.83 185.83 0 0 0 21.07-8.19c.74-.34 1.75-.7 2.79-1.12-.1 3.76-.37 7.49-.77 11.21a1.1 1.1 0 0 0 -1.09.05 172.48 172.48 0 0 1 -88.56 23.91c-31.3 0-63.51-1.54-92.84-13.46l-.12-.93a.49.49 0 0 0 .33.21l9.81 2.18c.77.18 1.14-1 .37-1.17l-9.81-2.19a.66.66 0 0 0 -.77.46c-.28-2.17-.54-4.34-.73-6.52a.57.57 0 0 0 .21.13 231.09 231.09 0 0 0 52.8 12.7c.79.1.83-1.14 0-1.23a230.07 230.07 0 0 1 -52.47-12.64.53.53 0 0 0 -.65.19c-.19-2.3-.34-4.61-.42-6.93a1.05 1.05 0 0 0 -.05-.19c4.88 4.76 12 5.41 18.42 6.77 9.16 1.94 18.36 3.76 27.65 5 19.81 2.65 39.73 1.71 59.62.62 1.57-.09 1.67-2.55.08-2.47-17.45.95-35 1.9-52.42.22a272 272 0 0 1 -27.01-4.26c-7.53-1.52-18.94-2-24.61-7.73a1.26 1.26 0 0 0 -2.12 1.07 1.17 1.17 0 0 0 -2 .88 156.7 156.7 0 0 0 1.73 17.67 1.13 1.13 0 0 0 1.9.63l.19.07a1.19 1.19 0 0 0 -.3.7c-.46 5.52-.29 11.14 5 14.18 4.25 2.46 9.81 3.43 14.5 4.86 5.22 1.58 10.47 3.08 15.76 4.45 20.17 5.23 41 8.75 61.85 8.56 18.41-.17 36.94-3.2 54.1-10 8.14-3.23 16.74-7.18 23.64-12.67 5.28-4.2 6.84-9.66 7.38-15.84a1.33 1.33 0 0 0 2.31-.66 136 136 0 0 0 1.65-18.46 1.21 1.21 0 0 0 -.09-.52 6.29 6.29 0 0 0 2.08-1.6c.83-1.12.28-3.84.85-4.45a1.27 1.27 0 0 0 -.22-1.92 1.23 1.23 0 0 0 .22-.55q14.56-107.89 29.18-215.78a1 1 0 0 0 .77-.62 9.09 9.09 0 0 0 2.83 0 1.25 1.25 0 0 0 .94-1.16l3.66-35.17c.17-1.58-2.3-1.67-2.47-.09l-1.83 17.59-.85 8.2c-.17 1.64.42 9.58-3.42 7.55a1.31 1.31 0 0 0 -1.89 1 1189.87 1189.87 0 0 0 -242.58-3.94 1.3 1.3 0 0 0 -1.19 1.2 1 1 0 0 0 -.64.35c-.06 0-.1-.07-.17-.1-4.24-1.46-3.59-15.53-3.84-18.67-.46-5.57-.76-11.15-1-16.74q129.23-4.8 258.49 2.46a1.17 1.17 0 0 0 1.19-1.51 1.05 1.05 0 0 0 .46.45c3.24 1.63 6-.2 7.13-3.5 2-5.83 2.21-12.88 3.07-19.06a61.94 61.94 0 0 0 7.09.17 1.27 1.27 0 0 0 1.28-1.19 71.46 71.46 0 0 0 -2.63-22.51zm-65.16 338.29c-2.33 4.21-6.55 6.65-10.58 9a120.64 120.64 0 0 1 -22.49 10.31 151.12 151.12 0 0 1 -47.26 7.69c-17.54.17-35-2.31-52.11-6.23-8-1.83-15.88-4-23.72-6.33-3.94-1.19-8.59-2-12.26-3.86-3.33-1.67-6.48-4.19-6.79-8.18a31.6 31.6 0 0 1 .18-4.86c29.4 11.26 61.75 12.75 92.92 12.52a174 174 0 0 0 84.56-22.51c-.17 4.28-.36 8.66-2.45 12.45zm-216.33-362c1-6.89.59-17.68 7-21.89 4.24-2.8 10.45-3.92 15.26-5.48q8.83-2.91 17.83-5.47c23.23-6.58 47-11 71.23-11 24.49-.09 48.86 3.28 73.14 6.06s50.36 3.52 72.55 14.63a1.43 1.43 0 0 0 0 .5 247.85 247.85 0 0 1 6.3 40.25c-33.12-7.42-67-10.84-100.9-12.48-37.75-1.82-75.88-2.43-113.44 2.43a311.52 311.52 0 0 0 -51.76 11.07q1.39-9.34 2.79-18.62zm272.92 49.56c-.14 1.74-.54 3.51-.81 5.23-.33 2.14-1.19 14.93-5.21 12.91a1.34 1.34 0 0 0 -1.91 1.3 1.09 1.09 0 0 0 -1-.63q-129.2-7.27-258.66-2.45a1.22 1.22 0 0 0 -1.08.71 1.13 1.13 0 0 0 -1.24.67c-2.35.91-4.05-20.53-4.11-22a1.47 1.47 0 0 0 -.06-.42.87.87 0 0 0 .23 0 587.18 587.18 0 0 1 61.66-7.3 1.27 1.27 0 0 0 2-.13c68.67-4.41 137.88 1.67 206.36 7.82a1.38 1.38 0 0 0 .42 0 1.08 1.08 0 0 0 .8.86l1.09.31a1.28 1.28 0 0 0 .78.43h.4c.51.4.51 1.02.34 2.68zm.85-5-2.76-.8a1.14 1.14 0 0 0 -.78 0 1.2 1.2 0 0 0 -1.1-1l-11.3-1a1.22 1.22 0 0 0 .14-.53l.38-10.7a1.24 1.24 0 0 0 -2.47-.08l-.38 10.69a1.09 1.09 0 0 0 .07.42q-12.92-1.12-25.84-2.2a1.16 1.16 0 0 0 .32-.76l.23-6.58a1.24 1.24 0 0 0 -2.47-.09l-.23 6.58a1.15 1.15 0 0 0 .2.69c-3.6-.29-7.19-.61-10.79-.89a1.14 1.14 0 0 0 .67-1q.88-9.84 1.78-19.69c.14-1.59-2.33-1.67-2.47-.09q-.88 9.84-1.78 19.7a1 1 0 0 0 .39.95c-2.38-.18-4.76-.38-7.14-.55a1.24 1.24 0 0 0 .23-1 49.9 49.9 0 0 1 -.32-12.86c.16-1.58-2.31-1.67-2.47-.09a52.77 52.77 0 0 0 .39 13.52 1 1 0 0 0 .08.24c-5.37-.4-10.74-.79-16.12-1.14a1.07 1.07 0 0 0 .32-1.12 19.14 19.14 0 0 1 -.45-7.93c.24-1.57-2.23-1.65-2.46-.09a20.76 20.76 0 0 0 .5 8.59 1.45 1.45 0 0 0 .22.43l-6.15-.4a1.23 1.23 0 0 0 .17-.57l.35-9.88a1.24 1.24 0 0 0 -2.47-.08l-.35 9.87a1.28 1.28 0 0 0 .09.53c-18.79-1.12-37.59-1.9-56.38-2.14a.93.93 0 0 0 .05-.34l-.75-9.16c-.13-1.56-2.6-1.67-2.47-.09l.75 9.16a1.09 1.09 0 0 0 .12.41c-6.5-.06-13-.07-19.5 0a1.13 1.13 0 0 0 .06-.32l-.48-13.19c0-1.58-2.52-1.68-2.47-.09l.48 13.19a1.42 1.42 0 0 0 .1.44l-5.11.07c-.2-3.52-.41-7-.61-10.58-.1-1.57-2.57-1.68-2.47-.09q.3 5.37.62 10.72l-3.14.07a1.12 1.12 0 0 0 .6-1 47.94 47.94 0 0 0 -.62-10.22c-.26-1.57-2.67-1-2.41.57a44.4 44.4 0 0 1 .56 9.56 1.09 1.09 0 0 0 .65 1.1q-12.39.36-24.75 1.14-.17-12.27-.32-24.54c0-1.58-2.49-1.68-2.47-.09q.17 12.4.32 24.79c-11.27.98-22.56 1.98-33.81 3.34a1.39 1.39 0 0 0 0-.3c-.29-3.59-.59-7.19-.88-10.78-.13-1.57-2.6-1.67-2.47-.09.29 3.6.59 7.19.88 10.79a1.27 1.27 0 0 0 .27.65c-2.09.27-4.17.53-6.25.82a44.45 44.45 0 0 1 -.24-11.58c.18-1.58-2.29-1.66-2.47-.08a46.8 46.8 0 0 0 .28 12c-2.16.31-4.32.62-6.48 1l-.48-13.19c-.06-1.57-2.53-1.67-2.47-.08q.24 6.82.5 13.67c-2 .32-4 .63-6 1a1.2 1.2 0 0 0 0-.33 48.31 48.31 0 0 1 -.18-12.88c.18-1.57-2.29-1.65-2.47-.08a50.67 50.67 0 0 0 .25 13.53 1 1 0 0 0 .06.16 1.07 1.07 0 0 0 -.76 1.48 8 8 0 0 0 -5.23 1.5 1 1 0 0 0 -.65 0l-2.62 1a26.5 26.5 0 0 0 -5.4.3l2.65-21.77a1 1 0 0 0 0-.35c27.24-9.73 55.58-14.69 84.22-16.92l.33 22.76c0 1.58 2.49 1.68 2.47.09l-.33-23c18.49-1.34 37.1-1.58 55.62-1.24 37.91.7 76.08 2.84 113.46 9.43a1.11 1.11 0 0 0 -.6 1l-.49 14a1.24 1.24 0 0 0 2.47.08l.49-14a1.12 1.12 0 0 0 -.26-.77q15 2.69 29.72 6.4l-.51 14.34a1.24 1.24 0 0 0 2.47.08l.49-13.8 1.69.43a1.5 1.5 0 0 0 -.07.27l-.37 10.69a1.23 1.23 0 0 0 2.46.09l.26-7.26a69.46 69.46 0 0 1 1.82 17.56 61.76 61.76 0 0 1 -7.96-.43z"/><path d="m9.5 125.2-.5 13.17a1.24 1.24 0 0 0 2.47.09l.53-13.17a1.24 1.24 0 0 0 -2.5-.09z"/><path d="m52.8 116.83c-.14-1.57-2.61-1.67-2.47-.09l1.17 13.26c.14 1.57 2.61 1.67 2.47.09z"/><path d="m63.54 111.12a1.23 1.23 0 0 0 -2.4.57 29.1 29.1 0 0 1 .39 9.58c-.2 1.58 2.27 1.66 2.46.09a30.64 30.64 0 0 0 -.45-10.24z"/><path d="m68.59 108.34-.34 9.88a1.23 1.23 0 0 0 2.46.08l.35-9.87a1.24 1.24 0 0 0 -2.47-.09z"/><path d="m99.22 104.48-.44 12.34a1.24 1.24 0 0 0 2.47.09l.43-12.34a1.23 1.23 0 0 0 -2.46-.09z"/><path d="m127.13 107.11-.66 18.89a1.24 1.24 0 0 0 2.47.09l.66-18.93a1.24 1.24 0 0 0 -2.47-.05z"/><path d="m135.88 111.55c0-1.58-2.51-1.68-2.47-.09q.21 7.83.43 15.66c0 1.58 2.51 1.68 2.47.09q-.23-7.83-.43-15.66z"/><path d="m147.36 117.71-.29 8.23a1.24 1.24 0 0 0 2.47.09l.29-8.23a1.24 1.24 0 0 0 -2.47-.09z"/><path d="m164.2 105.13c0-1.58-2.49-1.68-2.47-.09l.33 21.42c0 1.59 2.49 1.68 2.47.09z"/><path d="m170 107c0-1.59-2.51-1.68-2.47-.09l.63 20.64c.05 1.58 2.51 1.68 2.47.08z"/><path d="m175.2 108.77c-.12-1.57-2.59-1.67-2.47-.09a98.35 98.35 0 0 1 -.21 17.33c-.15 1.58 2.32 1.66 2.47.09a99.32 99.32 0 0 0 .21-17.33z"/><path d="m178.89 111.41-.44 12.34a1.24 1.24 0 0 0 2.47.09l.44-12.34a1.24 1.24 0 0 0 -2.47-.09z"/><path d="m188.56 117.52-.32 9a1.24 1.24 0 0 0 2.47.09l.32-9a1.24 1.24 0 0 0 -2.47-.09z"/><path d="m196 118.26a1.23 1.23 0 0 0 -2.4.57 26.39 26.39 0 0 1 .32 9.58c-.23 1.57 2.24 1.65 2.47.09a28.21 28.21 0 0 0 -.39-10.24z"/><path d="m214.78 121.74-.29 8.23a1.23 1.23 0 0 0 2.46.09l.29-8.23a1.23 1.23 0 0 0 -2.46-.09z"/><path d="m240.43 118.53-.43 13.16a1.23 1.23 0 0 0 2.46.09l.47-13.17a1.24 1.24 0 0 0 -2.5-.08z"/><path d="m252.51 126.37-.14 4.11a1.23 1.23 0 0 0 2.46.09l.15-4.11a1.24 1.24 0 0 0 -2.47-.09z"/><path d="m266.14 113.67-.38 10.69a1.24 1.24 0 0 0 2.47.09l.38-10.7a1.24 1.24 0 0 0 -2.47-.08z"/><path d="m272.83 114.74q-.69 5.33-1.37 10.65c-.2 1.57 2.27 1.65 2.47.08q.69-5.32 1.37-10.64c.2-1.58-2.3-1.66-2.47-.09z"/><path d="m280.27 128.15-1 7.38c-.22 1.58 2.25 1.65 2.47.09l1.05-7.38c.21-1.57-2.3-1.65-2.52-.09z"/><path d="m286.41 128.08q-.62 3.67-1.25 7.35c-.26 1.54 2.09 2.3 2.36.74.42-2.45.83-4.9 1.25-7.35.23-1.55-2.09-2.3-2.36-.74z"/><path d="m45.54 208.52c-.21-1.57-2.61-1-2.41.57q3.81 28.88 5.29 58c.08 1.57 2.55 1.68 2.47.09q-1.51-29.45-5.35-58.66z"/><path d="m56.7 255.62c-.12-1.57-2.59-1.68-2.47-.09q1.14 15.46 2.29 30.94c.12 1.57 2.59 1.68 2.47.09q-1.16-15.46-2.29-30.94z"/><path d="m246 283.3c0-1.58-2.47-1.68-2.47-.08a615.68 615.68 0 0 1 -4.19 70.91c-.19 1.58 2.28 1.65 2.47.08a615.42 615.42 0 0 0 4.19-70.91z"/><path d="m237 350.33c-.12-1.57-2.59-1.67-2.47-.09a94.75 94.75 0 0 1 -.93 22.82c-.26 1.57 2.21 1.64 2.47.09a94.77 94.77 0 0 0 .93-22.82z"/><path d="m210.48 445.43a226.29 226.29 0 0 1 -69.8 7.36.62.62 0 0 0 0 1.23 227.23 227.23 0 0 0 70.13-7.39c.72-.2.44-1.41-.33-1.2z"/><path d="m198 453.47a79.37 79.37 0 0 1 -12.87 1.17c-.8 0-.84 1.24 0 1.23a81.31 81.31 0 0 0 13.21-1.2c.66-.13.41-1.34-.34-1.2z"/><path d="m151.13 471.4a98.08 98.08 0 0 1 -12.36.32.62.62 0 0 0 0 1.23 98.07 98.07 0 0 0 12.36-.31c.74-.07.79-1.31 0-1.24z"/><path d="m148.54 475.12-5.55-.2a.62.62 0 0 0 -.05 1.24l5.56.19a.62.62 0 0 0 .04-1.23z"/><path d="m122.76 67.7a241.38 241.38 0 0 0 -78.37 6.69.62.62 0 0 0 .29 1.21 240.13 240.13 0 0 1 78-6.67c.82.07.87-1.17.08-1.23z"/><path d="m255 67.51q-38.24-2.48-76.57-2c-.79 0-.84 1.24 0 1.23q38.31-.5 76.56 2c.76.06.8-1.18.01-1.23z"/><path d="m82.17 167.77-53.27 2.6c-.79 0-.84 1.27 0 1.23l53.23-2.6c.79 0 .87-1.27.04-1.23z"/><path d="m63.3 175.06-29.74 2.81c-.78.08-.84 1.31-.05 1.24l29.74-2.82c.75-.07.84-1.29.05-1.23z"/><path d="m278.1 183.21a287.5 287.5 0 0 0 -43.23-.38c-.79 0-.84 1.29-.05 1.23a286.31 286.31 0 0 1 43.24.39c.79.06.83-1.17.04-1.24z"/><path d="m277.85 190.5-22.22-.79a.62.62 0 0 0 0 1.24l22.21.78a.62.62 0 0 0 .01-1.23z"/><path d="m209.24 172.55-68 1c-.79 0-.84 1.24-.05 1.23l68-1c.81 0 .81-1.24.05-1.23z"/><path d="m283.31 148.32a36.59 36.59 0 0 0 -14-1.24c-.79.08-.5 1.29.28 1.21a34.81 34.81 0 0 1 13.31 1.21.62.62 0 0 0 .41-1.18z"/><path d="m287.84 152.54-8.64-.31a.62.62 0 0 0 0 1.24l8.64.3a.62.62 0 0 0 0-1.23z"/><g fill="#fff"><path d="m218.68 259c-8.77.22-17.53.78-26.31.88s-17.72-.28-26.59-.18c-17.82.21-35.61 1.23-53.4 2.11-10 .5-20.06.94-30.09 1.19a.66.66 0 0 0 0 1.31c17.79-.44 35.56-1.53 53.33-2.35 8.9-.41 17.81-.75 26.72-.91s17.75.11 26.64.14c9.91 0 19.8-.63 29.71-.89a.65.65 0 0 0 -.01-1.3z"/><path d="m217.56 303.13c-.85-.91-2.87-.71-4-.71-2.85 0-5.72.3-8.56.58-5.55.56-11.06 1.37-16.6 2-11.16 1.31-22.41 1.49-33.63 1.61s-22.71.25-34.06.52a128.29 128.29 0 0 0 -16.27 1.25c-4.82.74-10 1.93-14.88 1-.82-.15-1.14 1.12-.32 1.27 3.9.73 7.94.11 11.82-.46a130.79 130.79 0 0 1 13.38-1.55c11-.52 22.14-.53 33.19-.67s22-.12 32.89-.93c6.48-.49 12.9-1.44 19.36-2.2 3.48-.41 7-.8 10.46-1 1.34-.09 2.7-.16 4-.13.53 0 1.83-.1 2.24.35.66.63 1.56-.32.98-.93z"/><path d="m115.8 293.13c-.54-3-1.86-6.37-4.33-8.11 2.27-1.87 3.18-5.63 2.63-8.38a7.56 7.56 0 0 0 -.42-1.35 8.58 8.58 0 0 0 -1.3-2.41c-1.32-1.72-3.75-3.5-6-3.06-2.51.48-3.46 3.06-3.53 5.33-.12 3.83.3 7.75.46 11.59s.16 7.89.54 11.8c.22 2.34.67 5.63 3.25 6.53 2.35.82 4.9-.56 6.28-2.46l.17-.25c2.39-2.05 2.77-6.36 2.25-9.23zm-8.67-19.32a6.52 6.52 0 0 1 .73 9.36q-.36-4.68-.73-9.36zm4.47 26.68c-1.92 1.58-2.5-1.7-2.63-3.25q-.42-5.17-.82-10.35c3.12 3.32 5.85 9.28 3.45 13.6z"/><path d="m148 290.35c-.54-3-1.87-6.37-4.33-8.12 2.26-1.87 3.17-5.63 2.62-8.37a7.9 7.9 0 0 0 -.41-1.36 8.58 8.58 0 0 0 -1.3-2.41c-1.32-1.71-3.75-3.49-6.05-3-2.51.47-3.45 3-3.52 5.32-.12 3.84.3 7.76.46 11.59s.16 7.89.53 11.8c.23 2.34.67 5.63 3.25 6.53 2.36.83 4.91-.56 6.28-2.45.06-.09.12-.17.17-.26 2.46-2.1 2.84-6.37 2.3-9.27zm-8.64-19.35a6.51 6.51 0 0 1 .72 9.35zm4.46 26.68c-1.92 1.57-2.5-1.71-2.62-3.25-.29-3.45-.55-6.9-.82-10.35 3.11 3.35 5.81 9.31 3.44 13.63z"/><path d="m163 289.32c-.54-3-1.86-6.38-4.33-8.12 2.27-1.87 3.18-5.63 2.63-8.37a8.27 8.27 0 0 0 -.41-1.36 8.61 8.61 0 0 0 -1.31-2.41c-1.32-1.72-3.75-3.49-6-3.06-2.51.48-3.46 3.06-3.53 5.33-.12 3.83.3 7.75.46 11.59s.16 7.89.54 11.8c.22 2.34.67 5.63 3.25 6.53 2.35.83 4.9-.56 6.28-2.45l.17-.26c2.37-2.05 2.75-6.32 2.25-9.22zm-8.69-19.32a6.5 6.5 0 0 1 .73 9.35q-.36-4.68-.73-9.35zm4.47 26.68c-1.92 1.57-2.5-1.71-2.63-3.26q-.42-5.16-.82-10.34c3.12 3.32 5.82 9.28 3.45 13.6z"/><path d="m131.82 291q-.16-5.52-.78-11c-.19-1.69-.41-3.38-.66-5.06-.16-1.1-.12-2.83-1-3.62-.51-1.17-2.58-1-2.49.53q.47 7.23.67 14.46c.07 2.41.11 4.83.13 7.24v3.41c0 .59.23 2.65-.33 3.08s-1.38-.37-1.67-.75a4.39 4.39 0 0 1 -.53-1.37 18.12 18.12 0 0 1 -.46-2.95c-.28-2.44-.52-4.88-.75-7.32-.48-5-.85-10.07-1.15-15.11a1.27 1.27 0 0 0 -1.29-1.22 1.16 1.16 0 0 0 -.41-.13l-2.4-.35a1.33 1.33 0 0 0 -1.62 1.3c0 6.95-.46 14 .52 20.94.64 4.52 2.62 11.57 8.64 10.69s5.76-8.34 5.58-12.77z"/><path d="m177.57 294.65a19.66 19.66 0 0 1 -4.57.35 170.77 170.77 0 0 0 .14-18.1c-.11-2.42.21-5.69-.74-7.94a2.44 2.44 0 0 0 -3.18-1.44 1.23 1.23 0 0 0 -1.15 1.28q.19 11.21.38 22.41c0 1.84.05 3.67.1 5.5 0 1.18 0 2.34.93 3.18a4.57 4.57 0 0 0 3.15.79 46.86 46.86 0 0 0 5.43-.21 1.32 1.32 0 0 0 1.27-1.33c0-1.11-.05-2.21-.08-3.32a1.32 1.32 0 0 0 -1.68-1.17z"/><path d="m192.8 295.9a2.53 2.53 0 0 0 -1.05-3.21 5 5 0 0 0 -2.88-.43l-2.3.15q.17-3.36.18-6.72c1.19 0 2.36.15 3.57.18 1.39 0 2.05-1.5 1.7-2.69-.67-2.3-3.16-2.06-5.3-1.6 0-1.49-.09-3-.17-4.47 0-.85 0-2.43-.21-4a17.82 17.82 0 0 1 4.62-.22 1.3 1.3 0 0 0 1.24-1 6 6 0 0 0 0-2.31 1.32 1.32 0 0 0 -1.28-.93 19 19 0 0 1 -6.93-.53 1.14 1.14 0 0 0 -1.28.42h-.12a1.44 1.44 0 0 0 -1.32 1.66c1.2 6.85.73 13.81.88 20.72 0 1.71-5.53 27.9 1.35 6.81.3-.9 2.15.23 3.06.25l5.44.14a1.28 1.28 0 0 0 .8-2.22z"/><path d="m105.73 251.1q-2.66-3.4-5.6-6.57c-.49-.52-1.19.08-1.07.66l.57 2.9-2.24-.7c-.69-.21-1 .66-.61 1.1l5.55 6.48c.55.64 1.42-.31.9-.95l-.54-.65a.68.68 0 0 0 -.12-.12l-3.38-3.94 1.13.36c.52.16.87-.38.78-.83l-.33-1.67c1.33 1.5 2.62 3 3.85 4.61.51.66 1.63-.02 1.11-.68z"/><path d="m107.68 246.77-2-2.11-1-1c-.06-.07-.51-.47-.79-.74a.68.68 0 0 0 0-.62c-.59-1.13-2 0-1.28 1a18.07 18.07 0 0 0 1.95 2.06l2.29 2.37c.51.59 1.41-.36.83-.96z"/><path d="m111.36 243.34a5.41 5.41 0 0 1 -.78 1.15 35.87 35.87 0 0 1 -4-4.91c-.48-.69-1.59 0-1.11.69a37.73 37.73 0 0 0 4.7 5.63.67.67 0 0 0 .93 0 6.25 6.25 0 0 0 1.44-1.9c.33-.78-.81-1.41-1.18-.66z"/><path d="m117.31 239.25-2.54-.72c-.63-.17-2.32-.37-2.56-.95s.64-1.37 1-1.87a2.34 2.34 0 0 0 .45-1.73c-.13-.82-1.43-.8-1.31 0s-.83 1.79-1.3 2.7c-.17-.16-.35-.33-.48-.48a.85.85 0 0 0 0-.23v-.1a.64.64 0 0 0 -.34-.56.88.88 0 0 0 -.9 0 .63.63 0 0 0 -.31.57c.08 1.08 1.44 2 2.13 2.74l3.39 3.6c.58.61 1.48-.34.9-.95l-1.6-1.7 3.14.88c.82.29 1.13-.97.33-1.2z"/><path d="m139.35 221.27a8.86 8.86 0 0 0 -6.36 2.15c-.64.55.31 1.44.94.9a7.56 7.56 0 0 1 1.78-1.11.15.15 0 0 0 0 .07q.93 3.48 1.87 6.94c.21.81 1.46.44 1.25-.38q-.94-3.47-1.87-6.93s0-.08 0-.12a8.36 8.36 0 0 1 2.46-.22c.8.05.77-1.25-.07-1.3z"/><path d="m146.88 228.41a17.19 17.19 0 0 1 -2.77.13c-.24-.77-.43-1.54-.6-2.32h2a.66.66 0 0 0 0-1.31l-2.16.06c-.13-.75-.23-1.49-.29-2.25l2.55-.59c.81-.19.44-1.44-.38-1.25l-3 .69a.58.58 0 0 0 -.43.75.61.61 0 0 0 -.07.34c.07.8.16 1.58.29 2.36a.66.66 0 0 0 .19 1.28 26.75 26.75 0 0 0 .82 3.1.67.67 0 0 0 .64.46 17.14 17.14 0 0 0 3.28-.1c.79-.15.76-1.46-.07-1.35z"/><path d="m155.08 228.79a28.29 28.29 0 0 0 -4-9.36.66.66 0 0 0 -1.21.36c-.26 3.32-.37 6.63-.33 10a.65.65 0 0 0 1.3 0c0-1.17 0-2.34 0-3.5h.06a2.49 2.49 0 0 1 1.86-.54 27.53 27.53 0 0 1 1.06 3.52c.18.73 1.45.33 1.26-.48zm-4.19-4.1c0-.94.08-1.88.13-2.82a27 27 0 0 1 1.23 2.47 4.26 4.26 0 0 0 -1.36.35z"/><path d="m178.39 227.32a34 34 0 0 0 -3.39 4.73 24.59 24.59 0 0 1 .91-5c.18-.6-.69-1.12-1.1-.61-1.11 1.39-2.26 2.75-3.42 4.1a42.54 42.54 0 0 1 1.44-4.83.6.6 0 0 0 .24-.35c.09-.32.18-.63.26-1 .19-.69-.92-1.17-1.2-.47l-.06.15a44.94 44.94 0 0 0 -2.45 8.58c-.1.6.65 1.12 1.11.61 1.13-1.25 2.22-2.53 3.29-3.82a24.94 24.94 0 0 0 -.37 5.27.66.66 0 0 0 1.23.3 31.17 31.17 0 0 1 4.47-6.83c.53-.56-.41-1.47-.96-.83z"/><path d="m182.3 228.36a.66.66 0 0 0 -.64-.46.83.83 0 0 0 -.79.46.64.64 0 0 0 .07.72c-.21.42-.67 1-.77 1.22l-1 1.8-2.26 3.9a.65.65 0 0 0 1.14.63l2.82-4.88c.54-.99 1.73-2.24 1.43-3.39z"/><path d="m187.54 231.23-2.72-1.91c-.69-.49-1.31.66-.63 1.14l.51.36-3.7 5.78c-.45.71.7 1.34 1.15.63l3.58-5.66 1.14.8c.73.49 1.35-.66.67-1.14z"/><path d="m192 234.63c-.13.17-.28.33-.41.51a.52.52 0 0 0 -.23.28c-.57.71-1.15 1.39-1.74 2.06a8.82 8.82 0 0 0 -2.18-1.6l2.21-2.67c.53-.64-.41-1.54-1-.9-.86 1-1.71 2.07-2.56 3.11a.56.56 0 0 0 -.41.51c-.69.85-1.38 1.7-2 2.56-.35.44-.91 1-.67 1.66a.92.92 0 0 0 1.18.49.64.64 0 0 0 .44-.47v-.16a.62.62 0 0 0 -.16-.57c.32-.48.9-1 1.12-1.3l1-1.24a7.41 7.41 0 0 1 2.14 1.53c-1 1.11-2.13 2.18-3.27 3.19-.63.56.32 1.46 1 .9q1.65-1.47 3.16-3.07c.5.56 1.51-.09 1-.75l-.17-.23c.67-.74 1.32-1.5 1.94-2.29a1.21 1.21 0 0 0 .69-1c.18-.53-.63-1.11-1.08-.55z"/><path d="m131.47 320.11a1.08 1.08 0 0 0 .27-1.67c-.72-.81-1.83-.13-2.48.39a3.15 3.15 0 0 0 -1.38 2.9 3.94 3.94 0 0 0 .88 1.74c.15.19.32.36.48.54a6.76 6.76 0 0 1 .54.64c.52.51.45 1.14-.24 1.89-.76-.35-1.4.79-.63 1.14a1.93 1.93 0 0 0 2.73-1.76 3.4 3.4 0 0 0 -.84-2.1 12.49 12.49 0 0 1 -1.26-1.48 1.59 1.59 0 0 1 .25-2.25 2.49 2.49 0 0 0 .7-.63.65.65 0 0 0 .98.65z"/><path d="m135.23 326.71a53.91 53.91 0 0 1 -.72-5.93.61.61 0 0 0 .31-.56 1.69 1.69 0 0 0 -.6-1.33.66.66 0 0 0 -1.1.49 56.87 56.87 0 0 0 .86 7.7c.15.83 1.4.45 1.25-.37z"/><path d="m139.82 319.1c0 1.36.05 2.72.08 4.07q-1.44-2.46-2.86-4.92c-.34-.57-1.09-.26-1.21.36-7.12 37.38.31 4.38.87 6.51a7.86 7.86 0 0 0 .49 1.64v.08c0 .05 0 .1.07.15.31.68 1.41.16 1.18-.53s-.36-1.13-.51-1.71a7.07 7.07 0 0 1 -.06-.94.57.57 0 0 0 -.28-.53c-.13-.65-.24-1.3-.31-2l2.72 4.72a.66.66 0 0 0 1.21-.36c0-2.2-.08-4.39-.13-6.59a.65.65 0 0 0 -1.26.05z"/><path d="m147.18 325.41c-1.6.7-2.65-.92-2.68-2.32a6.71 6.71 0 0 1 .27-1.84 8.47 8.47 0 0 1 .32-1 .51.51 0 0 1 .7-.46c-.43.72.72 1.35 1.14.63a1.41 1.41 0 0 0 -1.1-2.07c-1.33-.2-2 1.29-2.25 2.31-.46 1.6-.68 3.52.41 4.92a3 3 0 0 0 3.57 1.05c.76-.3.44-1.55-.38-1.22z"/><path d="m150.65 326.49v.21a.65.65 0 0 0 1.3 0v-.21a.65.65 0 0 0 -1.3 0z"/><path d="m160.7 325.89a36.18 36.18 0 0 1 -.9-5.44.7.7 0 0 0 0-.36l-.32-1.89c-.12-.72-1.39-.52-1.27.2l1 6.37c.14.88.07 2.37 1.25 2.52a.65.65 0 0 0 .79-.47v-.14a.67.67 0 0 0 -.55-.79z"/><path d="m166.1 319.88a.73.73 0 0 0 -.6-.62 1.9 1.9 0 0 0 -3.28 1.06c-.11.83.33 2.08 1.3 2.17a2 2 0 0 0 1.51-.6c.17 1.42.33 2.83.5 4.25.1.83 1.4.8 1.3 0q-.36-3.14-.73-6.26zm-2.42 1.26c-.63-.34.53-1.54 1-1-.2.49-.6 1.22-1 1z"/><path d="m171.3 320.46a.7.7 0 0 0 .22-.63c-.44-2.71-4.64-2.34-4.11.52a1.77 1.77 0 0 0 2.76 1.24c.21 1.47.37 2.93.46 4.41.06.84 1.36.81 1.31 0-.12-1.88-.34-3.71-.64-5.54zm-1.84-1.24a1.35 1.35 0 0 1 .38.19 1 1 0 0 0 0 .24c-1.43.64-1.55.5-.38-.43z"/><path d="m177.16 320.06c1-2.35-2.75-3.44-3.5-.91a3.58 3.58 0 0 0 .72 3.08c-.79 2.22-1.08 4.64 1.29 4.74 1.38.06 1.71-1.27 1.49-2.4a5.56 5.56 0 0 0 -1.09-2.17l-.24-.32a15.83 15.83 0 0 1 .77-1.68.51.51 0 0 0 .56-.34zm-2.3.13c-.14-.63.14-.9.82-.82-.2.36-.44.83-.68 1.36a2 2 0 0 1 -.14-.54zm1.07 5c-.72-.34-.94-.8-.65-1.39v-.17c.36.44.82 1.17.65 1.53z"/></g><path d="m240.85 1.52v15.41a1.5 1.5 0 0 0 3 0v-15.41a1.5 1.5 0 0 0 -3 0z" fill="#231f20"/><path d="m266.58.64-7.69 10.29c-1.15 1.55 1.45 3 2.59 1.51l7.69-10.29c1.15-1.54-1.45-3.04-2.59-1.51z" fill="#231f20"/><path d="m295.76 35.66-7.66 2.7c-1.81.64-1 3.54.8 2.9l7.66-2.7c1.81-.64 1.03-3.56-.8-2.9z" fill="#231f20"/><path d="m287.93 13.27-10.27 5.14c-1.73.86-.21 3.45 1.51 2.59l10.28-5.14c1.72-.86.2-3.45-1.52-2.59z" fill="#231f20"/></svg>