<svg viewBox="0 0 293.72 473.51" xmlns="http://www.w3.org/2000/svg"><path d="m258.52 166c0 2.54.15 5.08.16 7.61.06 11.44.13 22.87 0 34.31-.51 40.64-2.42 81.3-4.07 121.91-.8 20-2.12 39.91-4.11 59.77-1 10.1-2.6 20.13-3.34 30.27-.35 4.91-.19 9.91-.75 14.8-.29 2.45-.79 4.87-.86 7.36v5.23a1.77 1.77 0 0 1 0 2.29c-1.6 1.7-4.28 2.52-6.38 3.37a28.66 28.66 0 0 1 -9 2.07c-3 .17-5.7 1.35-8.68 1.74-3.47.46-7 .95-10.42 1.31-1.6.16-3.22.15-4.81.33-1.15.14-2.2.6-3.35.79a24.81 24.81 0 0 1 -3.34.13 33.1 33.1 0 0 0 -5.11.88c-2.82.52-5.6.58-8.44.82-2.6.23-5.05.89-7.67.91a55.16 55.16 0 0 0 -8.52.63c-2.62.4-5.29 0-7.92.35a53.74 53.74 0 0 1 -8.09.84c-2.61-.06-5.17-.7-7.78-.84-6-.33-11.88 1-17.87.73-5.83-.31-11.54-1.6-17.29-2.49a80.65 80.65 0 0 1 -9.51-1.72c-2.69-.75-5.36-1.38-8.09-2s-5.47-1.54-8.28-2.4c-1.06-.34-2.18-.55-3.23-.93s-2.16-1.48-3.25-1.5a1.64 1.64 0 0 1 -.79-3 13 13 0 0 1 -.35-2.34 32.49 32.49 0 0 0 -1.08-6.19c-2.18-8.25-2.39-16.95-4.38-25.27-1-4.14-2.35-8.18-3.19-12.35s-1.33-8.62-1.81-12.94c-1-9-2.61-17.92-3.56-26.94-1-9.36-1.52-18.72-3.16-28-1.51-8.56-2.82-17-3.88-25.66s-3.68-17.44-4.13-26.23a268.64 268.64 0 0 0 -3.29-27.23c-1.4-8.95-2.47-17.83-3.4-26.85-1.86-18-4.62-36-7.92-53.84a107.89 107.89 0 0 1 -1.67-12c-.19-2.48-.7-6.15.28-8.55.68-1.68 3.15-1.61 4.63-1.55a66.53 66.53 0 0 0 11.88-.5c17.26-2.29 34-7.32 51.4-8.88 17.75-1.59 35.6-.91 53.4-.83s35.47-.13 53.19-.24c4.41 0 8.86-.27 13.25.07s8.39 1 12.7.91c3.6-.08 7.43-.57 11 .2a23.45 23.45 0 0 0 6.87.79 24.81 24.81 0 0 1 5.38.05.79.79 0 0 1 .54.55c1 4.3.19 8.67-.74 12.9a35.77 35.77 0 0 0 -1.17 7.35z" fill="#a5c2ae"/><path d="m265.74 164.15c.07 1.81.68 3.59.57 5.38-.21 3.35-5.46 14.3-9.68 9.8-2.1-2.24-2.62-6.14-3.94-8.86-.16-.32-1.52-2.58-1.2-2.58-.31 0-.67 1.5-.72 1.66a17.73 17.73 0 0 0 -.44 4.23c-.27 9.44.18 18.86.33 28.29.16 9.58-.78 18.9-1.44 28.44-.65 9.25.76 18.5.86 27.77s.72 18.65.09 28.05c-.66 9.63-.84 19.26-1.35 28.88-.21 3.9-.69 7.67-1.21 11.53-.3 2.24-.42 5.18-2.76 6.3a1.58 1.58 0 0 1 -1.6 0c-4.1-2.84-3.87-8.42-4.1-12.87-.43-8.43-1.23-16.83-1.63-25.25-.39-8.25-.16-16.44.21-24.68.39-8.61-.14-17.22.22-25.82.34-7.89.67-15.82 1.2-23.69.58-8.51.73-17 1.25-25.53.42-6.76 1.4-14.25-.55-20.87-.7-2.36-2.7-4.87-4.68-1.84a21.18 21.18 0 0 0 -2.28 5.77 65.73 65.73 0 0 0 -1.89 11.6 105.08 105.08 0 0 1 -1.34 10.78c-.35 1.71-1 3.32-1.44 5a50 50 0 0 0 -.77 5.45 28.42 28.42 0 0 1 -3.56 10.15c-1 1.54-2.78 2.83-4.63 1.93-2.3-1.12-2.69-4.49-2.74-6.71-.1-3.66-.07-7.13-.5-10.79-.51-4.43.16-9-.63-13.35a70.77 70.77 0 0 0 -3.34-11.12c-1.35-3.73-2.69-7.53-4.36-11.12-1-2.09-2.4-6.8-5-7.27-2.45-.45-4.74 2.89-5.89 4.59a35.43 35.43 0 0 0 -3.53 6.56 66.85 66.85 0 0 0 -3 10.58c-.63 2.78-.95 6-2.07 8.64-.76 1.78-2.68 3.09-4.58 1.89a4.35 4.35 0 0 1 -1.45-2.22c-.16-.35-.14-.83-.41-.85a11.74 11.74 0 0 0 -.85 2.32 46.38 46.38 0 0 0 -1.76 11.29c-.14 3.17 0 6.21-.77 9.31-1 3.81-4.15 9.11-8.66 5.62-1.8-1.39-2.62-3.72-3.18-5.85-.91-3.44-1.62-6.94-2.57-10.37-1-3.71-1.83-7.61-3.76-11a6.62 6.62 0 0 0 -1.39-2.06c-.37-.86-.71-.85-1.05 0-.15.23-.3.45-.46.67a14 14 0 0 0 -1.57 4.94 117.43 117.43 0 0 0 -1.53 23.69c.2 8.44-.68 16.81-.26 25.27.4 8.21.58 16.46.49 24.69s-1.65 16.48-3.44 24.48c-.73 3.21-1.71 12-6.76 11.59-2.57-.2-4.25-3.08-5.29-5.11a87.69 87.69 0 0 1 -3.88-8.7c-2.63-7-3.67-14.38-4.66-21.72-2.22-16.67-4.69-33.36-5.8-50.15-.56-8.43-1.64-16.94-1.61-25.39 0-7.21 1.55-15.32-1.11-22.2-1.22-3.18-4.09-9.2-7.89-5.12-1.52 1.61-2.43 4.1-4.79 4.72-3.15.83-4.29-2.23-6.86-2.94-3.58-1-6.07 4.32-6.87 7-.92 3-1.31 6.07-2.26 9-.55 1.72-1.36 4.21-3.31 4.79-4.84 1.43-6.36-7.42-7-10.35a42.05 42.05 0 0 1 -1.18-5.42c-.12-1.77.18-3.32-.59-5-.87-1.89-2-2.67-4-2.38a16 16 0 0 0 -4.23 1.25c-5.33 2.45-7.33 8.24-8.52 13.55-1.69 7.54-1.61 15-1.36 22.69.27 8.27.2 16.7 1.51 24.88.64 4 .31 8.12.92 12.17a65 65 0 0 1 .53 10.8c-.1 4.34-.53 8.63-.88 13a7.92 7.92 0 0 1 -3.21 6.2 1.56 1.56 0 0 1 -1.6 0c-2.78-1.51-4-4.4-4.81-7.28-.46-1.55-.95-3.12-1.3-4.69a44.63 44.63 0 0 1 -1.35-5.74 178.16 178.16 0 0 0 -4.41-28.93c-2.46-9.78-3.64-19.79-5.24-29.73-.61-3.81-1-7.73-1.55-11.62-.24 3.45-.82 6.86-2.9 9.7a1.65 1.65 0 0 1 -2.17.59c-2.12-.89-3.22-3-3.88-5.12-1.94-6.18-.67-12.73-1.57-19-.85-5.81-3.11-14.38 3.62-17.32 7.46-3.27 16-3.88 23.93-5.28 4.42-.78 8.66-2.15 13-3.36a79 79 0 0 1 13.49-2.34c4.49-.46 8.94-1.21 13.42-1.65 4.67-.47 9.38-.39 14.07-.49s9.46-.38 14.2-.59 9.48.69 14.23.63a106 106 0 0 1 13.57.46 128.42 128.42 0 0 0 13.72 1c4.58 0 9.16.42 13.75.23s9.38-.72 14.11-.45c2.21.12 4.38.63 6.58.8a65.88 65.88 0 0 0 6.74 0c4.53-.11 8.92.58 13.44.79s9 .33 13.35.78c2.05.22 4.07.73 6.13.81a47 47 0 0 0 6.58-.66 54.12 54.12 0 0 1 11.59-.23c2.82.33 5.38 1.42 5.94 4.45.64 3.4-.84 6.57-.78 9.91-.05 2.02-.14 4.17-.06 6.32z" fill="#c3e5cd"/><path d="m84.14 86.79a8.76 8.76 0 0 0 -6.93-2.79c-6.51-2.07-11.21 4.78-10.71 10.63a15.43 15.43 0 0 0 1.17 4.6 5.64 5.64 0 0 0 .46 1.89.9.9 0 0 0 .84.54 14.3 14.3 0 0 0 1.15 1.51 6 6 0 0 0 3 1.91 22.48 22.48 0 0 0 5.23 1.11c5.42 0 9.91-7.34 9.88-12.26 0-2.99-2.06-5.15-4.09-7.14zm-.82 1.33a3.78 3.78 0 0 0 -.6-.08.66.66 0 0 0 -.71.61 1 1 0 0 0 -.42-.09c0-.49 0-1 0-1.49a.64.64 0 0 0 -.17-.46 11.15 11.15 0 0 1 1.9 1.51zm-5.81-2.57h.74a6 6 0 0 1 2.75.8.77.77 0 0 0 -.61.1 3.08 3.08 0 0 0 -.42.39.87.87 0 0 0 -.55-.24 2.65 2.65 0 0 0 -.58-.75.81.81 0 0 0 -1.13.07 3.62 3.62 0 0 0 -.22.32.75.75 0 0 0 -.21-.61.57.57 0 0 0 .23-.08zm-.26 7.1a.72.72 0 0 0 .4.58c-.12.4-.24.79-.37 1.18l-.93 2.69a.78.78 0 0 0 -1.06-.48c.35-.63.71-1.26 1-1.9s.71-1.39.96-2.07zm-1.86-.94a.92.92 0 0 0 .44.22c-.35.79-.71 1.59-1.13 2.42.22-.88.44-1.77.69-2.64zm-7.28 3.1a10.76 10.76 0 0 1 .2-3.79 7.85 7.85 0 0 1 3.48-4.77 11.71 11.71 0 0 0 -2.47 4.46c-.32 1.1-.85 2.56-1.21 4.1zm1.48 2a7.89 7.89 0 0 0 -.28 1 33.72 33.72 0 0 1 1.18-5.37 12.84 12.84 0 0 1 2.27-5 4.57 4.57 0 0 1 1.36-1c-1.16 2.3-2 4.67-3 7.07-.44 1.03-1.12 2.1-1.53 3.26zm.53 3.65a7.83 7.83 0 0 0 .47-1.27c.17-.6.36-1.15.57-1.71a13.29 13.29 0 0 1 -.22 3.72.61.61 0 0 0 0 .53 10.11 10.11 0 0 1 -.82-1.31zm3.78 3.17a5.17 5.17 0 0 1 -2.73-1.69.94.94 0 0 0 .78.18.83.83 0 0 0 1.32.2c1-1.24 1.76-2.67 2.68-4a51 51 0 0 0 -1.53 5.44zm10.23-6.63c-.14 1-.33 2-.49 2.94a.77.77 0 0 0 .33.8c-1.27 1.91-2.9 3.69-5.31 3.83a8.51 8.51 0 0 1 -2.5-.37 12.47 12.47 0 0 0 1.19-2.75 4.77 4.77 0 0 0 .08 1.69.8.8 0 0 0 1.2.41 3.89 3.89 0 0 0 1.05-1.17.8.8 0 0 0 .64.39.79.79 0 0 0 1.31.21 4.41 4.41 0 0 0 .71-1.62 1.08 1.08 0 0 0 .08-.19c.1-.42.19-.85.29-1.27a4.2 4.2 0 0 1 .61-1.35.83.83 0 0 0 -.09-1.09c.08-.3.15-.6.24-.89a.73.73 0 0 0 .66.21zm-.38-4.41a.76.76 0 0 0 0-.15c0-.62-.61-.82-1.09-.65 0-.19 0-.37 0-.56a.78.78 0 0 0 -.14-.42 6.17 6.17 0 0 0 -.06-1.28.84.84 0 0 0 .33.07c.88 0 1.27 1.79 1.42 2.93a1 1 0 0 0 -.46.09zm1.91 5.29c0-.33 0-.65.06-1a18.82 18.82 0 0 0 -.06-6c1.46 2.27 1.08 4.76 0 7.03z"/><path d="m123.64 86.8a8.8 8.8 0 0 0 4.08-6.26c3.3-6-2.5-12-8.34-12.57a15.5 15.5 0 0 0 -4.74.25 5.72 5.72 0 0 0 -2 .08.94.94 0 0 0 -.64.7 12.73 12.73 0 0 0 -1.7.83 5.94 5.94 0 0 0 -2.46 2.6 21.73 21.73 0 0 0 -2.11 4.91c-1 5.32 5.27 11.15 10.11 12.07 2.93.59 5.46-1.01 7.8-2.61zm-1.14-1.07a3.81 3.81 0 0 0 .19-.57.67.67 0 0 0 -.46-.82 1.13 1.13 0 0 0 .17-.39c.48.1 1 .2 1.45.32a.6.6 0 0 0 .49-.08 11.83 11.83 0 0 1 -1.84 1.54zm3.65-5.19q-.06.36-.15.72a6 6 0 0 1 -1.32 2.54.75.75 0 0 0 0-.62 2.8 2.8 0 0 0 -.3-.49.81.81 0 0 0 .34-.48 2.84 2.84 0 0 0 .85-.43.82.82 0 0 0 .16-1.12l-.28-.28a.77.77 0 0 0 .64-.08.67.67 0 0 0 .06.24zm-6.92-1.64a.68.68 0 0 0 -.64.28c-.37-.2-.74-.39-1.09-.6l-2.5-1.43a.78.78 0 0 0 .68-1c.55.47 1.1.94 1.66 1.37s1.29.95 1.89 1.38zm1.29-1.64a1 1 0 0 0 -.31.38c-.7-.49-1.42-1-2.15-1.57.82.38 1.65.77 2.46 1.19zm-1.63-7.75a10.79 10.79 0 0 1 3.68.93 7.82 7.82 0 0 1 4 4.35 11.48 11.48 0 0 0 -3.89-3.29c-1.01-.58-2.35-1.34-3.79-1.99zm-2.21 1.07c-.29-.17-.59-.32-.9-.47a35.42 35.42 0 0 1 5 2.21 12.84 12.84 0 0 1 4.48 3.2 4.33 4.33 0 0 1 .75 1.54c-2-1.59-4.19-2.88-6.35-4.29-1.01-.68-1.93-1.54-2.98-2.19zm-3.68-.19a8.5 8.5 0 0 0 1.16.71c.55.28 1.06.58 1.56.89a13 13 0 0 1 -3.6-.94.63.63 0 0 0 -.53 0 10 10 0 0 1 1.41-.66zm-3.83 3.09a5.15 5.15 0 0 1 2.18-2.35 1 1 0 0 0 -.33.73.83.83 0 0 0 -.45 1.26c1 1.27 2.28 2.24 3.39 3.4a51.72 51.72 0 0 0 -5-2.55zm4.43 11.32c-.94-.34-1.87-.71-2.79-1.06a.77.77 0 0 0 -.85.17c-1.63-1.62-3.06-3.56-2.73-6a8.54 8.54 0 0 1 .86-2.39 11.8 11.8 0 0 0 2.46 1.71 4.6 4.6 0 0 0 -1.68-.25.8.8 0 0 0 -.63 1.09 3.75 3.75 0 0 0 .94 1.26.81.81 0 0 0 -.5.55.79.79 0 0 0 -.46 1.25 4.43 4.43 0 0 0 1.44 1 1.08 1.08 0 0 0 .18.11l1.19.53a4.23 4.23 0 0 1 1.2.87.82.82 0 0 0 1.09.12l.83.41a.73.73 0 0 0 -.34.61zm4.39.48h.15c.6.14.93-.44.85-.95l.55.12a.72.72 0 0 0 .44 0 6.37 6.37 0 0 0 1.27.19.89.89 0 0 0 -.14.31c-.19.86-2 .89-3.15.83a1 1 0 0 0 .04-.5zm-5.55.84c.31.1.63.18 1 .25a18.46 18.46 0 0 0 5.89 1.11c-2.51 1.01-4.88.14-6.89-1.36z"/><path d="m106.37 142.8a8.53 8.53 0 0 0 -1.14-3.26c1-1.66-.4-4.22-1.52-5.47-2.35-2.62-6.6-4.11-10-4.39a10.52 10.52 0 0 0 -7.89 2.41.82.82 0 0 0 -.87.84 14.07 14.07 0 0 0 -3.48 8.64c-.46 6.58 5.4 13.23 11.86 14.2 6.67 1 13.83-6.37 13.04-12.97zm-3.4-3.29a.59.59 0 0 0 .26-.07 2.69 2.69 0 0 1 .2.27.74.74 0 0 0 .22.31c1.77 2.74 1.25 6.14-.4 8.83a1 1 0 0 0 -.14-.15 6.23 6.23 0 0 0 -2.67-1.14 7.31 7.31 0 0 0 2.5-.32.8.8 0 0 0 .2-1.37 5.3 5.3 0 0 0 -2-.92 8.39 8.39 0 0 0 3.08-.55c.58-.24.72-1.25 0-1.47-1.31-.41-2.67-.45-4-.85-.88-.26-1.76-.5-2.65-.71 1.79.11 3.58.19 5.38.16.91 0 .93-1.47 0-1.58a8.87 8.87 0 0 1 -1.83-.49c.62.04 1.23.06 1.88.05zm-5.19 7.81c-.77 0-1.54-.07-2.29-.18-.49-.07-1-.17-1.45-.28h.31c1.05.08 2.23.29 3.43.46zm6.19-9.5a9.51 9.51 0 0 0 -.71-.71.61.61 0 0 0 .07-.28c0-.17 0-.32 0-.47a3.83 3.83 0 0 1 .67 1.46zm-15.5-5.75a.81.81 0 0 0 .43.18c1.42.15 2.81.46 4.21.75a.7.7 0 0 0 .87-.59c3.52.19 7.35.83 7.75 3.5a10.41 10.41 0 0 0 -1.57-.85 37.26 37.26 0 0 0 -7.2-1.9c-1.74-.37-3.71-.21-5.48-.56a7.86 7.86 0 0 1 .99-.53zm-3.16 2.72c.13-.21.27-.41.42-.61a4.3 4.3 0 0 0 1.35.55c2.36.63 4.75 1 7.11 1.69.68.2 4.13.82 6.24 1.41-2.43-.21-4.81-.74-7.23-1.1a70.83 70.83 0 0 0 -8.61-.66c.22-.43.41-.86.72-1.28zm-1.41 10.21a.82.82 0 0 0 -.27 0 12.18 12.18 0 0 1 .29-7.39c3.33.42 6.65.82 9.94 1.46 1 .2 2 .43 3.06.68q-2.55-.17-5-.48c-2.55-.33-5.09-.78-7.6 0-.8.25-.54 1.38.17 1.53 3.36.72 6.77 1 10.16 1.56 1 .17 2 .37 3.07.62a24.9 24.9 0 0 1 -4.73-.15c-3.06-.55-5.82-1.72-8.85-.4-.68.29-.66 1.46.17 1.53a76.3 76.3 0 0 1 8 1.16c-2.84-.12-5.66.24-8.41-.12zm5.9 7.68a13.58 13.58 0 0 1 -5.51-5.9 10.7 10.7 0 0 0 1.24.31.84.84 0 0 0 .43 1.39c2.11.51 4.24.87 6.36 1.34a12.22 12.22 0 0 0 -2.93.35.8.8 0 0 0 .16 1.52 23.44 23.44 0 0 1 6.18.68 9.38 9.38 0 0 0 -1 .17.79.79 0 0 0 -.19 1.51 9.06 9.06 0 0 1 -4.74-1.33zm8.82-.58a6.15 6.15 0 0 0 -.62-.42h.61a.8.8 0 0 0 .56-1.27 3.37 3.37 0 0 0 -1.58-1c1.58.25 3.16.47 4.76.61a10.19 10.19 0 0 1 -1.59 1.56 12.61 12.61 0 0 1 -1.87 1.24.68.68 0 0 0 -.27-.68z"/><path d="m158.17 76.5c-1.89-1.81-4.2-2.18-6.6-2.17a.66.66 0 0 1 0-.14c0-.87-1-.91-1.45-.35-1.43 0-2.94-.69-4.35-.16a13.67 13.67 0 0 0 -3.85 2.2 14.64 14.64 0 0 0 -4.33 9.24 15.32 15.32 0 0 0 1 6.73 4.27 4.27 0 0 0 0 .62.91.91 0 0 0 .62.74 10.53 10.53 0 0 0 1.61 2.3 7.32 7.32 0 0 0 3.63 2 .75.75 0 0 0 .91.18 14.72 14.72 0 0 0 3.5.09c6.9-.61 13.21-6.33 13.37-13.51.03-2.79-2.11-5.9-4.06-7.77zm0 2.31a.79.79 0 0 0 -.29.06l-.3.15a7.19 7.19 0 0 0 .14-.76 6 6 0 0 1 .4.55zm-12.53 13a.78.78 0 0 0 -.77-.06v-.08c.85-1.5 1.68-3 2.54-4.53-.34 1.46-.64 2.93-1 4.36a.75.75 0 0 0 -.82.27zm-2.64-1.75a4.66 4.66 0 0 0 -1.17.68 13.29 13.29 0 0 1 .53-1.62c.12-.28.24-.55.35-.82a1.38 1.38 0 0 1 .13-.22.82.82 0 0 0 .18-.49c.19-.45.39-.89.59-1.31.44-.89.92-1.76 1.42-2.62-.67 2.13-1.32 4.28-2.03 6.4zm8.57 1.27c-.44-.31-1.13-.23-1.19.43a1.29 1.29 0 0 1 0 .28.76.76 0 0 0 -.45-.13c1-1.9 2.19-3.76 3.32-5.64l-.06.16c-.56 1.62-.97 3.3-1.61 4.9zm-1.43-2.88c-.22.35-.44.71-.65 1.07.52-1.64 1-3.27 1.63-4.86a.86.86 0 0 0 1.36-.15 5.65 5.65 0 0 1 .61-1c-.95 1.68-1.95 3.35-2.94 4.94zm6.24-11.38a1 1 0 0 0 -.16.25l-.09.22h-.11a1.67 1.67 0 0 0 0-.32 2.41 2.41 0 0 0 -.1-.43zm-2.74 2.09.15-.13a1.85 1.85 0 0 0 .62-1.2v-.08.79a15.7 15.7 0 0 0 -.92 1.56c-.14.23-.28.45-.43.67a2.45 2.45 0 0 0 -.27-1l.15-.44a.65.65 0 0 0 .71-.17zm-5 .75c.15-.25.3-.49.44-.74a14.7 14.7 0 0 0 .08 1.63c-.42.8-.86 1.59-1.32 2.36-.76 1.27-1.49 2.55-2.21 3.84.69-2.25 1.39-4.49 2.2-6.7a.78.78 0 0 0 .82-.39zm-2.2-2.81a.78.78 0 0 0 .32-.56 4.43 4.43 0 0 1 1-.33c-.85 1.43-1.76 2.83-2.65 4.25.45-1.12.89-2.26 1.34-3.36zm-7.18 11a13.2 13.2 0 0 1 2.92-10.1 6.44 6.44 0 0 1 2.64-2 14.1 14.1 0 0 0 -3 4.51 18.56 18.56 0 0 0 -2.19 5.49zm1.39 1.22c-.08.15-.15.3-.23.44.22-1 .5-2 .64-2.75a16.37 16.37 0 0 1 1.76-5c.17-.32.32-.64.47-1a.88.88 0 0 0 1 .65c-.42.7-.84 1.41-1.24 2.12a28.13 28.13 0 0 0 -1.34 3.22 6.64 6.64 0 0 0 -1.05 2.34zm1 4.52a9.46 9.46 0 0 1 -.6-.78 1 1 0 0 0 .79-.25l.28-.26c-.12.45-.28.88-.45 1.31zm1.41.74.12-.2a.78.78 0 0 0 1.13 0 1.8 1.8 0 0 0 .19-.2 4.92 4.92 0 0 0 .19.91.63.63 0 0 0 .22.31c-.07.15-.14.29-.22.43a6.71 6.71 0 0 1 -1.89-1 .89.89 0 0 0 .28-.23zm4.94 1.68h-.15a10.79 10.79 0 0 0 1.09-2.05 5.14 5.14 0 0 1 .54-.37c0 .18.08.36.11.53a.77.77 0 0 0 .64.54c0 .18-.08.36-.12.55a.83.83 0 0 0 .11.53 11.92 11.92 0 0 1 -2.22.27zm7.5-2.6a14.52 14.52 0 0 1 -3.3 1.76c.17-.21.33-.42.48-.64a3.17 3.17 0 0 0 1.66-2c.15-.35.29-.72.44-1.07a3.78 3.78 0 0 0 .13.56.75.75 0 0 0 .56.5c0 .08 0 .16-.05.24a.68.68 0 0 0 .05.65zm.78-4.39a.74.74 0 0 0 -.36.21s0 0 0 0a.77.77 0 0 0 -.37-.19c.47-1 .9-2 1.36-3zm1.36 2.45c.63-1.42 1.37-2.8 1.9-4.27.29-.8.71-1.52.89-2.21a11.21 11.21 0 0 1 -2.82 6.48zm.87-5.55c.11-.55.22-1.11.34-1.67a3.28 3.28 0 0 1 -.37 1.67zm1.59-2.72a.79.79 0 0 0 -1-.25c.09-.39.17-.77.26-1.16a.8.8 0 0 0 -1.37-.7 27.3 27.3 0 0 0 -3.14 5.8c-.16.35-.34.69-.53 1 .19-.58.37-1.17.57-1.75.63-1.79 1.54-3.67 2.17-5.57a4.47 4.47 0 0 0 1.3-.47.77.77 0 0 0 .47-.59c.25.38.48.77.69 1.15a7.41 7.41 0 0 1 .9 3.17 2.4 2.4 0 0 0 -.35-.63z"/><path d="m36.11 133.58c-1.36 2.23-1.23 4.56-.7 6.91h-.13c-.85.2-.67 1.2 0 1.49.26 1.4 0 3 .78 4.28a13.24 13.24 0 0 0 3 3.28 14.66 14.66 0 0 0 10 2.25 15.34 15.34 0 0 0 6.37-2.4 2.78 2.78 0 0 0 .61-.13.93.93 0 0 0 .59-.77 10.52 10.52 0 0 0 1.89-2.06 7.28 7.28 0 0 0 1.19-4 .74.74 0 0 0 0-.93 14.45 14.45 0 0 0 -.66-3.44c-2.08-6.6-9-11.53-16.07-10.15-2.88.6-5.47 3.36-6.87 5.67zm2.26-.45a.7.7 0 0 0 .13.26c.07.09.14.17.2.26h-.77c.14-.16.29-.34.44-.52zm15.36 9.45a.78.78 0 0 0 .1.76h-.07c-1.66-.51-3.32-1-5-1.51 1.5 0 3 0 4.47.06a.76.76 0 0 0 .5.69zm-1.12 2.88a4.62 4.62 0 0 0 .92 1 12.55 12.55 0 0 1 -1.7-.17l-.88-.17a.93.93 0 0 1 -.24-.08.78.78 0 0 0 -.51-.06c-.49-.09-1-.19-1.42-.3-1-.24-1.91-.52-2.86-.82 2.23.2 4.47.37 6.69.6zm-.61-8.64c-.2.5 0 1.15.69 1.06h.27a.76.76 0 0 0 0 .47c-2.08-.62-4.15-1.33-6.22-2h.17c1.67.16 3.4.19 5.09.47zm-2.5 2 1.18.4c-1.7-.15-3.41-.31-5.09-.55a.85.85 0 0 0 -.44-1.29 5.19 5.19 0 0 1 -1.15-.38c1.9.6 3.74 1.22 5.5 1.84zm-12.45-3.65a.85.85 0 0 0 .27.1l.24.05a.4.4 0 0 0 0 .11 2 2 0 0 0 -.31.08 2.49 2.49 0 0 0 -.4.2c.06-.16.15-.34.2-.52zm2.63 2.23a1.67 1.67 0 0 0 -.16-.12 1.87 1.87 0 0 0 -1.31-.36h-.08c.25-.06.52-.1.77-.17a16.51 16.51 0 0 0 1.72.57 6.61 6.61 0 0 1 .74.28 2.48 2.48 0 0 0 -.91.47l-.45-.07a.61.61 0 0 0 -.32-.58zm1.81 4.72-.82-.28a10.73 10.73 0 0 0 1.57-.43c.87.24 1.74.51 2.6.79 1.4.47 2.81.91 4.22 1.34-2.35-.2-4.69-.4-7-.71a.78.78 0 0 0 -.57-.69zm-2.28 2.75a.74.74 0 0 0 -.61-.19 4.8 4.8 0 0 1 -.54-.89c1.58.52 3.15 1.1 4.72 1.66-1.19-.17-2.38-.32-3.57-.56zm12.31 4.64a13.23 13.23 0 0 1 -10.52-.63 6.48 6.48 0 0 1 -2.48-2.16 14.11 14.11 0 0 0 5.05 2 19 19 0 0 0 5.82 1zm.9-1.61.47.12c-1 0-2-.07-2.82 0a16.19 16.19 0 0 1 -5.27-.64l-1-.25a.87.87 0 0 0 .41-1.14c.78.26 1.56.52 2.34.75a29.48 29.48 0 0 0 3.35.68h.06a7 7 0 0 0 2.46.5zm4.19-2a6.51 6.51 0 0 1 -.63.76 1 1 0 0 0 -.42-.72l-.31-.22c.46.11.91.16 1.36.28zm.42-1.53-.23-.08a.77.77 0 0 0 -.26-1.1l-.23-.14a4.52 4.52 0 0 0 .84-.38.8.8 0 0 0 .27-.28l.46.12a6.58 6.58 0 0 1 -.52 2.05.87.87 0 0 0 -.36-.14zm.57-5.13v.14a11 11 0 0 0 -2.24-.62c-.16-.14-.32-.29-.47-.45l.5-.22a.78.78 0 0 0 .38-.74h.56a.79.79 0 0 0 .5-.22 12.39 12.39 0 0 1 .77 2.16zm-4.16-6.76a14 14 0 0 1 2.43 2.84 6.07 6.07 0 0 0 -.73-.34 3.16 3.16 0 0 0 -2.25-1.2c-.38-.07-.76-.12-1.14-.2a2.67 2.67 0 0 0 .51-.25.73.73 0 0 0 .37-.65h.25a.7.7 0 0 0 .56-.15zm-4.45.18a.73.73 0 0 0 .29.29.05.05 0 0 0 0 0 .78.78 0 0 0 -.11.4.09.09 0 0 1 0 .05c-1-.26-2.11-.47-3.17-.7q1.52.03 3 .01zm2.11-1.86c-1.53-.31-3-.74-4.59-.94-.84-.11-1.63-.37-2.35-.39a11.19 11.19 0 0 1 6.94 1.38zm-5.61.34h-1.71a3.37 3.37 0 0 1 1.71.05zm-3-1a.79.79 0 0 0 0 1h-1.22a.8.8 0 0 0 -.39 1.49 27.22 27.22 0 0 0 6.34 1.81c.38.09.75.19 1.12.3-.61-.05-1.23-.11-1.84-.18-1.87-.23-3.91-.71-5.9-.91a4.46 4.46 0 0 0 -.74-1.17.78.78 0 0 0 -.68-.34c.32-.32.65-.63 1-.92a7.44 7.44 0 0 1 2.9-1.56 2 2 0 0 0 -.59.57z"/><path d="m140.87 103.22a9.34 9.34 0 0 0 -7.36-3c-6.9-2.2-11.92 5.07-11.35 11.27a16.61 16.61 0 0 0 1.23 4.87 6 6 0 0 0 .5 2 .93.93 0 0 0 .89.57 12.91 12.91 0 0 0 1.21 1.6 6.34 6.34 0 0 0 3.22 2 23.6 23.6 0 0 0 5.54 1.18c5.75 0 10.52-7.78 10.48-13-.02-3.08-2.23-5.38-4.36-7.49zm-.87 1.41a4.14 4.14 0 0 0 -.64-.08.71.71 0 0 0 -.76.65 1 1 0 0 0 -.44-.1c0-.52 0-1 0-1.58a.67.67 0 0 0 -.16-.52 12.57 12.57 0 0 1 2 1.63zm-6.16-2.73h.78a6.59 6.59 0 0 1 2.92.86.79.79 0 0 0 -.65.11 2.17 2.17 0 0 0 -.45.41.91.91 0 0 0 -.58-.26 2.65 2.65 0 0 0 -.62-.79.86.86 0 0 0 -1.19.06c-.09.12-.16.23-.24.35a.77.77 0 0 0 -.22-.65.58.58 0 0 0 .25-.09zm-.28 7.54a.73.73 0 0 0 .42.61q-.18.63-.39 1.26l-1 2.85a.83.83 0 0 0 -1.12-.52c.37-.66.75-1.33 1.08-2s.69-1.48 1.01-2.2zm-2-1a1.11 1.11 0 0 0 .47.24c-.37.83-.75 1.68-1.2 2.56.26-.94.49-1.87.75-2.8zm-7.71 3.29a11.11 11.11 0 0 1 .2-4 8.33 8.33 0 0 1 3.7-5.06 12.21 12.21 0 0 0 -2.62 4.73 43 43 0 0 0 -1.26 4.33zm1.56 2.08c-.12.33-.21.68-.3 1a37.25 37.25 0 0 1 1.26-5.69 13.73 13.73 0 0 1 2.4-5.32 4.73 4.73 0 0 1 1.45-1.09c-1.23 2.43-2.13 4.94-3.16 7.49-.47 1.25-1.17 2.38-1.63 3.61zm.56 3.87a6.89 6.89 0 0 0 .5-1.35c.18-.63.39-1.22.61-1.81a13.74 13.74 0 0 1 -.24 3.94.69.69 0 0 0 .06.57 10.36 10.36 0 0 1 -.9-1.35zm4 3.36a5.57 5.57 0 0 1 -2.89-1.79 1 1 0 0 0 .82.19.88.88 0 0 0 1.41.21c1.11-1.31 1.86-2.83 2.84-4.23a52.55 52.55 0 0 0 -1.62 5.77zm10.86-7c-.16 1-.36 2.09-.53 3.12a.82.82 0 0 0 .36.85c-1.36 2-3.08 3.92-5.63 4.06a8.62 8.62 0 0 1 -2.66-.39 13.26 13.26 0 0 0 1.27-2.91 4.88 4.88 0 0 0 .08 1.79.86.86 0 0 0 1.28.44 4.28 4.28 0 0 0 1.12-1.25.85.85 0 0 0 .67.41.84.84 0 0 0 1.39.23 4.8 4.8 0 0 0 .76-1.72 1.19 1.19 0 0 0 .08-.2c.11-.45.2-.9.3-1.35a4.42 4.42 0 0 1 .66-1.43.88.88 0 0 0 -.1-1.16c.08-.32.16-.63.25-.95a.78.78 0 0 0 .71.23zm-.4-4.67v-.16c0-.66-.64-.87-1.16-.69 0-.2 0-.4 0-.6a.72.72 0 0 0 -.14-.44 7 7 0 0 0 -.06-1.36 1.13 1.13 0 0 0 .34.08c.94 0 1.35 1.89 1.52 3.1a1 1 0 0 0 -.47.11zm2 5.61c0-.35.06-.7.07-1a19.33 19.33 0 0 0 -.07-6.36c1.57 2.38 1.19 4.99.04 7.38z"/><path d="m138.58 149a9.32 9.32 0 0 0 4.32-6.64c3.5-6.35-2.65-12.69-8.85-13.33a16.71 16.71 0 0 0 -5 .26 6.09 6.09 0 0 0 -2.06.09 1 1 0 0 0 -.74.77 14.28 14.28 0 0 0 -1.8.88 6.35 6.35 0 0 0 -2.62 2.76 23.45 23.45 0 0 0 -2.23 5.21c-1.1 5.64 5.59 11.83 10.72 12.81 3.09.58 5.77-1.12 8.26-2.81zm-1.22-1.13a3.63 3.63 0 0 0 .2-.61.7.7 0 0 0 -.48-.87 1 1 0 0 0 .18-.41c.5.11 1 .21 1.54.34a.68.68 0 0 0 .51-.08 11.87 11.87 0 0 1 -1.95 1.62zm3.87-5.51c0 .26-.09.52-.15.76a6.57 6.57 0 0 1 -1.4 2.71.84.84 0 0 0 0-.66 2.87 2.87 0 0 0 -.32-.53.85.85 0 0 0 .36-.51 2.74 2.74 0 0 0 .9-.46.85.85 0 0 0 .17-1.18 4.11 4.11 0 0 0 -.29-.3.8.8 0 0 0 .68-.09.72.72 0 0 0 .05.25zm-7.33-1.74a.76.76 0 0 0 -.69.3c-.39-.21-.77-.41-1.15-.63l-2.61-1.52a.84.84 0 0 0 .73-1c.58.5 1.16 1 1.76 1.45s1.32.94 1.96 1.39zm1.36-1.74a1 1 0 0 0 -.32.41c-.75-.53-1.51-1.06-2.29-1.67.88.38 1.75.81 2.61 1.25zm-1.72-8.21a11.31 11.31 0 0 1 3.9 1 8.29 8.29 0 0 1 4.24 4.61 12.34 12.34 0 0 0 -4.12-3.49c-1.07-.64-2.5-1.45-4.02-2.13zm-2.35 1.13a10.72 10.72 0 0 0 -.95-.5 37 37 0 0 1 5.33 2.35 13.7 13.7 0 0 1 4.76 3.39 4.84 4.84 0 0 1 .79 1.63c-2.15-1.69-4.44-3-6.74-4.55-1.1-.74-2.07-1.64-3.19-2.33zm-3.91-.2a8.55 8.55 0 0 0 1.23.75c.58.3 1.13.62 1.66.95a14.45 14.45 0 0 1 -3.82-1 .69.69 0 0 0 -.57-.06 11.27 11.27 0 0 1 1.5-.65zm-4.07 3.27a5.55 5.55 0 0 1 2.32-2.48 1 1 0 0 0 -.35.77.87.87 0 0 0 -.48 1.33c1.07 1.35 2.42 2.38 3.6 3.61a54.73 54.73 0 0 0 -5.35-2.71zm4.72 12c-1-.36-2-.76-3-1.12a.8.8 0 0 0 -.91.18c-1.72-1.72-3.24-3.78-2.89-6.32a8.86 8.86 0 0 1 .91-2.52 13.39 13.39 0 0 0 2.61 1.81 5 5 0 0 0 -1.78-.27.85.85 0 0 0 -.67 1.16 4.24 4.24 0 0 0 1 1.34 2.87 2.87 0 0 0 -1 1.9 4.74 4.74 0 0 0 1.53 1.08 1.18 1.18 0 0 0 .19.11l1.26.56a4.53 4.53 0 0 1 1.27.92.89.89 0 0 0 1.16.14c.29.14.59.27.88.43a.78.78 0 0 0 -.36.64zm4.66.51h.15c.64.15 1-.47.91-1l.58.12a.71.71 0 0 0 .46 0 6.46 6.46 0 0 0 1.35.2.84.84 0 0 0 -.15.33c-.2.91-2.12.95-3.34.88a1 1 0 0 0 .04-.53zm-5.9.89a8.85 8.85 0 0 0 1 .27 19.64 19.64 0 0 0 6.25 1.17c-2.6 1.07-5.11.15-7.25-1.44z"/><path d="m78.13 122.42a8.93 8.93 0 0 0 -1.2-3.46c1-1.76-.43-4.48-1.62-5.81-2.48-2.77-7-4.36-10.62-4.65a11.1 11.1 0 0 0 -8.36 2.56.86.86 0 0 0 -.93.88 15 15 0 0 0 -3.68 9.17c-.49 7 5.72 14 12.58 15.06 7.09 1.07 14.7-6.75 13.83-13.75zm-3.6-3.49a.74.74 0 0 0 .28-.08l.21.29a.9.9 0 0 0 .23.33c1.87 2.91 1.33 6.51-.43 9.36a.66.66 0 0 0 -.14-.15 6.44 6.44 0 0 0 -2.83-1.21 7.94 7.94 0 0 0 2.65-.35.85.85 0 0 0 .22-1.44 5.72 5.72 0 0 0 -2.19-1 9.1 9.1 0 0 0 3.27-.59c.62-.25.76-1.32 0-1.55-1.39-.45-2.83-.48-4.24-.9-.94-.28-1.88-.54-2.82-.76 1.9.12 3.8.2 5.71.17 1 0 1-1.56 0-1.68a8.59 8.59 0 0 1 -1.94-.52c.72.06 1.36.09 2.02.08zm-5.53 8.28c-.81 0-1.62-.08-2.42-.19-.52-.08-1-.18-1.54-.3h.32c1.14.09 2.39.28 3.64.49zm6.57-10.08q-.36-.39-.75-.75a.88.88 0 0 0 .08-.3 4.17 4.17 0 0 0 0-.5 4.22 4.22 0 0 1 .69 1.55zm-16.42-6.13a.78.78 0 0 0 .45.19c1.52.16 3 .5 4.47.8a.74.74 0 0 0 .92-.62c3.74.19 7.8.88 8.22 3.7a11.13 11.13 0 0 0 -1.66-.9 39.25 39.25 0 0 0 -7.64-2c-1.84-.4-3.93-.22-5.81-.59a8.91 8.91 0 0 1 1.05-.58zm-3.35 2.89c.14-.23.29-.44.44-.64a4.81 4.81 0 0 0 1.43.57c2.51.67 5 1 7.55 1.79.72.22 4.38.88 6.62 1.51-2.58-.23-5.11-.8-7.68-1.18a79.46 79.46 0 0 0 -9.12-.7c.23-.42.48-.87.76-1.32zm-1.49 10.87a.93.93 0 0 0 -.29 0 12.8 12.8 0 0 1 .31-7.84c3.52.45 7.05.87 10.54 1.55q1.62.33 3.24.72c-1.8-.11-3.59-.28-5.35-.51-2.7-.34-5.4-.82-8 0-.85.26-.58 1.45.18 1.62 3.56.77 7.18 1.08 10.77 1.65 1.1.18 2.18.4 3.26.66a27.14 27.14 0 0 1 -5-.16c-3.24-.59-6.17-1.82-9.39-.42-.71.31-.7 1.55.18 1.62a80 80 0 0 1 8.47 1.22c-3.02-.13-6.01.26-8.92-.08zm6.25 8.15a14.39 14.39 0 0 1 -5.84-6.26q.64.19 1.32.33a.89.89 0 0 0 .45 1.47c2.23.54 4.5.93 6.74 1.43a12.81 12.81 0 0 0 -3.11.36c-.8.2-.63 1.58.18 1.62a25 25 0 0 1 6.55.71c-.37.05-.73.11-1.1.19a.83.83 0 0 0 -.2 1.6 9.59 9.59 0 0 1 -4.99-1.42zm9.36-.62a5.82 5.82 0 0 0 -.66-.44h.65a.85.85 0 0 0 .59-1.35 3.55 3.55 0 0 0 -1.67-1c1.67.27 3.35.5 5 .65a11.45 11.45 0 0 1 -1.68 1.66 14.72 14.72 0 0 1 -2 1.31.75.75 0 0 0 -.23-.8z"/><path d="m174.35 117c-2-1.92-4.45-2.32-7-2.3v-.15c0-.92-1.1-1-1.54-.37-1.51 0-3.12-.73-4.62-.17a14.19 14.19 0 0 0 -4.08 2.33 15.56 15.56 0 0 0 -4.59 9.8 16.3 16.3 0 0 0 1 7.14 3.64 3.64 0 0 0 0 .66 1 1 0 0 0 .66.79 11.37 11.37 0 0 0 1.7 2.43 7.67 7.67 0 0 0 3.86 2.14.77.77 0 0 0 1 .19 14.94 14.94 0 0 0 3.71.1c7.32-.65 14-6.72 14.19-14.33.04-2.97-2.23-6.26-4.29-8.26zm0 2.45a.73.73 0 0 0 -.31.07l-.32.15a7.67 7.67 0 0 0 .15-.81c.13.2.27.4.43.6zm-13.35 13.76a.81.81 0 0 0 -.81-.07v-.08c.9-1.6 1.78-3.21 2.69-4.8-.36 1.55-.67 3.1-1.08 4.61a.83.83 0 0 0 -.8.34zm-2.73-1.81a4.57 4.57 0 0 0 -1.25.72 15.19 15.19 0 0 1 .57-1.73l.38-.87a1.31 1.31 0 0 1 .13-.23.86.86 0 0 0 .19-.52c.2-.48.41-1 .63-1.39.47-.95 1-1.87 1.5-2.78-.72 2.26-1.42 4.54-2.15 6.8zm9.09 1.33c-.47-.32-1.19-.24-1.26.47v.29a1 1 0 0 0 -.48-.14c1.11-2 2.32-4 3.52-6l-.06.17c-.61 1.74-1.08 3.48-1.72 5.21zm-1.52-3-.69 1.13c.55-1.73 1.1-3.46 1.74-5.15a.91.91 0 0 0 1.43-.15 6.88 6.88 0 0 1 .65-1.08c-.97 1.75-2.08 3.52-3.13 5.2zm6.62-12.07a1 1 0 0 0 -.16.26l-.11.24h-.11c0-.12 0-.24 0-.34a2.68 2.68 0 0 0 -.11-.45 5.43 5.43 0 0 1 .49.24zm-2.91 2.22a1.07 1.07 0 0 0 .16-.14 1.91 1.91 0 0 0 .66-1.28v-.07.84a16.15 16.15 0 0 0 -1 1.64c-.15.25-.3.48-.46.71a2.51 2.51 0 0 0 -.29-1.05c.06-.16.11-.32.17-.47a.66.66 0 0 0 .76-.23zm-5.3.8.47-.79a12.54 12.54 0 0 0 .09 1.73c-.45.85-.92 1.69-1.41 2.51q-1.2 2-2.35 4.07c.74-2.39 1.48-4.77 2.34-7.11a.82.82 0 0 0 .86-.46zm-2.34-3a.82.82 0 0 0 .35-.59 5.09 5.09 0 0 1 1-.35c-.9 1.52-1.86 3-2.8 4.51.54-1.25.94-2.43 1.45-3.61zm-7.6 11.69a14 14 0 0 1 3.08-10.79 6.76 6.76 0 0 1 2.8-2.07 15 15 0 0 0 -3.19 4.78c-1 2-2 3.58-2.32 5.81-.12.72-.25 1.47-.37 2.23zm1.46 1.3c-.08.15-.15.31-.24.46.24-1 .53-2.06.69-2.91a17 17 0 0 1 1.86-5.31c.18-.34.34-.67.5-1a.92.92 0 0 0 1.09.68c-.45.75-.9 1.5-1.32 2.26a31.69 31.69 0 0 0 -1.46 3.31 7.36 7.36 0 0 0 -1.12 2.47zm1.08 4.79a7.61 7.61 0 0 1 -.64-.83 1 1 0 0 0 .84-.26l.29-.27c-.16.41-.34.9-.49 1.32zm1.49.79a2.53 2.53 0 0 0 .13-.22.82.82 0 0 0 1.2 0c.07-.06.14-.14.2-.2a5.36 5.36 0 0 0 .2.95.69.69 0 0 0 .24.34l-.24.45a7.27 7.27 0 0 1 -2-1 .9.9 0 0 0 .27-.36zm5.19 1.76h-.16a11.29 11.29 0 0 0 1.16-2.18c.18-.14.37-.27.56-.39a5.78 5.78 0 0 1 .12.57.81.81 0 0 0 .68.56l-.12.59a.86.86 0 0 0 .12.56 12.58 12.58 0 0 1 -2.36.28zm7.95-2.76a14.88 14.88 0 0 1 -3.5 1.86 5.82 5.82 0 0 0 .52-.68 3.36 3.36 0 0 0 1.75-2.06c.16-.37.31-.76.47-1.14a3.26 3.26 0 0 0 .14.6.8.8 0 0 0 .6.53l-.06.25a.76.76 0 0 0 .08.6zm.83-4.66a.82.82 0 0 0 -.37.23s0 0 0 0a.76.76 0 0 0 -.4-.2c.5-1 1-2.08 1.45-3.13-.27 1.02-.47 2.04-.68 3.06zm1.45 2.61c.67-1.52 1.45-3 2-4.54.31-.85.76-1.6.94-2.35a11.92 11.92 0 0 1 -2.94 6.85zm.92-5.89c.12-.59.23-1.19.35-1.78a3.41 3.41 0 0 1 -.35 1.74zm1.68-2.89a.83.83 0 0 0 -1-.27c.09-.41.17-.82.27-1.22a.85.85 0 0 0 -1.46-.75 29 29 0 0 0 -3.32 6.16c-.18.37-.37.73-.56 1.09.19-.62.39-1.25.6-1.86.67-1.89 1.63-3.9 2.3-5.91a4.79 4.79 0 0 0 1.38-.49.85.85 0 0 0 .5-.63c.26.4.51.81.73 1.22a7.82 7.82 0 0 1 1 3.36 2.41 2.41 0 0 0 -.44-.74z"/><path d="m92.07 122.26c2.28 1.57 4.76 1.58 7.28 1.15v.15a.82.82 0 0 0 1.57.12c1.51-.19 3.2.23 4.59-.57a14.18 14.18 0 0 0 3.65-3 15.55 15.55 0 0 0 3-10.41 16.27 16.27 0 0 0 -2.16-6.88 3 3 0 0 0 -.1-.65 1 1 0 0 0 -.78-.67 11 11 0 0 0 -2.07-2.13 7.57 7.57 0 0 0 -4.15-1.5.78.78 0 0 0 -1 0 15.4 15.4 0 0 0 -3.68.49c-7.12 1.81-12.76 8.87-11.71 16.41.43 2.96 3.2 5.86 5.56 7.49zm-.34-2.42a1 1 0 0 0 .29-.12 2.43 2.43 0 0 1 .28-.2v.82zm10.93-15.7a.82.82 0 0 0 .81-.06.31.31 0 0 0 0 .08c-.64 1.72-1.25 3.45-1.89 5.17.1-1.59.17-3.17.32-4.73a.82.82 0 0 0 .76-.46zm3 1.35a4.51 4.51 0 0 0 1.12-.91 14.42 14.42 0 0 1 -.28 1.79l-.24.93a2.1 2.1 0 0 1 -.09.25.82.82 0 0 0 -.1.54c-.13.5-.26 1-.41 1.47-.31 1-.66 2-1 3 .34-2.36.61-4.72.98-7.07zm-9.18.13c.51.25 1.22 0 1.17-.66a1.36 1.36 0 0 1 0-.29.83.83 0 0 0 .49.06c-.78 2.17-1.66 4.31-2.52 6.47v-.18c.3-1.79.44-3.62.84-5.4zm2 2.77.51-1.23c-.27 1.8-.54 3.6-.9 5.37a.91.91 0 0 0 -1.39.38 5.87 5.87 0 0 1 -.47 1.16c.68-1.93 1.45-3.85 2.21-5.68zm-4.61 13a1 1 0 0 0 .12-.28l.07-.25h.12a1.6 1.6 0 0 0 .07.33 2 2 0 0 0 .18.43 5.55 5.55 0 0 1 -.6-.26zm2.52-2.65-.14.16a2 2 0 0 0 -.45 1.37v.08c0-.27-.07-.56-.14-.83a16.09 16.09 0 0 0 .71-1.78c.1-.26.22-.52.34-.77a2.33 2.33 0 0 0 .45 1l-.09.5a.64.64 0 0 0 -.72.24zm5.1-1.63-.33.85a13.72 13.72 0 0 0 -.36-1.69q.45-1.36 1-2.7c.58-1.46 1.12-2.93 1.66-4.4-.34 2.48-.69 5-1.17 7.39a.84.84 0 0 0 -.84.52zm2.79 2.57a.83.83 0 0 0 -.25.64 5.34 5.34 0 0 1 -1 .52c.65-1.65 1.36-3.27 2-4.9-.24 1.21-.47 2.47-.79 3.71zm5.65-12.75a14.05 14.05 0 0 1 -1.36 11.07 6.82 6.82 0 0 1 -2.44 2.5 14.83 14.83 0 0 0 2.38-5.23c.66-2.16 1.37-3.84 1.37-6.11 0-.72 0-1.49.01-2.26zm-1.66-1.05c.06-.16.11-.33.16-.49-.06 1-.19 2.12-.2 3a17.43 17.43 0 0 1 -1 5.54q-.18.54-.33 1.08a.92.92 0 0 0 -1.19-.5c.33-.81.65-1.62 1-2.44a34.66 34.66 0 0 0 .91-3.5v-.06a7.33 7.33 0 0 0 .61-2.66zm-1.82-4.56a8.54 8.54 0 0 1 .76.72 1 1 0 0 0 -.79.39l-.25.32c.05-.51.14-.98.24-1.46zm-1.6-.54a2.44 2.44 0 0 0 -.1.24.82.82 0 0 0 -1.18.21l-.17.24a4.65 4.65 0 0 0 -.34-.92.74.74 0 0 0 -.29-.29c0-.17.1-.33.16-.49a7.53 7.53 0 0 1 2.14.67.91.91 0 0 0 -.26.31zm-5.41-.91h.16a11.83 11.83 0 0 0 -.8 2.33 4.34 4.34 0 0 1 -.49.47c-.07-.17-.15-.35-.21-.53a.8.8 0 0 0 -.76-.45q0-.3 0-.6a.91.91 0 0 0 -.21-.54 13.44 13.44 0 0 1 2.27-.71zm-7.4 4a14.75 14.75 0 0 1 3.15-2.4c-.14.24-.28.49-.4.75a3.36 3.36 0 0 0 -1.4 2.31c-.1.4-.18.8-.28 1.2a3.93 3.93 0 0 0 -.24-.56.78.78 0 0 0 -.67-.43c0-.09 0-.17 0-.26a.77.77 0 0 0 -.2-.64zm-.08 4.73a.82.82 0 0 0 .33-.29.73.73 0 0 0 .41.13c-.34 1.08-.62 2.2-.93 3.31.07-1.11.1-2.15.15-3.18zm-1.84-2.35c-.43 1.6-1 3.17-1.27 4.81-.17.88-.49 1.7-.56 2.46a11.88 11.88 0 0 1 1.79-7.3zm0 6-.12 1.75a3.42 3.42 0 0 1 .1-1.82zm-1.2 3.12a.83.83 0 0 0 1.07.1l-.06 1.25a.85.85 0 0 0 1.55.51 28.94 28.94 0 0 0 2.3-6.61c.12-.39.25-.78.38-1.17-.09.65-.19 1.29-.3 1.94-.36 2-1 4.1-1.32 6.19a5.2 5.2 0 0 0 -1.29.71.86.86 0 0 0 -.4.7c-.32-.35-.63-.72-.91-1.08a8 8 0 0 1 -1.47-3.17 2.46 2.46 0 0 0 .43.56z"/><path d="m236.94 122.11a8.79 8.79 0 0 0 6.94 2.78c6.51 2.08 11.24-4.77 10.71-10.62a15.5 15.5 0 0 0 -1.17-4.6 5.64 5.64 0 0 0 -.46-1.89.94.94 0 0 0 -.85-.54 14.21 14.21 0 0 0 -1.14-1.51 6 6 0 0 0 -3-1.91 22 22 0 0 0 -5.23-1.1c-5.42 0-9.91 7.33-9.88 12.26-.01 3.02 2.06 5.15 4.08 7.13zm.83-1.33a3.63 3.63 0 0 0 .6.08.66.66 0 0 0 .71-.61 1 1 0 0 0 .42.09v1.49a.63.63 0 0 0 .18.46 11.15 11.15 0 0 1 -1.91-1.51zm5.8 2.57c-.25 0-.49 0-.73 0a6.12 6.12 0 0 1 -2.76-.8.79.79 0 0 0 .62-.1 3.08 3.08 0 0 0 .42-.39.86.86 0 0 0 .54.24 2.88 2.88 0 0 0 .59.75.8.8 0 0 0 1.12-.06 3.29 3.29 0 0 0 .23-.33.75.75 0 0 0 .2.61.63.63 0 0 0 -.23.08zm.27-7.1a.72.72 0 0 0 -.4-.58c.11-.4.23-.79.37-1.18l.93-2.69a.79.79 0 0 0 1.06.49c-.35.63-.71 1.25-1 1.89s-.66 1.39-.96 2.07zm1.86.94a1 1 0 0 0 -.44-.22c.35-.79.71-1.59 1.13-2.42-.22.88-.45 1.77-.69 2.64zm7.27-3.1a10.52 10.52 0 0 1 -.19 3.79 7.85 7.85 0 0 1 -3.48 4.77 11.63 11.63 0 0 0 2.47-4.46 42.4 42.4 0 0 0 1.23-4.1zm-1.47-2a9.89 9.89 0 0 0 .28-1 33.77 33.77 0 0 1 -1.19 5.36 13 13 0 0 1 -2.26 5 4.41 4.41 0 0 1 -1.36 1c1.16-2.3 2-4.67 3-7.06.44-1.03 1.09-2.1 1.53-3.26zm-.53-3.65a8.19 8.19 0 0 0 -.47 1.27c-.17.6-.37 1.16-.57 1.71a13.29 13.29 0 0 1 .22-3.72.68.68 0 0 0 -.05-.53 10.11 10.11 0 0 1 .9 1.31zm-3.78-3.17a5.28 5.28 0 0 1 2.73 1.69.94.94 0 0 0 -.78-.18.83.83 0 0 0 -1.32-.2c-1 1.24-1.76 2.67-2.68 4a53.49 53.49 0 0 0 1.53-5.44zm-10.19 6.61c.14-1 .33-2 .49-2.95a.76.76 0 0 0 -.34-.8c1.28-1.91 2.91-3.69 5.32-3.83a8.56 8.56 0 0 1 2.5.37 12.49 12.49 0 0 0 -1.2 2.75 4.56 4.56 0 0 0 -.08-1.69.79.79 0 0 0 -1.19-.41 3.76 3.76 0 0 0 -1.05 1.17.82.82 0 0 0 -.64-.39.79.79 0 0 0 -1.31-.21 4.61 4.61 0 0 0 -.72 1.62 1.07 1.07 0 0 0 -.07.19c-.1.43-.19.85-.29 1.27a4.2 4.2 0 0 1 -.61 1.35.82.82 0 0 0 .09 1.09c-.08.3-.15.6-.24.89a.76.76 0 0 0 -.66-.21 1.47 1.47 0 0 1 0-.21zm.37 4.4v.15c0 .62.61.82 1.09.65v.56a.64.64 0 0 0 .14.42 5.55 5.55 0 0 0 .06 1.28.88.88 0 0 0 -.33-.07c-.89 0-1.27-1.79-1.43-2.93a1 1 0 0 0 .43-.06zm-1.9-5.29c0 .33-.06.66-.06 1a18.53 18.53 0 0 0 .06 6c-1.47-2.24-1.12-4.73-.04-6.99z"/><path d="m182.76 135.92a8.8 8.8 0 0 0 -4.08 6.26c-3.3 6 2.5 12 8.34 12.57a15.84 15.84 0 0 0 4.74-.25 5.4 5.4 0 0 0 1.94-.09.92.92 0 0 0 .7-.72 12.73 12.73 0 0 0 1.7-.83 5.94 5.94 0 0 0 2.46-2.6 21.44 21.44 0 0 0 2.1-4.91c1-5.33-5.26-11.15-10.1-12.08-2.93-.56-5.46 1.05-7.8 2.65zm1.14 1.08a4.38 4.38 0 0 0 -.19.58.67.67 0 0 0 .46.82 1 1 0 0 0 -.17.39c-.48-.1-1-.2-1.45-.33a.65.65 0 0 0 -.49.09 11.89 11.89 0 0 1 1.84-1.55zm-3.65 5.2q.06-.37.15-.72a6.11 6.11 0 0 1 1.32-2.55.75.75 0 0 0 0 .62 2.22 2.22 0 0 0 .3.49.81.81 0 0 0 -.34.49 2.62 2.62 0 0 0 -.85.43.81.81 0 0 0 -.16 1.11 2.57 2.57 0 0 0 .28.29.74.74 0 0 0 -.64.08.61.61 0 0 0 -.06-.26zm6.92 1.64a.68.68 0 0 0 .64-.28c.37.19.74.39 1.09.59l2.46 1.44a.77.77 0 0 0 -.68.94c-.55-.46-1.1-.93-1.67-1.36s-1.24-.92-1.84-1.35zm-1.29 1.64a1 1 0 0 0 .31-.39c.7.5 1.42 1 2.15 1.58-.82-.41-1.65-.8-2.46-1.21zm1.63 7.74a10.51 10.51 0 0 1 -3.68-.93 7.81 7.81 0 0 1 -4-4.34 11.71 11.71 0 0 0 3.89 3.29 41.58 41.58 0 0 0 3.79 1.96zm2.21-1.07a7.69 7.69 0 0 0 .9.47 34.32 34.32 0 0 1 -5-2.21 12.85 12.85 0 0 1 -4.48-3.19 4.42 4.42 0 0 1 -.75-1.54c2 1.59 4.19 2.87 6.35 4.29 1.01.66 1.93 1.51 2.98 2.16zm3.69.2a7.61 7.61 0 0 0 -1.16-.71c-.55-.28-1.06-.59-1.56-.9a13.76 13.76 0 0 1 3.6.94.63.63 0 0 0 .53.06 11.3 11.3 0 0 1 -1.41.59zm3.83-3.09a5.18 5.18 0 0 1 -2.18 2.34.91.91 0 0 0 .33-.72.83.83 0 0 0 .45-1.26c-1-1.27-2.28-2.25-3.39-3.41a49.62 49.62 0 0 0 5 2.56zm-4.44-11.32c.94.34 1.87.71 2.79 1.06a.76.76 0 0 0 .85-.18c1.62 1.63 3.06 3.57 2.72 6a8 8 0 0 1 -.85 2.38 12.6 12.6 0 0 0 -2.46-1.71 4.61 4.61 0 0 0 1.68.26.8.8 0 0 0 .63-1.09 3.79 3.79 0 0 0 -.94-1.27 2.72 2.72 0 0 0 1-1.79 4.55 4.55 0 0 0 -1.45-1 .71.71 0 0 0 -.17-.11l-1.19-.53a4 4 0 0 1 -1.2-.86.84.84 0 0 0 -1.09-.13l-.83-.4a.76.76 0 0 0 .34-.61zm-4.39-.49h-.15c-.6-.15-.93.44-.85.94l-.55-.11a.65.65 0 0 0 -.44.05 5.19 5.19 0 0 0 -1.27-.19 1 1 0 0 0 .14-.31c.19-.86 2-.9 3.15-.83a.87.87 0 0 0 -.03.43zm5.55-.83a7.81 7.81 0 0 0 -1-.25 18.19 18.19 0 0 0 -5.89-1.11c2.51-1.03 4.93-.17 6.93 1.34z"/><path d="m226.73 78.17a8.49 8.49 0 0 0 -1.65 3c-1.87.39-2.85 3.13-3 4.8-.36 3.5 1.4 7.65 3.49 10.36a10.45 10.45 0 0 0 7.09 4.21.8.8 0 0 0 1.2.09 14.09 14.09 0 0 0 8.74-3.25c5.17-4.09 6.15-12.89 2.52-18.33-3.77-5.58-14.04-5.91-18.39-.88zm-.15 4.73a.61.61 0 0 0 -.23-.15c0-.11.05-.22.07-.33a.77.77 0 0 0 .08-.37c.84-3.15 3.7-5.06 6.8-5.64a.59.59 0 0 0 0 .19 6.06 6.06 0 0 0 1 2.75 7.54 7.54 0 0 0 -1.92-1.63.81.81 0 0 0 -1.15.77 5.4 5.4 0 0 0 .7 2.14 8.6 8.6 0 0 0 -2.48-1.91c-.57-.27-1.41.31-1.1 1 .57 1.25 1.46 2.27 2.06 3.53.4.83.82 1.64 1.26 2.44-1.12-1.4-2.27-2.78-3.51-4.09-.62-.66-1.7.31-1.19 1a9 9 0 0 1 .87 1.69c-.44-.48-.84-.94-1.26-1.39zm9.27-1.41c.49.59 1 1.18 1.41 1.81.27.41.53.83.77 1.26l-.19-.24c-.67-.83-1.31-1.83-1.99-2.83zm-11.19 1.8v1a.83.83 0 0 0 -.26.14c-.13.1-.24.21-.35.31a4 4 0 0 1 .61-1.45zm6.17 15.34a.75.75 0 0 0 -.16-.44c-.84-1.15-1.54-2.39-2.27-3.62a.7.7 0 0 0 -1-.24c-2.23-2.73-4.33-6-2.63-8.09a12.13 12.13 0 0 0 .42 1.73 37.68 37.68 0 0 0 3.45 6.6c.89 1.54 2.34 2.89 3.27 4.43a6.33 6.33 0 0 1 -1.08-.37zm4.14.51a4.69 4.69 0 0 1 -.73.09 4.51 4.51 0 0 0 -.5-1.36c-1.13-2.17-2.49-4.16-3.54-6.4-.31-.64-2.17-3.61-3.15-5.57 1.47 1.94 2.68 4.07 4 6.1a73.85 73.85 0 0 0 5.29 6.81c-.41.13-.88.24-1.34.33zm8.53-5.86a.69.69 0 0 0 .19.19 12.1 12.1 0 0 1 -5.69 4.77c-1.92-2.75-3.86-5.48-5.6-8.35-.54-.88-1-1.79-1.55-2.71q1.59 2 3 4c1.48 2.11 2.85 4.29 5.11 5.62.73.42 1.39-.52 1-1.15-1.72-3-3.8-5.7-5.68-8.57-.57-.88-1.11-1.77-1.61-2.68a25.71 25.71 0 0 1 3.15 3.6c1.64 2.64 2.64 5.47 5.65 6.82.68.3 1.53-.49 1-1.15a79.19 79.19 0 0 1 -4.47-6.67c1.72 2.2 3.89 4 5.5 6.28zm1.72-9.53a13.6 13.6 0 0 1 -.66 8c-.19-.38-.39-.75-.61-1.12a.84.84 0 0 0 .74-1.25c-1-1.9-2.21-3.73-3.28-5.61a12.17 12.17 0 0 0 2.22 1.94c.65.43 1.51-.56 1-1.15a23.5 23.5 0 0 1 -3.66-5c.27.22.54.44.83.65a.79.79 0 0 0 1.25-.87 9.12 9.12 0 0 1 2.17 4.41zm-6.37-6.13a6.29 6.29 0 0 0 .11.74l-.41-.46a.8.8 0 0 0 -1.31.45 3.32 3.32 0 0 0 .34 1.81c-.87-1.34-1.78-2.65-2.75-3.93a11 11 0 0 1 2.23.12 14.35 14.35 0 0 1 2.17.55.72.72 0 0 0 -.38.72z"/><path d="m167 110.84c1.89 1.81 4.2 2.19 6.6 2.17v.14c0 .87 1 .91 1.45.35 1.43 0 2.94.69 4.35.16a13.21 13.21 0 0 0 3.85-2.2 14.67 14.67 0 0 0 4.33-9.23 15.39 15.39 0 0 0 -1-6.74 4.27 4.27 0 0 0 0-.62.93.93 0 0 0 -.62-.74 10.71 10.71 0 0 0 -1.61-2.29 7.16 7.16 0 0 0 -3.64-2 .73.73 0 0 0 -.9-.19 14.72 14.72 0 0 0 -3.5-.09c-6.9.62-13.21 6.34-13.37 13.51-.02 2.79 2.12 5.93 4.06 7.77zm.05-2.3a1.11 1.11 0 0 0 .29-.07l.29-.14c0 .25-.1.5-.13.76-.15-.18-.3-.37-.44-.55zm12.53-13a.78.78 0 0 0 .77.06v.08c-.85 1.51-1.68 3-2.54 4.53.34-1.46.64-2.92 1-4.35a.75.75 0 0 0 .78-.29zm2.58 1.71a4.13 4.13 0 0 0 1.17-.68 13.29 13.29 0 0 1 -.53 1.62l-.36.83a1.81 1.81 0 0 1 -.12.22.78.78 0 0 0 -.18.48c-.19.45-.39.9-.59 1.32-.44.89-.92 1.76-1.42 2.62.69-2.11 1.34-4.25 2.04-6.38zm-8.56-1.25c.44.3 1.12.23 1.18-.44a2.45 2.45 0 0 1 0-.27.82.82 0 0 0 .45.12c-1.05 1.89-2.19 3.76-3.32 5.63l.06-.16c.58-1.58 1.03-3.26 1.63-4.88zm1.4 2.89.65-1.06c-.52 1.63-1 3.26-1.64 4.86a.85.85 0 0 0 -1.35.14 5.65 5.65 0 0 1 -.61 1c.95-1.68 1.95-3.35 2.95-4.94zm-6.24 11.38a.7.7 0 0 0 .15-.24l.1-.22h.11a1.57 1.57 0 0 0 0 .32 2.41 2.41 0 0 0 .1.43 4.32 4.32 0 0 1 -.43-.29zm2.74-2.09-.15.14a1.88 1.88 0 0 0 -.62 1.21v.07c0-.26 0-.54 0-.79a16.72 16.72 0 0 0 .92-1.55 7.82 7.82 0 0 1 .43-.68 2.37 2.37 0 0 0 .27 1l-.15.45a.62.62 0 0 0 -.67.15zm5-.75-.44.74a12.82 12.82 0 0 0 -.09-1.63c.43-.8.87-1.59 1.33-2.36.76-1.27 1.49-2.55 2.21-3.84-.69 2.25-1.39 4.5-2.2 6.7a.78.78 0 0 0 -.78.39zm2.2 2.81a.8.8 0 0 0 -.32.56 5 5 0 0 1 -1 .34c.85-1.44 1.76-2.84 2.65-4.26-.41 1.12-.81 2.26-1.3 3.36zm7.18-11a13.22 13.22 0 0 1 -2.88 10.16 6.53 6.53 0 0 1 -2.64 2 14.21 14.21 0 0 0 3-4.51 18.61 18.61 0 0 0 2.19-5.48zm-1.36-1.24.23-.43c-.22 1-.5 1.94-.65 2.74a16 16 0 0 1 -1.76 5c-.16.31-.31.63-.46 1a.87.87 0 0 0 -1-.64c.42-.71.84-1.41 1.24-2.13a32.16 32.16 0 0 0 1.38-3.12 6.82 6.82 0 0 0 1.02-2.42zm-1-4.52a9.63 9.63 0 0 1 .6.79 1 1 0 0 0 -.79.24l-.28.26c.15-.43.29-.86.46-1.29zm-1.41-.74-.11.26a.78.78 0 0 0 -1.13 0l-.19.2a4.81 4.81 0 0 0 -.19-.9.66.66 0 0 0 -.22-.32c.07-.14.14-.29.22-.43a7 7 0 0 1 1.89.95 1.18 1.18 0 0 0 -.28.24zm-4.89-1.66a.75.75 0 0 0 .15 0 10.88 10.88 0 0 0 -1.09 2.06 6.33 6.33 0 0 1 -.54.36c0-.18-.08-.35-.11-.53a.76.76 0 0 0 -.64-.53l.12-.56a.77.77 0 0 0 -.12-.53 13.06 13.06 0 0 1 2.22-.27zm-7.5 2.61a14.14 14.14 0 0 1 3.3-1.76 7.62 7.62 0 0 0 -.48.64 3.15 3.15 0 0 0 -1.66 1.94c-.15.36-.29.72-.44 1.07a4.09 4.09 0 0 0 -.13-.56.77.77 0 0 0 -.57-.5l.06-.24a.68.68 0 0 0 -.09-.59zm-.78 4.39a.77.77 0 0 0 .35-.22s0 0 0 0a.7.7 0 0 0 .37.19c-.47 1-.9 2-1.36 2.95.25-1 .43-2 .63-2.92zm-1.36-2.46c-.63 1.43-1.37 2.81-1.9 4.28-.29.8-.71 1.51-.89 2.21a11.21 11.21 0 0 1 2.78-6.49zm-.87 5.55c-.11.56-.22 1.12-.34 1.67a3.19 3.19 0 0 1 .33-1.67zm-1.59 2.72a.77.77 0 0 0 1 .25c-.08.39-.16.78-.25 1.16a.8.8 0 0 0 1.37.7 27.3 27.3 0 0 0 3.14-5.8c.16-.35.34-.69.53-1-.19.59-.37 1.17-.58 1.76-.62 1.78-1.53 3.67-2.16 5.56a5.14 5.14 0 0 0 -1.3.47.77.77 0 0 0 -.47.59c-.25-.38-.48-.76-.69-1.15a7.37 7.37 0 0 1 -.9-3.16 2.35 2.35 0 0 0 .3.62z"/><path d="m261.81 140.62c1.36-2.23 1.23-4.56.7-6.91h.14c.84-.2.66-1.21 0-1.49-.26-1.4 0-3-.79-4.29a13.4 13.4 0 0 0 -3-3.28 14.71 14.71 0 0 0 -10-2.24 15.3 15.3 0 0 0 -6.36 2.4 2.78 2.78 0 0 0 -.61.13.9.9 0 0 0 -.59.77 10.27 10.27 0 0 0 -1.9 2.06 7.28 7.28 0 0 0 -1.19 4 .74.74 0 0 0 0 .93 14.45 14.45 0 0 0 .66 3.44c2.08 6.6 9 11.53 16.07 10.15 2.89-.6 5.47-3.36 6.87-5.67zm-2.26.45a.82.82 0 0 0 -.13-.27l-.2-.25h.77c-.14.16-.29.34-.44.52zm-15.35-9.45a.78.78 0 0 0 -.11-.76h.08c1.65.51 3.31 1 5 1.5-1.5 0-3 0-4.47-.05a.75.75 0 0 0 -.5-.69zm1.11-2.88a4.2 4.2 0 0 0 -.92-1 12.55 12.55 0 0 1 1.7.17l.88.17.25.07a.78.78 0 0 0 .51.07q.72.14 1.41.3c1 .24 1.92.52 2.86.82-2.23-.2-4.46-.34-6.69-.6zm.61 8.64c.2-.5 0-1.15-.68-1.07a2.56 2.56 0 0 1 -.27.05.84.84 0 0 0 0-.47c2.07.62 4.14 1.33 6.21 2h-.17c-1.66-.2-3.39-.23-5.09-.51zm2.5-2-1.18-.41c1.71.16 3.41.32 5.09.56a.86.86 0 0 0 .44 1.29 5.48 5.48 0 0 1 1.12.38c-1.89-.6-3.7-1.2-5.47-1.84zm12.45 3.62a.85.85 0 0 0 -.27-.1h-.24a.41.41 0 0 0 0-.11l.31-.08a2.4 2.4 0 0 0 .39-.2c-.06.14-.06.32-.19.49zm-2.63-2.23.17.12a1.81 1.81 0 0 0 1.31.35h.08c-.26.06-.53.1-.78.17a17.11 17.11 0 0 0 -1.71-.57c-.26-.08-.51-.18-.75-.28a2.4 2.4 0 0 0 .91-.47l.47.05a.63.63 0 0 0 .3.64zm-1.8-4.72.81.28a12.55 12.55 0 0 0 -1.57.42c-.87-.23-1.74-.5-2.59-.78-1.4-.47-2.81-.91-4.23-1.34 2.35.2 4.69.4 7 .71a.78.78 0 0 0 .58.72zm2.27-2.76a.75.75 0 0 0 .61.2 4.32 4.32 0 0 1 .54.89c-1.58-.52-3.15-1.1-4.72-1.66 1.19.2 2.39.35 3.57.58zm-12.31-4.63a13.23 13.23 0 0 1 10.56.65 6.26 6.26 0 0 1 2.48 2.16 14.11 14.11 0 0 0 -5.05-2 19 19 0 0 0 -5.82-1zm-.89 1.61-.48-.12c1 0 2 .07 2.82 0a16.47 16.47 0 0 1 5.27.65l1 .25a.88.88 0 0 0 -.41 1.14c-.77-.26-1.55-.52-2.34-.75a29.48 29.48 0 0 0 -3.35-.68h-.05a7.07 7.07 0 0 0 -2.46-.48zm-4.2 2a7.47 7.47 0 0 1 .64-.75 1 1 0 0 0 .41.72l.31.22zm-.42 1.54.23.08a.77.77 0 0 0 .26 1.1l.23.14a5.23 5.23 0 0 0 -.84.37.83.83 0 0 0 -.27.29l-.46-.12a7 7 0 0 1 .52-2.06.88.88 0 0 0 .33.17zm-.57 5.13v-.14a11.17 11.17 0 0 0 2.24.62l.47.44-.49.23a.74.74 0 0 0 -.38.74 5.42 5.42 0 0 0 -.57 0 .74.74 0 0 0 -.5.22 12.7 12.7 0 0 1 -.77-2.14zm4.16 6.76a14 14 0 0 1 -2.43-2.84 6.89 6.89 0 0 0 .73.34 3.23 3.23 0 0 0 2.25 1.2c.38.07.77.12 1.15.2a2.26 2.26 0 0 0 -.52.25.75.75 0 0 0 -.37.65h-.29a.7.7 0 0 0 -.52.17zm4.45-.18a.82.82 0 0 0 -.29-.3.71.71 0 0 0 .11-.41s0 0 0 0c1 .26 2.11.47 3.17.7zm-2.1 1.86c1.53.31 3 .74 4.58.94.85.11 1.63.37 2.35.39a11.15 11.15 0 0 1 -6.93-1.36zm5.6-.34h1.71a3.37 3.37 0 0 1 -1.71-.04zm3 1a.76.76 0 0 0 0-1h1.18a.8.8 0 0 0 .39-1.49 27.24 27.24 0 0 0 -6.34-1.82c-.37-.08-.75-.18-1.12-.29.62 0 1.23.1 1.84.18 1.88.23 3.91.71 5.9.91a4.46 4.46 0 0 0 .74 1.17.78.78 0 0 0 .68.34c-.32.32-.64.63-1 .92a7.33 7.33 0 0 1 -2.91 1.55 2 2 0 0 0 .64-.51z"/><path d="m203.53 77.45a9.29 9.29 0 0 0 7.35 3c6.91 2.2 11.93-5.06 11.36-11.26a16.67 16.67 0 0 0 -1.24-4.93 6.06 6.06 0 0 0 -.5-2 1 1 0 0 0 -.89-.57 12.74 12.74 0 0 0 -1.22-1.6 6.33 6.33 0 0 0 -3.21-2 23.59 23.59 0 0 0 -5.54-1.17c-5.76 0-10.52 7.78-10.48 13 .03 3.13 2.22 5.43 4.37 7.53zm.87-1.45a2.61 2.61 0 0 0 .64.08.71.71 0 0 0 .76-.64 1 1 0 0 0 .44.09v1.58a.66.66 0 0 0 .19.49 12.57 12.57 0 0 1 -2.03-1.6zm6.16 2.73q-.39 0-.78 0a6.67 6.67 0 0 1 -2.92-.85.83.83 0 0 0 .65-.11 3 3 0 0 0 .45-.42.84.84 0 0 0 .58.26 2.82 2.82 0 0 0 .62.8.86.86 0 0 0 1.19-.07 3.39 3.39 0 0 0 .23-.34.85.85 0 0 0 .22.65.62.62 0 0 0 -.24.12zm.28-7.53a.77.77 0 0 0 -.42-.62c.12-.42.25-.84.39-1.25l1-2.85a.82.82 0 0 0 1.12.51c-.37.67-.75 1.33-1.08 2s-.69 1.53-1.01 2.25zm2 1a1.11 1.11 0 0 0 -.46-.23c.37-.83.75-1.69 1.19-2.57-.26.97-.49 1.91-.76 2.83zm7.69-3.2a11.29 11.29 0 0 1 -.2 4 8.28 8.28 0 0 1 -3.7 5.06 12.37 12.37 0 0 0 2.62-4.72 43 43 0 0 0 1.28-4.34zm-1.53-2.14c.12-.33.21-.68.3-1a37 37 0 0 1 -1.3 5.66 13.84 13.84 0 0 1 -2.4 5.33 4.73 4.73 0 0 1 -1.45 1.09c1.23-2.44 2.12-5 3.15-7.49.51-1.22 1.2-2.36 1.7-3.59zm-.59-3.86a7.14 7.14 0 0 0 -.5 1.35c-.18.63-.39 1.23-.61 1.81a13.74 13.74 0 0 1 .24-3.94.71.71 0 0 0 -.06-.56 11.31 11.31 0 0 1 .93 1.34zm-4-3.35a5.49 5.49 0 0 1 2.89 1.78 1 1 0 0 0 -.82-.19.89.89 0 0 0 -1.41-.21c-1.11 1.32-1.86 2.84-2.84 4.23a51.33 51.33 0 0 0 1.62-5.77zm-10.86 7c.16-1 .35-2.09.53-3.12a.83.83 0 0 0 -.36-.85c1.35-2 3.08-3.91 5.63-4.06a9.26 9.26 0 0 1 2.65.38 13.35 13.35 0 0 0 -1.27 2.92 5.18 5.18 0 0 0 -.08-1.8.85.85 0 0 0 -1.27-.43 4.24 4.24 0 0 0 -1.12 1.24.85.85 0 0 0 -.67-.41.83.83 0 0 0 -1.39-.22 4.52 4.52 0 0 0 -.76 1.71 1 1 0 0 0 -.08.21c-.11.45-.21.9-.31 1.34a4.3 4.3 0 0 1 -.65 1.43.88.88 0 0 0 .1 1.16c-.08.32-.16.64-.26 1a.79.79 0 0 0 -.7-.23zm.4 4.68a.76.76 0 0 1 0 .15c0 .66.65.88 1.16.7v.59a.73.73 0 0 0 .14.45 6.28 6.28 0 0 0 .06 1.36.74.74 0 0 0 -.34-.08c-.94 0-1.35-1.9-1.52-3.11a1.11 1.11 0 0 0 .49-.12zm-2-5.61c0 .34-.06.69-.06 1a19.62 19.62 0 0 0 .06 6.36c-1.58-2.37-1.17-5.02-.03-7.42z"/><path d="m169.64 59.24a9.33 9.33 0 0 0 -4.32 6.64c-3.5 6.35 2.65 12.69 8.84 13.34a16.45 16.45 0 0 0 5-.27 5.84 5.84 0 0 0 2.06-.09 1 1 0 0 0 .74-.77 13 13 0 0 0 1.8-.88 6.27 6.27 0 0 0 2.61-2.76 23.41 23.41 0 0 0 2.24-5.2c1.09-5.65-5.59-11.83-10.72-12.81-3.08-.6-5.76 1.11-8.25 2.8zm1.22 1.13a3.64 3.64 0 0 0 -.21.61.7.7 0 0 0 .49.87 1 1 0 0 0 -.18.42c-.51-.11-1-.21-1.54-.35a.72.72 0 0 0 -.52.09 12.44 12.44 0 0 1 1.96-1.64zm-3.86 5.52c.05-.27.1-.52.16-.77a6.47 6.47 0 0 1 1.4-2.7.84.84 0 0 0 0 .66 2.61 2.61 0 0 0 .32.52.9.9 0 0 0 -.37.51 2.9 2.9 0 0 0 -.89.46.85.85 0 0 0 -.17 1.18 2.76 2.76 0 0 0 .29.3.83.83 0 0 0 -.68.09.51.51 0 0 0 -.06-.25zm7.34 1.73a.71.71 0 0 0 .68-.29c.39.2.78.41 1.16.63l2.6 1.52a.83.83 0 0 0 -.72 1c-.58-.49-1.16-1-1.76-1.45s-1.3-.95-1.98-1.41zm-1.34 1.75a1.14 1.14 0 0 0 .32-.41c.74.52 1.51 1.06 2.28 1.67-.91-.41-1.78-.83-2.6-1.26zm1.72 8.21a11.11 11.11 0 0 1 -3.9-1 8.29 8.29 0 0 1 -4.28-4.58 12.34 12.34 0 0 0 4.12 3.49c1.07.6 2.5 1.4 4.02 2.09zm2.28-1.14a7.79 7.79 0 0 0 .95.5 36.09 36.09 0 0 1 -5.34-2.34 13.7 13.7 0 0 1 -4.75-3.39 4.93 4.93 0 0 1 -.79-1.63c2.15 1.68 4.44 3 6.74 4.55 1.13.72 2.1 1.62 3.19 2.31zm3.91.21a8.55 8.55 0 0 0 -1.23-.75c-.59-.3-1.13-.62-1.66-1a13.72 13.72 0 0 1 3.82 1 .68.68 0 0 0 .57 0 11.3 11.3 0 0 1 -1.47.75zm4.09-3.28a5.57 5.57 0 0 1 -2.32 2.49 1 1 0 0 0 .35-.77.88.88 0 0 0 .47-1.34c-1.07-1.34-2.41-2.38-3.59-3.61a53.5 53.5 0 0 0 5.34 2.71zm-4.72-12c1 .35 2 .75 3 1.12a.81.81 0 0 0 .91-.19c1.72 1.73 3.24 3.79 2.88 6.32a8.87 8.87 0 0 1 -.9 2.53 13.7 13.7 0 0 0 -2.61-1.81 4.72 4.72 0 0 0 1.78.26.84.84 0 0 0 .67-1.15 4.24 4.24 0 0 0 -1-1.34.85.85 0 0 0 .53-.59.82.82 0 0 0 .49-1.31 4.74 4.74 0 0 0 -1.53-1.08.76.76 0 0 0 -.19-.12l-1.31-.56a4.39 4.39 0 0 1 -1.27-.92.88.88 0 0 0 -1.16-.13l-.88-.43a.8.8 0 0 0 .36-.65zm-4.66-.52h-.15c-.64-.15-1 .47-.91 1l-.58-.13a.71.71 0 0 0 -.46.06 6.46 6.46 0 0 0 -1.35-.21.79.79 0 0 0 .15-.32c.2-.92 2.12-.95 3.34-.88a1 1 0 0 0 -.03.48zm5.9-.89c-.34-.1-.67-.19-1-.26a19.66 19.66 0 0 0 -6.25-1.18c2.61-1.07 5.12-.15 7.26 1.48z"/><path d="m189.17 97.43a9 9 0 0 0 1.2 3.46c-1 1.75.42 4.47 1.62 5.8 2.48 2.77 7 4.36 10.61 4.65a11.07 11.07 0 0 0 8.37-2.56.86.86 0 0 0 .93-.88 14.91 14.91 0 0 0 3.68-9.17c.49-7-5.72-14-12.58-15.06-7.09-1.06-14.67 6.75-13.83 13.76zm3.6 3.48a.76.76 0 0 0 -.28.09l-.21-.3a.79.79 0 0 0 -.23-.32c-1.88-2.91-1.33-6.52.43-9.36a1 1 0 0 0 .14.15 6.55 6.55 0 0 0 2.83 1.21 7.94 7.94 0 0 0 -2.65.34.86.86 0 0 0 -.22 1.45 5.88 5.88 0 0 0 2.19 1 8.88 8.88 0 0 0 -3.27.58c-.62.25-.76 1.32 0 1.56 1.39.44 2.83.48 4.24.9q1.41.42 2.82.75c-1.9-.12-3.8-.2-5.71-.16-1 0-1 1.55 0 1.67a9.14 9.14 0 0 1 1.94.52c-.72-.06-1.36-.08-2.02-.08zm5.51-8.27c.81 0 1.62.07 2.42.18.52.08 1 .18 1.54.3h-.32c-1.13-.12-2.37-.3-3.64-.48zm-6.57 10.07q.36.39.75.75a1 1 0 0 0 -.08.3 4.17 4.17 0 0 0 0 .5 4.15 4.15 0 0 1 -.67-1.55zm16.44 6.1a.78.78 0 0 0 -.45-.19 44.46 44.46 0 0 1 -4.47-.8.74.74 0 0 0 -.92.63c-3.74-.2-7.8-.88-8.22-3.71a11.13 11.13 0 0 0 1.66.9 39.25 39.25 0 0 0 7.64 2c1.84.4 3.93.22 5.8.6a8 8 0 0 1 -1.04.57zm3.35-2.88c-.14.22-.29.43-.44.64a4.57 4.57 0 0 0 -1.43-.58c-2.51-.67-5-1-7.55-1.79-.72-.22-4.38-.88-6.62-1.5 2.58.23 5.1.79 7.68 1.17a77.27 77.27 0 0 0 9.12.7c-.26.43-.48.91-.76 1.36zm1.5-10.87a.93.93 0 0 0 .29 0 12.8 12.8 0 0 1 -.31 7.84c-3.52-.45-7.05-.87-10.54-1.55-1.09-.21-2.16-.46-3.24-.72 1.8.12 3.59.29 5.35.51 2.7.35 5.4.82 8.05 0 .85-.27.58-1.46-.18-1.62-3.56-.77-7.18-1.08-10.77-1.66-1.1-.18-2.18-.39-3.26-.65a27.14 27.14 0 0 1 5 .15c3.24.59 6.17 1.82 9.39.43.71-.31.7-1.55-.18-1.62a82.66 82.66 0 0 1 -8.47-1.23c2.96.16 5.95-.22 8.87.12zm-6.25-8.16a14.45 14.45 0 0 1 5.84 6.26q-.65-.19-1.32-.33a.89.89 0 0 0 -.45-1.47c-2.23-.54-4.5-.93-6.74-1.42a12.83 12.83 0 0 0 3.11-.37c.8-.2.63-1.58-.18-1.62a24.55 24.55 0 0 1 -6.55-.71c.37 0 .73-.11 1.1-.18a.84.84 0 0 0 .2-1.61 9.68 9.68 0 0 1 4.98 1.45zm-9.36.63a7.57 7.57 0 0 0 .61.47h-.65a.85.85 0 0 0 -.59 1.35 3.55 3.55 0 0 0 1.67 1c-1.67-.26-3.35-.5-5-.64a11 11 0 0 1 1.68-1.71 13.82 13.82 0 0 1 2-1.31.75.75 0 0 0 .27.84z"/><path d="m141.22 65.43c2 1.92 4.45 2.32 7 2.31v.14c0 .92 1.1 1 1.54.37 1.51 0 3.12.74 4.61.17a14.06 14.06 0 0 0 4.08-2.33 15.48 15.48 0 0 0 4.59-9.8 16.19 16.19 0 0 0 -1-7.14 3.61 3.61 0 0 0 0-.66 1 1 0 0 0 -.66-.78 11.48 11.48 0 0 0 -1.71-2.44 7.64 7.64 0 0 0 -3.85-2.14.79.79 0 0 0 -1-.19 14.92 14.92 0 0 0 -3.71-.1c-7.31.65-14 6.72-14.18 14.33-.05 2.98 2.22 6.28 4.29 8.26zm.05-2.44a1.18 1.18 0 0 0 .3-.07l.32-.16q-.09.41-.15.81c-.16-.19-.32-.38-.47-.57zm13.29-13.75a.81.81 0 0 0 .81.06.28.28 0 0 0 0 .09c-.91 1.59-1.79 3.2-2.69 4.8.35-1.55.67-3.1 1.07-4.62a.79.79 0 0 0 .81-.33zm2.73 1.81a4.71 4.71 0 0 0 1.25-.73 14.49 14.49 0 0 1 -.56 1.73c-.13.29-.26.58-.38.87a1.93 1.93 0 0 1 -.14.24.8.8 0 0 0 -.18.51c-.21.48-.41.95-.64 1.39-.46.95-1 1.87-1.5 2.78.72-2.26 1.41-4.54 2.15-6.79zm-9.09-1.34c.47.32 1.2.24 1.26-.47a2.64 2.64 0 0 1 0-.28.81.81 0 0 0 .48.13c-1.11 2-2.32 4-3.51 6l.06-.17c.61-1.73 1.04-3.52 1.71-5.21zm1.52 3c.23-.38.47-.75.69-1.13-.55 1.73-1.1 3.46-1.73 5.15a.9.9 0 0 0 -1.43.16 7.08 7.08 0 0 1 -.65 1.11c1.01-1.79 2.08-3.55 3.12-5.24zm-6.62 12.12a1.06 1.06 0 0 0 .17-.26l.1-.24h.12a1.83 1.83 0 0 0 0 .34 2.42 2.42 0 0 0 .1.45 4.76 4.76 0 0 1 -.49-.29zm2.9-2.22-.16.14a2 2 0 0 0 -.66 1.28v.08c0-.28 0-.57 0-.84.36-.49.62-1 1-1.65.14-.25.3-.48.46-.71a2.35 2.35 0 0 0 .28 1l-.16.48a.67.67 0 0 0 -.76.22zm5.3-.79c-.15.26-.31.52-.47.78a12.53 12.53 0 0 0 -.08-1.73c.44-.85.91-1.68 1.4-2.51.81-1.34 1.58-2.7 2.35-4.06-.74 2.38-1.48 4.76-2.33 7.1a.85.85 0 0 0 -.86.42zm2.34 3a.83.83 0 0 0 -.34.59 5.22 5.22 0 0 1 -1.05.36c.9-1.52 1.86-3 2.8-4.52-.45 1.17-.89 2.38-1.4 3.55zm7.61-11.69a14 14 0 0 1 -3.08 10.79 6.88 6.88 0 0 1 -2.8 2.08 14.89 14.89 0 0 0 3.18-4.79c1-2 2-3.57 2.32-5.8.13-.78.26-1.54.39-2.3zm-1.47-1.3.24-.46c-.23 1-.53 2.06-.68 2.91a17.24 17.24 0 0 1 -1.87 5.31l-.5 1a.93.93 0 0 0 -1.09-.68c.46-.74.9-1.49 1.32-2.26a28.92 28.92 0 0 0 1.46-3.31s0 0 .05 0a7.27 7.27 0 0 0 1.08-2.53zm-1.06-4.83c.22.26.44.54.64.83a1 1 0 0 0 -.84.26l-.3.27c.16-.43.32-.89.5-1.36zm-1.5-.79a2.53 2.53 0 0 1 -.13.22.83.83 0 0 0 -1.2 0l-.2.21a5.43 5.43 0 0 0 -.19-1 .84.84 0 0 0 -.24-.34c.07-.15.15-.3.23-.45a7.56 7.56 0 0 1 2 1 1 1 0 0 0 -.27.38zm-5.22-1.73h.15a12.06 12.06 0 0 0 -1.15 2.17 5.58 5.58 0 0 1 -.56.39c0-.19-.09-.38-.12-.56a.81.81 0 0 0 -.68-.57 5.13 5.13 0 0 0 .12-.59.8.8 0 0 0 -.12-.56 12 12 0 0 1 2.36-.28zm-8 2.76a15.11 15.11 0 0 1 3.5-1.87c-.18.22-.35.44-.51.68a3.35 3.35 0 0 0 -1.76 2.06c-.16.38-.3.76-.47 1.14a3 3 0 0 0 -.14-.59.81.81 0 0 0 -.59-.54l.06-.25a.77.77 0 0 0 -.01-.63zm-.83 4.65a.85.85 0 0 0 .38-.23.72.72 0 0 0 .39.19c-.5 1-1 2.09-1.44 3.13zm-1.44-2.6c-.67 1.51-1.45 3-2 4.53-.3.85-.75 1.61-.94 2.35a11.93 11.93 0 0 1 3.02-6.88zm-.93 5.88c-.11.6-.23 1.19-.35 1.78a3.51 3.51 0 0 1 .43-1.78zm-1.68 2.89a.84.84 0 0 0 1.05.27l-.17 1.23a.85.85 0 0 0 1.45.74c1.52-1.85 2.3-4 3.33-6.16.17-.36.36-.73.56-1.09-.2.63-.39 1.25-.61 1.87-.66 1.89-1.63 3.89-2.29 5.9a5.22 5.22 0 0 0 -1.38.49.88.88 0 0 0 -.51.63c-.26-.4-.5-.81-.73-1.21a7.89 7.89 0 0 1 -.94-3.36 2.2 2.2 0 0 0 .32.69z"/><path d="m230 122.17c-.37-2.75-2-4.58-4-6.16l.08-.12c.56-.73-.26-1.44-1-1.25-1.15-1-2-2.51-3.51-3a14 14 0 0 0 -4.64-.71 15.5 15.5 0 0 0 -9.7 4.81 16.27 16.27 0 0 0 -3.63 6.23 3.57 3.57 0 0 0 -.42.51 1 1 0 0 0 0 1 11 11 0 0 0 -.18 3 7.67 7.67 0 0 0 1.69 4.08.77.77 0 0 0 .63.75 15.2 15.2 0 0 0 2.84 2.39c6.14 4 15.15 3.45 20-2.39 1.97-2.31 2.25-6.31 1.84-9.14zm-1.56 1.89a.74.74 0 0 0 -.28-.14l-.34-.08a7.84 7.84 0 0 0 .61-.54 6.4 6.4 0 0 1 .03.76zm-19 2.49a.82.82 0 0 0 -.59-.56.43.43 0 0 0 0-.07c1.71-.68 3.4-1.4 5.1-2.08-1.25 1-2.46 2-3.72 3a.79.79 0 0 0 -.73-.29zm-1-3.12a4.39 4.39 0 0 0 -1.43-.21 13.76 13.76 0 0 1 1.52-1l.84-.45.25-.1a.82.82 0 0 0 .46-.28c.46-.25.92-.49 1.37-.7.95-.45 1.92-.86 2.9-1.24-1.92 1.32-3.88 2.68-5.86 3.98zm6.28 6.7c-.16-.54-.78-.93-1.27-.42a2.09 2.09 0 0 1 -.2.22.77.77 0 0 0 -.29-.4c2.13-.88 4.3-1.68 6.48-2.49l-.16.09c-1.48.97-2.93 2.1-4.51 3zm.71-3.33-1.25.45c1.51-1 3-2 4.57-3a.9.9 0 0 0 1.22.77 6.61 6.61 0 0 1 1.17-.43c-1.86.82-3.79 1.54-5.66 2.21zm12.69-5.33a1.25 1.25 0 0 0 -.29.1l-.23.12-.07-.09a2.12 2.12 0 0 0 .2-.28 4.09 4.09 0 0 0 .2-.42 4.76 4.76 0 0 1 .24.57zm-3.66-.07h.24a1.94 1.94 0 0 0 1.32-.58h.07c-.16.23-.37.44-.52.66a18.76 18.76 0 0 0 -1.79.68 8.36 8.36 0 0 1 -.8.27 2.44 2.44 0 0 0 .43-1l.42-.27a.67.67 0 0 0 .68.24zm-4.64-2.68.86-.32a12.76 12.76 0 0 0 -1 1.4c-.88.39-1.77.75-2.66 1.09-1.47.55-2.92 1.14-4.37 1.73 2.06-1.41 4.12-2.81 6.25-4.11a.82.82 0 0 0 .97.21zm0-3.79a.8.8 0 0 0 .63-.25 4.94 4.94 0 0 1 1 .38c-1.65.62-3.33 1.19-5 1.78 1.23-.64 2.32-1.31 3.45-1.91zm-13.23 4.42a14 14 0 0 1 9.12-6.53 6.76 6.76 0 0 1 3.49.12 14.77 14.77 0 0 0 -5.47 1.76c-2 1-3.76 1.58-5.43 3.1zm.34 1.92-.48.22c.83-.66 1.7-1.29 2.35-1.86a17.27 17.27 0 0 1 4.77-3c.34-.15.68-.32 1-.48a.92.92 0 0 0 .42 1.21c-.81.3-1.63.61-2.43.95a29.51 29.51 0 0 0 -3.21 1.68h-.07a7.52 7.52 0 0 0 -2.28 1.28zm-2.14 4.42a7.25 7.25 0 0 1 0-1 1 1 0 0 0 .81.32h.41c-.32.18-.72.44-1.14.68zm.68 1.55.24-.09a.82.82 0 0 0 1 .73h.28a4.73 4.73 0 0 0 -.44.87.71.71 0 0 0 0 .41l-.47.21a7.55 7.55 0 0 1 -1-2 .87.87 0 0 0 .47-.13zm3 4.61-.12-.1a11.43 11.43 0 0 0 2.26-1c.23 0 .46 0 .69.05l-.26.52a.8.8 0 0 0 .18.86 5.58 5.58 0 0 0 -.46.39.84.84 0 0 0 -.26.51 12.66 12.66 0 0 1 -1.99-1.23zm8 2.78a15.24 15.24 0 0 1 -3.9-.71c.28-.06.55-.13.82-.21a3.38 3.38 0 0 0 2.66-.53c.36-.19.71-.4 1.07-.6a3.53 3.53 0 0 0 -.25.56.78.78 0 0 0 .13.78l-.2.16a.75.75 0 0 0 -.34.55zm3.53-3.13a.85.85 0 0 0 -.43-.05.78.78 0 0 0 -.18-.4c1-.48 2-1 3.08-1.54-.88.65-1.67 1.33-2.47 1.99zm-.49 2.94c1.47-.76 3-1.42 4.41-2.3.76-.47 1.58-.78 2.19-1.24a11.88 11.88 0 0 1 -6.6 3.54zm4.39-4 1.38-1.17a3.43 3.43 0 0 1 -1.38 1.14zm3.1-1.24a.83.83 0 0 0 -.65-.86l1-.8a.85.85 0 0 0 -.68-1.48c-2.34.5-4.3 1.71-6.43 2.75-.37.18-.74.34-1.12.5.54-.37 1.08-.73 1.63-1.08 1.7-1.07 3.7-2 5.47-3.19a5.15 5.15 0 0 0 1.39.47.86.86 0 0 0 .79-.18c0 .48-.11 1-.19 1.41a7.8 7.8 0 0 1 -1.35 3.22 2.18 2.18 0 0 0 .14-.76z"/><g fill="#edfcf1"><path d="m139.66 400.34a.36.36 0 0 0 0-.1.41.41 0 0 0 0-.11c-.71-4.54-2.9-8.45-4.36-12.75-.94-2.77-2.38-6.11-2.89-9.2.8-1.51 1.7-3.32 1.19-4.8-.41-1.21-1.61-1.7-2.71-2.12a69.93 69.93 0 0 1 -8.11-3.48c-5.08-2.69-10.34-5.6-16.16-6.32-4.18-.51-6.86 1.16-7.86 5.19-1.64 6.59-5.56 12.53-7.55 19.06a37.63 37.63 0 0 0 -1.27 5.36 21.71 21.71 0 0 1 -.62 4.1c-1 3-2.29 5.43-2.34 8.71a.81.81 0 0 0 -.36 1.14 9.16 9.16 0 0 1 1.15 3.49 40.59 40.59 0 0 0 1.62 4.93c1.32 3.49 3.26 6.88 3.38 10.69a.8.8 0 0 0 1.59 0c-.13-4-2-7.46-3.43-11.11a41.89 41.89 0 0 1 -1.74-5.47c-.15-.63-.28-1.29-.49-1.91.74.3 1.36.94 2.08 1.26a15.37 15.37 0 0 0 3.48.84c2.87.58 5.73 1.36 8.56 2.12 5.41 1.45 10.48 4 16.1 4.63a5 5 0 0 0 1.45 0 62.62 62.62 0 0 0 1.63 7.21c.63 2.7 1.35 5.38 2 8.07a.93.93 0 0 0 -.27 1 35.88 35.88 0 0 0 -4.38-.25 53.23 53.23 0 0 1 -9.62-.34c-5.3-1-12.06-1.51-16.44-5-.79-.63-1.92.5-1.12 1.13 4.23 3.34 10.33 4.19 15.47 5.06a46.21 46.21 0 0 0 8.23.72 51.24 51.24 0 0 1 10.79.73c1 .21 1.41-1.33.41-1.54l-1.16-.22a.76.76 0 0 0 0-.3c-.73-2.88-1.56-5.72-2.22-8.62a67.93 67.93 0 0 1 -1.79-7.94.82.82 0 0 0 .7-1.14c1.15-1.68 1.2-4.51 1.64-6.77.55-2.81 1.09-5.63 1.68-8.43.71-3.35 1.87-6.56 2.66-9.89a40.66 40.66 0 0 1 2.71-7.55c.62 2.23 1.52 4.44 2.17 6.5 1.43 4.55 3.82 8.7 4.61 13.46.07.85-.77 2.09-1 2.93a33.36 33.36 0 0 1 -1.55 4.85c-1 2.5-2 5-2.95 7.55-1 2.77-2 5.52-2.77 8.36-.63 2.28-2.26 4.77-2.13 7.17 0 1 1.64 1 1.59 0-.08-1.46.82-2.73 1.29-4.07s.84-3 1.27-4.46c.82-2.82 1.93-5.55 2.93-8.31s2.33-5.41 3.29-8.18c.47-1.36.6-2.7 1.19-4a2.94 2.94 0 0 0 .43-1.88zm-7.92-24.72a.78.78 0 0 0 -1.13.7v.53c0 .42.07.84.14 1.26-.6 1.23-1.27 2.37-1.59 3.09a35.27 35.27 0 0 0 -2.15 6.36c-1.17 5-2.64 9.86-3.64 14.91-.52 2.61-1 5.21-1.47 7.82a4.58 4.58 0 0 1 -.62 1.86.81.81 0 0 0 -1.09.74l-.19.11a11.41 11.41 0 0 1 -3.64-.55c-5.36-1.12-10.42-3.43-15.74-4.74-2.59-.63-5.17-1.25-7.77-1.85-1.66-.38-2.73-1.66-4.29-1.92 0 0 0 0 0-.06a18.78 18.78 0 0 1 2-7.46c.85-2 .78-4.13 1.17-6.19 1-5.39 3.32-10.51 5.58-15.49a51.83 51.83 0 0 0 2.66-6.23c.82-2.7 1.07-5.16 4.48-5.51 4.82-.49 10.66 2.41 14.77 4.62 2.11 1.14 4.18 2.32 6.38 3.28.74.33 1.49.65 2.25.94 1 .38 2.71.65 3.5 1.32a2.37 2.37 0 0 1 .39 2.46z"/><path d="m218.64 317.62c.73-1.88 1.35-3.78 2.1-5.64.22-.53.41-1.13.63-1.72 1.45-1.61 2.7-3.42 2.77-5.51s-1.23-3.65-2.35-5.16a30.38 30.38 0 0 0 -5.24-5.68c-2.64-2.09-5.69-3.64-8.41-5.63-3-2.18-6.06-4.18-8.93-6.51a.76.76 0 0 0 -1.1.14 2.17 2.17 0 0 0 -2.49-.77 1.51 1.51 0 0 0 -.57.43c-2.68.26-4.76 4.63-6.22 6.41a56.66 56.66 0 0 1 -6.51 6.9 46.08 46.08 0 0 0 -5.45 6.22c-1 1.25-3 2.8-3.61 4.41a5.43 5.43 0 0 0 -.32.64 30.38 30.38 0 0 1 -2.18 3.89c-1.72 2.83-3.14 5.81-5 8.55-1.55 2.25-6.93 7.46-3.65 10.23 1.6 1.36 4.06 2 5.87 3.06 2.55 1.49 4.86 3.32 7.36 4.84a31 31 0 0 1 4.4 2.6 38.83 38.83 0 0 0 3.26 2.68c2.29 1.51 5 1.84 7.47 2.74a.81.81 0 0 0 1.53.33c.07-.15.14-.31.2-.46a.82.82 0 0 0 -.25-1 7.33 7.33 0 0 0 .74-.17 3.08 3.08 0 0 0 1.46-.92l-.17.22c-.63.81.6 1.83 1.23 1 .25-.33.49-.66.73-1a.77.77 0 0 0 .3-.25c1.06-1.49 2.62-2.26 3.9-3.51 1.5-1.45 2.84-3 4.46-4.34 2.74-2.28 5.93-3.93 8.6-6.29a.84.84 0 0 0 .28-.54.73.73 0 0 0 .39-.23c2.69-2.74 3.41-6.45 4.77-9.96zm-43.08-12.87c.4-.42.91-.81 1.22-1.13 1.61-1.68 2.87-3.65 4.4-5.4 1.74-2 3.93-3.57 5.73-5.53 1.62-1.77 3.2-3.64 4.66-5.55.61-.82 1.85-3.15 3.05-3.81v.39c-.07 1 1.5 1.28 1.57.26a1.54 1.54 0 0 0 .19-.08.8.8 0 0 0 .19-1.11l-.14-.18h.07l.14.06.13.12.1.12a.8.8 0 0 0 1.26 0c3.81 3.09 7.92 6.08 12 8.77 1.76 1.14 3.66 2.06 5.32 3.36a27.46 27.46 0 0 1 4.94 5.38c1.06 1.42 2.41 3.07 2 4.95a5.65 5.65 0 0 1 -.74 1.69.92.92 0 0 0 -.47.24 7.39 7.39 0 0 0 -1.45 2.19l-.21.24a57.25 57.25 0 0 0 -5.79 7.48c-1.07 1.66-2.47 3.06-3.55 4.7-1.36 2.05-1.45 4.7-4.6 3-3.49-1.9-6.64-4.31-10.29-5.95-4.41-2-8.41-5.16-12.67-7.48a63.77 63.77 0 0 1 -5.8-3 5.8 5.8 0 0 1 -1.79-1.49 2.54 2.54 0 0 0 .56-2 .77.77 0 0 0 -.03-.24zm19 37.22c.52-.88-.93-1.53-1.45-.66-.39.65-1.12.71-1.79.87a3.94 3.94 0 0 0 -1.58.72 29.45 29.45 0 0 1 -4.45-1.39c-2.47-1.15-4.13-3.4-6.45-4.77-.81-.48-1.72-.78-2.54-1.25-1.12-.64-2-1.58-3.13-2.28-2-1.3-4.12-2.58-6.25-3.69-.88-.46-1.81-.83-2.7-1.28-1.26-.63-1.75-1.2-1.26-2.74.81-2.54 3.35-4.92 4.79-7.14 1.29-2 2.44-4.1 3.6-6.19.65-1.16 1.43-2.18 2.12-3.31a4.23 4.23 0 0 0 .32-.64l.28.26a25.5 25.5 0 0 0 5.6 3.37c2.91 1.4 5.68 3.07 8.44 4.74a64.12 64.12 0 0 0 7.31 4.22c2.65 1.17 4.79 3.09 7.38 4.38a22 22 0 0 1 2.3 1.62.65.65 0 0 0 -.09.16c-1.93 2.6-3.45 5.45-5.58 7.93-1.91 2.23-3.22 4.77-4.91 7.12zm8.38-8c-1.21 1-2.26 2.15-3.36 3.29.35-.47.7-.93 1.08-1.38 2.24-2.61 3.79-5.62 5.88-8.33a2.35 2.35 0 0 0 1 .12c1.6-.18 2.39-1.83 3-3.09 1.18-2.3 3-4.13 4.37-6.29a41 41 0 0 1 3.44-5c-.21.7-.41 1.35-.61 1.92-1.35 3.8-2.34 8.38-5.18 11.37a.69.69 0 0 0 -.2.36.83.83 0 0 0 -.16.12c-2.8 2.62-6.26 4.42-9.2 6.94z"/><path d="m125.2 306.44c-.74 1.68-1.52 3.28-2.37 4.86a2.16 2.16 0 0 1 .58 1c.39 1.51-.72 3.26-1.55 4.39-2.85 3.86-5.94 7.52-8.71 11.45-2.17 3.06-4 7.34-8.39 5.14-2.35-1.18-4.32-3.13-6.41-4.69s-4-2.76-5.87-4.28a79.43 79.43 0 0 1 -10.14-9.78c-1.29-1.47-4.08-4-3.55-6.15a1.65 1.65 0 0 1 1.54-1.18l.89-.1c1.1-2.35 3-4.31 4.32-6.62a79.44 79.44 0 0 1 4.88-7.58c1-1.44 2.53-3.82 4.31-5a1.65 1.65 0 0 1 2-1.4c1.65-1 3.14-2.2 4.84-3.11 1.52-.82 3.92-2.61 5.73-2.48s3 2 4.2 3.21c2.28 2.23 4.71 4.3 6.93 6.6a53 53 0 0 0 5.89 5.72c1.32 1 3 2.22 3.3 4 .38 2.1-1.62 4.19-2.42 6z"/><path d="m225.6 390.87a1.29 1.29 0 0 1 0 .35c.06 4-1.55 8.18-2.74 12-.86 2.74-.86 6.52-3.12 8.51s-5 3.42-7.35 5.13a19.73 19.73 0 0 1 -3.06 2c0 .11-.09.22-.14.34a1.6 1.6 0 0 1 -1.79.74c-1.62-.53-2.82-1.85-4.35-2.63-2.08-1-4-2.35-6.1-3.36s-4.6-1.86-6.87-2.87a48 48 0 0 1 -4.67-2.56 8 8 0 0 1 -.75-.43 3.33 3.33 0 0 1 -.32-.24 1.32 1.32 0 0 1 -.27-1.85c0-4.2 3-7.93 4.24-11.8.88-2.67 1.78-5.32 2.76-8 .17-.45.33-1 .54-1.45a1.42 1.42 0 0 1 .4-1.5c1.94-1.93 3.36-4.19 5.51-6s5-3.31 7.25-5.26a1.61 1.61 0 0 1 1.93-.26c3.45 2.58 7.14 4.77 10.74 7.12 2.91 1.91 6.75 4.05 8.78 7 1.52 2.08.78 3.58-.62 5.02z"/><path d="m215.54 231.75c0 1.48.38 3.37-.39 4.72a3.67 3.67 0 0 1 -2.74 1.58 30.36 30.36 0 0 1 -5.22 1.2 1.48 1.48 0 0 1 -1.21-.56 6.48 6.48 0 0 1 -2.78-.27 29.41 29.41 0 0 0 -4.36-.83c-2.94-.38-5.61-1.64-5.41-5 .11-2 .91-3.95 1.21-5.95s.51-4.16 1.67-6a1.62 1.62 0 0 1 .75-.64c.74-1.19 1.77-2.24 2.61-3.38s1.77-2.91 3.46-3.17c1.85-.28 4 1.66 5.51 2.49a33.06 33.06 0 0 1 6.8 4.69 1.63 1.63 0 0 1 0 2.25l-.21.24a1.49 1.49 0 0 1 .29.92c.02 2.57 0 5.14.02 7.71z"/></g><path d="m91 287.35c-1.48.78-2.23 2.18-3.07 3.57a31.67 31.67 0 0 1 -2.2 2.84c-.73 1-1.2 2.06-2 3-1.61 2-3 4.16-4.5 6.23-.56.78-1.45 4.8-2 4.9-1 .19-.57 1.72.43 1.54l.44-.09a.8.8 0 0 0 .55-.55c1.4-4.35 4-7.85 6.75-11.5 1-1.35 1.9-2.76 2.92-4.1s1.74-3.57 3.49-4.49c.94-.45.13-1.82-.81-1.35z"/><path d="m106.55 300.45c-2-.83-3.79-3.63-5.07-5-2.15-2.34-5-4-6.64-6.74-.54-.87-1.91-.07-1.37.81a14.82 14.82 0 0 0 3.46 3.9 38.43 38.43 0 0 1 4.06 3.8c1.53 1.62 3.43 4.66 5.92 5a.8.8 0 0 0 1-.56l.09-.49a.82.82 0 0 0 -1.45-.72z"/><path d="m105.46 279.59a8.93 8.93 0 0 0 -4.24 1.07c-1.54.67-3.22 2.34-4.94 2.23-1-.07-1 1.52 0 1.59 3.31.22 5.69-3.65 9.18-3.3 1.03.1 1.01-1.49 0-1.59z"/><path d="m119.27 290.91c-2.26-.88-4-3.07-5.45-5-.49-.65-.95-1.32-1.46-1.95-.69-.83-2.1-1.7-2.33-2.78s-1.74-.57-1.53.43a4.6 4.6 0 0 0 1.75 2.42 32.72 32.72 0 0 1 2.72 3.36c1.65 2 3.4 4 5.88 5 .96.43 1.36-1.11.42-1.48z"/><path d="m125.6 300.05c-1.58.06-2.61.94-3.95 1.69-1.88 1.06-3.71 2.1-5.51 3.29-1.49 1-4.81 2.48-4.81 4.55a.8.8 0 0 0 1.59 0c0-1 4.47-3.45 5.06-3.83 1-.67 2.08-1.33 3.17-1.93s3.1-2.12 4.46-2.17c1.02-.05 1.02-1.65-.01-1.6z"/><path d="m123.74 303.56c0 2.17-1 4.47-1.51 6.58a17.52 17.52 0 0 1 -3.47 7.05 55.16 55.16 0 0 0 -3.65 5.24c-.81 1.39-2.21 2.65-2.58 4.25-.23 1 1.31 1.41 1.54.41s1.23-1.81 1.8-2.69.85-1.66 1.4-2.44c1.45-2.06 3-4 4.49-6.09s1.64-3.94 2.2-6.2c.51-2 1.36-4.06 1.37-6.12a.8.8 0 0 0 -1.59.01z"/><path d="m111.33 313.56c0-1-1.5-1-1.59 0-.12 1.26-1.06 2.43-1.7 3.49a37.56 37.56 0 0 1 -2.86 4.32c-.8 1-2.76 4.61-4 4.8-1 .16-.57 1.69.43 1.54a3.17 3.17 0 0 0 1.94-1.43c1.15-1.45 2.17-3 3.32-4.48 1.53-2 3.76-4.87 4.34-7.52a.85.85 0 0 0 .11-.38z"/><path d="m96.23 331.1c-.34-1.51-1.61-2.72-2.63-3.81-1.75-1.86-3.44-3.71-5.1-5.65s-3.32-3.64-4.91-5.51c-.82-1-1.59-2-2.45-2.89-.53-.58-1.62-1.28-1.8-2.08-.21-1-1.74-.56-1.53.44.29 1.31 1.62 2.1 2.48 3 1.68 1.86 3.23 3.83 4.92 5.68s3.22 3.82 4.9 5.66c1.4 1.54 4.11 3.41 4.59 5.54.22 1.05 1.76.61 1.53-.38z"/><path d="m108.48 332.3a4.23 4.23 0 0 0 -2-1c-.54-.11-1.09-.14-1.63-.23-.22-1-1.74-.56-1.53.44l.09.45a.81.81 0 0 0 .56.55c1.16.31 2.39.12 3.35.95.81.64 1.94-.46 1.16-1.16z"/><path d="m204.75 226.55c-1.42-.15-2.49-1.69-3.56-2.52-1.22-.95-2.37-1.89-3.51-2.94a.8.8 0 0 0 -1.35.57v.32a.83.83 0 0 0 .79.76c1.25 1.08 2.57 2.06 3.79 3.16s2.23 2.07 3.82 2.24c1.05.11 1.03-1.48.02-1.59z"/><path d="m212.1 223.29a6.53 6.53 0 0 0 -2.95 1.85c-1.28 1.1-2.6 2.15-3.87 3.27-.77.68.37 1.79 1.14 1.12 1.1-1 2.25-1.9 3.37-2.85.81-.68 1.66-1.68 2.74-1.85s.57-1.69-.43-1.54z"/><path d="m209.6 217.56c-1.35-1.53-3.48-1.82-4.89-3.22a.8.8 0 0 0 -1.12 1.13c1.42 1.41 3.56 1.72 4.89 3.22.68.77 1.79-.37 1.12-1.13z"/><path d="m206.12 231.67a.8.8 0 0 0 -1.59 0c.07 2.53.51 5 .58 7.57a.8.8 0 0 0 1.59 0c-.07-2.53-.51-5.04-.58-7.57z"/><path d="m194.26 226.64-.45.09a.78.78 0 0 0 -.55.56c-.45 2-1.33 4-1.17 6.08.08 1 1.67 1 1.59 0-.14-1.78.56-3.48 1-5.19 1.01-.18.58-1.75-.42-1.54z"/><path d="m204.51 241.74c-1.17-.22-2.09-1.14-3.15-1.63a26.39 26.39 0 0 0 -2.54-1c-1.49-.52-3.22-1.28-4.83-1.11-1 .1-1 1.69 0 1.59 1.53-.16 3.27.63 4.68 1.15a15.09 15.09 0 0 1 2.83 1.26 7.73 7.73 0 0 0 2.59 1.31c1 .14 1.43-1.39.42-1.57z"/><path d="m215.32 232.05c-.09-1-.48-2.82.29-3.66s-.44-1.87-1.13-1.12c-2.07 2.26-.25 6.59-.18 9.23a.8.8 0 0 0 1.59 0c-.04-1.5-.43-2.96-.57-4.45z"/><path d="m203.9 392.81a49.52 49.52 0 0 0 -5.25-3.63c-1.59-.91-3.62-1.35-4.91-2.68-.71-.74-1.83.39-1.12 1.13 1.28 1.32 3 1.75 4.61 2.58a42.35 42.35 0 0 1 5.87 4c.82.6 1.6-.79.8-1.4z"/><path d="m220 390.49c-.44 1.1-2.63 1.74-3.57 2.3a44.58 44.58 0 0 1 -4.41 2.71.8.8 0 0 0 -1.19.88l.09.32a.8.8 0 0 0 1 .55c2.23-.79 3.94-2.36 6-3.45 1.35-.71 3-1.38 3.63-2.89.45-.91-1.14-1.36-1.55-.42z"/><path d="m217.54 383.12c-2.73-3.05-5.93-5.62-8.71-8.61-.7-.75-1.82.38-1.12 1.13 2.79 3 6 5.56 8.71 8.61.68.75 1.8-.37 1.12-1.13z"/><path d="m198.93 375.26c-1.07 1.83-3.11 3-3.33 5.3-.1 1 1.49 1 1.59 0a4.9 4.9 0 0 1 1.48-2.42 13.5 13.5 0 0 0 1.63-2.07.79.79 0 0 0 -1.37-.81z"/><path d="m207.6 408.65c.15-2.12.91-4.19 1-6.29a.8.8 0 0 0 0-.23v-.35a.8.8 0 0 0 -1.59 0c0 2.26-.91 4.58-1.07 6.86-.18 2.52 0 5.05.07 7.57a.8.8 0 0 0 1.59 0c.03-2.52-.18-5.05 0-7.56z"/><path d="m189.18 394.66a13.21 13.21 0 0 1 -.56 2.16c-.15.86-.08 1.8-.19 2.68a43.06 43.06 0 0 0 -.27 5.45.8.8 0 0 0 1.59 0c0-2 .19-4 .37-6a42.58 42.58 0 0 0 .65-4.28.8.8 0 0 0 -1.59-.01z"/><path d="m201.13 416.56c-1.8-.33-3.52-1.61-5.1-2.47s-3.55-1.26-4.86-2.68c-.69-.76-1.81.37-1.12 1.13 1.43 1.55 3.39 1.95 5.18 2.93s3.53 2.27 5.49 2.62c1 .19 1.42-1.35.41-1.53z"/><path d="m219.28 408.31c-1.88-.17-3.67 1-5.18 2a21.17 21.17 0 0 0 -4.88 3.79c-.65.77.42 1.87 1.13 1.11s1.33-1.07 1.94-1.68l.13-.17c.68-.5 1.4-.95 2.1-1.42 1.37-.92 3-2.17 4.76-2 1.02.06 1.01-1.53 0-1.63z"/><path d="m275.78 150.88c-3.06-6.77-12.81-7.56-19.17-8.61-8.75-1.45-17.71-2-26.53-2.93-19-2-38.3-.53-57.43-.66-9.71-.06-19.45-.2-29.16.35-9.37.54-18.77.52-28.11 1.28s-18.53.29-27.76 1.3c-4.39.49-8.79 1.05-13.13 1.9-4.59.9-9.25 1.39-13.82 2.35-5 1.06-9.79 3.05-14.68 4.51s-9.6 2.4-14.52 3.37c-2.28.45-4.47 1.3-6.78 1.6-1 .12-2.59.2-3.41.91a1.72 1.72 0 0 0 -.37 2c.49.86 1.48.8 2.36.68.65 4 2.2 7.84 2.9 11.87.43 2.48.69 5 1 7.48.25 2.09.88 4.13 1 6.22.22 3.75 1 7.52 1.57 11.25.47 3.13 2 5.25 5 6a65 65 0 0 0 1.18 9.92c.73 4 1.12 8.08 1.75 12.11.59 3.72 1.06 7.39 1.3 11.14s1.12 7.53 1.62 11.28c1 7.4 2.56 14.73 4 22.05.73 3.57 1.66 7.12 2.29 10.71.74 4.25.84 8.7 1.16 13 1.18 15.82 2.63 31.68 5 47.38 1.11 7.44 2.28 14.87 3.36 22.31.54 3.7.85 7.47 1.34 11.19.51 3.9 1.28 7.77 1.46 11.7.69 15.49 4.73 30.65 6.44 46 .38 3.47.6 6.95 1.21 10.39.68 3.89 1.84 7.69 2.5 11.59.4 2.33.41 4.91 1.74 7s3.91 2.89 6.26 3.48c7.15 1.62 14 4.34 21.19 5.9a129.32 129.32 0 0 0 22.83 3.07c3.72.14 7.35.86 11 1.14 3.9.3 7.81.42 11.72.44 7.79.05 15.61-.12 23.4-.33s15.55-.32 23.23-1c3.65-.32 7.13-.72 10.79-.71a77.88 77.88 0 0 0 11.3-1.08c7.72-1.1 15.48-2 23.12-3.52 6.36-1.29 13.11-2.42 19.05-5.15 1.57-.72 3.34-1.73 4-3.43.43-1.07.51-2.92-.91-3.3a2.25 2.25 0 0 0 -.49-.06c-.09-9.38-.29-18.74.06-28.11.73-19.24.26-38.47.37-57.72.12-19.09 1.12-38.13 2-57.19.21-4.86 0-9.72.09-14.57s.58-9.45 1-14.15.21-9.7.92-14.5c.67-4.52.16-9 .2-13.55s.86-9.06.79-13.63.2-9 .45-13.54c.28-4.91.22-9.81.17-14.73 0-2.12-.22-4.27-.11-6.39s.7-4.12.83-6.21c.22-3.54 1.12-7.28.57-10.82 2.68-.05 5.48-.76 7.27-2.9 2-2.45 1.66-5.91 1.86-8.87.32-4.71 1.39-9.32 1.52-14 .11-4.12 1.51-8.93.27-12.93a1 1 0 0 0 -.06-.28zm-3.23 8.68c-.34 5.07-.74 10-1.34 15.09-.27 2.21-.29 4.41-.43 6.63-.26 3.86-2.87 5.38-6.46 5.34-.09-1-.28-1.92-1.49-2s-1.59.8-1.64 1.74c-1.09.11-2.12.71-1.55 2.08.42 1 1.34.61 2 1.19 1.29 1.1-.11 5-.3 6.53-.29 2.23 0 4.46-.39 6.7a36.46 36.46 0 0 0 -.54 6.35q.09 7.26-.14 14.51c-.29 9.4-.22 18.82-.88 28.19-.31 4.47 0 8.93-.2 13.4-.1 2-.57 4-.78 6-.26 2.47.08 4.94-.08 7.42-.59 9.15-1.57 18.11-1.41 27.32.16 9.52-.62 19.11-1.05 28.62-.88 19.57-1 39.11-.93 58.7.05 9.63.31 19.27-.14 28.9-.43 9.4-.54 18.74-.4 28.15 0 2.06-.39 4.75.09 6.75a1.93 1.93 0 0 0 .55 1.07 13.49 13.49 0 0 1 -4.53 1.88c-13 3.94-26.52 5.5-39.91 7.38a76.69 76.69 0 0 1 -11.12.68c-3.93 0-7.79.85-11.72 1-7.74.32-15.46.81-23.22.86s-15.69.27-23.52.13a108.5 108.5 0 0 1 -11.67-.88c-4.27-.53-8.47-.54-12.76-.78-7.83-.44-15.72-2.22-23.29-4.22-3.57-.94-7.11-2-10.65-3.06l-5.31-1.55c-3-.87-4.11-2.15-4.55-5.29-1-7.37-3-14.48-3.78-21.91-.78-7.68-2.47-15.22-3.46-22.87-1-7.43-2.43-14.78-3-22.27-.24-3.27-.33-6.47-.89-9.71-.67-3.88-1.44-7.87-1.83-11.78-1.51-15.65-4.32-31.22-6.03-46.85-.9-8.2-1.91-16.41-2.26-24.65a137 137 0 0 0 -2.94-22.47c-3.3-15.72-5.61-31.49-7.67-47.41-.46-3.56-.93-7.12-1.48-10.66-.61-4-1.53-7.73-1.57-11.76a53.84 53.84 0 0 0 11.69-2.26c4.22-1.3 8.39-1.63 12.73-2.28 2.23-.33 4.4-.91 6.59-1.39a34 34 0 0 1 3.58-.64 8.1 8.1 0 0 0 2.59-.3 1.61 1.61 0 0 0 0-2.89c-1.22-.57-3.47 0-4.74.23-2.26.34-4.44 1-6.66 1.48-4.36 1-8.8.72-13.11 2-4.13 1.2-8.54 2.89-12.88 3-3.44.12-4.58-1.73-4.84-4.83a51.15 51.15 0 0 0 -1-5.37c-.94-4.84-1.09-9.9-1.87-14.77s-2.51-9.71-3.48-14.62a1.4 1.4 0 0 0 .56-1.09c8.83-2 17.74-3.89 26.29-6.92a61.5 61.5 0 0 1 14.12-3.4c4.15-.47 8.2-1.62 12.33-2.26 9.65-1.51 19.29-1.44 29-1.82 4.76-.19 9.49-.8 14.25-1 5-.17 9.9 0 14.87-.34 19.41-1.33 38.88-.59 58.32-.83 9.55-.12 19.06-.37 28.59.37 9.92.78 20 1.59 29.84 3.09 4.16.63 8.63 1.07 12.61 2.48 2.46.88 5 2.39 5.63 5.1.55 2.21-.19 4.59-.34 6.77z"/><path d="m292.5 133.39c-.21-2.43-.45-4.85-.81-7.26-.28-1.88-.45-4-1.82-5.46-2.3-2.45-7.05-3.69-10.51-3.53 0-2.59.16-5.19-.61-7.67-1-3.16-1.18-6.5-1.86-9.72a115 115 0 0 0 -3.13-11.54 97.26 97.26 0 0 0 -8.19-18.6c-3.41-6-7.77-11.46-11.7-17.17-3.81-5.52-8.55-10.1-13.5-14.59s-9.9-8.88-15.69-12.13c-6.28-3.51-13-6.41-19.56-9.42a203.33 203.33 0 0 0 -19.54-8c-13.46-4.6-27.72-8.3-42.02-8.3-3.39 0-6.76.3-10.13.57-4 .32-8 .29-11.92.54a126.33 126.33 0 0 0 -20.32 2.77 95.67 95.67 0 0 0 -19.46 6.35c-6.18 2.93-11.68 7.07-17.73 10.17-5.83 3-10.41 7.09-15.05 11.64a191 191 0 0 0 -14.52 15.62 178.33 178.33 0 0 0 -13.28 19 99.26 99.26 0 0 0 -6.23 10.57c-1.47 3.19-2 6.7-2.75 10.11-1.76 8.11-2.33 16.44-3.82 24.61-1.37 7.53-.64 15.19-.52 22.79-1.65.34-3.33.47-5 .86a1.67 1.67 0 0 0 -2.61 1c-.79 2.86.55 7.36 1.23 10.16a36.81 36.81 0 0 1 1.1 6.24c.11 1.48.27 3.16 1.32 4.32 1.81 2 4.48.55 6.71.22a28.82 28.82 0 0 0 4.16-1.15c.74-.23 1.32-.21 1.65-1.06.66-1.69-1.19-2.3-2.53-2.12-1.52.2-3 .87-4.54 1.1-1.89.29-3.38 1.59-3.56-1.44-.23-4-1.53-7.78-2.11-11.79 1-.46.89-1.53.59-2.58 2-.42 4-.64 6-1.12 1.1-.26 3.1-.07 3.76-1.27 1.21-2.22-1.38-2.29-3.06-2.1-.16-6.76-.88-13.62.25-20.33.49-2.92 1.36-5.76 1.73-8.71.48-3.72.57-7.47 1.1-11.18.93-6.57 2.34-13 5.72-18.73s6.9-11.55 10.76-17.06a169.41 169.41 0 0 1 27.42-30 44.47 44.47 0 0 1 8.52-5.44c3.14-1.68 6.09-3.64 9.15-5.46a78 78 0 0 1 18.18-8c14.06-4.07 28.45-4.58 42.94-5.62 14.26-1 28.59 1.9 42.21 6a184.92 184.92 0 0 1 19.52 7.1c6.15 2.63 12 5.88 18.06 8.68a73.87 73.87 0 0 1 16.89 10.74 122.05 122.05 0 0 1 14 13.17c2.47 2.85 4.4 6.08 6.6 9.14s4.68 5.83 6.59 9a101.58 101.58 0 0 1 9.46 19.76c1.23 3.73 2.4 7.49 3.29 11.32.79 3.39 1 6.92 1.84 10.29.19.78 1.12 2.38.85 3.19-.14.44-.86.43-.94 1.19a1.65 1.65 0 0 0 1.06 1.69v3.16c-1.18.21-2.78.13-3.13 1.44a1.68 1.68 0 0 0 1.28 2c.83.23 1.55-.28 2.3-.28.32 0 .72.29 1.11.26a1.63 1.63 0 0 0 1.51-1 12.64 12.64 0 0 1 6.87 1.66c1.78 1 2.05 2.51 2.35 4.33.68 4.15 1 8.29 1.81 12.41.11.44.2.89.28 1.34l-2 .73a12.52 12.52 0 0 1 -3-.83c-2-.6-4-1.3-6.08-1.75-1.37-.3-5.22-1.52-5.36.93a1.7 1.7 0 0 0 .73 1.49 4.16 4.16 0 0 0 1.79.31 23.43 23.43 0 0 1 3.53.69c3.17.83 6.88 2.89 10.24 2.46 5.63-.71 2.53-7.39 2.13-10.71z"/><path d="m212.23 181.39c-.15-.28-.31-.56-.47-.83a.79.79 0 0 0 -1.54.36c-1.28-.26-2.55-.6-3.85-.78a43.81 43.81 0 0 0 -5.73-.1q-6.62 0-13.24.07c-4.34 0-8.68 0-13 .08-4.18.12-8.33 1.17-12.49 1.07-4-.1-7.59 1-11.52 1.22s-7.71 1.21-11.57 1.64a52.7 52.7 0 0 1 -6.4.61 45.74 45.74 0 0 0 -6 0c-2.1.24-4 1.16-6.15 1.27-1.86.1-3.65 0-5.5.29a43.56 43.56 0 0 0 -6.24.86c-.84.24-1.55.66-2.41.85a26.46 26.46 0 0 1 -3.33.09c-4.5.44-8.35 3.26-13 3.37a.8.8 0 0 0 0 1.59c3.76-.09 7.06-1.66 10.59-2.75a11.63 11.63 0 0 1 3.18-.66 16.69 16.69 0 0 0 2.45.13c1.81-.26 3.39-1.24 5.27-1.48s3.58-.52 5.36-.67 3.77.12 5.64-.27a31.34 31.34 0 0 1 6.17-1.13c2.27 0 4.55.24 6.82 0a105 105 0 0 0 11.15-1.59c2.1-.46 4.13-.42 6.24-.69 1.83-.24 3.59-.83 5.42-1 2.23-.24 4.46.13 6.69-.1s4.12-.69 6.22-.85c4.23-.32 8.5-.21 12.75-.23 5 0 10-.07 14.94-.08 2.19 0 4.43-.16 6.62 0s4.2.87 6.33 1.12c.78.04 1.03-.96.6-1.41z"/><path d="m232.63 177.69c-1.53-.19-2.55.65-4 1-1.82.5-3.92.12-5.78.1a.8.8 0 0 0 0 1.59 31.88 31.88 0 0 0 5.44 0c1.48-.25 2.77-1.33 4.3-1.14 1.06.17 1.04-1.42.04-1.55z"/><path d="m210 281.84c.35 9.61-1.16 18.61-6.1 26.82a55.44 55.44 0 0 1 -7.55 10.94c-12.28 16.14-34 21.39-53.57 17.64a73.66 73.66 0 0 1 -10.48-3.37 65.36 65.36 0 0 1 -9.57-4.81c-13.73-8.34-23.46-22.6-25.73-38.36a62.47 62.47 0 0 1 1.44-24.1 66 66 0 0 1 4.05-11.37c11-26.84 42.56-38.85 69.58-29.09 19.52 6.75 34.53 23.27 37.17 43.19a65.79 65.79 0 0 1 .76 12.51z" fill="#fff" opacity=".58"/><path d="m193.33 281.73c-.66 2.93-1.86 6.19-4.14 8.27-1.82 1.68-4.37 1.69-5.26-.83s-.49-5.82-.28-8.52c.28-3.55.84-7.08 1.45-10.59.45-2.6-3.31-3.76-4-1.11-.3 1.09-.64 2.17-1 3.23a8.2 8.2 0 0 0 -7.65 2.24 14.48 14.48 0 0 0 -3 4.33 2.15 2.15 0 0 0 -.55.63c-1.83 3.16-3.91 6.47-7.15 8.35-2.59 1.5-6.49 2-8.76-.38a5.79 5.79 0 0 1 -1.42-2.59h.4a12.77 12.77 0 0 0 1.74-.24 8.71 8.71 0 0 0 3-1.28 6.46 6.46 0 0 0 3-5.41 5.46 5.46 0 0 0 -3.17-5.06 5.94 5.94 0 0 0 -6.45 1.58 12.19 12.19 0 0 0 -2.89 9.56c-.11.36-.21.74-.31 1.11-1 3.61-2 7.28-4 10.48-.65 1-2.06 3.43-3.5 3.43s-3.21-2-4-3.07c-2.09-2.77-3-6.27-3.65-9.63a79.3 79.3 0 0 1 -1.24-15.72q4.14-.36 8.3-.44c2.69-.06 2.7-4.24 0-4.18s-5.43.2-8.13.42a91.48 91.48 0 0 1 1.27-10.37c.47-2.63-3.56-3.76-4-1.11a102 102 0 0 0 -1.44 11.9c-2.76.32-5.52.72-8.26 1.21s-1.52 4.5 1.11 4q3.48-.62 7-1c0 2.25 0 4.49.15 6.72a55.19 55.19 0 0 0 .9 9.15 40.09 40.09 0 0 0 2.17 7.61 14.24 14.24 0 0 0 3.69 5.81 8.29 8.29 0 0 0 2 1.27c1.69 1.21 3.71 2 5.79 1.36 2.24-.71 3.87-2.82 5.14-4.69a28.77 28.77 0 0 0 3.16-6.65c.17-.49.33-1 .49-1.47 2.73 2.93 7.2 3.75 11.14 2.55a13.94 13.94 0 0 0 4-2 17 17 0 0 0 5.47-4.84 5.22 5.22 0 0 0 4.54.73 8.44 8.44 0 0 0 4.34-3.67c-.16 3.43-.26 7.38 2 10.2 2.58 3.21 7.14 2.9 10.15.5 3.18-2.53 5-6.8 5.87-10.67.59-2.63-3.44-3.75-4.02-1.12zm-41.15-3.06.32-.2c.85-.51 2.36-.77 2.77.4a2.43 2.43 0 0 1 -.65.76 5.45 5.45 0 0 1 -3.09.92 8.88 8.88 0 0 1 .65-1.88zm25.72-1.6a38 38 0 0 1 -2.14 3.58c-.47.69-1.16 1.68-2 1.85a15.71 15.71 0 0 1 .6-2.55 10.25 10.25 0 0 1 1-2.51 4.25 4.25 0 0 1 3.09-1.34c-.22.33-.38.65-.55.97z" fill="#231f20"/><path d="m187.33 246.62c-8.71.46-17.8 4-22.52 11.31a17.46 17.46 0 0 0 -2.26-8.71c-2.08-3.3-5.52-4.5-9.13-5.43a.85.85 0 0 0 -1.06.8c-1 7.6 5.07 13.1 10.44 17.4-.12.35-.24.71-.35 1.07a.82.82 0 0 0 1.06 1 .81.81 0 0 0 .58.23c2.57 1.15 5.26 2.18 8.12 1.81a15.86 15.86 0 0 0 7.6-3.65 26 26 0 0 0 5.9-6.12c1.73-2.71 1.71-5.62 2.43-8.64a.84.84 0 0 0 -.81-1.07zm-2.46 1.89a41.8 41.8 0 0 1 -10.65 8.23c-3 1.6-6.7 2.5-9.39 4.67 3.42-7.87 11.73-11.88 20.04-12.9zm-30.87-2.85c3 .82 5.74 1.93 7.38 4.77s1.84 6.42 1.87 9.75c-4.64-3.71-9.55-8.29-9.25-14.52zm30.76 9.06a20.72 20.72 0 0 1 -5 5.64 16.81 16.81 0 0 1 -6.82 3.92c-2.58.6-5.06-.2-7.42-1.21a15.55 15.55 0 0 1 4.66-2.61 50.39 50.39 0 0 0 5.75-2.73 43.21 43.21 0 0 0 10.21-8.09 14.72 14.72 0 0 1 -1.43 5.08z" fill="#231f20"/><path d="m61.16 50.57a66.17 66.17 0 0 0 -28.16 34.58c-.65 1.82 2.24 2.61 2.89.8a62.93 62.93 0 0 1 26.78-32.79c1.65-1 .15-3.6-1.51-2.59z" fill="#231f20"/><path d="m92.14 31.82-17.69 6c-1.82.61-1 3.51.79 2.89l17.7-6c1.82-.61 1.06-3.51-.8-2.89z" fill="#231f20"/><path d="m170.47 442.8a40.34 40.34 0 0 0 -21.55-1.67c-1.89.36-1.09 3.25.8 2.9a37.25 37.25 0 0 1 19.95 1.66c1.82.66 2.61-2.23.8-2.89z" fill="#231f20"/></svg>