<svg viewBox="0 0 310.13 530.17" xmlns="http://www.w3.org/2000/svg" xmlns:xlink="http://www.w3.org/1999/xlink"><linearGradient id="a" gradientUnits="userSpaceOnUse" x1="158.4" x2="175.15" y1="314.92" y2="492.81"><stop offset=".15" stop-color="#e38435"/><stop offset=".67" stop-color="#ca6400"/></linearGradient><path d="m165.94 189.32q-.37 9.75-1 19.52c-.18 3.08-.38 6.17-.6 9.24-.14 2 .1 4.61-.55 6.5-.89 2.62-3 2.57-5.26 2.78-5.14.5-10.28.92-15.43 1.38-.81.08-1.38-.77-1.43-1.56q-3-52.6-6-105.19c-.44-3.31-.37-6.84-.5-10.12-.21-5.24-.32-10.5-.32-15.75 0-3.46 0-6.93.13-10.4a7.2 7.2 0 0 1 -.06-.83q.18-28.56 1.05-57.13c.23-7.16-1.39-19.39 4.56-24 5.7-4.42 13.73-1.76 18.47 2.99a6.84 6.84 0 0 1 5.64 6.59q-.36 49.5-.74 99v.37a1.49 1.49 0 0 1 1.68 1.49q1.72 37.53.36 75.12z" fill="#231f20"/><path d="m164.55 10.84c-6.85-8.65-19.55-15.78-27.2-3.42a3.31 3.31 0 0 0 .09 3.35 2.5 2.5 0 0 0 1.16 3 31.43 31.43 0 0 0 25 1.06c1.3-.45 1.85-2.83.95-3.99z" fill="#f1f2f2"/><path d="m136.87 14.27c-.05-1.34-1.79-1-1.73.31q1.11 28.32 0 56.72c-.06 1.33 1.68 1.59 1.73.25q1.13-28.66 0-57.28z"/><path d="m165.49 17c0-1.34-1.77-1-1.73.31q.7 24.64.67 49.32c0 1.34 1.74 1 1.74-.3q.04-24.7-.68-49.33z"/><path d="m163.14 30.74c0-1.34-1.76-1-1.74.31q.1 7.38.2 14.76c0 1.34 1.76 1 1.74-.31z"/><path d="m164.79 73.94c0-1.34-1.75-1-1.73.31q.38 26.43.76 52.87c0 1.34 1.75 1 1.73-.31q-.37-26.43-.76-52.87z"/><path d="m151.7 113.24c-4.62.83-9.12 1.8-13.77.76l.15-34.08c0-1.34-1.73-1-1.74.31l-.18 39.3c0 1.34 1.74 1 1.74-.31 0-1 0-2.06 0-3.1 4.84.95 9.52 0 14.34-.86 1.34-.26.76-2.26-.54-2.02z"/><path d="m142.15 20.63c0-1.34-1.76-1-1.74.3q.74 46.23 1.48 92.46c0 1.34 1.76 1 1.74-.31q-.75-46.23-1.48-92.45z"/><path d="m165.32 7.57c-2.72-5.11-9.32-7.57-14.2-7.57-5.93 0-11.32 3.19-15.37 8.35-.78 1 .59 2.25 1.37 1.27 3.1-3.95 7.07-6.67 11.57-7.37 3.84-.59 10.13.31 12.89 4 6.33 8.46-6.69 7.73-9.94 7.52a35.73 35.73 0 0 1 -13.49-3.77c-1-.51-1.74 1.43-.71 1.93a36.06 36.06 0 0 0 22.08 3.51c3.8-.64 8.76-2.28 5.8-7.87z"/><path d="m269.56 281.32c-.32 6.26-.29 12.54-.64 18.8-.71 13.07-2.1 26.11-3.84 39.07-3.51 26.14-8.07 52.14-13.3 78-4.08 20.16-5.64 42.19-14.78 60.81-7 14.4-17.19 27.74-31.27 35.53-16.08 8.88-36.36 9-54.21 8.7-18.37-.34-37.49-4.36-54.09-12.59-15.78-7.81-24.88-22.88-31.53-38.88-8.4-20.23-11.66-42.32-13.87-64-2.36-23.26-2.17-46.49-2.56-69.84-.19-11.53-.51-23.07-1.3-34.58-.81-11.79-2-23.56-1.63-35.39a1 1 0 0 1 2 0v.14c9.08 1.23 18 3.91 27.14 4.48 9.48.61 19-.35 28.48.29 8.88.61 17.55 2.92 26.42 3.57 9.33.68 18.76-1.2 28-1.93 18.26-1.46 36.27 2.37 54.47.66 8.82-.84 17.38-3.16 26.25-3.37s19.33 2.32 27.74-1a1.06 1.06 0 0 1 1.16.48c1.96 3.44 1.54 7.29 1.36 11.05z" fill="url(#a)"/><path d="m288.92 205.37c-.45 5.53-3.08 10.59-5.71 15.42a65.72 65.72 0 0 0 -6.56 17.53 150.94 150.94 0 0 0 -3.9 23.9c-.5 7.67-.24 15.36-.63 23-.25 4.87-4.84 9.2-9.93 7.57-7.14-2.28-14.75-1.85-22.17-1.71-8.88.18-17.73 1-26.59 1.57-17.56 1.18-34.79.09-52.27-1.65s-35.06-3.15-52.68-3.57c-8.85-.22-17.72-.31-26.57 0s-17.55 1.06-26.34-.05a9 9 0 0 1 -6.91-4.11 7.16 7.16 0 0 1 -3.54-3.43c-2.72-5.31-3-10.76-3.7-16.58-.76-6.27-2-12.51-2.9-18.78-1.91-13.63-5.84-26.75-8.82-40.15a8.47 8.47 0 0 1 .52-5.15c-1.33-1.8-1.21-3.67 2-4.36a1 1 0 0 1 1.08.4c5.19-4.17 13.2-4.44 19.36-6.12 11.52-3.14 23.07-5.61 34.68-8.35 19.94-4.75 39.36-13.75 60.1-10.75 10.23 1.48 20.42.5 30.56 2.92a180.84 180.84 0 0 0 30.61 4.86c9.29.6 18.67 1.08 27.68 3.57 9.54 2.63 19.09 5.8 28.47 8.95a137.22 137.22 0 0 1 14.31 5.33c4.53-1.39 9.47 2.55 9.88 7.23a2.93 2.93 0 0 1 -.03 2.51z" fill="#faedde" opacity=".87"/><path d="m137.93 464.69c-9.62-.11-11.9 17.38-2.78 20.43 6.71 2.25 14.54-3.27 15-10.25.47-6.07-6.51-12.58-12.22-10.18zm5.34 13.41c-1.63 1.81-5.72 3.54-7.7 1.22-1.83-2.15-1.22-7.61 1.46-9a2.49 2.49 0 0 0 2.2-.33 2 2 0 0 0 1.41-.63c1.35.07 2.92 1.69 3.55 2.59 1.42 2.05.66 4.42-.92 6.15z" fill="#794a1b"/><path d="m215.29 469.21c-.25-4.26-3.13-8.62-7.78-8.41a3 3 0 0 0 -1-.26 8.68 8.68 0 0 0 -9.19 9 9.2 9.2 0 0 0 10.06 9.08c4.96-.31 8.19-4.57 7.91-9.41zm-7.91 4.2c-5.57.83-6.47-7.43-1.38-7.62a2.41 2.41 0 0 0 1.3.25c3.7-.28 3.7 6.82.08 7.37z" fill="#794a1b"/><path d="m207.82 493.25a3.12 3.12 0 0 0 -.38-1.28 8.12 8.12 0 0 0 -10.34-7.39c-5.87 1.74-9.38 9.84-5.07 14.77a7.37 7.37 0 0 0 7 2.27 2.66 2.66 0 0 0 1.17.26c4.49-.03 7.89-4.31 7.62-8.63zm-11.56 2.95c-2.12-1.56-.39-4.95 1.3-6.09 2.06.15 4.12 2.16 3.24 4.39-.61 1.5-3.06 2.78-4.54 1.7z" fill="#794a1b"/><path d="m167.59 498.53a4.18 4.18 0 0 0 -4-2.79 2.29 2.29 0 0 0 -2.09.22 4.13 4.13 0 0 0 -1.86 2.64 4.72 4.72 0 0 0 .47 3.17 4.15 4.15 0 0 0 5.64 1.69 4.09 4.09 0 0 0 1.84-4.93z" fill="#794a1b"/><path d="m119.24 512.57c-1.84-2.75-5.7-5.56-9-3.53a2.57 2.57 0 0 0 -.37.28c-1.85.36-3.25 2.71-1.47 4.35 2.43 2.23 5.36 2.9 8.59 2.83 1.86-.04 3.39-2.23 2.25-3.93z" fill="#794a1b"/><path d="m217.9 498.48a1.84 1.84 0 0 0 -.63-.61 8 8 0 0 0 -.68-.51c-5.69-3.72-15 5.26-11.56 11v.24a2.64 2.64 0 0 0 2.53 1.92c4.87.13 14.6-7.22 10.34-12.04z" fill="#794a1b"/><path d="m233.64 474.46-.14-.11a3.52 3.52 0 0 0 -3.09-2 5 5 0 0 0 -3.34 1.53c-1.87 1.84-2.78 5.1-.73 7.17s6.79 2.15 8.47-.47c1.27-1.95.44-4.58-1.17-6.12z" fill="#794a1b"/><path d="m108.25 482.87a4.1 4.1 0 0 0 -3.47-1.1 3.72 3.72 0 0 0 -3.81 1.8 5.73 5.73 0 0 0 -.27 5.56 4.67 4.67 0 0 0 6.1 2 5.37 5.37 0 0 0 2.74-5 4.94 4.94 0 0 0 -1.29-3.26z" fill="#794a1b"/><path d="m92 470.21c-2-1.74-4.7-2.87-7.15-1.26a6.5 6.5 0 0 0 -1.62 1.56 7.42 7.42 0 0 0 -1.93 5.09 2.5 2.5 0 0 0 2.53 2.54 2.93 2.93 0 0 0 1.68.66c2.27.18 5.17-.05 6.38-2.31a3.84 3.84 0 0 0 .29-2.81 2.61 2.61 0 0 0 -.18-3.47z" fill="#794a1b"/><path d="m165.09 479.55c-10.1 0-10.11 15.7 0 15.7s10.12-15.7 0-15.7z" fill="#794811"/><path d="m202.73 475.57a8.13 8.13 0 0 0 -5.55-2.29h-.69a8.08 8.08 0 0 0 -5.55 2.29 8.66 8.66 0 0 0 -2.3 5.55 7.88 7.88 0 0 0 2.3 5.55 8.14 8.14 0 0 0 5.55 2.3h.69a8.07 8.07 0 0 0 5.55-2.3 5.77 5.77 0 0 0 1.62-2.52 5.87 5.87 0 0 0 .68-3 7.94 7.94 0 0 0 -2.3-5.58z" fill="#794811"/><path d="m121.34 495.54a6 6 0 0 0 -1.62-2.53 8.71 8.71 0 0 0 -4.15-2.19 6.1 6.1 0 0 0 -1.41-.52 7.94 7.94 0 0 0 -6 .79l-1.59 1.23a7.9 7.9 0 0 0 -1.56 2.25c0 .08-.09.16-.14.24a10.57 10.57 0 0 0 -1 2.33c-.94 3.2.41 6.41 2.62 8.7a7.76 7.76 0 0 0 7.64 2 11.78 11.78 0 0 0 4.54-2.63c.38-.35.71-.76 1.08-1.12a8 8 0 0 0 2.29-5.55 5.83 5.83 0 0 0 -.7-3z" fill="#794811"/><path d="m187.42 493.51c-10.1 0-10.12 15.69 0 15.69s10.11-15.69 0-15.69z" fill="#794811"/><path d="m294.21 205.08c-.63-8-11.63-.74-14.8.82-12.32 6.06-28.34 6-41.78 5.78-68.61-1.21-137.2-2-204.88-14.78a1.08 1.08 0 0 0 -1.28.73c-2 6 1.08 11.88 1.92 17.84l.15 1.39c0 .42.05.84.05 1.26a1 1 0 0 0 .2.59 143.94 143.94 0 0 0 3.12 14.29c1.51 5.89 3 11.74 4.92 17.51 2.46 7.32 3.17 14.49 3.74 22.09.44 5.33 1.09 10.65 1.56 16 .33 3.53.8 7.92 3.92 10.19 5.81 4.22 13-4.25 16.7-7.74 4.26-4 8-7.25 14.38-6.39 5.65.75 10.84 3.82 16.65 3.63 7.07-.23 11.68-4.51 19-1.39 5.23 2.23 9.19 4.21 15.09 3.72 5.71-.49 11.16-2.46 16.55-4.27 6.78-2.29 13.22-3.64 20.42-3.13 6.78.47 13.53 1.8 20.34 1 7.63-.92 14.88-2.2 22.6-1.73 7.16.44 14.89 1 19.13 7.49 2.7 4.15 4 9.07 6 13.55 2.32 5.15 6.67 11.19 11.15 4.59 2.43-3.58 3.72-7.93 5.71-11.74 1.53-2.92 2.6-6.16 6.45-6.86 1.56-.29 3.46.54 4.94-.18 2.69-1.32 3.47-6.25 3.92-8.76 1-5.6 1.51-11.29 2.41-16.91 2-12.32 4.47-24.77 9-36.42 2.12-5.38 4.46-10.15 8.41-14.37 1.97-2.11 4.55-4.72 4.31-7.8zm-260.84 1.36a16.22 16.22 0 0 1 -.13-7.33l1.66.3a32.48 32.48 0 0 0 -1.53 7.03z" fill="#eee4d8" opacity=".92"/><path d="m290.84 214.52c-3.09 8.94-6.42 18-13.67 24.5a8.44 8.44 0 0 1 -4.15 2.06 12.91 12.91 0 0 1 -2.2 3c-2.95 2.88-5.84 2.78-9.54 3 .43 0 .18.16-.22.3l-.1.13a7.33 7.33 0 0 0 -1 1.53c-1.77 2.6-3.41 4.86-6.35 6.24-2.75 1.29-6.58 1.56-9-.68-.31.94-.62 1.9-.9 2.85-.71 2.55-1.28 5.14-1.83 7.73-1.69 8.19-1.77 21.2-8.17 27.46-3.37 3.29-10.08 3.06-12.33-1.59-3.46-7.17-4.58-14.63-5.5-22.48a101.18 101.18 0 0 0 -1.54-10.57c-.2-.88-2-4.58-2.66-6.18-.23.09-.44.19-.67.27a12.16 12.16 0 0 1 -4.22.76 15.66 15.66 0 0 1 -7.24-2.6l-1.26.42a15.19 15.19 0 0 1 -5.52.8 15.79 15.79 0 0 1 -4.57-1c-.28-.1-.55-.23-.84-.34-2 2.78-2.2 7.41-2.48 10.46-.5 5.76-.56 11.6-1.82 17.27-1.63 7.42-13.59 7.55-15.13 0-1-4.63-1-9.27-1.49-13.93a14.4 14.4 0 0 0 -1.32 2.67 72.54 72.54 0 0 0 -3 13.3c-1.25 8.24-1.48 12.75-2.64 21.16-.93 6.75-2.47 13.62-8.4 17.72-3.66 2.53-8.52.52-10.74-2.81-5.83-8.77-5.89-20.08-6.19-30.24-.34-12 .7-24 .08-36l-.48.18a18.12 18.12 0 0 1 -6.29.76c-3.61-.24-7.22-1.11-10.83-1.48s-7.09 0-10.27-2a15 15 0 0 1 -1.37-1c-1.14.49-2.65 1.16-3 1.24a15.7 15.7 0 0 1 -11.32-1.4 19.27 19.27 0 0 1 -2.41-1.37c-1.73 2.18-6.56 3.59-9 3.59a13.36 13.36 0 0 1 -9.89-4.74 11.65 11.65 0 0 1 -1.24-1.67 37.87 37.87 0 0 0 -3.28 8.52c-2.13 7.45-2.79 15.25-4.87 22.69-1.44 5.16-9.33 8.29-13.11 3.46s-4.49-9.51-5.24-15.51c-.86-6.85-1.92-13.67-2.6-20.55-.55-5.59-1-11.06-1.77-16.61-.72-5.12-.79-10.31 2.2-14.78 6-8.91 16.79-6.3 24.89-2.43 4 1.91 7.07 3.41 11.54 4 5.52.8 11.14.6 16.68 1.27 6.26.75 12.31 2.33 18.5 3.5 6 1.13 11.93.36 18 .91s10.68 3.23 16.3 4.8 11.81.77 17.65.2c12.41-1.19 24.73.66 37.17.59 12.23-.06 24.25-2.72 36.4-.06 3.43.75 4.26.08 7.25-1.38a19.84 19.84 0 0 1 7.72-2.26c3.82-.23 9 2.59 12.42 1 3-1.36 5.13-5.27 7.26-7.62a23.76 23.76 0 0 1 10-6.81c5.45-1.77 11.51 4.23 9.6 9.75z" fill="#faedde"/><path d="m211.79 263.28c-.74 5.29-3.33 10.89-7.76 14.08-6.07 4.39-15.17 1.88-22.12.57a.58.58 0 0 1 -.72.17c-2.05-.82-2-3-1.17-4.78a1 1 0 0 1 .09-.13c1.89-8.28-.49-21.24 8.85-25.41 5.27-2.35 13.47-1.94 18.24 1.52 4.36 3.16 5.3 8.96 4.59 13.98z" fill="#c88344" opacity=".51"/><path d="m265.91 262.06c-3.08 5.52-9.58 2.9-14.66 2.8a1 1 0 0 1 -.3-2 1.18 1.18 0 0 1 -.23-.57c-.3-4.3-.55-11.18 3.25-14.14 3.28-2.56 9.69-3.17 12.58.36s1.32 10.04-.64 13.55z" fill="#c88344" opacity=".51"/><path d="m124 237.21a8.17 8.17 0 0 1 -11.08-10.12c-1.49-7.22 8.48-5.64 13.06-6.63a1.07 1.07 0 0 1 1.17.49c2.47 5.27 3.49 13.59-3.15 16.26z" fill="#c88344" opacity=".51"/><path d="m100.22 282.44c1.75 6 3.08 9.81-1.94 14.54-3.32 3.12-9.21 7.75-14.08 7.11-3.09-.4-5.08-3.09-6.65-5.84a.79.79 0 0 1 -.38-.42c-3.24-7.4-15.44-19.6-7.81-27.81 5.35-5.74 19.32-9 25.14-2.49 3.61 4 4.26 9.96 5.72 14.91z" fill="#c88344" opacity=".51"/><path d="m160.33 392.77c-3.35-3-5.64-4.95-4.3-9.8.89-3.21 2.81-8.33 6.09-9.78 2.09-.92 4.35 0 6.36 1.12a.62.62 0 0 1 .41.13c4.82 3.39 17.06 6.38 15.41 14.39-1.17 5.61-8.67 12.91-14.76 11.08-3.76-1.12-6.43-4.6-9.21-7.14z" fill="#c88344" opacity=".51"/><path d="m232.53 353.53c-3.35-3-5.64-4.95-4.3-9.81.89-3.2 2.81-8.32 6.1-9.77 2.08-.92 4.34 0 6.36 1.12a.64.64 0 0 1 .4.12c4.82 3.4 17.06 6.39 15.41 14.4-1.16 5.61-8.66 12.91-14.75 11.08-3.75-1.12-6.44-4.6-9.22-7.14z" fill="#c88344" opacity=".51"/><path d="m71.38 397c-3.34-3.06-5.64-4.95-4.3-9.81.89-3.2 2.81-8.33 6.1-9.78 2.08-.91 4.34 0 6.36 1.13a.58.58 0 0 1 .4.12c4.82 3.34 17.06 6.34 15.41 14.34-1.16 5.61-8.66 12.91-14.75 11.08-3.77-1.08-6.43-4.58-9.22-7.08z" fill="#c88344" opacity=".51"/><path d="m201.1 326.5c1.28 4.34 2.25 7.16-1.41 10.61-2.43 2.28-6.73 5.66-10.29 5.19-2.25-.29-3.7-2.26-4.85-4.26a.62.62 0 0 1 -.28-.31c-2.36-5.4-11.27-14.31-5.7-20.3 3.9-4.2 14.1-6.54 18.36-1.82 2.63 2.92 3.07 7.27 4.17 10.89z" fill="#c88344" opacity=".51"/><path d="m109.83 362.7c-3.35 3.05-5.46 5.15-10.17 3.37-3.1-1.19-8-3.58-9.16-7-.72-2.16.41-4.32 1.71-6.23a.55.55 0 0 1 .16-.39c3.82-4.49 7.94-16.39 15.76-14 5.48 1.68 12.05 9.82 9.67 15.72-1.48 3.66-5.19 5.99-7.97 8.53z" fill="#c88344" opacity=".51"/><path d="m124 327.64c-3.35 3.05-5.45 5.16-10.16 3.37-3.11-1.18-8-3.57-9.17-7-.71-2.16.42-4.32 1.72-6.23a.62.62 0 0 1 .15-.39c3.83-4.48 8-16.39 15.77-14 5.48 1.68 12 9.83 9.66 15.72-1.52 3.67-5.23 6-7.97 8.53z" fill="#c88344" opacity=".51"/><path d="m255.83 231.7c-2.22 3.69-6.65 5.6-10.31 2.67a7.24 7.24 0 0 1 -1.28-9.8 1.06 1.06 0 0 1 -.08-2c3.37-1 8-1.88 11.14.1s2.21 6.25.53 9.03z" fill="#d6c8ad"/><path d="m116.24 256.3c4.48 5.64 7.14 17.21-3.28 18.62-5.22.71-8.14-4-11.22-7.35a87.3 87.3 0 0 0 -21.06-16.46 1 1 0 0 1 0-1.79c2.61-20.32 29.32-.89 35.56 6.98z" fill="#d6c8ad"/><path d="m145.35 469.12a8.75 8.75 0 0 0 -5.55-2.3 7.94 7.94 0 0 0 -5.55 2.3 8.15 8.15 0 0 0 -2.29 5.55v.52a8.08 8.08 0 0 0 2.29 5.55 8.66 8.66 0 0 0 5.55 2.3 7.93 7.93 0 0 0 5.55-2.3 8.14 8.14 0 0 0 2.3-5.55v-.52a8.07 8.07 0 0 0 -2.3-5.55z" fill="#2f1e10"/><path d="m124.63 491.94c-10.1 0-10.12 15.69 0 15.69s10.12-15.69 0-15.69z" fill="#2f1e10"/><path d="m99 464.73c-10.1 0-10.11 15.7 0 15.7s10.11-15.7 0-15.7z" fill="#2f1e10"/><path d="m76 451.13c-10.1 0-10.11 15.69 0 15.69s10.09-15.69 0-15.69z" fill="#2f1e10"/><path d="m187.42 457.93c-10.1 0-10.12 15.69 0 15.69s10.11-15.69 0-15.69z" fill="#2f1e10"/><path d="m174.34 484.61c-10.1 0-10.12 15.7 0 15.7s10.11-15.7 0-15.7z" fill="#2f1e10"/><path d="m214.62 477.29c-10.1 0-10.11 15.69 0 15.69s10.12-15.69 0-15.69z" fill="#2f1e10"/><path d="m229.8 453.22c-10.1 0-10.12 15.7 0 15.7s10.11-15.7 0-15.7z" fill="#2f1e10"/><path d="m186.89 502.92c-10.1 0-10.11 15.7 0 15.7s10.11-15.7 0-15.7z" fill="#2f1e10"/><path d="m153.93 504c-10.1 0-10.12 15.7 0 15.7s10.12-15.7 0-15.7z" fill="#2f1e10"/><path d="m99 491.94c-10.1 0-10.11 15.69 0 15.69s10.11-15.69 0-15.69z" fill="#2f1e10"/><path d="m120.45 456.36c-10.1 0-10.12 15.7 0 15.7s10.11-15.7 0-15.7z" fill="#2f1e10"/><path d="m152.36 481.47c-10.1 0-10.12 15.7 0 15.7s10.12-15.7 0-15.7z" fill="#2f1e10"/><path d="m135.09 505c-10.09 0-10.11 15.69 0 15.69s10.12-15.69 0-15.69z" fill="#2f1e10"/><path d="m119.4 475.19c-10.1 0-10.12 15.7 0 15.7s10.12-15.7 0-15.7z" fill="#191f1b"/><path d="m85.91 476.24c-10.1 0-10.11 15.7 0 15.7s10.09-15.7 0-15.7z" fill="#191f1b"/><path d="m197.88 484.61c-10.1 0-10.12 15.7 0 15.7s10.12-15.7 0-15.7z" fill="#191f1b"/><path d="m167 464.21c-10.1 0-10.12 15.69 0 15.69s10.13-15.69 0-15.69z" fill="#191f1b"/><path d="m205.73 462.11c-10.1 0-10.12 15.7 0 15.7s10.11-15.7 0-15.7z" fill="#191f1b"/><path d="m171.72 501.88c-10.1 0-10.12 15.69 0 15.69s10.12-15.69 0-15.69z" fill="#191f1b"/><path d="m142.42 490.89c-10.1 0-10.12 15.7 0 15.7s10.12-15.7 0-15.7z" fill="#191f1b"/><path d="m144.29 457.05a4.51 4.51 0 0 0 -1.86-2.43 2.61 2.61 0 0 0 -2-.26 2.42 2.42 0 0 0 -.55.24 4.12 4.12 0 0 0 -2.23.95 3.41 3.41 0 0 0 -1.1 2.36 4.44 4.44 0 0 0 1.94 3.64c1.75 1.35 4.34-.08 5.37-1.72a3.58 3.58 0 0 0 .43-2.78z" fill="#794a1b"/><path d="m157.09 472.82a2.94 2.94 0 0 0 -1.64-1.44 3.54 3.54 0 0 0 -4.79 2.47 5.77 5.77 0 0 0 1.33 4.81 3.9 3.9 0 0 0 5.64.31 4.39 4.39 0 0 0 -.54-6.15z" fill="#794a1b"/><path d="m181.94 475.44a2.5 2.5 0 0 0 -2.59-.64 2.87 2.87 0 0 0 -.82-.13 2.92 2.92 0 0 0 -2.53 1.53 5 5 0 0 0 -.73 2.28 3.85 3.85 0 0 0 1.84 3.47c2.15 1.38 5.44.59 6.26-1.95.53-1.7-.37-3.3-1.43-4.56z" fill="#794a1b"/><path d="m297.93 200.68a1.11 1.11 0 0 0 -.19-.09c-6.83-5.48-17-5.64-25.29-6.85-1.31-.19-1.88 1.83-.55 2 7.71 1.12 17.82 1.19 24.25 6.23a1.06 1.06 0 0 0 .17.2c.49 6-10.14 9.7-14.45 11.27-6.81 2.47-13.91 3.3-21.11 3.89-9.49.78-18.9 1.92-28.44 2s-18.92-.33-28.32-.13c-38.7 1-77 1.81-115.55-3.32q-16.45-2.17-32.64-5.47c-4.78-1-9.57-1.95-14.31-3.08a38.38 38.38 0 0 1 -6.87-2.18 13.53 13.53 0 0 1 -2.63-1.34q-3.37-1.56-.88-4c.16-1.79 1-2.43 2.43-1.94 1.35.07 1.34-2 0-2.09a8.32 8.32 0 0 0 -1 0 1 1 0 0 0 -1-.32c-4.88 1.28-15.24.37-17.29 6.4-2 5.83 6.37 8.48 10.35 10 1.12.41 2.25.8 3.38 1.19a1.1 1.1 0 0 0 -.7.89 11.26 11.26 0 0 0 3.1 9.81 1 1 0 0 0 1.61-.24v.62a1.12 1.12 0 0 0 -1.17.69c-2.33 5.66.37 12.18 2.81 17.37 3.52 10.23 4.66 21 5.44 31.72.75 10.41 1.76 20.86 2.21 31.29.52 12 .19 24 .27 35.94.07 10.49.68 21 1 31.43 1.09 38.16.56 80.13 20.28 114.24a84.12 84.12 0 0 0 19.08 22.54c8.87 7.39 19.61 11.19 29.64 16.63a1 1 0 0 0 .84.07s.06 0 .1 0c16.33 2.51 32.8 4.28 49.34 4.08 13.77-.18 28.9-.94 42-5.7 17.7-6.44 29.89-21.47 37.87-38 8.94-18.52 13.55-38.92 17-59.08 4.14-24.13 7.33-48.52 10.19-72.82 4.56-38.76 4.18-77.86 13.73-115.94a1 1 0 0 0 -.3-1 18.68 18.68 0 0 0 2.23-4.55l.48-.18a1.13 1.13 0 0 0 .1-2 20.59 20.59 0 0 0 .32-5.78 1.17 1.17 0 0 0 -.07-.25 1.1 1.1 0 0 0 -1.5-1.35l-4.89 2.27v-1.17a1 1 0 0 0 -2.09 0v2.12l-2.59 1.14a16.13 16.13 0 0 1 .46-2.46 1 1 0 0 0 -2-.56 23.54 23.54 0 0 0 -.58 3.94c-1.53.64-3.08 1.27-4.64 1.86 0-1.14 0-2.28 0-3.43a1.05 1.05 0 0 0 -2.1 0c0 1.4.09 2.8.06 4.19-1.06.38-2.13.73-3.2 1.06 0-1.22 0-2.45 0-3.68a1.05 1.05 0 0 0 -2.1 0v4.31c-1.38.39-2.77.73-4.17 1v-4.29a1.05 1.05 0 0 0 -2.1 0v4.7l-1.52.22c0-1.28 0-2.58-.05-3.88a1 1 0 0 0 -2.09 0c0 1.36.12 2.76.08 4.14-1.41.15-2.83.23-4.27.26a8.06 8.06 0 0 0 -.55-2.58c-.51-1.23-2.54-.69-2 .56a6.84 6.84 0 0 1 .47 2c-.23 0-.46 0-.68 0-1.35-.06-1.35 2 0 2.1h.57a16.56 16.56 0 0 1 -.89 3.2c-.46 1.26 1.56 1.81 2 .55a18.22 18.22 0 0 0 1-3.72c1.38 0 2.76-.1 4.13-.23a7.44 7.44 0 0 1 -.75 2.1c-.65 1.18 1.16 2.24 1.81 1.06a9.76 9.76 0 0 0 1.08-3.41c.56-.08 1.12-.15 1.67-.24v2.6a1.05 1.05 0 0 0 2.1 0v-3c1.33-.28 2.66-.6 4-1-.07.52-.16 1-.28 1.57-.32 1.3 1.7 1.86 2 .55a17.3 17.3 0 0 0 .44-2.75c1.05-.32 2.09-.65 3.13-1a12 12 0 0 1 -.35 1.64 1 1 0 0 0 2 .55 14.45 14.45 0 0 0 .52-3q2.22-.83 4.39-1.72a9.49 9.49 0 0 1 -.55 1.79c-.53 1.23 1.27 2.29 1.81 1.06a14 14 0 0 0 .93-3.77q1.44-.61 2.88-1.26v1.88a1 1 0 0 0 2.09 0v-2.75l4.4-2a18.83 18.83 0 0 1 -.6 5.52c-4.11 1.49-8.42 2.55-11.87 5.39-1 .85.45 2.33 1.48 1.48 2.73-2.25 6.17-3.26 9.51-4.37-5 11.26-21.51 15.45-32.95 17.41-23.84 4.06-48.61 3.31-72.7 3.31a1 1 0 0 0 0 2.09c25.68 0 52.48 1.12 77.76-4.24 8.89-1.89 19.64-5.38 26-12.1-7.34 30.68-8.17 61.58-11 92.88-2.44 26.95-6.3 53.79-10.28 80.55-2.91 19.49-6.47 39.06-13.12 57.66-6.41 17.92-16.28 36.23-33 46.38-12.4 7.5-27.52 9-41.69 9.78-19.35 1.11-38.7-.75-57.82-3.69a1.19 1.19 0 0 0 -.54.06c-9.3-5-19.44-8.54-27.81-15.17a82.14 82.14 0 0 1 -18.79-21.07c-10.61-17.17-15.46-37.54-18-57.36-5.15-40.46-3.1-81.61-4.41-122.25-.38-11.76-1.53-23.53-2.4-35.27-.74-10.1-1.87-20.23-5-29.9 14.38 5.21 29.41 8.07 44.38 11a239.83 239.83 0 0 0 45.17 5 1 1 0 0 0 0-2.09c-15.71-.09-31.12-2.23-46.5-5.28-14.7-2.87-29.29-5.72-43.29-10.89a.85.85 0 0 0 -.31 0 5.92 5.92 0 0 1 -.25-.66 1.11 1.11 0 0 0 -.37.07c-.56-1.2-1.1-2.47-1.57-3.78a80.78 80.78 0 0 0 28.39 7.17c1.34.08 1.33-2 0-2.1a78 78 0 0 1 -28.82-7.53 1.09 1.09 0 0 0 -.42-.11 16.13 16.13 0 0 1 -.54-5.32 15.6 15.6 0 0 0 .47 2.6 1 1 0 0 0 2-.55 14.58 14.58 0 0 1 -.5-3.64c.94.31 1.88.59 2.83.88a21.24 21.24 0 0 0 2 7.23c.61 1.2 2.41.14 1.8-1.06a18.18 18.18 0 0 1 -1.66-5.53c1 .27 1.94.53 2.92.78a24.68 24.68 0 0 0 1.65 5.81c.58 1.21 2.38.15 1.8-1.06a17.13 17.13 0 0 1 -1.25-4.19c1.12.27 2.25.52 3.38.77a25.65 25.65 0 0 0 1.82 6c.56 1.23 2.36.17 1.81-1.05a21.21 21.21 0 0 1 -1.41-4.48c1.29.28 2.59.54 3.9.79a20.26 20.26 0 0 0 2 6.84c.62 1.2 2.42.14 1.81-1.06a17.44 17.44 0 0 1 -1.64-5.37c1.58.3 3.17.58 4.75.85.38 1.44.8 2.86 1.25 4.28s2.44.73 2-.55c-.36-1.11-.68-2.22-1-3.34l4.56.75a17.11 17.11 0 0 0 2.6 4.13c.85 1 2.33-.45 1.48-1.48a14.65 14.65 0 0 1 -1.48-2.24l2.57.43a6.55 6.55 0 0 0 .44 1 1 1 0 0 0 1.94-.58l2.06.34c.18.7.38 1.39.6 2.08.41 1.28 2.43.74 2-.55-.12-.38-.23-.76-.34-1.15l3.52.6a7.69 7.69 0 0 1 0 .83c-.07 1.34 2 1.34 2.1 0v-.47l.84.14a30.14 30.14 0 0 0 1.39 4c.53 1.24 2.33.17 1.81-1a26.31 26.31 0 0 1 -.94-2.56l2.22.37a31.67 31.67 0 0 0 .47 3.52c.29 1.31 2.31.76 2-.56a23.38 23.38 0 0 1 -.41-2.62c1.43.24 2.87.46 4.3.69.14.91.27 1.81.33 2.73.09 1.34 2.19 1.35 2.09 0 0-.8-.15-1.59-.27-2.39 1.23.2 2.46.41 3.69.59 1.5.23 3 .44 4.49.64.15 1.43.31 2.87.46 4.3s2.25 1.34 2.1 0-.3-2.68-.44-4c1.27.16 2.55.29 3.82.44.08.59.18 1.18.32 1.77.3 1.31 2.32.75 2-.56-.08-.32-.12-.64-.18-1 1.84.21 3.69.38 5.53.56a1.07 1.07 0 0 0 1.86.18l2 .16c.09.38.18.76.3 1.14a1 1 0 0 0 2-.56c0-.13-.07-.27-.11-.4 3 .23 6 .43 9 .61v1.6a1 1 0 0 0 2.09 0c0-.51 0-1 0-1.52l3.14.14v.33a1 1 0 0 0 2.09 0c0-.08 0-.16 0-.24 1.43.07 2.86.11 4.3.16a1.08 1.08 0 0 0 1.86.07c1.44.05 2.88.07 4.32.11a1 1 0 0 0 2 .05l4.51.08a1 1 0 0 0 1.37 0c2.61 0 5.21.06 7.82.08a1.33 1.33 0 1 0 1.69-2 46.24 46.24 0 0 0 -.75-5.37 1 1 0 0 0 -2 .55 33.25 33.25 0 0 1 .67 4.76c-2.41 0-4.81 0-7.22-.08-.37-2-.61-4-.81-6-.13-1.33-2.22-1.35-2.09 0 .19 2 .42 4 .77 6l-3.86-.07a19.07 19.07 0 0 0 -.61-6.69c-.42-1.28-2.44-.73-2 .55a17.34 17.34 0 0 1 .54 6.09c-1.46 0-2.92-.06-4.38-.11a42.18 42.18 0 0 1 -.38-6.26c.07-1.34-2-1.34-2.09 0a41.19 41.19 0 0 0 .37 6.18l-4-.15a32.16 32.16 0 0 0 -.62-9.44 1 1 0 0 0 -2 .55 29.2 29.2 0 0 1 .55 8.8c-1.06-.06-2.13-.09-3.2-.15a58.16 58.16 0 0 0 -1.01-12.42c-.29-1.32-2.31-.76-2 .55a55.13 55.13 0 0 1 1 11.67c-3.19-.19-6.37-.4-9.55-.65a38.85 38.85 0 0 1 -.4-9.2c.08-1.35-2-1.34-2.1 0a41.31 41.31 0 0 0 .35 9l-1.73-.14a38.43 38.43 0 0 1 -.19-6.79 1 1 0 0 0 -2.09 0 48.1 48.1 0 0 0 .13 6.58c-1.79-.17-3.57-.34-5.35-.54a30.91 30.91 0 0 0 -.57-3.7 1 1 0 0 0 -2 .55 24 24 0 0 1 .47 2.9c-1.26-.15-2.52-.28-3.79-.44-.13-1.26-.26-2.52-.38-3.78s-2.22-1.34-2.09 0c.11 1.17.23 2.33.35 3.5-1.91-.26-3.82-.53-5.73-.83l-2.56-.41c-.16-.85-.32-1.69-.47-2.54-.24-1.32-2.26-.76-2 .56.1.54.2 1.08.31 1.63l-4.2-.68a13.85 13.85 0 0 0 -1-3.85c-.55-1.23-2.35-.17-1.8 1.06a10.33 10.33 0 0 1 .7 2.44l-2.49-.42a11.18 11.18 0 0 1 0-4.89 1 1 0 0 0 -2-.56 12.42 12.42 0 0 0 -.16 5.09l-.55-.09a13.13 13.13 0 0 0 -.41-1.86c-.4-1.28-2.42-.73-2 .56.09.31.17.61.24.92l-3.89-.64c-.26-1.14-.47-2.29-.65-3.44-.21-1.33-2.22-.77-2 .55.13.85.29 1.68.46 2.52-.72-.13-1.45-.24-2.17-.36a4.61 4.61 0 0 1 .07-1.11c.24-1.32-1.78-1.88-2-.56a7.6 7.6 0 0 0 -.14 1.32l-3.25-.5a9.1 9.1 0 0 1 -.38-2.61 1.05 1.05 0 0 0 -2.1 0 11.13 11.13 0 0 0 .23 2.24c-1.48-.24-3-.48-4.45-.74-.18-.76-.36-1.53-.52-2.3-.28-1.32-2.29-.76-2 .55.09.46.2.91.3 1.36-1.48-.26-3-.52-4.44-.8 0-.63-.07-1.26-.08-1.88a1.05 1.05 0 0 0 -2.1 0q0 .73.06 1.47c-1.37-.27-2.73-.55-4.09-.85 0-.38-.11-.76-.15-1.14-.15-1.33-2.24-1.34-2.09 0 0 .21 0 .42.07.63-1.17-.27-2.34-.52-3.51-.82a17.14 17.14 0 0 0 -.79-2.71c-.49-1.23-2.52-.7-2 .56a14.26 14.26 0 0 1 .52 1.56c-.86-.24-1.73-.47-2.59-.72-.07-1.08-.09-2.17-.06-3.21a1 1 0 0 0 -2.09 0v2.57c-.85-.26-1.7-.51-2.54-.79a.59.59 0 0 0 -.13 0v-1.76a1.06 1.06 0 0 0 -2-.43 1 1 0 0 0 -.22-.31c-2.33-2.24-2.88-5.22-2.48-8.33a.94.94 0 0 0 0-.42c22.47 7.48 46.38 9.33 69.82 12.27 27.45 3.43 55.32 1.08 82.91.46 13.53-.31 27-1.08 40.56-.95s26.89.24 40.27-1.82a213.48 213.48 0 0 0 21.4-4.36c.72-.19 1.46-.37 2.21-.55a20.69 20.69 0 0 0 -1.07 3.46c-.29 1.31 1.73 1.88 2 .56a18.18 18.18 0 0 1 1.29-3.94 1 1 0 0 0 .07-.62 37.49 37.49 0 0 0 9.87-3.39c5.35-3.05 4.66-11.5-.77-13.98zm1.26 11.13c-1.3 1.59-4.21 2.2-6.13 2.78-3.68 1.12-7.46 2.06-11.2 3a182.71 182.71 0 0 1 -34.06 5.41c-10.72.58-21.47.13-32.2.16-11.17 0-22.34.73-33.5 1-10.93.24-21.86.38-32.79.69-10.76.31-21.49 1.14-32.25.54-11.22-.63-22.34-2.25-33.45-3.85-10.68-1.55-21.53-2.36-32.16-4.17a132.42 132.42 0 0 1 -29.21-8.67c-1.24-.54-4.61-1.7-5.24-3.15a4.49 4.49 0 0 1 1.33-5.1c.84-.67 2.48-.88 3.49-1.13a58.27 58.27 0 0 1 6.05-1c-.65 1.19-.63 2.75.44 4.58 3.77 6.46 15.59 7.14 22 8.51a489.81 489.81 0 0 0 69.69 9.68 688.55 688.55 0 0 0 72 .69c12.13-.47 24.18-.41 36.32-.35 11.85.06 23.53-1.15 35.31-2.22 8.34-.76 16.32-2.29 23.94-5.82 4.18-1.94 10.09-5 10.79-10 2.16 2.04 2.64 6.14.83 8.42z"/><path d="m149.74 258.06a28.21 28.21 0 0 1 -7-.48c-1.32-.23-1.89 1.79-.56 2a29.85 29.85 0 0 0 7.6.56c1.3-.14 1.31-2.14-.04-2.08z"/><path d="m216.16 235.81a1 1 0 0 0 -2 .55 15.82 15.82 0 0 1 .46 3.48 57.88 57.88 0 0 1 -6.26 1v-3.73a1 1 0 0 0 -2.09 0v3.93c-1.58.13-3.17.2-4.76.24a13.58 13.58 0 0 1 .54-3.89c.4-1.29-1.62-1.84-2-.55a14.74 14.74 0 0 0 -.6 4.22 1.66 1.66 0 0 0 -.1-.29 3.29 3.29 0 0 1 -.42-2.33 1.08 1.08 0 0 0 -.73-1.29 1.05 1.05 0 0 0 -1.29.73 5.68 5.68 0 0 0 .4 3.46h-2v-3.7a1 1 0 0 0 -2.09 0v3.68h-2.09a1 1 0 0 0 -.52.14 55 55 0 0 0 -1.09-7.74c-.25-1.33-2.27-.77-2 .55a39.31 39.31 0 0 1 1 9.66c-.07 1.35 2 1.35 2.1 0 0-.22 0-.44 0-.66a1 1 0 0 0 .51.14h2.09v.5a1 1 0 0 0 2.09 0v-.48h4.2c.1 1.32 2.17 1.32 2.08 0 1.57 0 3.15-.11 4.71-.24v1.32a1 1 0 0 0 2.09 0v-1.51a60.92 60.92 0 0 0 6.29-1v1.45a1.05 1.05 0 0 0 2.1 0 30.24 30.24 0 0 0 -.62-7.64z"/><path d="m282.86 196.39c-2.87-4.26-8.28-6-13.67-7-8.33-6.21-20.82-7-30.33-9.76-7.17-2.09-14-4.37-21.45-5.54-8.2-1.28-16.47-1.92-24.74-2.54-8.72-.64-17.42-1.74-26.15-2.11-9.58-.41-19.18.09-28.74-.76-9.08-.81-17.44-.82-26.4 1.06-8.7 1.83-17.17 4.63-25.63 7.34a280.72 280.72 0 0 1 -28.24 7.47c-8.17 1.69-16.5 3.59-23.56 8.23-1.69 1.1-1.76 4.39.63 4.78 3.18.52 5.83-.22 9-.61 4.69-.56 9.43.06 14.13-.5 3.21-.39 6.31-1.29 9.49-1.86a22.41 22.41 0 0 0 6.11-.24c2.45.24 4.87.76 7.41 1.05 5.86.69 12-.22 18-.89 3.65 1.45 7.7.37 11.55-1 4.7-.3 9.41-.48 14.12-.42.11.14.24.27.35.4a9.65 9.65 0 0 0 6.8 2.57 25.55 25.55 0 0 0 7.8-1.26c4 .8 7.89 1.77 12 2.53 8.16 1.53 16.46.95 24.7 1 17.93.16 35.86 0 53.79.35 10 .22 19.49-.51 29.44.76 6.95.89 15.22 2.72 22.08.74a2.64 2.64 0 0 0 1.51-3.79zm-99.86-3.1c-1.86 0-3.72 0-5.6 0 1.48-.39 3-.77 4.45-1.11 2.15-.49 4.31-1.15 6.28 0a5.38 5.38 0 0 1 1.36 1.23zm89.15 2.58a2.79 2.79 0 0 0 .43-.48c.5.16 1 .34 1.45.52-.59 0-1.22-.01-1.85-.04z" fill="#e3b190"/><path d="m254.14 183.08-2.14-1.08a2.71 2.71 0 0 0 -3.38.66 11.47 11.47 0 0 0 -1.16-.95 2 2 0 0 0 .77-.84c.6-1.12.41-3-.93-3.58a10.26 10.26 0 0 0 -1.4-.52l-.39-.1-.23-.14a2.64 2.64 0 0 0 -3.84 1.56l-.07.22c0 .1-.11.19-.16.28v.09l-.21.32a.1.1 0 0 1 0 .05 18.08 18.08 0 0 0 -4.43-1.38c-5.39-1-10-3.35-15.22-4.74a2.46 2.46 0 0 0 -2.09.29l-1.26-.22a2.12 2.12 0 0 0 -1.85-.77 11 11 0 0 1 -1.26.07c-1.41-.55-2.82-1.14-4.23-1.83a12.44 12.44 0 0 0 -3.58-1.19 2.58 2.58 0 0 0 -.87-.19 35.48 35.48 0 0 0 -7.13.71 2.7 2.7 0 0 0 -.66-.32c-.61-.2-1.22-.37-1.83-.52a68.34 68.34 0 0 0 -13.91-1.81c-2.87-.13-7.82-.46-10.43 1.66a2.49 2.49 0 0 0 -1.09-.25h-1.9a56.26 56.26 0 0 0 -6.34-1.47c-3.65-.48-7 .91-10.6 1-7.45.21-14.74-1.68-22.09-2.53-4.07-.46-8.72-.78-12.78.45a2.58 2.58 0 0 0 -1 .06 12.77 12.77 0 0 0 -5.22 2.72 2.44 2.44 0 0 0 -.62.85 2 2 0 0 0 -1.69-.64c-2.39-1.15-5-.72-7.52.16a2.74 2.74 0 0 0 -1.91 2.51 34.79 34.79 0 0 0 -10.49 4.21c-2.29.83-4.57 1.69-6.79 2.59a2.09 2.09 0 0 0 -.2-.22 5.73 5.73 0 0 0 -5.3-1.35 6 6 0 0 0 -2.66 1.65 7.59 7.59 0 0 0 -2.75.48 2.73 2.73 0 0 0 -1.92 2.53 2.69 2.69 0 0 0 1.92 2.52 7 7 0 0 0 1.53.22 3 3 0 0 0 -.43.86 2.69 2.69 0 0 0 .27 2 2.61 2.61 0 0 0 1.56 1.2 3 3 0 0 0 2-.26 7.62 7.62 0 0 0 2.1-1.46 2.65 2.65 0 0 0 0-3.7 3 3 0 0 0 -.68-.45 2.1 2.1 0 0 0 .22-.42l.15-.09a2.57 2.57 0 0 0 .08.4 2.68 2.68 0 0 0 1.93 1.82 2.1 2.1 0 0 0 1.81 0l.84-.35.73-.18a2.35 2.35 0 0 0 1-.5l3.07-1.17a2.68 2.68 0 0 0 2.89.41c2.7-1.18 6.43-3.61 9.4-2.09a2.74 2.74 0 0 0 3.8-3.3l.68-.09a2.64 2.64 0 0 0 1.37 1 8 8 0 0 0 4.38.07c1.71-.36 3.88-1.75 4.79.45.56 1.39 2.33 2.68 3.84 1.56 2-1.47 3.49-2.21 5.77-.77 2 1.26 3.85-.55 3.85-2.37h.37a2.63 2.63 0 0 0 1.65 3.68 22.83 22.83 0 0 0 3.88.18 12.88 12.88 0 0 0 2.41 0h.79c.66 1.29 2.17 2.14 3.55 1.08a17.27 17.27 0 0 1 5.53-2.64 23.89 23.89 0 0 0 2.74.71l.77.2c.54.15-.18.07.3.12a2.07 2.07 0 0 1 .15.61 2.48 2.48 0 0 0 2.13 1.86 2.59 2.59 0 0 0 3.37.68 5.36 5.36 0 0 1 3.81-1.17 2.64 2.64 0 0 0 2.61-2.62 2.38 2.38 0 0 0 -.64-1.65 2.8 2.8 0 0 0 .6-1.16l.94-.45a2.73 2.73 0 0 0 1.65-.6 5.63 5.63 0 0 1 .69-.14h.15a2.81 2.81 0 0 0 .62.51 4.34 4.34 0 0 0 .54.25c.09.22.16.49.25.8a2.74 2.74 0 0 0 .44.87c-3 .27-3.3 4.47-.94 5.14a3.15 3.15 0 0 0 3.19 1.77 15.18 15.18 0 0 0 4.63-1.52 2.52 2.52 0 0 0 .52-.36 19.68 19.68 0 0 1 3.94.63c3.1.76 4.51-3.71 1.87-4.87a2.62 2.62 0 0 0 .11-.4 2.93 2.93 0 0 0 1.38-1.18 2 2 0 0 0 1.87 2.27c.37 0 .73.08 1.09.1a2.55 2.55 0 0 0 2.5 1.9 41.44 41.44 0 0 0 4.95-.91 2.44 2.44 0 0 0 1.58.57h3.14a2.67 2.67 0 0 0 2.11-1.13 13.61 13.61 0 0 0 1.89.72c2.08.54 4-.21 6.16-.12 3 .13 5.66.93 8.67.53h.06a2.25 2.25 0 0 0 0 1.23 2.65 2.65 0 0 0 3.21 1.83l1.57-.53a2.68 2.68 0 0 0 1.86-3.08c1 .62 2 1.26 2.93 1.77a2.42 2.42 0 0 0 2.1.22l.62.23a9.67 9.67 0 0 0 2.42 1.06 3.06 3.06 0 0 0 .24 2c1 2 3.1 3.11 5.19 3.6a2.65 2.65 0 0 0 3.21-1.83 2.68 2.68 0 0 0 -1.52-3.11 2.63 2.63 0 0 0 -.28-.83l.69.12a11.89 11.89 0 0 1 4.07 2.88 2.31 2.31 0 0 0 3 .42l.11.11c1.29 1.51 3.1.83 3.92-.51l1.84.91a2.61 2.61 0 1 0 2.64-4.51zm-117.07-7.66a6.67 6.67 0 0 0 -.73-1.31h.45a2.06 2.06 0 0 0 .64 1l.33.26c-.23.03-.46.05-.69.05zm50.66-2a35.33 35.33 0 0 1 3.71.05 12.47 12.47 0 0 1 -3.71-.05z" fill="#826552"/><path d="m114.17 169.64c0-.76-.7-1.68-1.57-1.57a4.79 4.79 0 0 0 -1.58.47 1.52 1.52 0 0 0 -2.15 0 7.1 7.1 0 0 1 -.8.65 1.39 1.39 0 0 0 -1.23-.59c-2.71.08-5.19-.31-7.59 1.26a1.56 1.56 0 0 0 -.62 1.88l-.71.32a1.46 1.46 0 0 0 -.43-.9 1.58 1.58 0 0 0 -2.22 0 6.28 6.28 0 0 1 -2.27 1.84 1.57 1.57 0 0 0 1.58 2.71 9.1 9.1 0 0 0 1.94-1.32 2.44 2.44 0 0 0 .1.24 1.6 1.6 0 0 0 2.15.56 6.49 6.49 0 0 1 2.24-.89 1.52 1.52 0 0 0 1.07-1 1.36 1.36 0 0 0 1.24.59h2a1.4 1.4 0 0 0 1.13-.46 11.13 11.13 0 0 0 3.47-1.63 1.47 1.47 0 0 0 .74.47 1.59 1.59 0 0 0 1.85-.91c.08 0 .12 0 0 0 .1 0 .41-.1.14-.06a1.62 1.62 0 0 0 1.52-1.66z" fill="#593014"/><path d="m88.53 173.82c-2.08.26-4.13.65-6.17 1.11s-1.14 3.46.83 3c1.77-.39 3.54-.76 5.34-1a1.61 1.61 0 0 0 1.57-1.57 1.59 1.59 0 0 0 -1.57-1.54z" fill="#593014"/><path d="m128.88 169.05a6.81 6.81 0 0 0 -2.44-1.35 5.08 5.08 0 0 0 -.94-.14c-.24 0-.61-.11.07.05a1.6 1.6 0 0 0 -1.23.14 1.53 1.53 0 0 0 -.73 1.21 1.49 1.49 0 0 0 -.57 1.19 1.6 1.6 0 0 0 1.57 1.57h1.57a1.56 1.56 0 0 0 .81-.24 1.53 1.53 0 0 0 1.87-.22 1.58 1.58 0 0 0 .02-2.21z" fill="#593014"/><path d="m137.6 166.56c-1.28-.18-3-.3-4 .75a2.22 2.22 0 0 0 -.59 1.52l-.62.75a1.57 1.57 0 0 0 2.22 2.22l.5-.6a1.46 1.46 0 0 0 .71-.2 1.43 1.43 0 0 0 .6-.69 1.29 1.29 0 0 0 .07-.21.75.75 0 0 0 0-.16 1.24 1.24 0 0 0 .06-.29s0 0 0 0 .24 0 .11 0a1.57 1.57 0 1 0 .83-3z" fill="#593014"/><path d="m144.05 169.58-.52-.53a1.57 1.57 0 0 0 -2.22 2.22l.52.53a1.61 1.61 0 0 0 2.22 0 1.59 1.59 0 0 0 0-2.22z" fill="#593014"/><path d="m137.91 172.05a2.36 2.36 0 0 0 -1.35-.79 1.63 1.63 0 0 0 -1.8.77 1.38 1.38 0 0 0 -.71 1.27c0 .76.7 1.68 1.57 1.57a3.17 3.17 0 0 0 2.29-.85 1.59 1.59 0 0 0 0-1.97z" fill="#593014"/><path d="m162.3 168.07a14.34 14.34 0 0 0 -2.79.27 1.74 1.74 0 0 0 -1.66-.06 1.1 1.1 0 0 1 -1 0 1.61 1.61 0 0 0 -2.15.57 1.67 1.67 0 0 0 0 1.54 1.62 1.62 0 0 0 2.18 2.17 11.75 11.75 0 0 1 5.48-1.35 1.57 1.57 0 0 0 -.06-3.14z" fill="#593014"/><path d="m180.51 166.56c-2.56-.38-4.83-1-7.2-.56a1.15 1.15 0 0 0 -.71-.4 9.12 9.12 0 0 0 -3.91.43c-2 .48-1.13 3.51.83 3 .33-.08.71-.21 1.09-.31a1.69 1.69 0 0 0 1.78.75 1.6 1.6 0 0 0 1.84 2.18 14.89 14.89 0 0 1 2.72-.47 1.61 1.61 0 0 0 1.57-1.57 1.24 1.24 0 0 0 0-.27l1.18.21c1.95.33 2.8-2.7.81-2.99z" fill="#593014"/><path d="m190 170.78s0-.06 0-.09a1.51 1.51 0 0 0 -.06-.37l.13-.09a1.58 1.58 0 0 0 0-2.22 7.68 7.68 0 0 0 -6.76-.93 1.61 1.61 0 0 0 -1.1 1.93 1.59 1.59 0 0 0 1.93 1.1 4.28 4.28 0 0 1 1.88-.2 1.4 1.4 0 0 0 -.2.78 1.75 1.75 0 0 0 .21.74.93.93 0 0 0 -.16.41 10.1 10.1 0 0 0 -.13 1.39 1.67 1.67 0 0 0 -.23 1.91 1.61 1.61 0 0 0 2.15.56c1.3-.57 2.92-1.57 3.33-3a1.58 1.58 0 0 0 -.99-1.92z" fill="#593014"/><path d="m171.3 172.83a1.49 1.49 0 0 0 -.83.58l-.23.14-.78.43a1.52 1.52 0 0 0 .17-.68v-.52a1.59 1.59 0 0 0 -1.57-1.57 1.69 1.69 0 0 0 -.56.12 1.65 1.65 0 0 0 -.72-1.77 2 2 0 0 0 -2.13.29 1.67 1.67 0 0 0 -.62.7c-.25.2-.5.39-.75.6a1.58 1.58 0 0 0 0 2.21 1.6 1.6 0 0 0 2.22 0l1-.77a1.5 1.5 0 0 0 0 .22v.52a1.59 1.59 0 0 0 1.57 1.57 1.62 1.62 0 0 0 .72-.2 1.55 1.55 0 0 0 0 1.52 1.59 1.59 0 0 0 2.15.56c.52-.32 1.09-.57 1.6-.91a1.73 1.73 0 0 0 .91-1.72 1.64 1.64 0 0 0 -2.15-1.32z" fill="#593014"/><path d="m202.86 172.47a9.27 9.27 0 0 0 -1.59-.9 3.22 3.22 0 0 0 -2.51.41c-1 .56-1.71 2-.73 2.93a1.68 1.68 0 0 0 1.54.42 1.51 1.51 0 0 0 1.2-.15l.23-.18.27.17a1.6 1.6 0 0 0 2.15-.56 1.59 1.59 0 0 0 -.56-2.14z" fill="#593014"/><path d="m152.42 175.33a1.59 1.59 0 0 0 -2.22 0l-1.57 1.57a1.61 1.61 0 0 0 0 2.22 1.59 1.59 0 0 0 2.22 0l1.57-1.57a1.59 1.59 0 0 0 0-2.22z" fill="#593014"/><path d="m143.74 175.61c.16.11-.05 0-.11-.09s.26.22-.08-.09v-.05a2.92 2.92 0 0 1 -.1-.4 1.58 1.58 0 0 0 -1.93-1.1 1.6 1.6 0 0 0 -1.1 1.93 3.93 3.93 0 0 0 1.77 2.51 1.59 1.59 0 0 0 2.15-.56 1.61 1.61 0 0 0 -.6-2.15z" fill="#593014"/><path d="m236.57 177.17a1.71 1.71 0 0 0 -1.47-1.74 3.46 3.46 0 0 0 -1.22-.5 1.77 1.77 0 0 0 -1.51.39c-1.24-.36-2.39-1.08-3.64-1.56a6.27 6.27 0 0 0 -4.3-.18 1.54 1.54 0 0 0 -.91-.28h-2.12c-2.79-1.16-5.52-2.71-8.39-3.29a1.63 1.63 0 0 0 -1.42-.31c-.11 0-.21.06-.32.09h-.9a1.59 1.59 0 0 0 -.74-1.55 7 7 0 0 0 -6.78-.55c-.82.32-1.62 1.43-.93 2.31a7.56 7.56 0 0 0 1.13 1.27 1.65 1.65 0 0 0 2.71-1.07 4.23 4.23 0 0 1 1.28.26c-.06.28-.12.55-.19.83a1.59 1.59 0 0 0 1.93 1.93c.2-.06.4-.1.59-.14a2.78 2.78 0 0 0 .24.49 1.59 1.59 0 0 0 2.14.56 1.61 1.61 0 0 0 .74-1.07 21.43 21.43 0 0 1 5.34 2 1.46 1.46 0 0 0 1.5 1.42h1.54c.39.17.79.33 1.18.47a1.31 1.31 0 0 0 1.32-.19 1.53 1.53 0 0 0 1.46 0c1.89-.91 3.48.31 5.19 1.06a9.1 9.1 0 0 0 4 .83 1.55 1.55 0 0 0 1.82.2 1.63 1.63 0 0 0 .73-1.68z" fill="#593014"/><path d="m241.72 180.16a4.32 4.32 0 0 1 -.7-.37 3.72 3.72 0 0 1 .56-.42c1.71-1.06.14-3.78-1.59-2.71a8.58 8.58 0 0 0 -2.65 2.68 1.59 1.59 0 0 0 .56 2.15 26.74 26.74 0 0 0 3 1.7 1.59 1.59 0 0 0 1.93-1.1 1.6 1.6 0 0 0 -1.11-1.93z" fill="#593014"/><path d="m55.88 393c-3.1-12.43-1.89-25.39-1.31-38 .68-14.92-1.24-29.79-1.44-44.7a1.05 1.05 0 0 0 -2.1 0c.22 15.5 2.18 30.94 1.36 46.46-.65 12.24-1.52 24.82 1.47 36.83a1 1 0 0 0 2.02-.59z"/><path d="m63.55 448.76a93 93 0 0 1 -4.84-32.51 1.05 1.05 0 0 0 -2.1 0 94.72 94.72 0 0 0 4.92 33.06c.47 1.27 2.47.69 2.02-.55z"/><path d="m119.58 513c-13.36-6.95-30.17-9.69-36.49-25.19-.51-1.23-2.53-.69-2 .56 6.63 16.24 23.37 19.11 37.45 26.44 1.18.63 2.23-1.18 1.04-1.81z"/><path d="m258.22 359.74c-.07-1.34-2.17-1.35-2.09 0 .67 11.64-2.19 23.6-3 35.24-.85 12.21-1.57 24.6-5.33 36.34-.41 1.28 1.61 1.83 2 .55 3.63-11.35 4.46-23.34 5.29-35.16.91-12.19 3.83-24.71 3.13-36.97z"/><path d="m245 445.27a118.35 118.35 0 0 0 -2.13 12.83c-.11 1.35 2 1.34 2.09 0a118.68 118.68 0 0 1 2.04-12.28c.28-1.31-1.74-1.88-2-.55z"/><path d="m245.67 402.29a334.27 334.27 0 0 1 -4.78 37.17c-2.2 11.38-6.25 22.32-8.44 33.71-.25 1.32 1.76 1.88 2 .56 2.31-12 6.68-23.55 8.79-35.61 2.07-11.83 3.56-23.86 4.5-35.83.13-1.29-1.97-1.29-2.07 0z"/><path d="m143.16 490.15c-20-18.41-36.33-45.18-39.46-72.51-.15-1.32-2.24-1.34-2.09 0 3.19 27.91 19.65 55.16 40.07 74 .99.9 2.47-.57 1.48-1.49z"/><path d="m139 470.27c-2.55-2.7-4.95-5.52-7.32-8.37-.86-1-2.34.45-1.48 1.48 2.37 2.85 4.77 5.67 7.32 8.37.9.98 2.38-.5 1.48-1.48z"/><path d="m157.07 94.3c-12.35-1.15-24.48-1.08-36.35-5.2-1.27-.44-1.82 1.58-.55 2 12 4.19 24.34 4.1 36.9 5.27 1.34.14 1.33-1.95 0-2.07z"/><path d="m304.59 196.5c-.28-4.6-2.83-8.66-7.35-9.9a.87.87 0 0 0 .05-.22c1.22-28.08-15.48-52.81-36.54-69.95a194.31 194.31 0 0 0 -73.81-37.17c-4.1-1.05-8.18-1.87-12.24-2.54a.84.84 0 0 0 -1.17-.52c-3.24 1.3-6.76 1.2-10.11 2.09a1 1 0 0 0 .56 2c3.05-.81 6.24-.82 9.24-1.79l1.27.2c-11 13.86-35.26 10-48.73 1.15h.16a1.1 1.1 0 0 0 .45.16 97.9 97.9 0 0 0 10.12.69 1 1 0 0 0 0-2.09 95.21 95.21 0 0 1 -10.12-.7.84.84 0 0 0 -.66.19c-.66.15-1.33.3-2 .47a.79.79 0 0 0 -.65.17 129.24 129.24 0 0 0 -14 4.39c-21.68 8.17-42.67 19.71-59.71 35.55-18.61 17.32-31.27 40.32-29.35 66.32a1.16 1.16 0 0 0 -.45 1.1c-6.47-2.66-10.93 3.27-12 9.45a1 1 0 0 0 0 .35 1.07 1.07 0 0 0 -.58.07c-9.8 4.33-7.71 17.88-2.66 25.22a1 1 0 0 0 0 1.7c7.61 3.72 14.93 10 23.9 9 28.2 12.48 59.62 12.7 89.81 15.4 34.49 3.09 69.22 1.16 103.8.79 15.28-.17 31.46-1 45.15-8.49 1.18-.65.13-2.46-1.06-1.81-11.95 6.53-25.88 7.79-39.32 8.12 0 0 0-.08.05-.14.49-2.79 1-5.58 1.57-8.37.25-1.31-1.77-1.88-2-.55-.53 2.78-1.08 5.57-1.57 8.37a1.05 1.05 0 0 0 .14.73h-1.34c-15.57.24-31.14.32-46.72.68-15 .34-29.94.09-44.87-.61a1 1 0 0 0 .15-.55c-.2-5.26-1.21-10.44-1.57-15.69-.1-1.34-2.19-1.35-2.1 0 .37 5.25 1.38 10.43 1.57 15.69a1.12 1.12 0 0 0 .13.47c-16.28-.8-32.53-2.12-48.79-3.79-17.7-1.82-35.49-4.81-51.86-12a.14.14 0 0 1 0-.06c.74.47 2-.06 1.58-1.07a16.44 16.44 0 0 1 -1-7c.09-1.34-2-1.34-2.09 0a18.1 18.1 0 0 0 .1 3.53 9.83 9.83 0 0 1 -.66-5.87 1 1 0 0 0 -2-.55c-1 3.71 1 7.31 2 10.81-.57 0-1.14 0-1.7 0a1.28 1.28 0 0 0 -.15-.28c-2.83-3.4-3.54-8.57-3.36-12.86.06-1.35-2-1.35-2.09 0-.19 4.27.53 9.09 2.86 12.81a31.34 31.34 0 0 1 -8.5-3.43 1 1 0 0 0 .79-1.54c-2.08-3.44-4.14-8.85-2.51-12.8.51-1.24-1.51-1.78-2-.55-1.82 4.41.33 10.37 2.64 14.27-1-.57-2-1.17-3-1.75a.85.85 0 0 0 .2-1.26 15.92 15.92 0 0 1 -2.51-13.32 1 1 0 0 0 -2-.56 18 18 0 0 0 2 13.81c-.57-.31-1.13-.62-1.7-.91a.84.84 0 0 0 0-1.11c-4.57-6.45-7.19-18.78 1.72-22.7 1.41.86 2.8 1.73 4.19 2.62 1.13.73 2.18-1.09 1-1.81s-2.49-1.56-3.75-2.35c0-.05 0-.08.05-.13.9-5 4.19-10.83 10-7.75a1.07 1.07 0 0 0 1.56-.92c9.16 5.63 20 7.1 30.36 9.14a214.49 214.49 0 0 0 39.74 4.45 1 1 0 0 0 0-2.09 211.86 211.86 0 0 1 -39.21-4.41c-10.23-2-20.87-3.41-29.89-8.95a.93.93 0 0 0 0-.24c-3.76-48.22 41.21-81 80.93-97.57a179.18 179.18 0 0 1 20.1-7.18 43.7 43.7 0 0 0 5 3.14 32.94 32.94 0 0 1 -5-2.33 1.05 1.05 0 0 0 -1.15 1.63 20.83 20.83 0 0 0 1.44 1.53 1 1 0 0 0 1.41 0 16.91 16.91 0 0 0 3.22 1.36 1.06 1.06 0 0 0 1.07-1.67c15 7.59 37.3 9.07 47.7-5.07 1.83.34 3.65.73 5.46 1.14a16.33 16.33 0 0 1 -9.76 7.77 1 1 0 0 0 .55 2 18.37 18.37 0 0 0 11.09-8.85 1 1 0 0 0 .14-.45c23.36 5.57 45.64 16.14 65.26 29.84 25 17.43 47.07 43.62 45.67 75.77a1 1 0 0 0 .17.59 1.34 1.34 0 0 0 -.14.52 1.09 1.09 0 0 0 -.77.24c-21 16.92-50.57 17-76.17 17a1.05 1.05 0 0 0 0 2.1c26.24 0 56.19-.26 77.65-17.58a.81.81 0 0 0 .35-.69c3.88.93 6 4.22 6.22 8.12a.85.85 0 0 0 .16.73l.17.27a12.59 12.59 0 0 0 -2.1 1.61c-1 .92.49 2.4 1.48 1.48a9.73 9.73 0 0 1 1.74-1.32c3.85 6.45 5.71 14.12 2.3 21.13a.92.92 0 0 0 -.29.16l-.11.08c.59-2.7.34-5.48.32-8.24a1 1 0 0 0 -2.09 0c0 2.88.35 5.81-.48 8.62a.91.91 0 0 0 .3 1 34.16 34.16 0 0 1 -4.12 2.3s.06-.09.08-.15c.8-2.47.57-5.05.56-7.6a1 1 0 0 0 -2.09 0c0 2.36.25 4.76-.49 7a1 1 0 0 0 .74 1.25 46.19 46.19 0 0 1 -4.54 1.64 23.31 23.31 0 0 0 .62-7.32c0-1.34-2.13-1.35-2.09 0a19.05 19.05 0 0 1 -1 8c-.85.22-1.71.42-2.58.61.24-1.57.57-3.12.9-4.68.27-1.31-1.74-1.87-2-.55-.37 1.77-.73 3.54-1 5.34l-.62.31c-1.21.6-.15 2.41 1.05 1.81a1.06 1.06 0 0 0 .76.12c6.71-1.34 12.76-3.37 18.27-7.37a.92.92 0 0 0 1.19-.43c4.84-8.53 2.3-18.25-2.94-25.97z"/><path d="m172.24 203.12a172.59 172.59 0 0 1 -24.28 0c-7.42-.51-14.84-2.32-22.28-2.07-1.35.05-1.35 2.14 0 2.09 7.42-.25 14.87 1.56 22.28 2.07a174.11 174.11 0 0 0 24.28 0c1.34-.09 1.35-2.21 0-2.09z"/><path d="m99.51 107.52c-11.37 5.4-22.14 11.94-30.85 21.15a101.83 101.83 0 0 0 -11.39 13.67c-3.44 5.26-5.84 11.11-9.41 16.31-.76 1.11 1 2.16 1.81 1 3.24-4.72 5.54-9.95 8.5-14.84 3.24-5.35 7.68-10.17 12-14.71 8.6-9.09 19.21-15.5 30.43-20.82 1.18-.53.12-2.34-1.09-1.76z"/><path d="m42.11 170.16a9.81 9.81 0 0 0 -1.19 4.71 1 1 0 0 0 2.09 0 7.68 7.68 0 0 1 .9-3.66c.63-1.21-1.17-2.21-1.8-1.05z"/><path d="m271 135.63c-4.82-6.46-9.49-12.86-16.07-17.65-1.1-.79-2.14 1-1.06 1.81 6.28 4.56 10.73 10.74 15.32 16.89.81 1.07 2.6.03 1.81-1.05z"/><path d="m282.5 153.41c-.81-1.77-1.81-3.45-2.62-5.23-.55-1.22-2.36-.16-1.81 1.06.81 1.78 1.82 3.45 2.62 5.23.55 1.23 2.36.16 1.81-1.06z"/><path d="m174.06 95.9c-7.87 2.93-16.28 10.44-25.08 7.33-1.28-.45-1.82 1.57-.56 2 9.36 3.31 17.89-4.24 26.19-7.33 1.25-.44.71-2.47-.55-2z"/><path d="m181.8 91.68c-3.64 7.91-13 10.87-20.43 14.17-1.06.47-.36 1.84.53 2a20.2 20.2 0 0 0 8-1 1 1 0 0 0 -.56-2l-.89.24c6.16-2.74 12.28-6.08 15.15-12.31.57-1.26-1.23-2.33-1.8-1.1z"/><path d="m180.76 98.48a14 14 0 0 1 -8.27 7.89c-1.23.5-.69 2.53.55 2 4.49-1.85 7.59-4.33 9.52-8.86.53-1.2-1.27-2.27-1.8-1.03z"/><path d="m126.73 86.59c-1.89-1.09-4-2-5.55-3.5-1-.94-2.44.54-1.47 1.48 1.72 1.68 3.91 2.64 6 3.83a1 1 0 0 0 1.02-1.81z"/><path d="m20.52 226.29c-3.47-2.27-3.44-8-3.15-11.65.11-1.35-2-1.34-2.09 0-.36 4.53 0 10.7 4.18 13.46 1.13.74 2.18-1.1 1.06-1.81z"/><path d="m241.83 234.52c-.09-1.34-2.18-1.35-2.09 0a31 31 0 0 1 -.49 6.52c-.19 1.32 1.82 1.89 2 .56a33.06 33.06 0 0 0 .58-7.08z"/><path d="m234 236.61c.1 2.47-.89 4.71-1.53 7a1 1 0 0 0 2 .55c.69-2.52 1.71-4.93 1.6-7.6-.07-1.29-2.14-1.3-2.07.05z"/><path d="m220.38 236.09v8.37a1 1 0 0 0 2.09 0v-8.37a1 1 0 0 0 -2.09 0z"/><path d="m176.43 231.9c.11-1.34-2-1.33-2.09 0-.36 4.24 1.28 8.32 1 12.56-.07 1.34 2 1.34 2.1 0 .27-4.25-1.37-8.32-1.01-12.56z"/><path d="m183.19 228.48c-.2-1.32-2.22-.76-2 .56.86 5.47 1.47 11 2.06 16.46.14 1.33 2.24 1.34 2.09 0-.63-5.68-1.27-11.36-2.15-17.02z"/><g fill="#fff"><path d="m159.71 375.38a6 6 0 0 1 -4.05 3.47c-1.76.53-3.6.66-5.38 1.07a33.56 33.56 0 0 0 -5.33 1.75l-.32.14q.48 4.72 1.07 9.43 1.68 13.41 4.17 26.69c.41 2.19.85 4.38 1.28 6.57a4.56 4.56 0 0 1 -.09 2.83 4.32 4.32 0 0 1 -2 1.86c-1.49.82-3.51 1.13-4.88-.13s-1.37-2.4-3.16-13.43q-2.38-14.7-4.45-29.44l-1.66 1.09c-1.6 1.07-3.18 2.19-4.75 3.31s-3.11 2.32-4.73 3.35-3.41 1.79-5.26 1.3a4.09 4.09 0 0 1 -3.12-3.24c-.14-.79 7.91-7.19 8.23-7.43 11.93-9.02 38.81-21.17 34.43-9.19z"/><path d="m215.49 389.67a.82.82 0 0 0 -1 .68c-.34 7.18-6 19-10.12 8.42a26.48 26.48 0 0 1 -1.25-8.64c0-1.53 0-3.06.07-4.58s.27-2.88.4-4.33a3.9 3.9 0 0 0 -.74-3.15 2.83 2.83 0 0 0 -2.24-.79c-2 .15-2.14.82-5.24 8.31a7.12 7.12 0 0 0 -6.66-.42 9 9 0 0 0 -4.83 6.53 8.63 8.63 0 0 0 .09 3.64 58.9 58.9 0 0 1 -2.33 5.71c-6.45 12-16.18 10.49-18.9 4.87a16.8 16.8 0 0 1 -1.44-6.45 15.91 15.91 0 0 1 .36-4.3 3.31 3.31 0 0 0 2.13 1.48 3.72 3.72 0 0 0 1.2 0c8.23-.69 7-13.45-2-10.22a11.38 11.38 0 0 0 -6 5.9 21.08 21.08 0 0 0 -1.77 9.58c.08 3.09.9 6.2 3.17 8.33 4.22 4 16.84 7.51 24.58-8.26.78-1.43 1.47-2.92 2.12-4.4a3.65 3.65 0 0 0 2.47 1.29 4.66 4.66 0 0 0 3.8-1.79 25.13 25.13 0 0 0 2.82-3.88 43.37 43.37 0 0 0 2.21-3.93.82.82 0 0 0 .36-.4c0 1.39 0 2.78.1 4.17.17 3.1.79 6.39 2.72 8.87a8.61 8.61 0 0 0 6.86 3.62c5.3-.2 9.33-7.74 9.67-14.91a.87.87 0 0 0 -.61-.95zm-49.19-.67c4-.77 3 4.24-.4 5.72-2.88 1.27-3.07-1.59-3.47-1.74.74-1.71 2-3.64 3.87-3.98zm27.35.86c-3.81 9.21-3.91 2.59-3 .58.66-1.43 1.82-3 3.48-2.88a2.88 2.88 0 0 1 .35.26c-.26.66-.54 1.34-.83 2.02z"/><path d="m158.68 374.86a5.91 5.91 0 0 1 -4.05 3.47c-1.75.53-3.59.65-5.37 1.07a33.68 33.68 0 0 0 -5.34 1.75l-.32.14q.5 4.72 1.08 9.43 1.66 13.41 4.16 26.69c.41 2.19.85 4.38 1.29 6.57a4.56 4.56 0 0 1 -.1 2.83 4.33 4.33 0 0 1 -2 1.86c-1.49.82-3.51 1.13-4.87-.13s-1.38-2.4-3.17-13.44q-2.39-14.69-4.45-29.43c-.56.35-1.11.72-1.66 1.09-1.6 1.07-3.17 2.19-4.74 3.31s-3.11 2.31-4.74 3.35-3.41 1.79-5.25 1.3a4.09 4.09 0 0 1 -3.13-3.24c-.13-.79 7.92-7.19 8.24-7.43 11.92-9.05 38.81-21.17 34.42-9.19z"/><path d="m214.47 389.15a.82.82 0 0 0 -.95.68c-.35 7.18-6 19-10.13 8.42a26.25 26.25 0 0 1 -1.24-8.64c0-1.53 0-3.06.06-4.58s.28-2.89.4-4.33a3.9 3.9 0 0 0 -.74-3.15 2.82 2.82 0 0 0 -2.24-.79c-2 .15-2.14.82-5.24 8.31a7.12 7.12 0 0 0 -6.66-.42 9 9 0 0 0 -4.83 6.53 8.8 8.8 0 0 0 .1 3.64 61.61 61.61 0 0 1 -2.34 5.71c-6.44 12-16.18 10.49-18.89 4.87a16.81 16.81 0 0 1 -1.45-6.45 16 16 0 0 1 .37-4.31 3.25 3.25 0 0 0 2.13 1.49 3.65 3.65 0 0 0 1.19 0c8.23-.69 7-13.45-2-10.22a11.36 11.36 0 0 0 -6 5.9 21.21 21.21 0 0 0 -1.77 9.58c.08 3.09.9 6.2 3.17 8.33 4.22 4 16.85 7.51 24.59-8.26.78-1.43 1.47-2.92 2.12-4.4a3.61 3.61 0 0 0 2.46 1.29 4.72 4.72 0 0 0 3.81-1.79 25.81 25.81 0 0 0 2.82-3.88q1.2-1.92 2.2-3.93a.9.9 0 0 0 .37-.4q0 2.08.09 4.17c.18 3.1.8 6.39 2.73 8.87a8.57 8.57 0 0 0 6.85 3.62c5.3-.2 9.34-7.74 9.68-14.91a.88.88 0 0 0 -.66-.95zm-49.2-.69c4-.77 3 4.24-.4 5.72-2.88 1.27-3.07-1.59-3.46-1.74.73-1.69 2-3.62 3.86-3.98zm27.36.86c-3.81 9.21-3.92 2.59-3 .58.66-1.43 1.83-3 3.48-2.88a3 3 0 0 1 .36.26c-.28.72-.56 1.36-.84 2.04z"/><path d="m119.17 353.27c-1.41-3.69-4.11-7.14-7.8-8.49a10.93 10.93 0 0 0 .54-5.44 10.73 10.73 0 0 0 -6.82-8.36c-3.87-1.32-7.81.33-10.77 3a5 5 0 0 0 -4.25-2c-2.11.26-3.63 2.12-4.88 3.73a32.2 32.2 0 0 0 -6.39 23 30.35 30.35 0 0 0 1.2 5.72c.32 1 1.85.45 1.53-.58a30.58 30.58 0 0 1 1.39-21.27 28.61 28.61 0 0 1 2.7-4.76c.74-1.06 2.1-4.43 4.9.56a32 32 0 0 0 -3.36 6.69 39.8 39.8 0 0 0 -.38 25.93 27.81 27.81 0 0 0 3 6.37 12.52 12.52 0 0 0 4.51 4.46 5.14 5.14 0 0 0 5.65-.29 8.57 8.57 0 0 0 2.63-4.88c1.11-4.82.74-10 0-14.82a135.82 135.82 0 0 0 -3-14.83c-.65-2.44-1.39-4.85-2.27-7.21a29.45 29.45 0 0 0 -1.68-3.92 7.11 7.11 0 0 1 1.8-1.3 4.82 4.82 0 0 1 3-.28 7.42 7.42 0 0 1 4.1 2.46 8.86 8.86 0 0 1 2 7.53 10 10 0 0 0 -1.21.26 7.1 7.1 0 0 0 -4.55 3.53 3.05 3.05 0 0 0 .14 3 2.77 2.77 0 0 0 2.34 1.1 7.54 7.54 0 0 0 4.8-2.32 11.12 11.12 0 0 0 1.2-1.27 5.07 5.07 0 0 1 .54.36c2.62 1.9 3.94 5.28 4.45 8.44a20.11 20.11 0 0 1 -.94 9.94 18.54 18.54 0 0 1 -2.29 4.42c-.88 1.22-2.43 2.61-4 1.7-.83-.48-1.38-3-2.65-1.64s-.53 3.9-.49 3.95a5.71 5.71 0 0 0 5.21 2 10.23 10.23 0 0 0 5.53-3.07 19.62 19.62 0 0 0 5.37-10 20.18 20.18 0 0 0 -.8-11.42zm-27.17 24.38a27.69 27.69 0 0 1 -4.83-11.43 39.51 39.51 0 0 1 -.56-11.64 35.21 35.21 0 0 1 2.95-11.11 32.71 32.71 0 0 1 1.75-3.31c.26.66.49 1.32.69 1.93a67.89 67.89 0 0 1 2.45 9.55 169.24 169.24 0 0 1 2.16 19.47c.32 3.89.06 12.62-4.61 6.54zm10.58-27.24c-1.55-.43.14-2.28 2.44-2.64a10.4 10.4 0 0 1 -2.4 2.64z"/><path d="m153.06 351.24a64.64 64.64 0 0 1 -3.15 12.59 8.24 8.24 0 0 1 -2.42 4 4.64 4.64 0 0 1 -4 .68c-3.27-.9-4.81-4.07-5.5-7.26a70.16 70.16 0 0 1 -1.38-11.57c0-.1 0-.21 0-.31a24.85 24.85 0 0 1 -2.17 7 8.34 8.34 0 0 1 -2.79 3.51 3.1 3.1 0 0 1 -3.81-.68 11.43 11.43 0 0 1 -2.32-4 26.42 26.42 0 0 1 -1.38-4.86 64.57 64.57 0 0 1 -.84-10.3 3 3 0 0 1 2.66-2.28 3.8 3.8 0 0 1 3.25 2.17 9.73 9.73 0 0 1 .73 5.07 20.9 20.9 0 0 0 .4 6.11c4.41 17.93 4-19.38 11.13-15.2 1.92 1.12 2.43 3.57 2.26 5.68-.11 1.42-.47 2.81-.72 4.22a41.78 41.78 0 0 0 -.54 4.32 25.2 25.2 0 0 0 .73 8.78c.56 1.91 4.14 7.77 6 2.13a63 63 0 0 0 2.33-10.19c.08-.99 1.68-.68 1.53.39z"/><path d="m205 334.45a.82.82 0 0 0 -1.14-.2 26.09 26.09 0 0 0 -3.73 2.54 8.46 8.46 0 0 0 -1.26-3.05c-1.45-1.94-3.79-2-5.75-.88-2.27 1.3-3.52 3.8-4.24 6.29-.1.34-.19.69-.27 1-.08-1.82-.08-3.64 0-5.46a67.38 67.38 0 0 0 8-11.51 65.86 65.86 0 0 0 3.51-7.46c.53-1.31 1-2.63 1.44-4 3.73-11.43-11.13-10.94-16.63 5.86a32.6 32.6 0 0 0 -1.42 6.48c-.27 2.38-.29 4.78-.33 7.16 0 2.17 0 4.36.06 6.54q-3.16 2.69-6.31 5.39l-2.31 2c-.07-.49-.15-1-.25-1.47a28.58 28.58 0 0 0 -1.37-4.68 8.32 8.32 0 0 0 -2.2-3.62c-3.61-2.9-8.79 2.29-10.12 10.42-.34-3.19-.67-6.39-.91-9.6 0-.37-.05-.75-.07-1.13a46.14 46.14 0 0 0 4.67-6 47.61 47.61 0 0 0 4.34-8.24c.58-1.45 1.1-2.94 1.54-4.44 3.81-12.95-6.11-15.14-12.75-4.72a30 30 0 0 0 -4.19 13 80.06 80.06 0 0 0 .05 14l-1.05.8c-.57.42-1.15.83-1.74 1.22-.88.58.06 2 .94 1.38.68-.45 1.34-.93 2-1.42a57.08 57.08 0 0 0 3 15.56c.75 2 1.92 4.54 4.14 5.1a1.79 1.79 0 0 0 2.23-1.23 4.11 4.11 0 0 0 -.35-2.58c-3.44-21.59 6.31-20.92 7.78-8.9 0 .22.05.44.07.67-.23.28-.46.56-.68.86-7.84 10.42 2.41 23.18 4.94 3.23a30.4 30.4 0 0 0 .16-6.18c1-.86 2-1.68 2.93-2.52l5.6-4.78a35.47 35.47 0 0 0 .93 5.7c.46 1.81 1.08 4.84 3.25 5.16a1.79 1.79 0 0 0 2-1c.7-1.62-.89-1.31.63-8.76 1.95-9.48 4.89-3.49 5.21-2.25a15.68 15.68 0 0 1 .44 2.57 26.8 26.8 0 0 0 -1.91 2.78c-5.86 9.71 1.16 13.64 4.52 7.26a20.81 20.81 0 0 0 1.4-3.42 21.24 21.24 0 0 0 .92-7.31c0-.65-.1-1.29-.2-1.93a25.57 25.57 0 0 1 4.31-3 .87.87 0 0 0 .17-1.23zm-16.07-5.12c.24-2.94.47-5.9.87-8.83a27.82 27.82 0 0 1 2-7.78c3.38-7.38 10.78-9.62 8.27-1.84q-.59 1.78-1.26 3.54a66.17 66.17 0 0 1 -10.06 17.58c.05-.91.12-1.79.19-2.67zm-28.27-12.46c3.68-15.68 12.27-11.92 7 2.17a46.48 46.48 0 0 1 -3.8 7.8 45.75 45.75 0 0 1 -4.28 5.88 58.1 58.1 0 0 1 1.09-15.85zm9.45 37.54a21.11 21.11 0 0 1 -.75 2.94c-1.73 5.11-1.35-1.77 1-5.38a19.83 19.83 0 0 1 -.24 2.44zm23.7-6.73a24.47 24.47 0 0 1 1.42-2.74c.19-.33.39-.64.6-1-.28 8.66-4.62 9.6-2.01 3.74z"/><path d="m244.94 333.67a49.09 49.09 0 0 1 -4.67 8.95c-5.06 7.16-11.41 4.61-12.36-1.24a11 11 0 0 1 -.15-1.61c.07-.24.13-.48.2-.72a4.93 4.93 0 0 0 3.61-2.45c3.53-5.28-1.36-7.74-4.44-6.37a7.65 7.65 0 0 0 -4 5.08c-.94 3.23-1 7.35.78 10.34a59.88 59.88 0 0 1 -3.66 7.24c-5 8.31-7.38 2.12-8-2.34-.38-2.78-.5-5.61-.64-8.41s-.25-5.83-.29-8.74q-.11-8.64.46-17.26c1.29-19.23 2.91-19.53 2.06-21.15a1.55 1.55 0 0 0 -1.9-.77 4.08 4.08 0 0 0 -2 2.1 32.33 32.33 0 0 0 -2.91 10.57c-.38 2.75-.69 5.51-1 8.27-.6 5.49-1.18 11-1.37 16.53a61 61 0 0 0 1.35 16.24c2.7 11.26 10.68 13 14.38 7.72a48 48 0 0 0 4.4-8l.21-.47a7.48 7.48 0 0 0 1.25 1c3.46 2.27 10.61.22 13.12-2.11a20 20 0 0 0 3.78-5.13c1.18-2.13 2.23-4.33 3.2-6.57.49-.97-.98-1.69-1.41-.7zm-14.15 1c-.54 1.09-1.6 2.66-2.91 2.65.05-.39.11-.78.17-1.18 1.1-6.48 4.09-4.14 2.74-1.45z"/><path d="m118.1 352.14c-1.42-3.69-4.11-7.13-7.81-8.49a10.93 10.93 0 0 0 .55-5.44 10.72 10.72 0 0 0 -6.83-8.36c-3.86-1.32-7.81.33-10.76 3a5 5 0 0 0 -4.26-2c-2.11.26-3.62 2.12-4.88 3.73a32.22 32.22 0 0 0 -6.39 23 31.21 31.21 0 0 0 1.22 5.82c.32 1 1.85.46 1.53-.58a30.48 30.48 0 0 1 1.39-21.27 28.56 28.56 0 0 1 2.69-4.76c.75-1.06 2.1-4.43 4.9.56a32.75 32.75 0 0 0 -3.36 6.69 39.8 39.8 0 0 0 -.38 25.91 27.77 27.77 0 0 0 3 6.37 12.59 12.59 0 0 0 4.51 4.46 5.12 5.12 0 0 0 5.65-.29 8.55 8.55 0 0 0 2.64-4.88c1.11-4.82.73-10 0-14.81a136 136 0 0 0 -3-14.84c-.65-2.44-1.4-4.85-2.27-7.21a30.82 30.82 0 0 0 -1.68-3.92 7.18 7.18 0 0 1 1.8-1.3 4.87 4.87 0 0 1 3-.28 7.35 7.35 0 0 1 4.1 2.46 8.83 8.83 0 0 1 2 7.53 10.45 10.45 0 0 0 -1.21.26 7.08 7.08 0 0 0 -4.54 3.53 3 3 0 0 0 .13 3 2.8 2.8 0 0 0 2.35 1.09 7.59 7.59 0 0 0 4.8-2.32 14.36 14.36 0 0 0 1.2-1.26 5.49 5.49 0 0 1 .54.35c2.62 1.9 3.93 5.28 4.44 8.45a20.08 20.08 0 0 1 -.93 9.93 18.28 18.28 0 0 1 -2.3 4.43c-.88 1.21-2.43 2.6-4 1.69-.82-.48-1.37-3-2.65-1.64s-.53 3.9-.48 3.95a5.69 5.69 0 0 0 5.21 2 10.17 10.17 0 0 0 5.52-3.07 19.71 19.71 0 0 0 5.38-10 20.36 20.36 0 0 0 -.82-11.49zm-27.1 24.38a27.56 27.56 0 0 1 -4.82-11.42 39.21 39.21 0 0 1 -.57-11.64 35.21 35.21 0 0 1 3-11.12 29.12 29.12 0 0 1 1.67-3.34c.26.66.48 1.33.69 1.93a70.75 70.75 0 0 1 2.45 9.55 174.06 174.06 0 0 1 2.16 19.52c.27 3.83.02 12.6-4.58 6.52zm10.59-27.23c-1.56-.44.13-2.28 2.43-2.65a10.59 10.59 0 0 1 -2.47 2.65z"/><path d="m152 350.12a64.7 64.7 0 0 1 -3.14 12.58 8.4 8.4 0 0 1 -2.42 4 4.66 4.66 0 0 1 -4 .68c-3.27-.9-4.81-4.07-5.5-7.26a71.25 71.25 0 0 1 -1.38-11.57c0-.1 0-.21 0-.31a24.45 24.45 0 0 1 -2.18 7 8.25 8.25 0 0 1 -2.78 3.51 3.11 3.11 0 0 1 -3.82-.67 11.89 11.89 0 0 1 -2.32-4 26.17 26.17 0 0 1 -1.37-4.86 64.57 64.57 0 0 1 -.85-10.3 3 3 0 0 1 2.67-2.27 3.81 3.81 0 0 1 3.25 2.16 9.85 9.85 0 0 1 .73 5.07 20.89 20.89 0 0 0 .39 6.11c4.42 17.94 4-19.38 11.13-15.2 1.92 1.12 2.44 3.57 2.27 5.68-.11 1.42-.47 2.81-.72 4.22a41.63 41.63 0 0 0 -.54 4.33 25.44 25.44 0 0 0 .72 8.78c.56 1.9 4.14 7.76 6 2.13a62.43 62.43 0 0 0 2.34-10.19.81.81 0 1 1 1.52.38z"/><path d="m203.93 333.32a.81.81 0 0 0 -1.13-.2 26.46 26.46 0 0 0 -3.74 2.54 8.12 8.12 0 0 0 -1.26-3.05c-1.44-1.93-3.79-2-5.74-.88-2.27 1.3-3.52 3.8-4.25 6.29-.1.34-.19.69-.27 1-.08-1.81-.07-3.64 0-5.46a66.44 66.44 0 0 0 8-11.51 65.12 65.12 0 0 0 3.52-7.46c.52-1.31 1-2.63 1.44-4 3.72-11.43-11.13-11-16.64 5.85a32.54 32.54 0 0 0 -1.42 6.49c-.26 2.37-.29 4.77-.32 7.16 0 2.17-.06 4.35.05 6.53l-6.31 5.39-2.3 2c-.07-.49-.16-1-.26-1.47a29.15 29.15 0 0 0 -1.34-4.71 8.47 8.47 0 0 0 -2.21-3.63c-3.6-2.89-8.79 2.29-10.11 10.42-.35-3.19-.67-6.39-.91-9.6 0-.37-.05-.75-.08-1.12a47 47 0 0 0 4.68-6 47.56 47.56 0 0 0 4.33-8.24c.59-1.45 1.1-2.94 1.55-4.44 3.81-12.95-6.12-15.14-12.75-4.71a29.67 29.67 0 0 0 -4.19 13 81 81 0 0 0 0 14l-1 .81c-.57.41-1.15.82-1.73 1.21-.89.59.05 2 .94 1.38.67-.45 1.34-.92 2-1.41a57.1 57.1 0 0 0 3 15.55c.74 2 1.92 4.54 4.14 5.1a1.79 1.79 0 0 0 2.23-1.22 4.12 4.12 0 0 0 -.36-2.59c-3.43-21.59 6.31-20.92 7.79-8.9 0 .22.05.45.07.67-.24.28-.47.57-.69.86-7.83 10.42 2.42 23.18 5 3.23a30.4 30.4 0 0 0 .15-6.18c1-.86 2-1.68 2.94-2.51l5.59-4.79a36.93 36.93 0 0 0 .93 5.71c.46 1.8 1.09 4.83 3.26 5.15a1.78 1.78 0 0 0 2-1c.71-1.63-.89-1.32.64-8.77 1.94-9.48 4.88-3.49 5.21-2.25a17 17 0 0 1 .43 2.57 26.8 26.8 0 0 0 -1.91 2.78c-5.85 9.71 1.16 13.64 4.52 7.26a19.2 19.2 0 0 0 1.4-3.42 21.24 21.24 0 0 0 .92-7.31c0-.65-.1-1.29-.19-1.93a26.33 26.33 0 0 1 4.31-3 .87.87 0 0 0 .07-1.19zm-16.07-5.12c.25-2.94.48-5.9.88-8.83a27.48 27.48 0 0 1 2-7.78c3.37-7.38 10.77-9.62 8.26-1.84-.38 1.19-.8 2.38-1.25 3.55a67.72 67.72 0 0 1 -3.18 7 65.39 65.39 0 0 1 -6.93 10.56c.09-.86.15-1.78.22-2.66zm-28.26-12.46c3.68-15.68 12.26-11.91 7 2.17a47.31 47.31 0 0 1 -3.81 7.8 44.74 44.74 0 0 1 -4.27 5.88 57.32 57.32 0 0 1 1.08-15.85zm9.45 37.55a22.93 22.93 0 0 1 -.76 2.93c-1.72 5.11-1.34-1.77 1.05-5.38a22.42 22.42 0 0 1 -.29 2.45zm23.69-6.74a27.3 27.3 0 0 1 1.42-2.74c.19-.32.39-.64.6-.95-.28 8.61-4.63 9.55-2.02 3.69z"/><path d="m243.86 332.54a49.46 49.46 0 0 1 -4.66 9c-5.07 7.15-11.41 4.6-12.37-1.25a12.52 12.52 0 0 1 -.15-1.61l.21-.72a4.93 4.93 0 0 0 3.6-2.45c3.53-5.28-1.36-7.74-4.44-6.37a7.65 7.65 0 0 0 -4 5.08c-.93 3.23-.95 7.35.78 10.34a58.46 58.46 0 0 1 -3.66 7.24c-5 8.31-7.37 2.12-8-2.34-.37-2.78-.49-5.61-.64-8.41s-.25-5.83-.28-8.74q-.12-8.64.46-17.26c1.28-19.22 2.9-19.52 2.05-21.15a1.53 1.53 0 0 0 -1.89-.76 4 4 0 0 0 -2 2.09 32.06 32.06 0 0 0 -2.9 10.58c-.38 2.74-.69 5.5-1 8.26-.6 5.49-1.17 11-1.36 16.53a60.19 60.19 0 0 0 1.39 16.2c2.7 11.26 10.67 13 14.38 7.72a49.79 49.79 0 0 0 4.4-8l.22-.52a7.1 7.1 0 0 0 1.25 1.05c3.45 2.28 10.61.22 13.12-2.1a20.12 20.12 0 0 0 3.77-5.13c1.18-2.14 2.24-4.34 3.2-6.58.42-.97-1.05-1.69-1.48-.7zm-14.14 1c-.54 1.09-1.6 2.66-2.91 2.66 0-.4.1-.79.17-1.19 1.09-6.48 4.08-4.18 2.74-1.45z"/><path d="m106.06 332.1a7.47 7.47 0 0 0 -7.16-1.93c-.36.09-.16.66.21.57a6.87 6.87 0 0 1 6.57 1.82c.32.27.65-.19.38-.46z"/><path d="m109.06 336.33a7.57 7.57 0 0 0 -1.09-2.16.3.3 0 0 0 -.48.35 6.92 6.92 0 0 1 1 2c.13.4.69.19.57-.19z"/><path d="m112.33 346.52c-.3-.24-.68.22-.38.46a14.49 14.49 0 0 1 5.25 12c0 .39.55.5.58.11a15.11 15.11 0 0 0 -5.45-12.57z"/><path d="m117.34 362.1a24 24 0 0 1 -1 4.09c-.12.37.41.63.53.26a24.44 24.44 0 0 0 1-4.24.3.3 0 1 0 -.53-.11z"/><path d="m95.83 340.11c-1-3.51-2.54-7-5.68-8.95-.32-.2-.57.35-.25.55 3 1.84 4.45 5.28 5.38 8.61.11.37.66.16.55-.21z"/><path d="m98.07 350.06c-.12-.37-.67-.16-.55.21a48.64 48.64 0 0 1 1 27.26c-.1.38.48.48.58.11a49.31 49.31 0 0 0 -1.03-27.58z"/><path d="m123.71 340.15a38.81 38.81 0 0 0 .61 7.69c.07.38.66.34.59 0a38.82 38.82 0 0 1 -.62-7.69c.01-.44-.58-.39-.58 0z"/><path d="m127.89 355.16a6.38 6.38 0 0 1 -1.78-2.8c-.12-.37-.67-.16-.55.21a6.94 6.94 0 0 0 2 3.05c.23.26.61-.2.33-.46z"/><path d="m140.64 337.28a1.59 1.59 0 0 0 -2.48-.73c-.28.25.05.76.34.5 1.38-1.26 1.92 1.43 2 2.34a11.11 11.11 0 0 1 -.28 3.15c-.09.38.49.49.58.11.34-1.65.6-3.82-.16-5.37z"/><path d="m140.22 346.24a17.52 17.52 0 0 0 .11 8c.09.38.65.17.55-.21a16.65 16.65 0 0 1 -.08-7.69.3.3 0 0 0 -.58-.1z"/><path d="m161.32 305.79a26.27 26.27 0 0 0 -7.14 17.12c0 .4.58.34.59-.05a25.6 25.6 0 0 1 7-16.67c.23-.28-.18-.67-.45-.4z"/><path d="m154.24 326a43.33 43.33 0 0 0 -.69 8.28c0 .39.59.34.58-.05a43.29 43.29 0 0 1 .68-8.12.29.29 0 1 0 -.57-.11z"/><path d="m168.11 334.79c-.33-.19-.58.36-.25.55 2.79 1.61 3.24 5.1 3.55 8.08a.3.3 0 0 0 .59-.05c-.34-3.23-.89-6.86-3.89-8.58z"/><path d="m172.76 347.91a.29.29 0 1 0 -.58 0 16.55 16.55 0 0 1 -.59 6.75c-.11.37.47.48.58.11a16.81 16.81 0 0 0 .59-6.86z"/><path d="m193.71 304.2a27 27 0 0 0 -9.3 16.24.29.29 0 0 0 .57.11 26.39 26.39 0 0 1 9.02-15.85c.34-.24 0-.7-.29-.5z"/><path d="m183.91 327.28a51.29 51.29 0 0 0 .16 7.54.29.29 0 1 0 .58-.05 50.53 50.53 0 0 1 -.16-7.38c.02-.39-.56-.51-.58-.11z"/><path d="m196.36 333.47c-.25-.29-.73.06-.49.35a11.48 11.48 0 0 1 2.45 9.3.3.3 0 1 0 .58.11 12.14 12.14 0 0 0 -2.54-9.76z"/><path d="m197.07 346.11a10.6 10.6 0 0 1 -1 3.11.3.3 0 0 0 .53.26 11.23 11.23 0 0 0 1-3.26.3.3 0 1 0 -.53-.11z"/><path d="m208.9 298.6a66.87 66.87 0 0 0 -2.9 19.48c0 .39.58.33.58-.06a66.41 66.41 0 0 1 2.87-19.31c.14-.37-.45-.48-.55-.11z"/><path d="m206.09 324a32.18 32.18 0 0 0 -.2 4.17c0 .39.6.34.59-.05a31.58 31.58 0 0 1 .19-4c.04-.43-.54-.54-.58-.12z"/><path d="m208.33 350.11c-.32-1-.65-2-1-3-.12-.37-.67-.16-.55.21l1 3c.12.38.67.17.55-.21z"/><path d="m227.71 329.42c-1.32.36-2.09 1.58-2.74 2.74a18.73 18.73 0 0 0 -1.86 4.7c-.1.38.48.49.58.11a17.83 17.83 0 0 1 1.48-3.94c.62-1.21 1.38-2.67 2.74-3 .37-.14.16-.71-.2-.61z"/><path d="m225.05 344.43a6.2 6.2 0 0 1 -1.52-2.7c-.11-.37-.66-.16-.56.21a6.88 6.88 0 0 0 1.7 2.95c.27.28.65-.19.38-.46z"/><path d="m95.15 333.86a2.91 2.91 0 0 0 -.33-.63 5.83 5.83 0 0 1 -.41-1 .18.18 0 0 0 -.29-.09l-.53.39a.31.31 0 0 0 -.26.24.23.23 0 0 0 .06.21 5.26 5.26 0 0 1 .9 1.62.29.29 0 0 0 .55 0 .58.58 0 0 0 .31-.74z"/><path d="m108.6 347.33a1.92 1.92 0 0 1 -1.74.54l-3.39-.15a.2.2 0 0 1 -.17-.33l.39-.43a.33.33 0 0 1 .25-.38 8 8 0 0 1 4.19.36.23.23 0 0 1 .15.14c.19-.21.49.06.32.25z"/><path d="m110.35 343.44a19.35 19.35 0 0 0 -5-.76c-.25 0-.21.39 0 .4a19 19 0 0 1 4.85.76c.32.07.39-.33.15-.4z"/><path d="m89.53 337.34c-.16-.2-.48 0-.32.24a2.87 2.87 0 0 1 .6 1.27c0 .26.44.23.39 0a3.23 3.23 0 0 0 -.67-1.51z"/><path d="m152.45 337.7c0-.26-.37-.34-.39-.08v.05c-.64.29-.29 1.38-.21 1.91a.2.2 0 0 0 .21.18.42.42 0 0 0 .28-.1.15.15 0 0 0 .06-.09.16.16 0 0 0 .16-.2 7.22 7.22 0 0 1 -.11-1.67z"/><path d="m158.37 331.62v1.93a.2.2 0 1 0 .39 0v-1.94c0-.29-.39-.25-.39.01z"/><path d="m169.08 348.3v.09a.84.84 0 0 0 -.3.78c0 .69.15 1.36.13 2.06 0 .26.38.22.39 0v-.11a.17.17 0 0 0 .12-.15 18.18 18.18 0 0 0 .05-2.66.2.2 0 0 0 -.39-.01z"/><path d="m173.45 344.15.14 1.72a.2.2 0 0 0 .39 0l-.14-1.72a.2.2 0 0 0 -.39 0z"/><path d="m182 337.06s0 0 0 0a.21.21 0 0 0 -.31-.21.18.18 0 0 0 -.11.2.53.53 0 0 1 -.1.12.22.22 0 0 0 -.12.11.8.8 0 0 0 -.18.19 1.17 1.17 0 0 0 -.12.64 2 2 0 0 0 .27.76.64.64 0 0 0 .48.41c.17.05.25-.12.21-.26a.18.18 0 0 0 .23-.21c-.07-.6-.16-1.18-.25-1.75z"/><path d="m187.9 331c-.09-.15-.34-.16-.35 0a14.45 14.45 0 0 0 .07 2.37.2.2 0 0 0 .39 0v-2.22a.16.16 0 0 0 -.11-.15z"/><path d="m194.58 340.44a1.18 1.18 0 0 0 -.42.91 17 17 0 0 0 .08 1.88.2.2 0 0 0 .39 0 .21.21 0 0 0 .3-.19c0-.85 0-1.7 0-2.55.01-.19-.25-.2-.35-.05z"/><path d="m199.92 337.06c-.13-.46-.27-.92-.41-1.38-.07-.25-.44-.11-.37.14l.42 1.39c.07.25.44.1.36-.15z"/><path d="m223.89 346.25a4.15 4.15 0 0 1 -.85-1.64c-.07-.25-.44-.11-.37.14a4.41 4.41 0 0 0 .9 1.73c.17.2.49-.03.32-.23z"/><path d="m227.16 336.38c0-.24-.36-.3-.38-.05l-.16 1.64c0 .26.36.34.38.08v-.21c.07.17.35.19.37 0l.15-1.34c.05-.29-.32-.36-.36-.12z"/></g><path d="m245 85.32-31.36-17c-1.7-.92-3.22 1.67-1.52 2.59l31.36 17c1.7.92 3.22-1.67 1.52-2.59z" fill="#231f20"/></svg>