<svg viewBox="0 0 284.05 526.04" xmlns="http://www.w3.org/2000/svg"><path d="m274.69 209.7c-.5 2.94-1.1 5.85-1.78 8.75s-1.2 5.93-2.51 8.54c-1.23 2.46-3.36 3.71-5.89 4.71s-5.25 1.91-7.93 2.71a108.91 108.91 0 0 1 -16.89 3.5c-20.89 2.71-42.35.91-63.28-.75-22.59-1.79-45.18-4.27-67.57-7.78-21.64-3.39-43.17-7.92-64-14.59q-7.73-2.46-15.28-5.34c-2.68-1-5.35-2.09-8-3.2-2.08-.87-4.5-1.65-6.16-3.23-1.91-1.83-2.21-4.22-2.11-6.7.1-2.7.27-5.39.4-8.09q.44-8.52.85-17a2.35 2.35 0 0 1 1.07-1.93 54.47 54.47 0 0 1 3.15-9 2.79 2.79 0 0 1 1.49-1.51c2.94-12.62 9.06-24.3 16.19-35.11a148.75 148.75 0 0 1 24.15-28.63c18.3-16.54 42.52-27.67 67.87-26.56 14.36.63 28.52 4.78 42.29 8.59 12.8 3.53 25.42 7.74 37.12 14a129.51 129.51 0 0 1 47 43.7 124.11 124.11 0 0 1 19.46 53.85 2.68 2.68 0 0 1 2.11 2.71 131.44 131.44 0 0 1 -1.75 18.36z" fill="#f9e2d4" opacity=".34"/><path d="m136.77 101.13c-.08 2.62-10.45 137.16-10.39 139.85 7.73 7.84 19.89 13 26.34 3.09 0-.8 11.59-138 11.61-138.82a1.35 1.35 0 0 0 -1.43-1.47c0-.12 0-.22 0-.34l7.14-90.33a6.27 6.27 0 0 0 -4.72-6.39c-4-4.65-11.19-7.6-16.63-4-5.74 3.85-5 15.12-5.73 21.64q-2.69 26-4.69 52.09a6.42 6.42 0 0 0 0 .76q-.45 4.74-.8 9.48-.47 7.24-.7 14.44z" fill="#fbb040"/><path d="m170.15 10.82c-5.69-8.35-16.84-15.69-24.61-4.9a3 3 0 0 0 -.14 3.08 2.28 2.28 0 0 0 .87 2.83 28.74 28.74 0 0 0 22.73 2.59c1.23-.35 1.9-2.51 1.15-3.6z" fill="#f7941d"/><path d="m144.66 12.14c0-1.23-1.57-1.06-1.61.17q-.83 25.92-3.71 51.77c-.14 1.22 1.43 1.57 1.56.35q2.91-26.1 3.76-52.29z" fill="#231f20"/><path d="m170.61 16.49c0-1.22-1.56-1-1.61.17q-1 22.55-2.6 45.08c-.09 1.22 1.51 1 1.6-.17q1.65-22.57 2.61-45.08z" fill="#231f20"/><path d="m167.56 28.89c.07-1.22-1.54-1.05-1.61.17l-.78 13.49c-.07 1.23 1.54 1.05 1.61-.17z" fill="#231f20"/><path d="m164 108.05q1.13-19.81 2.26-39.61c.07-1.23-1.54-1-1.61.17l-2.37 41.56a18.25 18.25 0 0 0 1.72-2.12z" fill="#231f20"/><path d="m151.73 103.46c-4.27.45-8.44 1.05-12.63-.21l2.37-31.1c.1-1.22-1.51-1.05-1.6.17l-2.73 35.87c-.1 1.22 1.51 1 1.6-.17l.22-2.83c4.35 1.18 8.69.62 13.15.15 1.22-.13.89-2.01-.38-1.88z" fill="#231f20"/><path d="m149.06 18.29c.07-1.23-1.54-1.05-1.61.17q-2.34 42.24-4.69 84.54c-.07 1.22 1.54 1 1.61-.17q2.34-42.29 4.69-84.54z" fill="#231f20"/><path d="m171.06 7.88c-2.15-4.88-8.06-7.49-12.46-7.83-5.42-.43-10.54 2.17-14.6 6.61-.78.86.39 2.1 1.17 1.25 3.09-3.4 6.89-5.63 11-6 3.55-.29 9.23 1 11.51 4.49 5.22 8.14-6.62 6.62-9.57 6.22a32.67 32.67 0 0 1 -12.01-4.29c-.91-.53-1.68 1.18-.77 1.72a33.07 33.07 0 0 0 19.92 4.64c3.52-.34 8.16-1.51 5.81-6.81z" fill="#231f20"/><path d="m268.18 223.69-.37.37c.62 4.74-1.73 12.27-2.14 15.13-2.27 15.69-4.92 31.26-7.9 46.84-3 15.88-6.15 31.76-8.33 47.79-2.13 15.77-2.85 31.64-5.61 47.33-2.38 13.58-5.18 27.1-7.89 40.61-2.39 12-5.21 23.88-9.66 35.25-7.75 19.76-20.62 36.64-38.78 47.61-34.08 20.59-80.58 19.9-115 .58-19.09-10.75-32.59-28.2-39.5-49.12-8.25-24.9-10.64-52.42-12.76-78.45-2.24-27.66-4.06-55.26-3.15-83 .26-7.79-.7-15.32-1.48-23-.6-6-.43-12-.43-18 0-13-.46-25.94 1-38.83a1.4 1.4 0 0 1 -.65-1 18.9 18.9 0 0 1 -.11-5.72 1.61 1.61 0 0 1 2.1-1.39c9.57 3.45 19.75 4.59 29.64 6.76 10.64 2.34 21.3 4.49 31.88 7.06a399.51 399.51 0 0 0 65.77 10.21 579 579 0 0 0 64.94.62c10-.41 20-.34 30-1.07a57.7 57.7 0 0 0 13.19-2.1 37.51 37.51 0 0 0 7.3-3.53c.92-.53 2.31-1.09 3.56-1.72-1.22-1.13.44-3.35 2.08-2.41a3.34 3.34 0 0 1 .73.57l.24-.07c1.66-.62 2.28 1.66 1.33 2.68z" fill="#fff8e9"/><path d="m165.45 370a11.72 11.72 0 0 0 1.89-5.51 2.68 2.68 0 0 0 -3.82-2.57c-16.1 7.22-34.05 9.58-50.36 2a2.47 2.47 0 0 0 -1.12-1.41 42.87 42.87 0 0 0 -10.66-4.45 3 3 0 0 0 -1-.12c-.63-.28-1.26-.55-1.93-.78a2.68 2.68 0 0 0 -3.38 1.62c-2 6.61-.71 13.31-.9 20.09-.2 7.62.18 15.14.52 22.75.14 3.1 4.47 3.79 5.2 1a2.55 2.55 0 0 0 .54-.69c2.63-5 8.47-18.89 8.5-29.08h.4a2.6 2.6 0 0 0 1.21-.25q1.59.57 3.24 1.08c.18.23.38.46.55.7a2.7 2.7 0 0 0 2.89.79c.24 1.59.35 3.2.51 4.82.19 2 3 2.79 4.34 1.48a16.83 16.83 0 0 0 2.57-3.26 3 3 0 0 0 2 .4 21.91 21.91 0 0 1 1 2.78c.54 2 3.4 3 4.7 1.1.24.82.5 1.64.81 2.43a2.67 2.67 0 0 0 4.12.84 10.58 10.58 0 0 0 1.74-2.35c-.09 1.18-.19 2.34-.18 3.42a16.11 16.11 0 0 0 2 8c1 1.79 4.28 2.1 4.88-.28 1.09-4.29 2.23-8.55 3-12.87a2.53 2.53 0 0 0 1.57-1 25.06 25.06 0 0 0 3.18-6.78 9.72 9.72 0 0 0 4.87.58 2.45 2.45 0 0 0 0 1.34c1 3.49 1.13 7.1 2.35 10.54.81 2.29 4.13 1.64 4.89-.29 2.2-5.42.09-10.46-.12-16.07zm-64.08.37-.24-3.32c.08 0 .14.1.22.14a12.17 12.17 0 0 1 0 3.2z" fill="#a4641d" opacity=".31"/><path d="m152.2 369.25a5.25 5.25 0 0 0 -4.47 1.77c-.08.1-.15.21-.22.31a5.32 5.32 0 0 0 -3.67-1.48 20.93 20.93 0 0 0 -7 .27c-.85.25-1.86 1.23-2.66 1.38a2.57 2.57 0 0 0 -.75-.51c-1.75-.91-3.46-1.34-4.83-.65-1.12-2.46-3.28-4.28-6.37-3.8a8.18 8.18 0 0 0 -2.09.76c-.65.3-.83.51-.83.64-1.55-.64-1.89-2-3.94-1.95a15.66 15.66 0 0 0 -2 .57c0-.33-.81-1.25-1-1.43a3.86 3.86 0 0 0 -4-.32c-2.08.82-.64 1.59-2.52-.49a11.13 11.13 0 0 0 -3.49-2.73 4.62 4.62 0 0 0 -2.37-.37 2.73 2.73 0 0 0 -4.57 1.66c-.89 9.21-2.09 18.32-2.68 27.59-.28 4.46-.47 9.83 3.26 12.94a2.66 2.66 0 0 0 3.24-.18c2.43-2.21 2-5.27 2.07-8.29.12-4.71-.09-9.63.21-14.31.19-2.9 0-5.58 0-8.5 0-1.21.07-2.42.15-3.64 0-.14 0-.29 0-.43 1.46 1.37 3.45 2.83 4.84 3.11a3.56 3.56 0 0 0 3-.59 2.18 2.18 0 0 0 .53-.46 2.18 2.18 0 0 0 .4.6c.9 1.05 1.88 1 3.07 1.16a5.93 5.93 0 0 1 3.4 1.16 4.46 4.46 0 0 0 3.24.59c1.71-.36 2.69-2.55 4-.2.73 1.3.12 5.84.3 7.6a56.35 56.35 0 0 1 .12 9.72c-.23 2.91 4.32 4 5.15 1.08a57.25 57.25 0 0 0 1.77-13.49c0-.61 0-1.23 0-1.84a2.41 2.41 0 0 0 .6.3c2.37 1.15 3.22-.21 5.19-1 .09 0 5.75-1.31 6.4-.65.49.49.37 2.85.44 3.61.21 2.08 2.93 2.65 4.34 1.49.8-.66 3.08-5.71 3.34-5.71 3.42.02 3.82-5.28.4-5.29z" fill="#febe5e"/><path d="m113.54 366.38-.76-1.25c-.69-1.12-2.25-2-3.55-1.21s-3.64-1.55-5.14-1.72c-1.33-.16-2.72 1.18-3.7 1.09-1.27-.13-2.76-1.93-4.23-2.18a4.58 4.58 0 0 0 -3.39.56 4.2 4.2 0 0 0 -1.45 1.88 3 3 0 0 0 -.85 1.14c-1.71 4.46-1.09 8.59-1.14 13.21 0 4.14-.83 8.83.69 12.78.83 2.13 4.24 1.8 4.89-.29 1.31-4.26.42-8.17.41-12.53 0-2.52.28-5.07.49-7.58l.12-1.37.1-.07 1.58-.31a2.33 2.33 0 0 0 1.47-.22 3.14 3.14 0 0 0 1.34.36c1.53 0 2.28-.78 4-.46 2.36.45 3.37 1.69 5.17 1.35 2.04 1.44 5.52-.62 3.95-3.18z" fill="#fccd83"/><path d="m150.28 402.53c-1.57-1.95-3.77-3.77-6.45-3-1 .26-1.63 1.18-2.66.93-.85-.2-1.55-1.58-2.61-1.84a6.83 6.83 0 0 0 -3.53.54 9.82 9.82 0 0 1 -2.25.88c-1.18.1-.62-.21-1.53-.31h-.09a7.73 7.73 0 0 0 -1.37-.49c-3.84-.94-6.53 1-6.8 5a2.68 2.68 0 0 0 3.82 2.57c.78-.34 1.56-1.24 2.29-1.5-.29-.9 0-1 .74-.16l.61.31a6 6 0 0 0 .8.08 13 13 0 0 0 2.65 1.14c1.57.42 3.1.16 4.68.37s2.83.88 4.46 1a2.6 2.6 0 0 0 2.73-2.41 2 2 0 0 1 .5.44c2.14 2.6 6.15-.89 4.01-3.55z" fill="#fccd83"/><path d="m111.26 350.06c-.12.63-.24 1.26-.34 1.88-1.12 6.82-1.38 13.81-1.93 20.7q-.7 8.92-1.42 17.86a59.4 59.4 0 0 1 -.69-16.9c.59-7.88 1.43-16.12 4.38-23.54zm14.49-18.65c3.08-2.53 6.36-4.87 9.67-7.15a60.26 60.26 0 0 0 -1.14 6.24q-1.38 9-2.75 18c-.72-3.66-.41-7.73-1.05-11.21-.48-2.7-1.88-5.59-4.73-5.88zm22.49-15.29-2.49 4.94a20.16 20.16 0 0 1 -1.22-3.1l.67-.48c1.28-.93 2.54-1.87 3.79-2.84-.26.49-.5.99-.75 1.48zm25.81-12.65c-2.84-3.86-7.57-3.43-10.89-.45-1.73 1.56-2.87 3.59-4.42 5.31a6.54 6.54 0 0 1 -2.39 1.82 9.65 9.65 0 0 1 -2.46.39l.1-.09a84.42 84.42 0 0 0 7.65-8.17c2.21-2.61 4.81-5.59 8.35-6.23 4.21-.77 8.27 1.92 12.14 3.31-1.92 1.42-2.21 4.89-2.48 7.13-.53 4.4-1.05 8.79-1.53 13.19q-.48 4.33-.88 8.69a67.84 67.84 0 0 1 -.63-12.67c.17-4.23.07-8.7-2.56-12.23zm4.12 94.78c-.15-.66-.25-1.33-.35-1.94a52.6 52.6 0 0 1 -.6-7.31 92 92 0 0 1 .48-10.09c.86 6.44 1.68 13.01.47 19.34zm22.85-99a6.69 6.69 0 0 0 -6.34 2.84c-1.8 2.68-1.84 6-2.31 9a19 19 0 0 1 -1.29 4.53l-1.38-8.23c-.34-2-.66-5-2-6.88 6.46.58 13-1.55 18.41-5.17a35.08 35.08 0 0 0 6.17-5.36q-4.22 5.18-8.38 10.38a6 6 0 0 0 -2.9-1.09zm16.39-15.54-.67.83a64.26 64.26 0 0 1 4.75-5.78l.82-.82c-1.69 1.9-3.31 3.84-4.9 5.79zm16.74 26.73c-.61-9.47 3.07-19.1 5.85-28.12q-.41 2.88-.89 5.75a224.24 224.24 0 0 1 -4.96 22.39zm7.58-36a10.19 10.19 0 0 0 -.43.95 5.87 5.87 0 0 0 -1-2.82 16.63 16.63 0 0 0 3.18-.85 20.1 20.1 0 0 0 5.85-3.49c-.38 1.05-.75 2.09-1.12 3.14a5.89 5.89 0 0 0 -6.48 3.1zm15.13-11.34a2.58 2.58 0 0 1 -.35.51c-.76-.21-1.33-.82-2.14-1a55.38 55.38 0 0 0 4-6.55c-.29 1.86-.61 3.71-1 5.54a5.77 5.77 0 0 1 -.51 1.53z" fill="#edd07e"/><path d="m265.26 237.35c-1.37 8.3-2.47 16.7-4.12 25-.55 2.78-2.58 6.31-6 5a4 4 0 0 1 -1.1-.57c-.08.25-.26.57-.33.76-.17.47-.34.94-.5 1.41l-2.14 6.05c-.61 1.72-2.72 1.49-3.57.19.08.13-.15-.1-.34-.12a1.91 1.91 0 0 0 -1.86 1c-.93 1.4-1 3.32-1.18 4.93q-.88 6.46-2.11 12.89a236.91 236.91 0 0 1 -6.38 25.36c-.47 1.51-3 1.76-3.58.16-2.21-6.52-2.14-13.32-.84-20a165.52 165.52 0 0 1 4.86-17.5 39.12 39.12 0 0 0 1.32-4.49 3 3 0 0 0 -.6-2.94c-1.84-1.6-4.53-.34-6.16.89-4.94 3.73-8.73 9-12.61 13.8q-6.41 7.86-12.75 15.8c-1 1.17-3.37 1-3.51-.77-.08-1.07-1.35-1.23-2.46-.9-1.81.53-2.3 2.79-2.56 4.42a50.26 50.26 0 0 1 -1.43 7.8 24.19 24.19 0 0 1 -3.66 7 2 2 0 0 1 -3.51-.76l-2.35-14.05c-.18-1-.29-2.13-.56-3.15a13.35 13.35 0 0 0 -.89-1.82 1.78 1.78 0 0 0 -.18.26 9.42 9.42 0 0 0 -.45 2.4c-1.61 13.28-3.2 26.59-3.71 40a80.76 80.76 0 0 1 -.09 13.91c.24 6.93.94 13.8 1.82 20.7 1 8 1.73 16.29-1.11 24a2 2 0 0 1 -3 .91c-3.76-3.24-4-8.89-4.24-13.52a98.52 98.52 0 0 1 .73-16c.6-5.25 1.4-10.53 1.88-15.81-.14-4.71-.1-9.42.08-14.12-.92-8.9-3.69-17.56-3.51-26.58.07-3.77.81-8-.82-11.58-.66-1.45-1.86-3.14-3.67-2.7s-3.07 2-4.1 3.33a25.43 25.43 0 0 1 -3.76 4.39 9.6 9.6 0 0 1 -5.47 2.08 2.37 2.37 0 0 0 -2.09 1.55c-.54 1-1 2-1.5 3l-3.47 6.87c-.59 1.18-2.37 1.89-3.31.58a24.65 24.65 0 0 1 -2.94-5.4 7.6 7.6 0 0 0 -2.17 3.78 58.19 58.19 0 0 0 -1.55 8.71q-1.68 11-3.36 22a2 2 0 0 1 -3.35 1c-4.17-5-3.3-11.54-4.17-17.53-.14-.93-.25-2.93-1.1-3.54s-2.34.57-3 1a16.64 16.64 0 0 0 -4.76 5.58c-2.43 4.54-3.24 9.83-3.77 14.9-.71 6.87-1.13 13.78-1.68 20.66l-1.77 22.18a2 2 0 0 1 -3.7.67 33.78 33.78 0 0 1 -2.46-6c-2.62-8.46-2-17.61-1.1-26.3 1-9.22 2.7-18.51 7.7-26.48 8-12.82 22-20 33.76-28.86a83.42 83.42 0 0 0 8.55-7.26c2.71-2.67 5-5.75 7.6-8.47s6.13-5 10.19-5.07c4.7-.1 8.76 2.63 13.12 4 7.73 2.37 16.15-.75 22.12-5.77 5.81-4.89 9.1-12.12 15.08-16.83a19 19 0 0 1 11.06-4c4.18-.24 8.12-.23 11.84-2.42 6.11-3.6 9.67-10.68 12.48-16.95a1.73 1.73 0 0 1 -.19-1.74l4.72-11.76c.77-1.97 4.11-1.39 3.74.84z" fill="#edd07e"/><path d="m104.9 308.61c.07-4.34.3-9.05-1.68-13-2.29-4.62-7-5.76-11.42-7.4q-3.08-1.12-6.08-2.44a7.15 7.15 0 0 0 -3.46-1.59q-2.58-1.25-5.08-2.62-3.48-1.93-6.79-4.11c-2.18-1.43-4.23-3.09-6.45-4.45a12.27 12.27 0 0 0 -7.28-1.9c-2.49.14-4.87.87-7.34 1.17a12.52 12.52 0 0 1 -8.79-2.48c-2.52-3-5.21-6-7.72-9.15-3.21-5.48-5.58-11.52-9.78-16.32a30.83 30.83 0 0 0 -6.18-8.55c-1.37-1.26-3.72-.46-3.4 1.61.05.34.11.67.16 1a46.52 46.52 0 0 0 .6 14.62 48 48 0 0 0 2 7.07c.76 2.05 1.57 4.49 3.31 5.93a8.08 8.08 0 0 0 1.21.79 5.81 5.81 0 0 0 2.24 3 22.36 22.36 0 0 0 1.2 11.32c.55 1.47 3.21 1.45 3.58-.17.13-.55.25-1.1.38-1.65a9.38 9.38 0 0 0 2.11 2.21 2 2 0 0 0 2.95-.92l1.2-3.93c3.8 12.41 2.52 26 6.62 38.44a35.56 35.56 0 0 0 5.74 10.85 1.91 1.91 0 0 0 1.84.66c3.68-.87 5.88-4.15 6.4-7.75a22.79 22.79 0 0 0 -.31-6.54c-.32-2.18-.6-4.37-.76-6.57a75.6 75.6 0 0 1 2.15-24.06 27.92 27.92 0 0 1 9.32 8.61c1.29 1.89 4-.11 3.26-2l.06-.1a1.29 1.29 0 0 1 .83-.44c.65-.06 1.15.56 1.46 1.07 1.06 1.72 1.06 4.07 1.18 6 .27 4.3.42 8.73 3.33 12.19a2 2 0 0 0 3.49-1.11l1.35-8.9.67-4.32a27.37 27.37 0 0 1 .66-3.83 3.28 3.28 0 0 1 .23-.59l1.46.66a15.61 15.61 0 0 1 2.26 2 21.87 21.87 0 0 1 3.74 5.87c2.19 5 2.78 10.45 3.43 15.78.69 5.66 1.56 11.3 2.66 16.9.61 3.09 1.25 6.19 2 9.24.66 2.53 1.63 4.95 3.81 6.55a2 2 0 0 0 3.06-1.43q.31-17.57.57-35.22z" fill="#edd07e"/><path d="m117.21 425.36a15.12 15.12 0 0 0 -1.86-2.82 10 10 0 0 0 -1.58-1.64l-.09.24c-.14.41-.28.81-.43 1.22-.28.81-.57 1.61-.85 2.42l-1.8 5.1a2 2 0 0 1 -2.94.92c-2.11-1.26-3-3.51-3.71-5.76-.48-1.58-.88-4.18-2.57-5-.93-.45-1.95.28-2.73.75a9 9 0 0 1 -3 1.34 6.23 6.23 0 0 1 -1.93 0l-.87 7.54c-.32 2.78-1 5.79-4.25 6.26-5.5.79-8-6.06-9.52-10.11-1.89-5-3.14-10.19-5.16-15.13-.53-1.27-1.1-2.53-1.74-3.75-.34-.64-1.11-2.51-1.93-2.72-1.28-.3-2.71 3.36-3.11 4.32-1.64 3.92-2.79 8.44-6.52 10.95a2 2 0 0 1 -3.17-1.13l-3.25-12a36.86 36.86 0 0 0 -1.65 11.53c-.16 5.78 0 11.58-1.64 17.2a2 2 0 0 1 -2.5 1.15c-3.54-1.52-4.49-5.82-5.33-9.21a67.71 67.71 0 0 1 -1.65-12.11c-.35-6.08-.28-12.2-.81-18.27a2 2 0 0 1 -3.5-.06c-1.76-3.24-1.88-6.9-2-10.49-.09-2.94-.19-6.29-1.93-8.8-1-1.4-2.48-1.93-3.78-2.94a7 7 0 0 1 -2.53-3.91c-.72-2.88.23-5.87-.35-8.76a2 2 0 0 1 3-1.94c3.51 2.19 7.27 4.76 9.79 8.14a1.79 1.79 0 0 1 1.68 1.11 67 67 0 0 0 23.53 26.25 80.74 80.74 0 0 0 15.06 7.28 56.93 56.93 0 0 1 8.41 3.88c2.52 1.5 4.79 3.52 7.56 4.54s5.81.66 8.7.66a16.81 16.81 0 0 1 8.54 2.06c2.71 1.51 5 3.12 8.2 3.57s6.15.08 9.26 0c2.93-.11 5.37 1.4 5.21 4.59-.17 3.36-.77 6.75-1.25 10.08-.54 3.85-.82 12.59-6.58 12.44-2.89-.07-4.33-2.8-5.31-5.13s-1.71-4.75-2.49-7.15a41.13 41.13 0 0 0 -2.63-6.71z" fill="#edd07e"/><path d="m240.42 390.17c-3.77-2.41-8.12-1.15-11.64 1.09-1.91 1.22-3.71 2.57-5.7 3.64s-3.93 1.92-5.92 2.82c-4.79 2.17-9.86 4.84-13.17 8.88-1.94 1.31-3.88 2.61-5.8 3.95a8.52 8.52 0 0 0 -3.24 3.62 11.39 11.39 0 0 0 -.35 5.35c.4 4 .83 8.06 1.24 12.09.27 2.6-.06 8.26 3.8 8.34a2 2 0 0 0 2.1-1.77q1.33-6.66 2-13.41.33-3.37.49-6.76a15.33 15.33 0 0 1 .7-4.76c.57-1.47 1.66-1.88 3.09-2.27a10.07 10.07 0 0 0 4.55-2.54 4 4 0 0 1 .47-.44c.46.49.48 1.87.56 2.45a68.59 68.59 0 0 1 .66 7 2 2 0 0 0 1.51 2 1.94 1.94 0 0 0 2.25-1.21l3.63-11.38a14.17 14.17 0 0 1 .76-2.22c.26-.52.28-.51.82-.48a12.05 12.05 0 0 0 2.48.23 4.28 4.28 0 0 0 2-.82c2.18-1.62 2.38-4.62 4-6.66a8.82 8.82 0 0 1 7.43-3.28c1.86.19 2.96-2.39 1.28-3.46zm-40.16 46a.06.06 0 0 0 0 0c.44.02-.07.28 0-.03z" fill="#edd07e"/><path d="m177.81 442.21c-5.68 5.43-11.85 10.49-18.95 14a46.5 46.5 0 0 1 -11 3.76c-3.85.81-7.76 1.28-11.63 2a39.27 39.27 0 0 0 -12.53 4.24 5.24 5.24 0 0 0 -2.74.33c-.67.27-1.69 1.25-2.33 1.25-.44 0-1.5-1.13-2.08-1.33a3 3 0 0 0 -3.3 1.08 7.89 7.89 0 0 0 -1 3.34c-.52 2.84-1 5.69-1.54 8.54-.38 2.14 3.2 3 3.77.84a11.12 11.12 0 0 1 2.07-4.12.14.14 0 0 1 0 .06 36.33 36.33 0 0 0 -.69 23.39 2 2 0 0 0 3.5.76c5.32-5.87 3.51-14.39 4.18-21.58a17.79 17.79 0 0 1 1.22-5.3c.32-.75.79-1.51 1.16-2.28h.12a5.73 5.73 0 0 0 4.38-.14 24.63 24.63 0 0 0 2.7-1.72 1.88 1.88 0 0 1 2.37-.07c2.09 1.21 4.15 3.24 6.69 1.79a6.83 6.83 0 0 0 2.24-2.85c.07-.11.06-.17 0-.2a3.35 3.35 0 0 1 .8.49c1.58 1.17 2.89 2.84 5 3.16a3.88 3.88 0 0 0 3.41-1.18 5.8 5.8 0 0 0 1.18-1.93 7 7 0 0 1 .7-1.74c.64-.78 1.85-.43 2.54.15 1.2 1 1.66 2.82 2.07 4.24a2 2 0 0 0 3.73.32l5.29-12c.88 2.48 1.76 5 2.63 7.45a2 2 0 0 0 3 .65 22.13 22.13 0 0 0 6-24.78 2 2 0 0 0 -2.96-.62zm-61.61 28.92a2.93 2.93 0 0 0 0-.29l.18.12z" fill="#edd07e"/><path d="m246.38 368.91a2 2 0 0 1 -2.11 1.77c-4.69-.7-9.61-1.61-12.94-5.31a9.91 9.91 0 0 1 -2.51-5c-.36.25-.75.47-1.06.7l-3.29 2.41a2 2 0 0 1 -2.38.1 9.36 9.36 0 0 1 -2.68-3.51c-.28-.54-.85-2-1.37-2.09s-1.31 1.5-1.61 2.06a8.44 8.44 0 0 1 -2.6 3.28 2 2 0 0 1 -3-.65 48.53 48.53 0 0 1 -2.75-6.06 16.19 16.19 0 0 0 -.85 3.57l-1.78 9.64c-.58 3.12-1.09 6.27-1.79 9.36a16.71 16.71 0 0 1 -3.33 7.31 2 2 0 0 1 -3.08.13c-2-2.08-1.42-6-1.21-8.61a80.17 80.17 0 0 1 1.48-9.5c1.29-6.3 2.93-12.72 2.57-19.2a2 2 0 0 1 3-1.94l.3.16a2.07 2.07 0 0 1 .29-.6 2 2 0 0 1 2.71-.46c3 2.6 7.11 3.1 10.84 4a95 95 0 0 1 12.65 4.16 63.53 63.53 0 0 1 11.32 5.63c2.95 2.04 5.47 4.92 5.18 8.65z" fill="#edd07e"/><path d="m269.63 241.67c-1.34 6.78-2.22 13.67-3.31 20.49q-3.18 20.13-6.29 40.29-6 39-12 77.91c-4 26.12-8.41 52.32-17.93 77.1-6.73 17.5-15.2 34.91-30.08 46.94-19 15.34-44 19.65-67.85 19.34-22.83-.3-45.42-5.07-66-15.17s-31.91-29.25-40.24-50c-9.17-22.8-11.08-47-12.32-71.33-1.52-29.6-1.68-59.24-2.71-88.85-1-29.44-2.49-58.92-.26-88.34-1.05-.78-5.58-13.14-2.08 82 1 28.47 1.15 57 2.46 85.42 1.13 24.77 1.82 50.37 10 74 6.49 18.82 15.82 39 31.91 51.51 8.34 6.48 18.66 10.7 28.56 14.15a151.39 151.39 0 0 0 33.46 7.74c23.23 2.5 48.4 1.26 69.86-8.68 39.79-18.43 52.88-66.61 60.4-106.11 5.87-30.83 9.95-62.06 14.73-93.07q3.66-23.77 7.38-47.53 1.79-11.35 3.62-22.72c1.12-7 3.83-13.62 4.66-20.62-.81.75-1.64 1.48-2.49 2.18-.91 4.55-2.59 8.84-3.48 13.35z"/><path d="m16.48 211.75c0-1.37-2.08-1.53-2.12-.16l-1.29 46c0 1.36 2.08 1.52 2.11.15q.66-22.97 1.3-45.99z"/><path d="m17.1 285.62c0-1.36-2.11-1.52-2.12-.16q-.09 12.77-.17 25.52c0 1.36 2.11 1.52 2.12.16q.07-12.76.17-25.52z"/><path d="m24.19 426.74c-4.37-11.15-3.42-24.13-3.67-35.9q-.37-18.45-.18-36.89c0-1.36-2.1-1.52-2.11-.15q-.21 20.55.27 41.1c.27 10.9-.26 22.46 3.79 32.78.5 1.32 2.4.32 1.9-.94z"/><path d="m59.14 497a81.68 81.68 0 0 1 -27.61-46.89 1.06 1.06 0 0 0 -2.08.42 84 84 0 0 0 28.49 48.22c1.06.92 2.24-.84 1.2-1.75z"/><path d="m81.05 507.89q-4.78-2.49-9.55-5c-1.2-.63-2.41 1.12-1.2 1.75l9.55 5c1.2.63 2.41-1.11 1.2-1.75z"/><path d="m52.51 470.34c-6.39-5-8.22-14.16-10.21-21.62a177.6 177.6 0 0 1 -4.43-22.85c-.18-1.36-2.26-.94-2.08.42a177.31 177.31 0 0 0 6 28.45c2 6.46 4 13 9.5 17.36 1.1.84 2.29-.92 1.22-1.76z"/><path d="m238.87 402.81c-4.11 29.41-13.14 59.3-34.38 81-1 1 .43 2.58 1.39 1.6 21.67-22.13 30.92-52.41 35.12-82.41.18-1.39-1.94-1.54-2.13-.19z"/><path d="m209 483.45a117.19 117.19 0 0 1 -36.4 26.28c-1.24.58-.3 2.48.94 1.91a118.7 118.7 0 0 0 36.85-26.59c.94-.98-.39-2.6-1.39-1.6z"/><path d="m262.84 242.93a673.41 673.41 0 0 0 -10.84 74.38 1.06 1.06 0 0 0 2.12.15 673.41 673.41 0 0 1 10.88-74.38c.23-1.33-1.89-1.47-2.16-.15z"/><path d="m251.14 289.58a1.06 1.06 0 0 0 -2.12-.15q-1.02 23.34-3.88 46.57c-.16 1.35 2 1.5 2.12.15q2.82-23.21 3.88-46.57z"/><path d="m246.13 349.54c0-1.36-2.13-1.52-2.12-.15a284.68 284.68 0 0 1 -2.87 42.37c-.2 1.35 1.92 1.5 2.12.15a284.68 284.68 0 0 0 2.87-42.37z"/><path d="m237.67 363.8c0-1.35-2.17-1.52-2.12-.15a196 196 0 0 1 -1 29.76c-.16 1.36 2 1.51 2.11.15a194.65 194.65 0 0 0 1.01-29.76z"/><path d="m262 251.69a2 2 0 0 0 -.31-.33c.05-.15.08-.33.12-.45.17-.52.37-1 .53-1.53a8 8 0 0 0 .48-2.6c0-1.7-.71-3.8-2.47-4.44s-3.94 1.46-4.87 2.78a14 14 0 0 0 -2 5c-.43 1.87-.68 4-1.72 5.63s-2.51 2.62-3.29 4.36c-.31.68-.5 1.41-.75 2.12-.13.36-.28 1.15-.64 1.39s-1.57 0-2.17.15a5 5 0 0 0 -2.48 1.44c-.26.26-.51.52-.75.79a11.39 11.39 0 0 0 -5.66 3.05c-3.15-.7-6.55-1.1-9.51.39a9 9 0 0 0 -2.52 1.87 4.43 4.43 0 0 0 -1.48 1.08 16.65 16.65 0 0 0 -1.76 2.3 4.28 4.28 0 0 0 -1.23.78 6.75 6.75 0 0 0 -1.76 3.45 1.45 1.45 0 0 0 -1 .2 21.62 21.62 0 0 0 -4.6 3.65 31.48 31.48 0 0 0 -3.48 4.79 5.62 5.62 0 0 1 -3.35 2.64c-1.55.46-3.17.65-4.7 1.2a7.72 7.72 0 0 0 -3.67 2.72c-.29.38-.66 1.25-1.1 1.54l-.23-.25a3.58 3.58 0 0 0 -.81-.57 5.85 5.85 0 0 0 -8.17 3c-.88 2.39 2.58 3.56 3.65 1.35-.09.2.24 0 .52.08.54.14.85.69 1.09 1.15a31.72 31.72 0 0 1 1.72 5 2 2 0 0 0 2.27 1.56 2 2 0 0 0 1.55-2.27c-.53-2.13-.32-5.9 2.48-6.28a1.85 1.85 0 0 0 1.19-3 6.56 6.56 0 0 1 2-.76c3.26-.8 6.2-1.33 8.3-4.21 1.08-1.48 1.87-3.11 3.07-4.51a17.38 17.38 0 0 1 2.54-2.38 74.34 74.34 0 0 0 -.19 16.67c.17 1.79 2.54 2 3.5.77 3.87-4.84 2.85-11.23 3.07-17a20.2 20.2 0 0 1 .59-5.01 2.23 2.23 0 0 0 1.64-2.3 2.64 2.64 0 0 1 0-.4c.54-.38 1.2-.16 1.87-.17a6.41 6.41 0 0 0 2.36-.47 5.53 5.53 0 0 0 2-1.42 9.33 9.33 0 0 0 4-.1 14.61 14.61 0 0 0 5.53-2.43 13 13 0 0 0 2.17-2h2.11c3.49-.09 5.41-2.43 7.15-5.18a91.59 91.59 0 0 0 5.57-10.14 2.73 2.73 0 0 0 2.41.74 2.09 2.09 0 0 0 1.19-3.44z" fill="#422f15"/><path d="m249.2 342.94a2 2 0 0 0 -2.78-1.93c-2.11.86-3.2 2.84-4.11 4.81-.74 1.61-1.29 3.37-3.27 3.59a9.55 9.55 0 0 0 -3.66.72 5.21 5.21 0 0 0 -2.39 3.15c-.29.86-.26 1.86-1.33 1.81-1.44-.07-2.69-.53-4.16-.33a1.68 1.68 0 0 0 -1.37.95h-.07a2.77 2.77 0 0 1 -.85-.35 4.21 4.21 0 0 0 -1.24-1.83 1.62 1.62 0 0 0 -1.24-.35 10.28 10.28 0 0 0 -3.68-2.37c-2.09-.74-4.3-1-6.36-1.86a19.48 19.48 0 0 1 -5.42-3.53 2 2 0 0 0 -2.71.46 2 2 0 0 0 .46 2.72l.77.65-.15.19a2 2 0 0 0 .47 2.71c1.13.64 1.5 2 2.36 2.92a4.69 4.69 0 0 0 3.81 1.61 3.45 3.45 0 0 0 1.77-.77 3.75 3.75 0 0 0 .57-.62l.68 1a4.92 4.92 0 0 0 1.45 1.46 1.89 1.89 0 0 0 2.11 0 19.62 19.62 0 0 1 .14 5.25 2 2 0 0 0 1.69 2c-.17 1.4-.33 2.8-.49 4.21-.26 2.21-.64 4.45-.75 6.68a6.84 6.84 0 0 0 1.49 5.2 2 2 0 0 0 3.42-1.09q1.08-5.32 2.17-10.64c.19-.92.37-1.85.56-2.77 1.44 1.15 3.49.14 4.37-1.39a8 8 0 0 0 .8-6 2.67 2.67 0 0 1 .54-.36 4.87 4.87 0 0 0 .52-.12 8.94 8.94 0 0 0 1.87 0 4.87 4.87 0 0 0 2.78-2.1 16.73 16.73 0 0 1 1.51-2.26 4.17 4.17 0 0 0 .52.16 3.89 3.89 0 0 0 2.43.05 4.2 4.2 0 0 0 2.38-2.47c.16-.35.79-1.75.94-2.25h.41a2.62 2.62 0 0 0 2.15-1.31c.97-1.45.9-3.88.89-5.6z" fill="#422f15"/><path d="m229.31 433.25a10.34 10.34 0 0 0 -1.3-3.15l-.26-.45a1.82 1.82 0 0 0 .25-2.65c-.34-.39-.68-.79-1-1.18a1.93 1.93 0 0 0 -.87-.6 8.73 8.73 0 0 0 -2.81-2.24c-2.28-1.17-4.89-1.5-7.38-2l-9-1.67-8.72-1.63a77.39 77.39 0 0 0 -9-1.38 47.06 47.06 0 0 0 -8.71.65c-2.93.35-5.69-.22-8.57-.61-.44-.06-.88-.1-1.32-.13a21.65 21.65 0 0 0 -3.51-.61 4.45 4.45 0 0 0 -1.52-.45 3.68 3.68 0 0 0 -2.13.34h-.66l-2.31.15-1-.18c-3.23-.66-6.41-1.55-9.73-.88a8.9 8.9 0 0 0 -6.53 4.79c-.7 1.45.87 2.72 2.18 2.58l.9-.08.15.06 6.65 2 1.66.53c-.21.42-.41.85-.58 1.29a5.18 5.18 0 0 0 -.32 3.93 2.54 2.54 0 0 0 3.44 1.4c1.31-.61 1.75-2.21 2.28-3.43l1.12-2.55a7.78 7.78 0 0 0 .42-.93c.41.18 1 .36 1.07.39a4.23 4.23 0 0 0 2.09 0h.13a2.51 2.51 0 0 0 .6 2.06c-.43 3.49-.85 7-1.28 10.46l-1.89 15.47c-.26 2.14 3.15 3 3.76.84l4.53-15.68c1.28-4.45 2-10 5.7-13.23s8.1-3.06 12.58-2.25a4.63 4.63 0 0 0 1.1.2c1.44.27 2.89.54 4.33.83a.92.92 0 0 0 0 .09l-.76 2.11-1.67 4.7c-.62 1.73 1.64 3.58 3.08 2.16a16.91 16.91 0 0 0 4.4-7.32 1.66 1.66 0 0 1 .32 0 1.61 1.61 0 0 1 .47.88 1.79 1.79 0 0 0 .68 1.15 6.59 6.59 0 0 0 -.25 1.28 15.14 15.14 0 0 0 .26 3.36 3.63 3.63 0 0 1 0 1.64 5.77 5.77 0 0 1 -1 1.31 4.86 4.86 0 0 0 -.89 3.33c0 .54.09 1 .11 1.44a9.71 9.71 0 0 0 -.1 1.2 3.4 3.4 0 0 1 -.25.74c-1 2.19-1.81 4.65 0 6.68a2 2 0 0 0 2.74.24c2.16-1.9 1.63-4.43 1.4-7a6.07 6.07 0 0 0 .16-1.57c.42-1.37 1.48-2.41 2.3-3.74a6.44 6.44 0 0 0 1.11-3.28 5.22 5.22 0 0 0 -.29-1.75c-.21-.6-.56-1.06-.28-1.68a2.79 2.79 0 0 1 .65-.9l1.59 4.56c.69 2 3.4 1 3.69-.67.06-.33.12-.66.19-1a3.31 3.31 0 0 0 1.06-.2 3.58 3.58 0 0 0 1.1-.64v2.5c.17 3.38.33 6.76.5 10.14-1.21 3.3-3.41 8.93 1.19 9.78 1.79.33 2.63-2 1.62-3.22l.15-.4c.12-.32.28-.62.41-.94s.18-.45.25-.68a1.64 1.64 0 0 0 .31-.49q1.59-4 2.93-8.07a4 4 0 0 0 .79-.8 3.51 3.51 0 0 0 .46-3.25c.12-.44.25-.88.38-1.32a1.86 1.86 0 0 0 1.05.65 34.25 34.25 0 0 1 -.06 5.36c-.11 1.76 2.56 3.1 3.53 1.29 1.34-2.36 2.62-4.93 2.13-7.68zm-16.85-5.25v-.08c.15.24-.19.45 0 .08zm4 21.24s0 0 0-.07a.46.46 0 0 1 .22.17v.11c.07.12-.3.15-.18-.24z" fill="#422f15"/><path d="m60.53 287.66a69.57 69.57 0 0 0 -2.06-7.94 30.37 30.37 0 0 0 -3.1-7.49c-1.59-2.39-3.95-3-6.65-3.36-2.52-.34-4.52-1.7-6.55-3.15a46.52 46.52 0 0 1 -10-9.81q-.71-1.11-1.35-2.25c-1.78-3.15-3.47-6.35-5.12-9.56q-.42-1.12-.78-2.28a2.29 2.29 0 0 0 -1.11-1.4c-1.09-2.14-2.18-4.28-3.28-6.4-1-1.88-4.22-1-3.67 1.19.18.72.36 1.45.55 2.18a1.53 1.53 0 0 0 -1.14 1.13 16.13 16.13 0 0 0 -.3 6.15c.3 2.06 3 1.92 3.68.38l.36 1c-.87 1.27-.92 3.24-1.05 4.65a34.33 34.33 0 0 0 .83 11.47 2 2 0 0 0 2.74 1.4 3 3 0 0 0 1.84-2.67 2 2 0 0 0 2.93.51l.09-.09v.07l.06.26a2.12 2.12 0 0 0 .37.77 12.33 12.33 0 0 1 .95 4.05 14.51 14.51 0 0 0 0 2.19c-.1 1.82-.26 3.63-.24 5.45a49.2 49.2 0 0 0 .48 6.3c.25 1.74.42 4.13 2.24 5 2.17 1 3.65-.94 3.79-2.91a18.14 18.14 0 0 0 -.41-4.92c.4-1.09.8-2.19 1.21-3.29a7.61 7.61 0 0 1 .78-1.89l.35.29.75.88a2 2 0 0 0 1.41.67 2.12 2.12 0 0 0 2-.8 2.56 2.56 0 0 0 .22-.39l1.83 4.95c.56 1.52 2.47 1.25 3.34.29 1.09-1.2 2.14-2.43 3.26-3.6a3.57 3.57 0 0 1 .27-.28 9 9 0 0 1 .5 1.43l2.45 9.62q2.43 9.51 4.85 19c.52 2 3.75 2.12 3.85-.19a69.76 69.76 0 0 0 -1.17-16.61z" fill="#422f15"/><path d="m182.1 256.24a2 2 0 0 0 -2.74-.23l-.33.21a8.31 8.31 0 0 0 -3.48 1.1 9.2 9.2 0 0 0 -3 3 34.33 34.33 0 0 0 -3.29 2.21 5.45 5.45 0 0 0 -1.6 2c-.21.16-.41.34-.61.51-6.7 3.38-14.22 4.07-21.71 4.59a2 2 0 0 0 -.65 0l-.77.11c-2.87.2-5.73.39-8.53.71a46.2 46.2 0 0 0 -16.57 4.72c-2.72 1.46-5.28 3.19-8.1 4.45-3.09 1.37-6.34 1.52-9.66 1.82a26.68 26.68 0 0 0 -12.61 4.45 33.82 33.82 0 0 0 -4.75 2.53 7.16 7.16 0 0 0 -3.1 3.11 3.12 3.12 0 0 0 1 3.88 1.74 1.74 0 0 0 1.79.19 67.74 67.74 0 0 1 .94 8.27c.1 2.09 2.86 3 3.76.84 1.25-3 1.54-6.32 2.22-9.5.62-2.93 1.78-5.71 4.63-7.06a16.4 16.4 0 0 1 4.7-1.15c2-.29 4-.63 6-.74.62 0 .66-.16.68.5a7.51 7.51 0 0 1 -.39 2.05 45.13 45.13 0 0 0 -1.17 6 43.09 43.09 0 0 0 .58 13.78c.35 1.75 3.23 2.27 3.73.32 1.13-4.33 1-8.71 1.16-13.15.12-3.47.47-7.09 2.11-10.22s4.5-4.73 7.84-5.64c1.71-.47 3.45-.83 5.16-1.34a26.7 26.7 0 0 0 2.77-1l.52-.2a.61.61 0 0 1 0 .12 121.45 121.45 0 0 0 -.23 25c.09 1.17.21 2.33.37 3.48.35 2.49 4.13 1.77 3.83-.71-.12-1-.23-2-.32-3a47.46 47.46 0 0 1 2.41-19.17c.93-2.73 2.1-6.06 4.7-7.65 1.67-1 4.42-.93 5.26 1.09a2 2 0 0 0 3.35.28 3.18 3.18 0 0 1 3.26-1c1.65.46 2.72 1.82 4.61 1.44a4.36 4.36 0 0 0 2.8-2.22c.22-.37.39-.76.6-1.14l2 2.37a2 2 0 0 0 3.08-.13l1.48-2.12a12.24 12.24 0 0 0 1.33 1.75 2 2 0 0 0 3.31-.58 24.2 24.2 0 0 0 1.12-6.87l.19-.1a6.08 6.08 0 0 0 1.59-1.76 1 1 0 0 1 .87-.51 1.15 1.15 0 0 1 1.34 1.27 28.11 28.11 0 0 1 -1.14 5.57l-1.44 6.37c-.43 1.93 2.53 2.8 3.52 1.28 2.14-3.26 2.59-7.08 2.87-10.88.27-3.56.39-7.34 2.68-10.26a1.73 1.73 0 0 0 .36-1.13 2.19 2.19 0 0 0 -.33-1.91zm-95.22 36.76-.12-.55c.14-.15.27-.3.41-.44-.11.31-.17.65-.29.99z" fill="#422f15"/><path d="m108.58 420.5a4.48 4.48 0 0 0 -4.08-1.27 5.29 5.29 0 0 1 -2.17 0 20.1 20.1 0 0 1 -2.45-1.13l-8.32-3.94a4.16 4.16 0 0 0 -2.84-1.37c-1.75-1.13-3.55-2.21-5.33-3.24a46.81 46.81 0 0 0 -9.47-4.33c-3.3-1-6.75-1.45-10-2.69a23.39 23.39 0 0 1 -7.73-4.89c-4.39-4.2-7-11-13.3-12.78a18.9 18.9 0 0 0 -4.82-1.31 8.32 8.32 0 0 0 -3.5-.46c-.72-.09-1.44-.19-2.15-.31a3.1 3.1 0 0 1 -.9-.27c-.27-.34-.51-.73-.76-1a6 6 0 0 0 -1.76-1.51 4.62 4.62 0 0 0 -1.9-.59h-.19a3.16 3.16 0 0 0 -1.67.34l-.13.07a4.38 4.38 0 0 0 -.65.44 2.89 2.89 0 0 0 -.35.35c-1.46 1.63 1.05 3.85 2.71 2.7a5.63 5.63 0 0 0 .79 1 6 6 0 0 0 1.83 1.6c-2.29 3.05-2.11 7.84-3.73 11.32-1 2.13 2.08 3.35 3.42 1.79s1.9-3.69 2.48-5.72c.38-1.3 1-3.32 2.41-3.83a3 3 0 0 1 2.23.42 2.5 2.5 0 0 0 .17 2.8c.93 1.16 2.57 1.14 3.9 1.4a2.48 2.48 0 0 1 2.23 1.62c.57 1.26 1.44 2.43 2.93 2.55a3.71 3.71 0 0 0 1-.1h.16v.08 1.83a5.75 5.75 0 0 0 .21 1.52c0 .2 0 .38-.05.55a43.57 43.57 0 0 0 -.53 6 13.91 13.91 0 0 0 .37 2.72c.08.39.26.92.33 1.43l-.38 1.52a2 2 0 0 0 .93 2.38 1.92 1.92 0 0 0 2.48-.59 4.9 4.9 0 0 0 .76-2.55c.26-1 .52-2.05.77-3.08a14.33 14.33 0 0 0 .77-4.75 6.09 6.09 0 0 0 -.17-.87 9.5 9.5 0 0 0 3.74 1c1 .17 1.33.85 1.88 1.67a5 5 0 0 0 2.37 2.09c.32.13 1.48.11 1.71.35s.08.7.08.9c-.06 1.42-.49 2.65-.21 4.1a2 2 0 0 0 3.5.76 7 7 0 0 0 1.64-5h.15a1.78 1.78 0 0 0 1.45-.46l.2.07c1.11.39 2.7.67 3.54 1.55 1.25 1.3.57 3.9.44 5.48-.21 2.44-.11 4.84 1.44 6.85a2 2 0 0 0 3.4-1.61 9.48 9.48 0 0 1 1.33-7.48 11.62 11.62 0 0 1 4.41 5.38 22.07 22.07 0 0 0 1 3.59c.73 2.2 3.92.87 3.67-1.19a15.12 15.12 0 0 0 -.9-3.62 2.2 2.2 0 0 1 .52-1.61 2.85 2.85 0 0 1 .39-.33l1 .66a39.41 39.41 0 0 1 .11 5.75l.08 6.2.36 25.27a2 2 0 0 0 1.52 2 1.92 1.92 0 0 0 2.24-1.2 97.15 97.15 0 0 0 2.9-21.93c.13-3.55.36-7.17.16-10.72h.12a10.72 10.72 0 0 0 1.27 0c.27 0 .34 0 .34-.08a1.33 1.33 0 0 0 .12.12 5.28 5.28 0 0 1 .78 1.27c.79 1.29 1.91 2.4 3.55 2.22a6 6 0 0 0 2.46-1.08l3.07-1.86a2 2 0 0 0 .62-2.96z" fill="#422f15"/><path d="m170.15 489.86a2 2 0 0 0 -2.27-1.56 6.75 6.75 0 0 0 -1.28.48 1.55 1.55 0 0 0 -.6 0c-2.78.78-4.64 2.7-6.87 4.4-2.4 1.82-5.39 2.29-8.29 2.72-3.37.5-6.75 1-10.12 1.47a21.46 21.46 0 0 1 -4.79.43 10.82 10.82 0 0 1 -4.16-1.74c-3-1.59-6-1.47-9.2-1.05a19.6 19.6 0 0 1 -4.39.27 22.88 22.88 0 0 1 -4.75-1.16 20.84 20.84 0 0 0 -8.88-1.21c-2.83.33-5.85 1.57-8.73 1-1.69-.35-3-1.61-4.38-2.5a12.71 12.71 0 0 0 -4.21-1.73 12.39 12.39 0 0 0 -2.42-.28 7.2 7.2 0 0 0 -4.81-1.4 10.57 10.57 0 0 1 -7-4.44 2 2 0 0 0 -3.31.58c-.61 2.31.38 4.13 1.9 5.83a5.92 5.92 0 0 1 1.41 1.88 2.38 2.38 0 0 1 .13.79h-.11a2 2 0 0 0 -.92 2.59 6.88 6.88 0 0 0 .38.77 11.93 11.93 0 0 0 -.24 2.19 3.45 3.45 0 0 0 2.76 3.81 2.77 2.77 0 0 0 3.24-2.69c0-.74-.24-1.44-.2-2.19a2.7 2.7 0 0 1 0-.28 6.76 6.76 0 0 1 11.75.69 44.75 44.75 0 0 0 -2.05 8.47c-.31 2.2 3 2.85 3.77.84a14.78 14.78 0 0 1 9.74-9 15 15 0 0 1 13.89 3.52 2 2 0 0 0 2.38-.11c3.85-2.56 10.19-3.49 13.07 1.06 1.33 2.1 1.09 4.73.88 7.08-.25 2.72-.56 5.48.12 8.16a2 2 0 0 0 3.86-.19l.94-7.37a27.34 27.34 0 0 1 1-6.11 2.47 2.47 0 0 1 2.54-1.84 2.74 2.74 0 0 1 2.58 1.79c.58 1.56 3.09 1.37 3.58-.16.58-1.82 3.88-2.65 5-.82.8 1.34 3 1.55 3.58-.16.42-1.28 1.07-3.11 2.48-3.63.71-.26 1.79-.07 1.91.78a2 2 0 0 0 3.5.76c.37-.58.73-1.17 1.1-1.76a7.4 7.4 0 0 1 .62 2.55c.13 1.95 3.16 2.05 3.73.32a19.49 19.49 0 0 0 .71-9.64 2 2 0 0 0 1.43-2.21z" fill="#422f15"/><path d="m232.52 413.45a6.09 6.09 0 0 0 -3-.54c-1 0-2.47.45-3.38-.1a2 2 0 0 0 -2.95.91c-.74 1.63-2 4.33-4.12 4.06a16.65 16.65 0 0 0 -2.55-.25 1.74 1.74 0 0 0 -1.51-1l-16-1.17c-5-.37-10.29-1.2-15.32-.5-2.31.33-4.56.89-6.9 1a62.42 62.42 0 0 1 -7.36-.24c-4.71-.32-9.5-.65-14.11.61-2.4.65-1.72 4.49.71 3.82l.94-.23a1.94 1.94 0 0 0 .75.5 28 28 0 0 0 12.13 1.78 13 13 0 0 1 3-.23c.81.14 1.5.65 2.28.86a5.83 5.83 0 0 0 4.31-.53c1.1-.55 2.06-1.34 3.15-1.89s1-.19 2 .64a3.16 3.16 0 0 0 4.61-.26c.17-.18.33-.45.51-.63a.18.18 0 0 1 .08.07 15 15 0 0 1 1.73 1.82c1 1.49 3.24.43 3.42-1.09 0-.14.41-.34.79-.17.71.32.8 1.4.84 2 .1 1.66 2.68 2.12 3.51.77.27-.46.55-.91.82-1.36 1.14 3 .92 6.56.73 9.71a2 2 0 0 0 3.76.84c1.3-3.42 3-7.7 5.88-10.27l.59-.08a1.84 1.84 0 0 0 3.2.2 2.46 2.46 0 0 1 1-1v.27a2 2 0 0 0 2.77 1.93l1.25-.64c.65.73.24 2.35.13 3.15a2 2 0 0 0 2.77 1.92 3.61 3.61 0 0 0 1.95-2.12 9.89 9.89 0 0 0 .28-1 2 2 0 0 0 2.42-1.67c.24-1.48.45-3.46 1.64-4.53.37-.34 1.77-1 2.18-.3a2 2 0 0 0 3.58-.16c.75-2.01-.56-3.98-2.51-4.9zm-26.34 6.81a1.94 1.94 0 0 0 -1.63-.45 2.18 2.18 0 0 0 -.45.16l-.15-.32 2.41.17a1.85 1.85 0 0 0 -.18.44zm18 .57v.13a3.12 3.12 0 0 0 -.48.18z" fill="#634725"/><path d="m169.1 490.3c-2.72-1.37-6.3-3-9.1-.88a6.67 6.67 0 0 0 -1.5 1.8c-.38.58-.47.8-1.19.84a9.67 9.67 0 0 0 -5.31 1.21 6.31 6.31 0 0 0 -1.76.78 25.67 25.67 0 0 1 -4.58 1.31c-.32-.2-.63-.41-.92-.56a5.14 5.14 0 0 0 -5.51.34c-.39.27-.77.6-1.15.91-1.24 0-2.48.07-3.72.07a8.25 8.25 0 0 0 -4.08-1.56c-1.83 0-3.79.85-4.25 2.77a2 2 0 0 0 1.66 2.61c1.91 0 3.82.06 5.74.05a5.57 5.57 0 0 0 5.1.39 8.08 8.08 0 0 0 .9-.52h.77c1.42-.07 2.83-.17 4.24-.33a2.78 2.78 0 0 0 2.38 1.86c1.63.22 2.76-.64 3.76-1.81.58-.68.38-.64 1.12-.18a6.5 6.5 0 0 0 2.07 1 4.58 4.58 0 0 0 1.52.11 3.9 3.9 0 0 0 1.34.7 4.24 4.24 0 0 0 4.51-1.76c1.06-1.33 1.74-2.71 3.14-3.74a9 9 0 0 1 4.5-1.65c2.11-.25 1.84-3 .32-3.76z" fill="#634725"/><path d="m136.83 422.81c-2.62-2.46-5.74-2.08-9.08-1.91a7.15 7.15 0 0 1 -4.13-.69c-1.54-.93-2.83-2.11-4.62-2.57a21.29 21.29 0 0 0 -6-.33l-6.59.18c-1.9.05-3.8.16-5.7.11a5.1 5.1 0 0 0 -4.38-.7 21.94 21.94 0 0 1 -2.09-.76l-.9-.39a5.55 5.55 0 0 0 -4.6-2.1c-2.6-1.24-5.18-2.52-7.77-3.75-2.26-1.07-3.59 2.59-1.35 3.65l.82.39a2.56 2.56 0 0 0 .15.76 4.67 4.67 0 0 0 3.8 2.87 14.06 14.06 0 0 0 3.55-.07l3 1.43a6.51 6.51 0 0 0 1.31 1.67c1.41 1.05 2.73.77 4.15.33a21.46 21.46 0 0 0 3.1.46 13.82 13.82 0 0 0 1.2 1 5.76 5.76 0 0 0 2.54 1c.15 0 .31.07.34 0a9.78 9.78 0 0 1 .15 1.13 4.5 4.5 0 0 0 1.12 2.2c.62.65 1.54 1 2.11 1.68.87 1.07.77 2.68.61 4-.51 4-2.72 8.13-.31 12a2 2 0 0 0 3.58-.16 36.22 36.22 0 0 0 2.41-14.12 38.35 38.35 0 0 0 -.3-3.86c-.07-.47-.14-1-.23-1.42v-.21c.39 0 .76-.08 1.08-.13.71-.1 1.44-.2 2.17-.26a6.55 6.55 0 0 0 .78.28 15.52 15.52 0 0 0 4.9.29 48.44 48.44 0 0 0 4.77 1.46c.16.19.32.38.5.56a4.38 4.38 0 0 0 5.05 1.24 9.64 9.64 0 0 0 1.91-1.18c.36-.26 1-.84 1.44-.84 1.33-.05 2.87-1.96 1.51-3.24zm-28-1.51c0 .06 0 .13-.08.19a7.83 7.83 0 0 0 -1.61.74 4.26 4.26 0 0 0 -.36-.85z" fill="#634725"/><path d="m232.36 270.77a5 5 0 0 0 -4.44 1.12c-.74.2-1.49.36-2.24.52a4.56 4.56 0 0 0 -.5-.25c-2.2-.85-4.12.94-5.75 2.19a52.42 52.42 0 0 0 -4.92 4.25c-.67.67-1.33 1.35-2 2a13.82 13.82 0 0 0 -4.09 1.29c-1.64 1-2.69 2.51-3.94 3.91a10.09 10.09 0 0 1 -9.06 3.23c-2-.29-2.62 2.3-1.37 3.41a7.49 7.49 0 0 0 -1.87.38 14.77 14.77 0 0 0 -5.53 3.92c-1.75 1.76.74 4.75 2.51 3 1.23-1.24 2.62-2.7 4.33-3.25s3.35.78 5.14.08c1.47-.58 2.26-1.91 3.1-3.16 1-1.43 2.2-1.63 3.81-2 4-1 6.16-3.91 8.72-6.91l.35-.39a9.43 9.43 0 0 0 4.24-2.81c.3-.34.59-.71.88-1.07a9.27 9.27 0 0 0 .34 1.6c.21.65.48 1.29.75 1.93-.08.27-.16.54-.23.81-.76 2.84-1.15 5.68.07 8.45a2 2 0 0 0 3.58-.16c1.22-3.14 1.82-6 .66-9.25a18.08 18.08 0 0 0 .92-6.86 4 4 0 0 0 2.28-.34 8.88 8.88 0 0 0 1.67-1.06 13 13 0 0 0 2.72-1c1.39-.69 1.59-3.15-.13-3.58z" fill="#634725"/><path d="m143.79 271.6c-1.69 1.38-3.89 1.12-5.91.77a56.47 56.47 0 0 0 -7.19-1.2 17.41 17.41 0 0 0 -7.85 1.8 18 18 0 0 0 -9.32 1.09c-3.73 1.45-6.38 4-9.12 6.8-.35.35-.71.72-1.09 1.08a8.76 8.76 0 0 0 -4.45-.51 16.68 16.68 0 0 0 -4.29 1.57 49.57 49.57 0 0 0 -6.24 1.25 45.1 45.1 0 0 1 -7 .76 47 47 0 0 1 -9.55-.76 9.37 9.37 0 0 0 -2.93-1.77 5.28 5.28 0 0 0 -4.87.63c-1.22.81-.71 2.89.58 3.31a51.64 51.64 0 0 0 5.56 1.45 12.1 12.1 0 0 0 2.88 2 7.46 7.46 0 0 0 4.58.2c.27-.05 1.14-.34 1.36-.11s-.12.94-.19 1.15c-.44 1.39-1.17 2.66-1.6 4.06a20.92 20.92 0 0 0 -.87 4.71 21.18 21.18 0 0 0 1.56 9.37c.71 1.73 3.7 1.25 3.7-.67v-9.57a23 23 0 0 1 .07-4.39l.06-.23c0-.08.07-.16.1-.23.48-.94 1.73-1.31 2.65-1.75l8.41-4.09 2.89-1.4c.93.14 1.82.55 2.74.73a7.3 7.3 0 0 0 5.08-1c.25-.15.5-.31.74-.48a2 2 0 0 0 .34 0 9.43 9.43 0 0 0 4.05-.84 76.16 76.16 0 0 0 7.7-4.28c2.36-1.34 4.69-2.77 7.11-4h.17a2 2 0 0 0 2.44-1.22 11.59 11.59 0 0 1 5.07-.77c5.1.44 10.65 3.19 15.19-.53 1.89-1.53-.62-4.53-2.56-2.93z" fill="#634725"/><path d="m234.92 389.45a2 2 0 0 0 -2.59-.92l-3.3 2a17.7 17.7 0 0 0 -7.72 2.61 17.93 17.93 0 0 0 -4.26 3.7c-.41.5-.79 1.05-1.17 1.61-1.42.82-2.84 1.63-4.28 2.43l-1.3.71a21 21 0 0 0 -2.45.64 34 34 0 0 0 -5.81 2.59c-4.22 2.31-8.33 4.83-12.48 7.25-2.12 1.25-.6 4.66 1.68 3.52 6.71-3.37 13.53-6.6 20.14-10.17a14.82 14.82 0 0 0 3.37-.82 9.83 9.83 0 0 0 3.79-3.22c3.92-2.29 7.79-4.68 11.67-7a15.85 15.85 0 0 1 1.82 0 1.89 1.89 0 0 0 2-2.36 2 2 0 0 0 .89-2.57z" fill="#fcd24f"/><path d="m181.06 445.78c-.33-2.48-4.15-1.77-3.83.71a8.77 8.77 0 0 1 0 2.29 3 3 0 0 0 -2.84-.94 3.54 3.54 0 0 0 -2.4 2.24 5.1 5.1 0 0 0 -.19.5 4.33 4.33 0 0 0 -4.73 2 14.78 14.78 0 0 0 -.75 1.62 19.77 19.77 0 0 1 -3.6.08 7.56 7.56 0 0 0 -4.4 1.33 1.93 1.93 0 0 0 -1.1.11 2.67 2.67 0 0 0 -1 .72 32 32 0 0 1 -14.37 6 35.55 35.55 0 0 1 -7.92.16c-2.52-.19-4.95.05-6.67 2.1s1.58 4.15 3.18 2.24c.5-.59 1.59-.54 2.29-.52 1.22 0 2.43.2 3.65.23a35.55 35.55 0 0 0 20.71-6 2.16 2.16 0 0 0 .44.27c.7.36 1.31.34 1.58 1.16a5.51 5.51 0 0 1 .11 2.14c-.21 2.33-.8 4.63-1 7a57.53 57.53 0 0 0 -.28 8.09c0 1.54 1.83 2.92 3.19 1.66 4.51-4.17 2.4-10 2.55-15.32a7.39 7.39 0 0 1 .83-3.6 10.73 10.73 0 0 1 2.63-2.53 9.9 9.9 0 0 0 2.13-2.4 4.67 4.67 0 0 0 1.74-2.06 1.74 1.74 0 0 0 .92.33 3 3 0 0 0 2.72-1.35 8.37 8.37 0 0 0 .58-1 3.74 3.74 0 0 0 2 1.75 2 2 0 0 0 2.26-.71 12.84 12.84 0 0 0 1.57-8.3zm-19.5 12.92a4.25 4.25 0 0 0 -.46-.4 4.79 4.79 0 0 1 1.58-.29 10.11 10.11 0 0 0 -.9.95 2.75 2.75 0 0 0 -.22-.26z" fill="#fcd24f"/><path d="m141.53 418.72a3.64 3.64 0 0 1 -3.17.45 1.73 1.73 0 0 0 -.82-1.63c-3.41-2.3-6.49.25-10 .7-1.62.2-2.57-.82-3.6-1.91a9.23 9.23 0 0 0 -4.26-3 7.21 7.21 0 0 0 -5.22 1.07c-1.17.64-2.55 1.73-3.78.69-1.47-1.25-2.35-2.92-4.16-3.79-2-1-4.24-.72-6.4-.9-2.52-.21-4.45-2-7.08-1.85-.7 0-2.09.5-3.34.67a4.93 4.93 0 0 1 -2.63-1 2 2 0 0 0 -3.25 2.09 5.22 5.22 0 0 0 4.92 2.84 6 6 0 0 0 .74 0 29.74 29.74 0 0 1 5.28 1.6c3 1.29 6.53 4.56 9.93 2.4a2.29 2.29 0 0 0 1.09-1.59c.33.32.62.67.93 1 1.29 1.49 2.76 2.85 4.84 2.93s3.52-1 5.18-1.85a2.59 2.59 0 0 1 3.56.55c1.32 1.28 2.45 2.72 4.16 3.51 1.93.88 4 .47 6-.16a21.18 21.18 0 0 1 3.07-1l.06.08a7.82 7.82 0 0 0 10.42 1.08c2.08-1.46-.44-4.42-2.47-2.98z" fill="#fcd24f"/><path d="m238.08 272.9a3.39 3.39 0 0 0 -4.74.78c-.5 0-1 0-1.51 0-1.37-.09-2.7 1.45-1.92 2.77a15.6 15.6 0 0 1 1.79 4.7 8.8 8.8 0 0 0 -.31 1.46c-.26 1.92.34 3.67.69 5.53-.14 2.14-.44 4.3-.71 6.4-1 3.42-2.28 6.77-2 10.41.17 2.49 1.23 4.85 1.83 7.26.12 1.43.26 2.86.41 4.29.24 2.22 3.67 2 3.85-.19a13.45 13.45 0 0 0 -.42-4.4c-.22-2.31-.4-4.62-.45-6.94a68.31 68.31 0 0 1 .63-9.7 19.55 19.55 0 0 0 .92-5.24 11.92 11.92 0 0 0 -.15-1.91v-.69a1.9 1.9 0 0 0 .48-1.11 16.13 16.13 0 0 1 2.68-7.39 1.8 1.8 0 0 0 .1-2l.87-.8c1.71-1.49-.27-4.13-2.04-3.23z" fill="#fcd24f"/><path d="m56.41 302.68c-.13-2.55-.23-5.1-.49-7.64s-.94-5.05-1.1-7.6c-.15-2.36.34-4.75-.53-7a5.84 5.84 0 0 0 -4.52-3.83h-.09c-.68-1.79-3.68-1.81-3.68.39a101.16 101.16 0 0 0 1 14.24c.66 4.47 2 8.78 2.72 13.22s-.57 9-.22 13.48c.18 2.28.62 4.52.86 6.79a62 62 0 0 1 .29 7.47c0 2.12 3 3 3.76.84 3.59-9.71 2.59-20.24 2-30.36zm-5.41-11.17a94.34 94.34 0 0 1 -1.07-10.87c1.08.67 1.08 2.82 1.06 3.8a33.09 33.09 0 0 0 .41 6.52c.4 2.36.66 4.72.86 7.08q-.77-3.24-1.26-6.53z" fill="#fcd24f"/><path d="m94.12 280.72a10.35 10.35 0 0 0 -6.44.13 9 9 0 0 0 -1.15.49c-.19.09-.47.31-.74.46l-.59-.17-.54-.15c-.18-.22-.36-.47-.5-.62a6.32 6.32 0 0 0 -4.77-2 6.64 6.64 0 0 1 -2.27-.12c-.68-.28-.91-1.13-1.4-1.69a4.7 4.7 0 0 0 -4.72-1.13c-1.27.29-2.68 1.16-3.65 0a13.32 13.32 0 0 0 -4.16-3.78 10.78 10.78 0 0 0 -5.89-1.14 2 2 0 0 0 -1.56 2.26 1.91 1.91 0 0 0 1.9 1.56 2 2 0 0 0 .35 1.42c1.77 2.52 4.84 3.27 7.65 4l10.73 2.93 6.45 1.8a4 4 0 0 0 2.89.77l1 .25c3.14.77 6.4.55 8.34-2.39a2 2 0 0 0 -.93-2.88z" fill="#fcd24f"/><path d="m53.75 386.05a4.9 4.9 0 0 0 -3.3-3.45c-1.7-.58-3.4-.1-5.13-.36a26.58 26.58 0 0 0 -3.89-2.53 36 36 0 0 1 -6.64-5.22 37.08 37.08 0 0 1 -7.23-10.31 1.67 1.67 0 0 0 1.38-1.24 3 3 0 0 0 -3.28-3.82 1.61 1.61 0 0 0 -.33.06 1.66 1.66 0 0 0 -.79-.32l-.11-.24c-.88-2-4.27-1-3.67 1.19 3.14 11.34-1.55 23.13 1 34.57.39 1.74 3.2 2.27 3.74.32a34.23 34.23 0 0 0 1.28-10.75c0-.82-.23-1.91-.36-3a2 2 0 0 0 .79-1 12.29 12.29 0 0 0 2.45.67 3.53 3.53 0 0 1 2.48 1.16 7.68 7.68 0 0 0 2 2.43 5.51 5.51 0 0 0 3.89.44 6.3 6.3 0 0 1 4.47 1 1.62 1.62 0 0 0 0 .19 32.15 32.15 0 0 1 .62 12.88c-.7 4.51-2 8.83-1.55 13.45.21 2.19 3.74 2 3.85-.19a60 60 0 0 1 2.06-13.18 62.21 62.21 0 0 1 2.12-6.35 30 30 0 0 1 1.32-3.08 6.67 6.67 0 0 1 .45-.72 1.16 1.16 0 0 1 .26-.28.14.14 0 0 0 .07 0 2 2 0 0 0 2.05-2.32zm-5.81 0h.47l-.33.43a1.41 1.41 0 0 0 -.14-.41z" fill="#fcd24f"/><path d="m129.62 507.37c-.51-2.39-2.17-6.66-.23-8.71.91-1 1-2.87-.58-3.31a164.38 164.38 0 0 0 -28.68-5.35h-.13a3.46 3.46 0 0 0 -2.44-.15 4.25 4.25 0 0 1 -2.38.52 12.28 12.28 0 0 1 -2.9-.76c-7.73-2.74-15.42-5.57-23.13-8.38a13.2 13.2 0 0 0 -2.62-1.69c-2.6-1.29-5.5-1.84-8.24-2.77a51.5 51.5 0 0 1 -10.17-4.77c-2.12-1.28-4.28 1.69-2.24 3.18a49.76 49.76 0 0 0 12.12 6.09c3 1.14 6.09 2.24 9.14 3.34a3.56 3.56 0 0 1 1 2.09 11.54 11.54 0 0 1 -.76 4.05 13.4 13.4 0 0 0 -.57 4.91c.15 1.58 2.73 2.23 3.5.77a18.07 18.07 0 0 0 2.25-9 2.42 2.42 0 0 0 -.22-1l14.53 5.27c3.48 1.26 8.06 3.65 11.75 1.92l12.15 3.83c2 .64 5.06 1.84 7.32 1.16a23.7 23.7 0 0 1 1.3 3.17c.66 2 3.48 1.05 3.67-.76h.29c0 .07.24.34.3.45.57 1.1.45 2.63.51 3.84l.49 10.21c.07 1.52 1.83 2.94 3.19 1.66 2.82-2.58 2.54-6.31 1.78-9.81z" fill="#fcd24f"/><path d="m283.79 211a57.53 57.53 0 0 0 -3.55-16.55c-.34-.93-1.59-.49-1.73.31l-.28 1.55c-.12.7.5 1 1.06.92a56.22 56.22 0 0 1 2.62 12.77c.15 1.8 1.06 6.52-.88 7.51-1.25.63-2.64.41-3.41 1.82-.56 1 .92 2.08 1.49 1 .77-1.41 3.27-.87 4.25-2.45 1.13-1.82.56-4.88.43-6.88z"/><path d="m7.27 199.07-2.72-1.71c-.88-.56-2.57-1.22-2.6-2.47 0-1 .84-2.52 1.15-3.44s.69-2.06 1-3.09l2.07-6.18c.57-1.7 1-4.15 2.83-4.92 1.09-.45.3-2.1-.78-1.65-1.81.76-2.58 2.47-3.19 4.22-1 3-2 6-3 8.93l-1.33 4.12c-.33 1-1 2.25-.57 3.32a4 4 0 0 0 1.87 1.7l4.23 2.66c.98.62 2.03-.87 1.04-1.49z"/><path d="m274.27 216.52-1.2.7a29.25 29.25 0 0 0 -.69-13.15c-.19-.67-1.27-.48-1.08.2a28.63 28.63 0 0 1 .53 13.64 110.25 110.25 0 0 1 -22.15 9.09 28.38 28.38 0 0 0 -1.79-14.44c-.26-.66-1.25-.19-1 .47a27.19 27.19 0 0 1 1.66 14.08.7.7 0 0 0 0 .21c-1.32.37-2.64.73-4 1.07a20.6 20.6 0 0 0 -1.82-14.33c-.32-.62-1.31-.16-1 .47a19.49 19.49 0 0 1 1.77 13.49.58.58 0 0 0 .19.57q-3.6.87-7.24 1.57a.62.62 0 0 0 .2-.33 31.15 31.15 0 0 0 -2.54-20.23.54.54 0 0 0 -1 .47 30.2 30.2 0 0 1 2.43 19.66.43.43 0 0 0 .31.54c-1.4.26-2.81.5-4.22.72a26.79 26.79 0 0 0 -1.63-20.21c-.32-.62-1.31-.16-1 .47a25.62 25.62 0 0 1 1.71 19.44.52.52 0 0 0 .08.49q-2.64.4-5.28.73a.58.58 0 0 0 .24-.37 46.27 46.27 0 0 0 -.29-19.91c-.16-.68-1.24-.49-1.08.2a45.41 45.41 0 0 1 .28 19.62.43.43 0 0 0 .29.53c-4.08.49-8.19.85-12.3 1.11a.51.51 0 0 0 .21-.28 22.33 22.33 0 0 0 -.13-14.64c-.23-.66-1.22-.19-1 .47a21.16 21.16 0 0 1 .1 13.79.54.54 0 0 0 .34.69c-10.52.64-21.1.62-31.48.41-18.49-.38-37-.88-55.45-2.75q-11-1.12-21.89-2.86a43.46 43.46 0 0 1 1.18-19.27c.2-.67-.83-1.05-1-.38a44.67 44.67 0 0 0 -1.29 19.47l-3.61-.6a.56.56 0 0 0 .05-.29 52.31 52.31 0 0 1 2.07-20.43q7 1.35 14 2.47h.2a.41.41 0 0 0 -.17.28 45.57 45.57 0 0 0 -.8 15.92c.08.69 1.16.49 1.07-.2a44.26 44.26 0 0 1 .75-15.35.56.56 0 0 0 -.16-.55 400.81 400.81 0 0 0 40.78 4.27.48.48 0 0 0 -.29.57 35.15 35.15 0 0 1 -.51 17.14c-.19.68.84 1.06 1 .38a36.41 36.41 0 0 0 .56-17.72.5.5 0 0 0 -.23-.34c3.18.16 6.35.28 9.53.36a49 49 0 0 1 .62 12.85.55.55 0 0 0 1.09.09 50.33 50.33 0 0 0 -.59-12.91l2.64.05a28.57 28.57 0 0 1 1.11 12c-.09.7 1 .8 1.09.1a29.26 29.26 0 0 0 -1.06-12.09q9.32.14 18.62-.21a27.43 27.43 0 0 1 1.61 11.32.55.55 0 0 0 1.09.09 28.73 28.73 0 0 0 -1.57-11.45c1.75-.07 3.5-.16 5.25-.25a27.51 27.51 0 0 1 1.11 8.75c0 .7 1.07.8 1.09.09a28.68 28.68 0 0 0 -1.09-8.9q10-.57 20-1.71a.46.46 0 0 0 -.11.45c1.5 6.4 3 13.13.83 19.56-.22.67.81 1.05 1 .38 2.23-6.63.77-13.53-.79-20.14a.49.49 0 0 0 -.23-.33c.34-.05.69-.08 1-.12 9.86-1.19 19.68-2.76 29.39-4.86.95-.2 1.9-.41 2.84-.63a33.79 33.79 0 0 1 .93 16.44c-.13.69 1 .77 1.09.09a34.82 34.82 0 0 0 -1-16.78c1.29-.31 2.57-.63 3.85-1a23.44 23.44 0 0 1 .82 12.83c-.14.69.95.77 1.09.09a24.3 24.3 0 0 0 -.86-13.2c1.15-.31 2.3-.64 3.45-1a36.79 36.79 0 0 1 1.34 12.27c0 .7 1.05.8 1.09.1a37.48 37.48 0 0 0 -1.22-12.62c1.16-.36 2.32-.73 3.47-1.12a32.85 32.85 0 0 1 1.39 8.87c0 .69 1.1.79 1.09.09a34.2 34.2 0 0 0 -1.45-9.32 99.63 99.63 0 0 0 9.77-4 .92.92 0 0 0 -.79-1.65c-15.71 7.48-33.39 10.49-50.5 12.85a356.32 356.32 0 0 1 -52.24 3.28 413.18 413.18 0 0 1 -103.35-14.67 474 474 0 0 1 -52.67-17.67.59.59 0 0 0 -.38-.16c-.92-.37-1.83-.73-2.74-1.11-1.09-.44-1.72 1.27-.63 1.71l2.22.91a50.6 50.6 0 0 0 -4.19 13.15c-.12.7 1 .79 1.09.1a49.12 49.12 0 0 1 4.14-12.85c1.47.59 2.95 1.18 4.43 1.75a51 51 0 0 0 -3.71 10.24c-.16.67.86 1.06 1 .38a50.74 50.74 0 0 1 3.7-10.22q10.71 4.14 21.62 7.78a.4.4 0 0 0 -.12.16 53.72 53.72 0 0 0 -5.26 19.5.55.55 0 0 0 1.09.09 52.57 52.57 0 0 1 5.21-19.23.68.68 0 0 0 .06-.21l3.11 1a.55.55 0 0 0 -.25.25 43.23 43.23 0 0 0 -4.76 18.47c0 .7 1.07.8 1.09.09a42.65 42.65 0 0 1 4.69-18.18.42.42 0 0 0 0-.37q7 2.26 14.17 4.3a68.26 68.26 0 0 0 -3.1 17.47.55.55 0 0 0 1.09.09 67.06 67.06 0 0 1 3.06-17.26l4.34 1.21a.37.37 0 0 0 0 .11 79.74 79.74 0 0 0 -3.18 17 .55.55 0 0 0 1.09.09 79 79 0 0 1 3.11-16.76.58.58 0 0 0 0-.22q12.48 3.38 25.13 6a.6.6 0 0 0 -.14.3l-2.24 13.6c-.12.7 1 .79 1.09.1l2.24-13.6a.44.44 0 0 0 0-.2c1.61.33 3.23.66 4.84 1a53.73 53.73 0 0 0 -2.06 20.86q-8.23-1.43-16.41-3.22a40.15 40.15 0 0 1 3.61-14.25c.29-.64-.74-1-1-.38a41 41 0 0 0 -3.66 14.4l-3.27-.74a42.74 42.74 0 0 1 3.09-15.5c.26-.65-.76-1-1-.38a43.92 43.92 0 0 0 -3.15 15.63l-3.56-.85a32.92 32.92 0 0 1 3.64-15.15c.32-.63-.71-1-1-.38a33.56 33.56 0 0 0 -3.7 15.27l-.58-.14a396.7 396.7 0 0 1 -39.49-12 16.51 16.51 0 0 1 2.88-6.56c.42-.57-.48-1.2-.89-.63a17.47 17.47 0 0 0 -3 6.81l-3.44-1.27a30.12 30.12 0 0 1 3.37-10.06c.33-.61-.56-1.25-.9-.63a32 32 0 0 0 -3.51 10.3l-3.29-1.27a71.6 71.6 0 0 1 4.42-13.68c.28-.65-.75-1-1-.38a73.79 73.79 0 0 0 -4.41 13.66q-4.8-1.87-9.54-3.88c-1.08-.46-1.71 1.26-.63 1.71a396.43 396.43 0 0 0 69.07 22 .59.59 0 0 0 .82.19q18.81 4.11 38 6.36c18.77 2.21 37.65 2.83 56.52 3.32 16.18.42 32.43.53 48.54-1.28 17.86-2 35.55-6.61 51.14-15.78.82-.66.05-2.32-.97-1.72z"/><path d="m254.22 119.3c-16.29-20.3-39.45-34.21-63.78-42.83s-51-13-76.91-9.86a114.41 114.41 0 0 0 -36.87 10.71 108.36 108.36 0 0 0 -28.8 20.92c-17 17.07-28.74 38.85-36.1 61.63-.93 2.86-1.78 5.74-2.57 8.65-.31 1.12 1.4 1.76 1.71.63 6.21-22.74 16.51-44.7 31.88-62.72a112.35 112.35 0 0 1 26.43-22.91 106.77 106.77 0 0 1 34.79-13.52c25.11-5.08 51.43-2.24 75.84 5 24.67 7.28 48.46 19.43 66.45 38.11 16.8 17.45 28.22 41 28.59 65.51a86.09 86.09 0 0 1 -.36 8.94.91.91 0 0 0 1.81.15c2.33-24.71-6.78-49.29-22.11-68.41z"/><path d="m51.43 194.82a82.83 82.83 0 0 0 -4 18.14.55.55 0 0 0 1.09.09 81.91 81.91 0 0 1 3.92-17.85c.24-.67-.79-1.05-1.01-.38z"/><path d="m56.49 196.74a63.05 63.05 0 0 0 -3.58 17.06.55.55 0 0 0 1.09.09 61.76 61.76 0 0 1 3.52-16.77.55.55 0 0 0 -1.03-.38z"/><path d="m90.24 205.26a62.15 62.15 0 0 0 -2.57 14.5.55.55 0 0 0 1.09.09 60.79 60.79 0 0 1 2.51-14.21c.2-.64-.83-1.05-1.03-.38z"/><path d="m276.39 205.38c-.26-.65-1.24-.18-1 .47a17 17 0 0 1 .57 10.79c-.19.68.84 1.06 1 .38a18.28 18.28 0 0 0 -.57-11.64z"/><path d="m109.31 227a48 48 0 0 1 .48-18.46c.15-.68-.94-.77-1.09-.09a48.89 48.89 0 0 0 -.47 18.75.55.55 0 0 0 1.08-.2z"/><path d="m120.89 227.75a28 28 0 0 1 .71-14.67c.22-.67-.81-1.05-1-.38a29.15 29.15 0 0 0 -.77 15.25c.17.69 1.17.49 1.06-.2z"/><path d="m124.08 226.49a37 37 0 0 1 .2-12.56c.12-.7-1-.78-1.09-.1a37.78 37.78 0 0 0 -.18 12.86.54.54 0 0 0 1.07-.2z"/><path d="m129.42 226a81.38 81.38 0 0 1 .27-10.82.55.55 0 0 0 -1.09-.1 81.47 81.47 0 0 0 -.27 10.82c.03.65 1.12.75 1.09.1z"/><path d="m135.62 212.2a.55.55 0 0 0 -1.08.2 52.34 52.34 0 0 1 0 18.09c-.12.69 1 .78 1.09.09a53.27 53.27 0 0 0 -.01-18.38z"/><path d="m139.91 213.61c-.09-.7-1.17-.5-1.07.2a56.28 56.28 0 0 1 -.1 16.29c-.11.7 1 .79 1.09.1a56.94 56.94 0 0 0 .08-16.59z"/><path d="m145 213.33a.55.55 0 0 0 -1.08.2 59 59 0 0 1 .58 16.31.55.55 0 0 0 1.09.09 60.37 60.37 0 0 0 -.59-16.6z"/><path d="m151.56 213.82c-.19-.67-1.27-.48-1.08.2a33.57 33.57 0 0 1 .6 16.36c-.15.69.94.77 1.09.09a34.26 34.26 0 0 0 -.61-16.65z"/><path d="m162.51 214.82c-.17-.68-1.24-.49-1.07.2a29.74 29.74 0 0 1 -.23 15.33c-.2.67.83 1.06 1 .38a30.77 30.77 0 0 0 .3-15.91z"/><path d="m181 221.27c-.21-.66-1.29-.47-1.08.2a18.26 18.26 0 0 1 .19 10.56c-.19.67.83 1.06 1 .38a19.3 19.3 0 0 0 -.11-11.14z"/><path d="m185.11 221.23c-.21-.66-1.29-.47-1.07.2a19.32 19.32 0 0 1 .45 10.2c-.16.68.87 1.07 1 .38a20.25 20.25 0 0 0 -.38-10.78z"/><path d="m203.38 218.64a.54.54 0 0 0 -1.07.2 26 26 0 0 1 .09 10.33c-.13.69 1 .78 1.09.1a26.79 26.79 0 0 0 -.11-10.63z"/><path d="m208.17 218.33c-.1-.7-1.18-.5-1.08.2a30.58 30.58 0 0 1 .18 7 .55.55 0 0 0 1.09.09 32 32 0 0 0 -.19-7.29z"/><path d="m60.9 186.85a122.51 122.51 0 0 1 -42.41-19.41.91.91 0 0 0 -1 1.49 123.94 123.94 0 0 0 42.82 19.63c1.08.27 1.69-1.44.59-1.71z"/><path d="m95 195a122 122 0 0 1 -15.51-4.3.91.91 0 0 0 -.64 1.71 128.28 128.28 0 0 0 16 4.41c1.15.27 1.32-1.55.15-1.82z"/><path d="m272.74 185.89a83.34 83.34 0 0 1 -38.55 11.83c-1.16.06-.82 1.85.34 1.79a84.45 84.45 0 0 0 39-12c.99-.57.22-2.22-.79-1.62z"/><path d="m202 199.11a199.56 199.56 0 0 1 -45.43 1.44.91.91 0 0 0 -.15 1.81 201 201 0 0 0 45.92-1.46c1.12-.17.79-1.96-.34-1.79z"/><path d="m111 73.68c-5.56-.62-10.79 1.94-15.64 4.33a124.94 124.94 0 0 0 -13.72 7.85 128 128 0 0 0 -24.64 21.14 126.29 126.29 0 0 0 -11.42 14.6c-.66 1 .83 2 1.49 1.05a126.46 126.46 0 0 1 45.93-41.4c5.37-2.82 11.59-6.45 17.86-5.76a.91.91 0 0 0 .14-1.81z"/><path d="m35.4 134.07a79.55 79.55 0 0 0 -8.09 16.42.91.91 0 0 0 1.71.63 77.45 77.45 0 0 1 7.87-16c.63-.98-.89-2.04-1.49-1.05z"/><path d="m270.8 182.7a548.34 548.34 0 0 0 -97.91-24q-25.24-3.77-50.77-5.16c-15.75-.85-31.65-1.3-47.4-.27-16.59 1.09-33.31 4.31-47.9 12.62-1 .58-.24 2.23.79 1.64 12.9-7.34 27.5-10.67 42.18-12 15.68-1.47 31.58-1.08 47.29-.36a544.44 544.44 0 0 1 153.09 29.25.91.91 0 0 0 .63-1.72z"/><path d="m174.47 412.64c-27.05 14.06-59.63 10.43-82.29-9.73-52-46.27-8.19-142.47 63.24-131.55a3.41 3.41 0 0 1 1.46.56c31.65 1.6 54.18 30.51 57.3 60.8 3.28 31.65-9.99 64.49-39.71 79.92z" fill="#2bb673"/><g fill="#231f20"><path d="m138.29 358.22a4.56 4.56 0 0 1 -3.35 2.32c-1.38.28-2.81.25-4.21.44a26.66 26.66 0 0 0 -4.23.95l-.26.08q.08 3.56.23 7.1.45 10.09 1.52 20.15c.18 1.66.38 3.32.57 5a3.23 3.23 0 0 1 -.25 2.1 3.3 3.3 0 0 1 -1.64 1.25 3.34 3.34 0 0 1 -3.75-.41c-.88-.94-.91-1.88-1.59-10.22q-.92-11.1-1.57-22.21c-.45.23-.9.46-1.34.7-1.31.69-2.59 1.42-3.88 2.15s-2.55 1.52-3.87 2.18a5.37 5.37 0 0 1 -4.13.63 3.11 3.11 0 0 1 -2.21-2.62c-.06-.6 6.57-4.83 6.83-5 9.75-5.95 31.28-13.22 27.13-4.59z"/><path d="m180.44 372.54a.63.63 0 0 0 -.77.44c-.73 5.33-5.86 13.73-8.35 5.61a18.79 18.79 0 0 1 -.41-6.52c.06-1.14.17-2.28.34-3.41s.39-2.12.58-3.19a2.9 2.9 0 0 0 -.37-2.4 2.27 2.27 0 0 0 -1.68-.73c-1.56 0-1.7.47-4.57 5.84a5.72 5.72 0 0 0 -5.12-.75 6.72 6.72 0 0 0 -4.09 4.57 6.33 6.33 0 0 0 -.16 2.72 43.42 43.42 0 0 1 -2.17 4.1c-5.73 8.48-13.15 6.74-14.89 2.37a11.94 11.94 0 0 1 -.7-4.89 11.41 11.41 0 0 1 .55-3.18 2.51 2.51 0 0 0 1.55 1.24 2.87 2.87 0 0 0 .92.11c6.4 0 6.27-9.55-.88-7.74a8.67 8.67 0 0 0 -5 4 15.27 15.27 0 0 0 -2 7 8.46 8.46 0 0 0 1.91 6.41c3 3.23 12.53 6.7 19.51-4.54.69-1 1.32-2.07 1.91-3.13a2.85 2.85 0 0 0 1.82 1.12 3.68 3.68 0 0 0 3.05-1.08 19 19 0 0 0 2.43-2.71 31.51 31.51 0 0 0 1.95-2.78.63.63 0 0 0 .31-.27c-.09 1-.17 2.08-.19 3.11a11.45 11.45 0 0 0 1.53 6.79 6.72 6.72 0 0 0 5.06 3.14c4.11.21 7.7-5.14 8.42-10.46a.65.65 0 0 0 -.49-.79zm-37.92-3.76c3.13-.3 2 3.36-.68 4.24-2.3.75-2.27-1.39-2.56-1.53.72-1.21 1.77-2.56 3.24-2.71zm21 2.45c-3.52 6.61-3.18 1.67-2.34.23.61-1 1.6-2.12 2.87-1.91a2.65 2.65 0 0 1 .26.21c-.21.49-.47.98-.74 1.47z"/><path d="m137.53 357.77a4.53 4.53 0 0 1 -3.34 2.31c-1.39.28-2.82.25-4.22.44a26.69 26.69 0 0 0 -4.23 1l-.26.08c.06 2.36.13 4.73.23 7.09.3 6.73.8 13.46 1.52 20.15.18 1.66.38 3.32.58 5a3.46 3.46 0 0 1 -5.65 2.94c-.88-.93-.91-1.88-1.59-10.21q-.91-11.1-1.57-22.22c-.45.23-.9.46-1.34.7-1.31.7-2.59 1.43-3.88 2.16s-2.55 1.52-3.87 2.18a5.37 5.37 0 0 1 -4.13.62 3.13 3.13 0 0 1 -2.21-2.62c-.06-.59 6.57-4.83 6.83-5 9.75-5.98 31.28-13.26 27.13-4.62z"/><path d="m179.68 372.09a.62.62 0 0 0 -.77.44c-.73 5.32-5.86 13.73-8.35 5.6a18.79 18.79 0 0 1 -.41-6.52c.06-1.13.17-2.27.34-3.4s.39-2.13.58-3.2a2.83 2.83 0 0 0 -.37-2.39 2.23 2.23 0 0 0 -1.68-.74c-1.56 0-1.7.47-4.57 5.84a5.72 5.72 0 0 0 -5.12-.75 6.72 6.72 0 0 0 -4.14 4.55 6.3 6.3 0 0 0 -.16 2.71 43.2 43.2 0 0 1 -2.16 4.1c-5.74 8.48-13.16 6.74-14.9 2.38a12 12 0 0 1 -.7-4.9 11.54 11.54 0 0 1 .55-3.18 2.55 2.55 0 0 0 1.55 1.25 3.18 3.18 0 0 0 .92.11c6.4 0 6.27-9.56-.88-7.75a8.67 8.67 0 0 0 -5 4 15.27 15.27 0 0 0 -2 7 8.46 8.46 0 0 0 1.91 6.41c3 3.23 12.53 6.71 19.51-4.53.69-1 1.32-2.07 1.91-3.14a2.82 2.82 0 0 0 1.82 1.13 3.71 3.71 0 0 0 3.06-1.08 20.11 20.11 0 0 0 2.42-2.71 31.51 31.51 0 0 0 2-2.78.68.68 0 0 0 .31-.27c-.09 1-.16 2.07-.19 3.11a11.37 11.37 0 0 0 1.54 6.78 6.7 6.7 0 0 0 5.06 3.15c4.1.2 7.69-5.14 8.41-10.47a.64.64 0 0 0 -.49-.75zm-37.92-3.76c3.13-.31 2 3.35-.68 4.23-2.3.76-2.27-1.39-2.56-1.52.68-1.22 1.77-2.57 3.24-2.71zm21.06 2.44c-3.53 6.61-3.19 1.67-2.35.24.61-1 1.6-2.12 2.87-1.92a2.75 2.75 0 0 1 .26.22z"/><path d="m108.41 339.09a10.79 10.79 0 0 0 -5.49-6.84 7.85 7.85 0 0 0 .77-4 8.08 8.08 0 0 0 -4.69-6.69c-2.9-1.24-6.06-.27-8.5 1.49a3.92 3.92 0 0 0 -3.16-1.79c-1.64.05-2.93 1.34-4 2.45a23.46 23.46 0 0 0 -6.39 16.68 22.76 22.76 0 0 0 .56 4.43c.18.79 1.4.45 1.22-.34a22 22 0 0 1 2.43-15.75 20.65 20.65 0 0 1 2.38-3.36c.64-.74 1.9-3.16 3.75.74a23.07 23.07 0 0 0 -3 4.76 28.73 28.73 0 0 0 -2 19.27 21 21 0 0 0 1.93 4.94 9.63 9.63 0 0 0 3.2 3.62 4.08 4.08 0 0 0 4.38.15 6.3 6.3 0 0 0 2.34-3.45 29 29 0 0 0 1-11 100.9 100.9 0 0 0 -1.4-11.24c-.35-1.86-.77-3.71-1.3-5.52a20.49 20.49 0 0 0 -1-3 5.47 5.47 0 0 1 1.48-.85 3.86 3.86 0 0 1 2.33 0 5.77 5.77 0 0 1 3 2.1 6.44 6.44 0 0 1 1 5.74 6.29 6.29 0 0 0 -1 .11 5.42 5.42 0 0 0 -3.75 2.26 2 2 0 0 0 1.65 3.21 6 6 0 0 0 3.85-1.4 10.51 10.51 0 0 0 1-.87 3.79 3.79 0 0 1 .4.3c1.9 1.59 2.7 4.19 2.89 6.58a14.5 14.5 0 0 1 -1.35 7.34 13.41 13.41 0 0 1 -2.06 3.14c-.75.85-2 1.78-3.18 1-.6-.41-.87-2.32-1.94-1.39s-.65 2.86-.62 2.9a4.47 4.47 0 0 0 3.86 1.81 7.91 7.91 0 0 0 4.46-1.92 14.9 14.9 0 0 0 4.91-15.61zm-22.5 16.36a20.37 20.37 0 0 1 -3-8.83 28.54 28.54 0 0 1 .31-8.7 25.71 25.71 0 0 1 3-8.09 25.17 25.17 0 0 1 1.56-2.35c.16.52.29 1 .41 1.49a51.22 51.22 0 0 1 1.28 7.27 125.48 125.48 0 0 1 .43 14.64c-.04 2.89-.8 9.4-3.99 4.57zm9.91-19.58c-1.18-.43.25-1.69 2-1.81a8 8 0 0 1 -2 1.81z"/><path d="m134.69 339.81a47 47 0 0 1 -3.22 9.16 6.19 6.19 0 0 1 -2.13 2.83 3.74 3.74 0 0 1 -3.15.24c-2.47-.89-3.45-3.35-3.78-5.77a50.59 50.59 0 0 1 -.33-8.7c0-.08 0-.16 0-.24a18 18 0 0 1 -2.13 5.09 6.16 6.16 0 0 1 -2.37 2.43 2.45 2.45 0 0 1 -2.9-.75 8.48 8.48 0 0 1 -1.54-3.11 18.63 18.63 0 0 1 -.75-3.71 45.23 45.23 0 0 1 0-7.72 2.25 2.25 0 0 1 2.2-1.52 3 3 0 0 1 2.37 1.83 7.08 7.08 0 0 1 .24 3.82 15.29 15.29 0 0 0 -.08 4.58c2.27 13.64 4.32-14.17 9.56-10.59 1.41 1 1.65 2.82 1.39 4.38-.18 1.05-.55 2.07-.83 3.09a29.24 29.24 0 0 0 -.69 3.19 18.25 18.25 0 0 0 0 6.59c.31 1.45 2.7 6.06 4.46 2a45.35 45.35 0 0 0 2.46-7.44c.2-.81 1.41-.49 1.22.32z"/><path d="m175.86 330.73a.64.64 0 0 0 -.86-.23 20.88 20.88 0 0 0 -3.05 1.65 5.79 5.79 0 0 0 -.78-2.35 3.33 3.33 0 0 0 -4.37-1 7.65 7.65 0 0 0 -3.68 4.4c-.1.25-.19.51-.28.76.06-1.35.18-2.71.35-4.06a50.31 50.31 0 0 0 6.87-8.05 48.61 48.61 0 0 0 3.19-5.32c.49-.94.94-1.9 1.36-2.87 3.61-8.27-7.89-8.89-13.21 3.26a23.15 23.15 0 0 0 -1.51 4.74c-.35 1.75-.52 3.53-.71 5.31-.16 1.61-.31 3.24-.37 4.87l-5.21 3.6-1.9 1.3c0-.37-.06-.74-.11-1.11a20.18 20.18 0 0 0 -.74-3.6 6.11 6.11 0 0 0 -1.47-2.84c-2.6-2.39-6.93 1.13-8.47 7.09-.06-2.4-.11-4.8-.09-7.21 0-.28 0-.56 0-.84a35.53 35.53 0 0 0 7.86-10c.55-1.05 1-2.12 1.48-3.21 3.76-9.39-3.76-11.68-9.54-4.35a21.63 21.63 0 0 0 -4.06 9.4 57.92 57.92 0 0 0 -.86 10.44l-.86.53c-.47.28-.94.54-1.42.79-.72.38-.08 1.47.64 1.09.55-.29 1.09-.6 1.63-.92a41 41 0 0 0 1.35 11.78c.45 1.54 1.19 3.51 2.87 4.07a1.39 1.39 0 0 0 1.8-.76 3 3 0 0 0 -.1-2c-1.28-16.3 6.19-15.16 6.57-6.11v.5c-.2.19-.39.39-.58.59-6.71 7.25.39 17.43 3.61 2.74a22.18 22.18 0 0 0 .51-4.59c.8-.58 1.62-1.13 2.43-1.68l4.62-3.2a25.85 25.85 0 0 0 .36 4.31c.23 1.37.52 3.67 2.18 4.06a1.4 1.4 0 0 0 1.58-.63c.65-1.16-.6-1 1.05-6.48 2.1-6.94 4-2.28 4.16-1.33a11.27 11.27 0 0 1 .18 1.93 21.92 21.92 0 0 0 -1.66 1.95c-5.13 6.85 0 10.23 3 5.71a14.46 14.46 0 0 0 1.3-2.46 15.32 15.32 0 0 0 1.17-5.38 14 14 0 0 0 0-1.45 19.62 19.62 0 0 1 3.52-2 .63.63 0 0 0 .25-.84zm-12.07-4.87c.37-2.18.74-4.37 1.23-6.52a20 20 0 0 1 2.06-5.66c3.08-5.28 8.93-6.46 6.5-.83-.37.87-.77 1.72-1.2 2.56a48.49 48.49 0 0 1 -8.91 12.41c.1-.66.2-1.31.32-1.96zm-21-11.15c3.84-11.43 10.22-8.06 5.22 2.08a33.71 33.71 0 0 1 -3.43 5.55 33.26 33.26 0 0 1 -3.67 4.1 41.63 41.63 0 0 1 1.85-11.73zm4.9 28.59a14.63 14.63 0 0 1 -.77 2.13c-1.65 3.69-.92-1.41 1.16-3.93a14.48 14.48 0 0 1 -.42 1.8zm18.72-3.46a22.44 22.44 0 0 1 1.27-1.95l.53-.67c-.8 6.4-4.21 6.78-1.83 2.62z"/><path d="m206.73 332.78a35.75 35.75 0 0 1 -4.17 6.36c-4.36 5-9.1 2.68-9.46-1.74a8.17 8.17 0 0 1 0-1.21l.21-.52a3.86 3.86 0 0 0 2.94-1.59c3.06-3.7-.56-5.85-3-5a5.75 5.75 0 0 0 -3.4 3.52 10 10 0 0 0 -.05 7.75 43.68 43.68 0 0 1 -3.29 5.15c-4.36 5.87-5.83 1.1-6-2.26-.11-2.1 0-4.21 0-6.31s.18-4.35.33-6.53q.46-6.44 1.46-12.82c2.21-14.23 3.48-14.35 2.93-15.61a1.22 1.22 0 0 0 -1.41-.7 3.1 3.1 0 0 0 -1.68 1.43 23.38 23.38 0 0 0 -2.91 7.68c-.47 2-.89 4.06-1.3 6.1-.81 4.05-1.6 8.11-2.1 12.22a43.52 43.52 0 0 0 0 12.17c1.37 8.57 7.41 10.37 10.61 6.7a36.4 36.4 0 0 0 3.9-5.68 3.72 3.72 0 0 0 .19-.34 5.71 5.71 0 0 0 .9.87c2.52 1.92 8.18.86 10.27-.7a15.09 15.09 0 0 0 3.24-3.57c1-1.51 2-3.09 2.88-4.69a.63.63 0 0 0 -1.09-.68zm-11-.17c-.48.77-1.4 1.87-2.42 1.78l.21-.87c1.28-4.77 3.48-2.86 2.23-.91z"/><path d="m107.65 338.17a10.78 10.78 0 0 0 -5.48-6.83 8 8 0 0 0 .76-4 8.08 8.08 0 0 0 -4.73-6.67c-2.9-1.25-6-.27-8.5 1.49a3.9 3.9 0 0 0 -3.16-1.79c-1.64 0-2.93 1.34-4 2.45a23.46 23.46 0 0 0 -6.39 16.68 22.56 22.56 0 0 0 .56 4.42c.18.8 1.4.46 1.22-.33a22.1 22.1 0 0 1 2.43-15.75 20.22 20.22 0 0 1 2.38-3.36c.64-.74 1.9-3.16 3.75.74a23.49 23.49 0 0 0 -3 4.76 28.73 28.73 0 0 0 -2 19.27 21 21 0 0 0 1.93 4.94 9.63 9.63 0 0 0 3.2 3.62 4.08 4.08 0 0 0 4.38.15 6.33 6.33 0 0 0 2.34-3.46 28.89 28.89 0 0 0 1-11 96.83 96.83 0 0 0 -1.4-11.25c-.35-1.85-.77-3.7-1.3-5.51a21.67 21.67 0 0 0 -1-3 5.27 5.27 0 0 1 1.47-.85 3.78 3.78 0 0 1 2.33 0 5.77 5.77 0 0 1 3 2.1 6.46 6.46 0 0 1 1 5.73 7.87 7.87 0 0 0 -1 .12 5.42 5.42 0 0 0 -3.73 2.33 2 2 0 0 0 1.65 3.21 6 6 0 0 0 3.86-1.41 9.07 9.07 0 0 0 1-.86 3.79 3.79 0 0 1 .4.3c1.9 1.59 2.7 4.19 2.89 6.58a14.52 14.52 0 0 1 -1.35 7.34 13.51 13.51 0 0 1 -2.06 3.14c-.75.85-2 1.78-3.17 1-.61-.41-.88-2.33-1.95-1.39s-.65 2.86-.62 2.9a4.48 4.48 0 0 0 3.89 1.82 7.91 7.91 0 0 0 4.46-1.92 14.57 14.57 0 0 0 4.79-7.07 14.74 14.74 0 0 0 .15-8.64zm-22.5 16.37a20.23 20.23 0 0 1 -3-8.83 28.53 28.53 0 0 1 .3-8.7 25.71 25.71 0 0 1 3-8.09 25.17 25.17 0 0 1 1.55-2.35c.16.52.29 1 .41 1.49a51.24 51.24 0 0 1 1.29 7.27 125.47 125.47 0 0 1 .43 14.67c-.03 2.86-.78 9.37-3.98 4.54zm9.91-19.54c-1.17-.43.25-1.69 2-1.81a8.21 8.21 0 0 1 -2 1.81z"/><path d="m133.93 338.9a46.34 46.34 0 0 1 -3.22 9.16 6.24 6.24 0 0 1 -2.12 2.83 3.74 3.74 0 0 1 -3.15.24c-2.47-.89-3.46-3.35-3.79-5.77a50.59 50.59 0 0 1 -.33-8.7c0-.08 0-.16 0-.24a18 18 0 0 1 -2.13 5.09 6.16 6.16 0 0 1 -2.37 2.43 2.45 2.45 0 0 1 -2.9-.75 8.72 8.72 0 0 1 -1.54-3.11 18.63 18.63 0 0 1 -.75-3.71 45.23 45.23 0 0 1 0-7.72 2.25 2.25 0 0 1 2.2-1.52 2.94 2.94 0 0 1 2.37 1.83 7 7 0 0 1 .24 3.82 15.29 15.29 0 0 0 -.08 4.58c2.27 13.64 4.32-14.17 9.56-10.59 1.41 1 1.65 2.82 1.39 4.38-.18 1.05-.55 2.07-.83 3.09a31.8 31.8 0 0 0 -.69 3.19 18.25 18.25 0 0 0 0 6.59c.31 1.45 2.7 6.06 4.46 2a45.35 45.35 0 0 0 2.46-7.44c.2-.81 1.41-.47 1.22.32z"/><path d="m175.1 329.82a.64.64 0 0 0 -.86-.23 20.27 20.27 0 0 0 -3 1.65 6.1 6.1 0 0 0 -.78-2.35 3.34 3.34 0 0 0 -4.38-1 7.65 7.65 0 0 0 -3.68 4.4c-.1.25-.19.51-.27.76 0-1.36.17-2.71.34-4.06a50.24 50.24 0 0 0 6.87-8.05 48.61 48.61 0 0 0 3.19-5.32c.49-.94.94-1.9 1.37-2.87 3.6-8.27-7.9-8.89-13.22 3.26a24.45 24.45 0 0 0 -1.51 4.74c-.35 1.75-.52 3.53-.7 5.31-.17 1.61-.32 3.24-.38 4.87l-5.21 3.6-1.9 1.3c0-.37-.06-.74-.1-1.11a21.13 21.13 0 0 0 -.75-3.6 6.11 6.11 0 0 0 -1.47-2.84c-2.59-2.4-6.93 1.13-8.47 7.09-.06-2.4-.11-4.8-.09-7.21 0-.28 0-.56 0-.84a35.17 35.17 0 0 0 7.87-10c.54-1 1-2.11 1.47-3.2 3.77-9.39-3.75-11.68-9.54-4.35a21.75 21.75 0 0 0 -4.06 9.4 57.85 57.85 0 0 0 -.86 10.44l-.86.53c-.47.28-.94.54-1.42.79-.72.38-.08 1.47.64 1.09.55-.29 1.09-.6 1.63-.92a41.33 41.33 0 0 0 1.35 11.78c.45 1.54 1.2 3.51 2.87 4.07a1.4 1.4 0 0 0 1.81-.76 3.08 3.08 0 0 0 -.11-1.95c-1.28-16.3 6.2-15.16 6.57-6.11v.5c-.2.19-.39.39-.58.59-6.71 7.25.39 17.43 3.61 2.74a21.54 21.54 0 0 0 .51-4.6c.8-.57 1.62-1.12 2.43-1.67l4.62-3.2a25.85 25.85 0 0 0 .36 4.31c.23 1.37.52 3.67 2.18 4.06a1.4 1.4 0 0 0 1.58-.63c.65-1.16-.6-1 1-6.48 2.1-6.94 4-2.28 4.16-1.34a11.48 11.48 0 0 1 .18 1.94 23.73 23.73 0 0 0 -1.66 1.95c-5.13 6.85 0 10.23 3 5.7a14 14 0 0 0 1.3-2.45 15.34 15.34 0 0 0 1.18-5.39q0-.72 0-1.44a19.62 19.62 0 0 1 3.52-2 .63.63 0 0 0 .25-.9zm-12.1-4.88c.37-2.17.74-4.36 1.23-6.51a20.33 20.33 0 0 1 2.06-5.66c3.08-5.28 8.93-6.46 6.5-.83-.37.87-.77 1.72-1.19 2.56a50.77 50.77 0 0 1 -2.9 5 48.67 48.67 0 0 1 -6 7.4c.11-.65.22-1.3.3-1.96zm-21-11.14c3.84-11.43 10.22-8.06 5.23 2.08a34.9 34.9 0 0 1 -3.44 5.55 32.47 32.47 0 0 1 -3.67 4.1 41.63 41.63 0 0 1 1.88-11.73zm4.9 28.59a16.37 16.37 0 0 1 -.76 2.13c-1.66 3.69-.93-1.41 1.15-3.94a14.24 14.24 0 0 1 -.39 1.81zm18.72-3.46a20.43 20.43 0 0 1 1.28-1.93c.16-.23.34-.45.52-.67-.77 6.38-4.18 6.79-1.8 2.6z"/><path d="m206 331.87a36.36 36.36 0 0 1 -4.18 6.36c-4.36 5-9.1 2.68-9.46-1.74a8.17 8.17 0 0 1 0-1.21l.21-.52a3.86 3.86 0 0 0 2.94-1.59c3.06-3.7-.56-5.85-3-5a5.81 5.81 0 0 0 -3.4 3.52 10 10 0 0 0 -.05 7.75 44.52 44.52 0 0 1 -3.29 5.15c-4.36 5.87-5.83 1.1-6-2.27-.11-2.09 0-4.21 0-6.3s.18-4.35.33-6.53q.47-6.43 1.46-12.82c2.21-14.23 3.48-14.35 2.93-15.61a1.21 1.21 0 0 0 -1.41-.7 3.1 3.1 0 0 0 -1.68 1.43 23.38 23.38 0 0 0 -2.91 7.68c-.47 2-.89 4.06-1.29 6.1-.82 4-1.61 8.11-2.11 12.22a43.52 43.52 0 0 0 0 12.17c1.37 8.57 7.41 10.37 10.61 6.7a35.08 35.08 0 0 0 3.9-5.68 3.72 3.72 0 0 0 .19-.34 5.78 5.78 0 0 0 .91.87c2.52 1.92 8.17.86 10.26-.7a15.14 15.14 0 0 0 3.24-3.58c1-1.51 2-3.08 2.89-4.68.37-.75-.72-1.39-1.09-.68zm-11-.18c-.48.78-1.4 1.88-2.41 1.79.06-.29.13-.58.2-.87 1.21-4.77 3.41-2.86 2.21-.92z"/><path d="m99.63 322.45a5.94 5.94 0 0 0 -5.4-1.91c-.29 0-.16.49.12.44a5.5 5.5 0 0 1 5 1.79c.15.23.48-.1.28-.32z"/><path d="m101.68 325.81a5.7 5.7 0 0 0 -.7-1.69c-.16-.25-.55 0-.39.23a5.22 5.22 0 0 1 .65 1.58c.07.28.51.16.44-.12z"/><path d="m103.55 333.61c-.21-.2-.53.12-.32.32a10.62 10.62 0 0 1 3.29 9.28c0 .28.4.41.44.12a11.07 11.07 0 0 0 -3.41-9.72z"/><path d="m106.43 345.54a17.36 17.36 0 0 1 -1 3c-.12.27.27.5.39.23a17.82 17.82 0 0 0 1-3.09c.12-.3-.32-.43-.39-.14z"/><path d="m91.23 327.74c-.53-2.67-1.52-5.39-3.82-7-.23-.17-.46.23-.23.4 2.2 1.57 3.1 4.22 3.61 6.76.06.25.5.1.44-.16z"/><path d="m92.33 335.3a.23.23 0 0 0 -.44.12 35.2 35.2 0 0 1 -1 20.37c-.1.27.34.39.44.12a35.59 35.59 0 0 0 1-20.61z"/><path d="m112.74 329.62a28.43 28.43 0 0 0 0 5.76c0 .29.49.29.46 0a27.72 27.72 0 0 1 0-5.76c.03-.3-.43-.29-.46 0z"/><path d="m115 341.06a4.67 4.67 0 0 1 -1.2-2.2c-.07-.28-.51-.16-.44.12a5.28 5.28 0 0 0 1.31 2.41c.23.21.55-.11.33-.33z"/><path d="m126 328.59a1.26 1.26 0 0 0 -1.87-.71c-.24.18 0 .57.23.4 1.14-.85 1.39 1.19 1.38 1.87a8 8 0 0 1 -.42 2.33c-.09.28.35.4.44.12a6.34 6.34 0 0 0 .24-4.01z"/><path d="m125.1 335.24a12.63 12.63 0 0 0 -.42 6c0 .29.48.17.44-.12a12 12 0 0 1 .42-5.74c.09-.3-.35-.38-.44-.14z"/><path d="m144 306.51a19.29 19.29 0 0 0 -6.6 12.28c0 .29.42.29.46 0a18.82 18.82 0 0 1 6.46-12c.19-.15-.14-.47-.32-.28z"/><path d="m137.21 321.06a32.63 32.63 0 0 0 -1.06 6.13c0 .29.44.29.46 0a31.37 31.37 0 0 1 1-6 .23.23 0 0 0 -.4-.13z"/><path d="m147.36 328.55c-.24-.16-.47.23-.23.39 2.05 1.38 2.18 4 2.23 6.25 0 .29.46.3.45 0-.05-2.42-.25-5.19-2.45-6.64z"/><path d="m150.12 338.62c0-.29-.47-.29-.46 0a11.81 11.81 0 0 1 -.88 5c-.11.27.33.39.44.12a12.4 12.4 0 0 0 .9-5.12z"/><path d="m169.06 307.46a20 20 0 0 0 -8.21 11.47.23.23 0 0 0 .44.13 19.55 19.55 0 0 1 8-11.21c.24-.16.02-.55-.23-.39z"/><path d="m160 324a36.67 36.67 0 0 0 -.35 5.64.23.23 0 0 0 .45 0 37.49 37.49 0 0 1 .34-5.51c.07-.3-.37-.42-.44-.13z"/><path d="m169.25 329.43c-.17-.23-.57 0-.4.23a8.37 8.37 0 0 1 1.3 7.09.23.23 0 0 0 .44.12 8.83 8.83 0 0 0 -1.34-7.44z"/><path d="m169 338.89a7.65 7.65 0 0 1 -.93 2.25c-.16.25.24.48.39.23a8 8 0 0 0 1-2.36.23.23 0 0 0 -.46-.12z"/><path d="m181.15 304.29a48.4 48.4 0 0 0 -3.46 14.31c0 .29.43.29.45 0a48.23 48.23 0 0 1 3.44-14.19c.12-.27-.32-.41-.43-.12z"/><path d="m177.36 323a25.06 25.06 0 0 0 -.41 3.1c0 .29.43.29.45 0a23.17 23.17 0 0 1 .4-3c.06-.27-.38-.39-.44-.1z"/><path d="m177.43 342.61c-.18-.77-.37-1.54-.56-2.31a.23.23 0 0 0 -.44.12l.56 2.31a.23.23 0 0 0 .44-.12z"/><path d="m193.71 328.48a3.85 3.85 0 0 0 -2.3 1.86 14.32 14.32 0 0 0 -1.73 3.37c-.1.28.34.4.44.13a13.63 13.63 0 0 1 1.4-2.84c.55-.86 1.23-1.89 2.31-2.08.29-.05.17-.49-.12-.44z"/><path d="m190.7 339.48a4.61 4.61 0 0 1 -1-2.11c-.05-.28-.49-.16-.44.12a5 5 0 0 0 1.13 2.31c.18.2.5-.1.31-.32z"/><path d="m91.1 323.05a2.21 2.21 0 0 0 -.21-.5 2.89 2.89 0 0 1 -.25-.77.17.17 0 0 0 -.23-.09l-.41.31a.24.24 0 0 0 -.21.16.15.15 0 0 0 0 .17 3.93 3.93 0 0 1 .59 1.26.23.23 0 0 0 .43 0 .43.43 0 0 0 .29-.54z"/><path d="m100.62 334a1.47 1.47 0 0 1 -1.37.29l-2.61-.33c-.12 0-.22-.16-.11-.26l.33-.3a.23.23 0 0 1 .22-.26 6.3 6.3 0 0 1 3.2.55.14.14 0 0 1 .11.11c.16-.18.38.03.23.2z"/><path d="m102.23 331.19a15.43 15.43 0 0 0 -3.78-.9c-.2 0-.2.28 0 .3a15.25 15.25 0 0 1 3.7.89c.18.07.26-.23.08-.29z"/><path d="m86.54 325.27c-.11-.16-.37 0-.26.15a2.11 2.11 0 0 1 .38 1c0 .19.33.2.31 0a2.48 2.48 0 0 0 -.43-1.15z"/><path d="m135.09 329.68c0-.19-.27-.27-.3-.08-.52.18-.32 1-.29 1.41a.16.16 0 0 0 .16.15.27.27 0 0 0 .21-.05l.06-.06a.13.13 0 0 0 .13-.15 5.23 5.23 0 0 1 .03-1.22z"/><path d="m140 325.55-.11 1.44c0 .19.29.19.3 0l.11-1.44c.06-.2-.24-.2-.3 0z"/><path d="m147.25 338.68v.06a.62.62 0 0 0 -.29.56v1.54c0 .2.28.19.3 0a.25.25 0 0 0 0-.08.12.12 0 0 0 .1-.11 13 13 0 0 0 .21-2 .15.15 0 1 0 -.32.03z"/><path d="m150.89 335.87v1.29a.16.16 0 0 0 .31 0v-1.29a.15.15 0 1 0 -.31 0z"/><path d="m157.94 331.15a.16.16 0 0 0 -.22-.18.13.13 0 0 0 -.1.14.36.36 0 0 1 -.09.08.19.19 0 0 0 -.1.08.58.58 0 0 0 -.14.12.82.82 0 0 0 -.14.48 1.48 1.48 0 0 0 .16.58.49.49 0 0 0 .35.33c.12.05.2-.07.17-.18a.13.13 0 0 0 .19-.13z"/><path d="m162.88 327c-.06-.12-.25-.14-.28 0a10.45 10.45 0 0 0 -.09 1.77.15.15 0 0 0 .3 0c.05-.55.1-1.1.14-1.65a.12.12 0 0 0 -.07-.12z"/><path d="m167.43 334.5a.9.9 0 0 0 -.38.65 13.19 13.19 0 0 0 -.06 1.41.16.16 0 0 0 .3 0 .16.16 0 0 0 .25-.11l.16-1.91c.02-.12-.18-.14-.27-.04z"/><path d="m171.77 332.34c-.08-.35-.15-.71-.23-1.06 0-.19-.33-.11-.29.08.07.35.15.71.23 1.06.04.19.33.11.29-.08z"/><path d="m189.69 340.76a3.14 3.14 0 0 1 -.56-1.28c0-.19-.32-.11-.29.08a3.16 3.16 0 0 0 .59 1.35c.11.16.38.01.26-.15z"/><path d="m192.84 333.63c0-.18-.26-.25-.29-.07l-.23 1.22c0 .19.25.27.29.08v-.15a.15.15 0 0 0 .29 0l.2-1c.07-.18-.21-.26-.26-.08z"/><path d="m246.16 84.81-19.39-16.76c-1.45-1.25-3.58.86-2.12 2.12l19.35 16.76c1.49 1.25 3.63-.86 2.16-2.12z"/></g></svg>